<?xml version="1.0" encoding="utf-8"?>
<!-- Generator: Adobe Illustrator 21.1.0, SVG Export Plug-In . SVG Version: 6.00 Build 0)  -->
<svg version="1.1" xmlns="http://www.w3.org/2000/svg" xmlns:xlink="http://www.w3.org/1999/xlink" x="0px" y="0px"
	 viewBox="0 0 500 422.4" style="enable-background:new 0 0 500 422.4;" xml:space="preserve">
<style type="text/css">
	.st0{fill:url(#SVGID_1_);}
	.st1{fill:url(#SVGID_2_);}
	.st2{fill:url(#SVGID_3_);}
	.st3{fill:url(#SVGID_4_);}
	.st4{fill:url(#SVGID_5_);}
	.st5{fill:url(#SVGID_6_);}
	.st6{fill:url(#SVGID_7_);}
	.st7{fill:url(#SVGID_8_);}
</style>
<g id="Layer_1">
</g>
<g id="Layer_2">
	<g>
		<linearGradient id="SVGID_1_" gradientUnits="userSpaceOnUse" x1="96.9536" y1="87.5337" x2="411.5009" y2="380.8538">
			<stop  offset="8.527380e-02" style="stop-color:#4432F6"/>
			<stop  offset="0.7534" style="stop-color:#2394B1"/>
			<stop  offset="1" style="stop-color:#4AADAF"/>
		</linearGradient>
		<path class="st0" d="M166.3,58C27.7,84,32.2,246.8,32.2,246.8c2.3,138.9,207.9,163,254.5,155.6c46.6-7.4,193.2-11.1,193.2-155.6
			C479.9,246.8,475.4,19.4,166.3,58z"/>
		<g>
			<g>
				<g>
					
						<linearGradient id="SVGID_2_" gradientUnits="userSpaceOnUse" x1="-1318.0399" y1="1136.4948" x2="-1310.8341" y2="1136.4948" gradientTransform="matrix(0.7071 0.7071 -0.7071 0.7071 1793.5229 148.3647)">
						<stop  offset="0" style="stop-color:#27ECB8"/>
						<stop  offset="1" style="stop-color:#A2D4CC"/>
					</linearGradient>
					<path class="st1" d="M57.8,25.2c3.4,3.4,8.7-1.9,5.3-5.3C59.7,16.5,54.4,21.8,57.8,25.2L57.8,25.2z"/>
				</g>
			</g>
			<g>
				<g>
					
						<linearGradient id="SVGID_3_" gradientUnits="userSpaceOnUse" x1="-1171.6737" y1="1121.3114" x2="-1160.2169" y2="1121.3114" gradientTransform="matrix(0.7071 0.7071 -0.7071 0.7071 1793.5229 148.3647)">
						<stop  offset="0" style="stop-color:#27ECB8"/>
						<stop  offset="1" style="stop-color:#A2D4CC"/>
					</linearGradient>
					<path class="st2" d="M172,121c5.4,5.4,13.8-3,8.4-8.4C175,107.2,166.6,115.6,172,121L172,121z"/>
				</g>
			</g>
			<g>
				<g>
					
						<linearGradient id="SVGID_4_" gradientUnits="userSpaceOnUse" x1="-1159.988" y1="1142.8944" x2="-1154.2595" y2="1142.8944" gradientTransform="matrix(0.7071 0.7071 -0.7071 0.7071 1793.5229 148.3647)">
						<stop  offset="0" style="stop-color:#27ECB8"/>
						<stop  offset="1" style="stop-color:#A2D4CC"/>
					</linearGradient>
					<path class="st3" d="M165.1,140.4c2.7,2.7,6.9-1.5,4.2-4.2C166.6,133.5,162.4,137.7,165.1,140.4L165.1,140.4z"/>
				</g>
			</g>
			<g>
				<g>
					
						<linearGradient id="SVGID_5_" gradientUnits="userSpaceOnUse" x1="-1029.4746" y1="923.1948" x2="-1024.6873" y2="923.1948" gradientTransform="matrix(0.7071 0.7071 -0.7071 0.7071 1793.5229 148.3647)">
						<stop  offset="0" style="stop-color:#27ECB8"/>
						<stop  offset="1" style="stop-color:#A2D4CC"/>
					</linearGradient>
					<path class="st4" d="M412.7,76.7c2.3,2.3,5.8-1.2,3.5-3.5C414,70.9,410.5,74.4,412.7,76.7L412.7,76.7z"/>
				</g>
			</g>
			<g>
				<g>
					
						<linearGradient id="SVGID_6_" gradientUnits="userSpaceOnUse" x1="-1137.9076" y1="1376.2826" x2="-1096.3928" y2="1376.2826" gradientTransform="matrix(0.7071 0.7071 -0.7071 0.7071 1793.5229 148.3647)">
						<stop  offset="0" style="stop-color:#27ECB8"/>
						<stop  offset="1" style="stop-color:#A2D4CC"/>
					</linearGradient>
					<path class="st5" d="M15.2,346.8c19.6,19.6,49.9-10.8,30.3-30.3C26,296.9-4.3,327.2,15.2,346.8L15.2,346.8z"/>
				</g>
			</g>
			<g>
				
					<linearGradient id="SVGID_7_" gradientUnits="userSpaceOnUse" x1="-1061.8033" y1="1377.0675" x2="-1049.0792" y2="1377.0675" gradientTransform="matrix(0.7071 0.7071 -0.7071 0.7071 1793.5229 148.3647)">
					<stop  offset="8.527380e-02" style="stop-color:#4432F6"/>
					<stop  offset="0.7534" style="stop-color:#2394B1"/>
				</linearGradient>
				<path class="st6" d="M68.8,380.4c6,6,15.3-3.3,9.3-9.3C72.1,365.1,62.8,374.4,68.8,380.4L68.8,380.4z"/>
			</g>
			<g>
				
					<linearGradient id="SVGID_8_" gradientUnits="userSpaceOnUse" x1="-776.6669" y1="1075.0105" x2="-766.5848" y2="1075.0105" gradientTransform="matrix(0.7071 0.7071 -0.7071 0.7071 1793.5229 148.3647)">
					<stop  offset="8.527380e-02" style="stop-color:#4432F6"/>
					<stop  offset="0.7534" style="stop-color:#2394B1"/>
				</linearGradient>
				<path class="st7" d="M484.1,366.6c4.8,4.8,12.1-2.6,7.4-7.4C486.7,354.5,479.3,361.8,484.1,366.6L484.1,366.6z"/>
			</g>
		</g>
	</g>
</g>
</svg>
