<?xml version="1.0" encoding="utf-8"?>
<!-- Generator: Adobe Illustrator 21.1.0, SVG Export Plug-In . SVG Version: 6.00 Build 0)  -->
<svg version="1.1" xmlns="http://www.w3.org/2000/svg" xmlns:xlink="http://www.w3.org/1999/xlink" x="0px" y="0px"
	 viewBox="0 0 500 194.7" style="enable-background:new 0 0 500 194.7;" xml:space="preserve">
<style type="text/css">
	.st0{fill:url(#SVGID_1_);}
	.st1{fill:#FA969E;}
	.st2{fill:url(#SVGID_2_);}
	.st3{fill:url(#SVGID_3_);}
	.st4{fill:url(#SVGID_4_);}
</style>
<g id="Layer_1">
</g>
<g id="Layer_2">
	<g>
		<linearGradient id="SVGID_1_" gradientUnits="userSpaceOnUse" x1="148.1018" y1="41.8687" x2="263.9421" y2="157.709">
			<stop  offset="8.527380e-02" style="stop-color:#4432F6"/>
			<stop  offset="0.7534" style="stop-color:#2394B1"/>
			<stop  offset="1" style="stop-color:#4AADAF"/>
		</linearGradient>
		<path class="st0" d="M175.7,25.1c-48.4,11.2-46.8,81-46.8,81c0.8,59.6,72.6,69.9,88.9,66.7c16.3-3.2,67.5-4.8,67.5-66.7
			C285.2,106,283.6,8.5,175.7,25.1z"/>
		<path class="st1" d="M383.9,81.6c6.2-28.5,33.2-34.4,55.7-33c22.5,1.5,58.8,29,50.8,65.1c-8,36.1-40.1,33.4-60.6,32.5
			C409.3,145.3,377.7,110.1,383.9,81.6z"/>
	</g>
	<g>
		<g>
			<g>
				<linearGradient id="SVGID_2_" gradientUnits="userSpaceOnUse" x1="362.7905" y1="179.4174" x2="367.2938" y2="179.4174">
					<stop  offset="0" style="stop-color:#27ECB8"/>
					<stop  offset="1" style="stop-color:#A2D4CC"/>
				</linearGradient>
				<path class="st2" d="M365,181.7c3,0,3-4.7,0-4.7S362,181.7,365,181.7L365,181.7z"/>
			</g>
		</g>
		<g>
			<g>
				<linearGradient id="SVGID_3_" gradientUnits="userSpaceOnUse" x1="288.1707" y1="17.2467" x2="302.6858" y2="17.2467">
					<stop  offset="0" style="stop-color:#27ECB8"/>
					<stop  offset="1" style="stop-color:#A2D4CC"/>
				</linearGradient>
				<path class="st3" d="M295.4,24.7c9.7,0,9.7-15,0-15C285.8,9.7,285.8,24.7,295.4,24.7L295.4,24.7z"/>
			</g>
		</g>
	</g>
	<path d="M285.4,138.6c2.4-22.7-24.1-38.6-24.1-38.6l2.3-3.4l8.7,3.3c0,0.1,0.1,0.1,0.1,0.2c0.3,0.5,0.9,0.6,1.4,0.3
		c0.1-0.1,0.2-0.2,0.3-0.3l13.8-4.7c0.2,0.1,0.4,0.1,0.6,0l21.3,8.8c2.3,0.2,3.4,3.2,3.4,3.2c0-3.3-2.7-4-2.7-4l-21.4-9.4
		c0-0.1-0.1-0.1-0.1-0.2c-0.3-0.5-0.9-0.6-1.4-0.3c-0.2,0.2-0.4,0.4-0.4,0.7l-13.8,4.3c-0.2,0-0.5,0-0.7,0.1l-8.3-3
		c2.4-2.3,1.3-4.3,1.3-4.3l3.8-1.9c4-0.3,2.3-4.1,2.3-4.1c8-5.6,12-9,12-9s-4.8,2.4-13,7.6c0,0-2.9-3.1-4.7,0.5l-3.2,2.8
		c0,0-1.4-1.8-4.4-0.5l0.4-8.8c0.2-0.2,0.4-0.4,0.4-0.6l9.3-11.1c0.3,0.1,0.5,0,0.8-0.1c0.5-0.3,0.6-0.9,0.3-1.4
		c0-0.1-0.1-0.1-0.1-0.1l-0.5-23.4c0,0,0.4-2.8-2.7-4c0,0,2.4,2.2,1.6,4.4l0,23c-0.1,0.2-0.2,0.4-0.2,0.6l-9.7,11
		c-0.1,0-0.3,0.1-0.4,0.2c-0.5,0.3-0.6,0.9-0.3,1.4c0,0.1,0.1,0.1,0.1,0.2l-0.3,9.3l-4.1,0.8c0,0-4.5-30.6-26.4-37.1
		c0,0-9.1,11.6,5.3,27.4c0,0,0.2,1.1,0.7,2.6l-7.5,1.7c-0.3-0.2-0.6-0.3-1-0.2l-13.3-6.1c0-0.1-0.1-0.2-0.1-0.4
		c-0.3-0.5-1-0.6-1.5-0.2c-0.1,0.1-0.2,0.2-0.3,0.3l-22.1,6.5c0,0-2.8,0.3-3.1,3.6c0,0,1.5-2.9,3.8-2.7l21.8-5.9
		c0.3,0.1,0.7,0.1,1.1-0.1l13.1,6.4c0,0.1,0.1,0.1,0.1,0.2c0.3,0.5,1,0.6,1.5,0.2c0.1-0.1,0.2-0.2,0.3-0.3l7.8-1.9
		c1,2.7,2.9,6.2,6.1,8.6l-5.6,4.8l-21.7,1.3c-0.3-0.4-1-0.5-1.5-0.2c-0.3,0.2-0.5,0.6-0.5,0.9L187.1,120c0,0-3.2,2.2-1.5,6.5
		c0,0-0.1-4.5,2.9-5.9l23.7-22.2l21.8-0.7l7-6.2c1.9,1,4.1,1.7,6.8,1.7c0,0-2.2,0.8-2.9,3.4c0,0-12.9,7.2-14.8,13.9l-4.1,4.3
		l5.6-2.1c7,0.8,18.6-8.4,18.6-8.4c2.7,0.3,4.3-1.3,4.3-1.3c-1,2.5-1.3,4.8-1,6.9l-8.4,4.1l-9.1,19.9l-29.6,13.3
		c-2.4,2.2-6.5,0.4-6.5,0.4c3.3,3.2,6.6,1.1,6.6,1.1l29.8-12.6c0.3,0.1,0.7,0.1,1-0.1c0.5-0.3,0.7-1,0.4-1.4L247,115l6.5-3.3
		c1,3.9,3.5,7,5.6,8.9l-4.7,6.5c-0.1,0-0.3,0.1-0.4,0.2c-0.5,0.3-0.7,1-0.4,1.5c0,0.1,0.1,0.1,0.1,0.2l0.9,14.5
		c-0.3,0.2-0.5,0.6-0.5,0.9l-13.8,17.8c-0.8,2.2-4,2.5-4,2.5c3.2,0.9,4.6-1.5,4.6-1.5l14.5-17.9c0.1,0,0.3-0.1,0.4-0.2
		c0.5-0.3,0.7-1,0.4-1.5c-0.1-0.1-0.2-0.2-0.3-0.3l-0.5-14.6c0.2-0.3,0.3-0.7,0.2-1l4.4-6.2c1.2,1.1,2.1,1.7,2.1,1.7
		C271.2,142.5,285.4,138.6,285.4,138.6z"/>
	<g>
		<path d="M213.2,124l-0.9-1.3c4.8-3.3,7.4-5.5,7.4-5.5l1,1.2C220.6,118.5,218,120.7,213.2,124z"/>
		<path d="M111.8,154.7c-1,0-2.1,0-3.1,0l0-1.6c6.1,0.1,12.2-0.1,18.2-0.6l0.1,1.5C122,154.5,116.9,154.7,111.8,154.7z M90.3,153.4
			c-6-0.7-12.1-1.7-18.2-3l0.3-1.5c6,1.3,12,2.3,18,3L90.3,153.4z M145.4,151.6l-0.3-1.5c5.9-1.1,11.9-2.5,17.8-4.2l0.4,1.5
			C157.4,149,151.4,150.5,145.4,151.6z M54.4,145.8c-5.8-1.8-11.6-3.8-17.3-6.2l0.6-1.4c5.7,2.3,11.5,4.3,17.2,6.1L54.4,145.8z
			 M180.7,141.2l-0.6-1.4c5.7-2.3,11.2-4.9,16.6-7.7l0.7,1.4C192,136.3,186.4,138.9,180.7,141.2z"/>
		<path d="M20.2,132.1c-2.8-1.4-5.6-2.8-8.3-4.3l0.7-1.4c2.7,1.5,5.5,2.9,8.3,4.3L20.2,132.1z"/>
	</g>
	<linearGradient id="SVGID_4_" gradientUnits="userSpaceOnUse" x1="436.5051" y1="186.14" x2="436.5051" y2="77.5114">
		<stop  offset="0.4278" style="stop-color:#4432F6"/>
		<stop  offset="1" style="stop-color:#2394B1"/>
	</linearGradient>
	<path class="st4" d="M459.1,184.4c0-0.2,0-0.4-0.2-0.7c-0.1-0.4-0.4-0.8-0.9-1c-1-0.5-6.1-2.4-7.6-2.9c-0.1-3.7-0.7-30.6-1.5-39.3
		c-0.5-5.3-1.1-8.6-1.5-10.5c0,0,0,0,0,0l-0.6-14.9l3.2,15.9c0.1,0.3,0.3,0.5,0.6,0.5c0,0,0.1,0,0.1,0l0.7-0.1c-0.2,1-0.2,2.4,0,3.7
		c0.5,2.7,1.5,4.3,2.9,4.2c0.5,0,1-0.4,1.5-1.1c1-1.3,1.8-3.8,1.5-5.2c-0.2-1-0.7-1.9-1.2-2.5l0.7-0.1c0.3-0.1,0.5-0.4,0.5-0.7
		c0-0.2-3.5-22.9-3.8-24.9c-0.3-2-0.7-3.2-1.1-4.2c-2.2-5.6-6.7-6.2-6.9-6.2l-5.2-1l-0.2-2.1c1-1,1.5-2.3,1.5-3.7v-4.6
		c0-2.9-2.4-5.3-5.3-5.3c-2.9,0-5.3,2.4-5.3,5.3v4.6c0,1.5,0.6,2.8,1.5,3.7l-0.2,2.1l-5.3,1c-0.2,0-4.7,0.6-6.9,6.2
		c-0.4,0.9-0.8,2.1-1.1,4.1c-0.3,2-3.8,24.7-3.8,24.9c-0.1,0.3,0.2,0.6,0.5,0.7l0.8,0.2c-0.4,0.6-0.9,1.5-1.2,2.5
		c-0.3,1.4,0.5,3.9,1.5,5.2c0.5,0.7,1,1.1,1.5,1.1c0,0,0.1,0,0.1,0c1.3,0,2.4-1.6,2.8-4.2c0.2-1.3,0.2-2.7,0-3.7l0.6,0.1
		c0.3,0.1,0.7-0.2,0.7-0.5l2.5-12.2c0-0.1,0.1-0.3,0.1-0.4l0.7-3.4l-0.6,14.8c-0.4,1.9-1,5.3-1.5,10.7c-0.9,8.6-1.5,35.7-1.5,39.3
		c-1.6,0.6-6.5,2.4-7.5,2.9c-0.5,0.2-0.8,0.6-0.9,1c-0.1,0.3-0.2,0.6-0.2,0.7c0,0.4,0.1,0.9,0.5,1.3c0.3,0.3,0.6,0.5,0.9,0.5h14.3
		c0.3,0,0.6-0.3,0.6-0.6v-4.8c0.2-0.1,0.3-0.3,0.4-0.5l5.1-31.6c0.3-1.4,0.5-2.9,0.7-4.2l5.8,35.9c0,0.2,0.2,0.4,0.5,0.5v4.8
		c0,0.3,0.3,0.6,0.6,0.6h14.3c0.4,0,0.7-0.2,0.9-0.5C459,185.3,459.1,184.8,459.1,184.4z M420.2,131c0.1,0.3,0.4,2,0.1,3.7
		c-0.3,2.1-1.1,3.2-1.6,3.2c-0.1,0-0.3-0.1-0.6-0.6c-0.8-1.2-1.5-3.3-1.2-4.2c0.3-1.1,0.9-2,1.3-2.5L420.2,131
		C420.2,131,420.2,131,420.2,131z M416.8,129.1c0.6-3.7,3.5-22.5,3.7-24.3c0.3-1.9,0.7-3,1-3.9c1.9-4.9,5.7-5.4,5.9-5.4l5-1l3.4,4.2
		c0.1,0.2,0.4,0.3,0.6,0.2c0.2,0,0.4,0,0.6-0.2l3.4-4.2l5.1,1c0,0,4,0.5,5.9,5.4c0.3,0.9,0.8,2,1,3.9c0.2,1.8,3.2,20.7,3.7,24.3
		l-5,1l-4.6-23c-0.1-0.3-0.4-0.5-0.7-0.5c-0.3,0-0.6,0.3-0.5,0.6l0.8,20.1h-19.2l0.8-20.1c0-0.3-0.2-0.6-0.5-0.6
		c-0.3,0-0.6,0.2-0.7,0.5l-4.6,23L416.8,129.1z M433.9,92c0.8,0.4,1.6,0.7,2.6,0.7c0.9,0,1.8-0.3,2.6-0.7l0.2,1.9c0,0,0,0,0,0
		l-2.8,3.5l-2.8-3.4c0,0,0-0.1,0-0.1L433.9,92z M432.5,82.8c0-2.2,1.8-4,4-4c2.2,0,4,1.8,4,4v4.6c0,2.2-1.8,4-4,4c-2.2,0-4-1.8-4-4
		V82.8z M455,137.3c-0.3,0.5-0.6,0.6-0.6,0.6c-0.6,0-1.2-1.1-1.6-3.2c-0.3-1.7,0-3.4,0.1-3.7c0,0,0-0.1,0-0.1l2.1-0.4
		c0.4,0.5,1.1,1.5,1.3,2.5C456.4,134.1,455.8,136.1,455,137.3z M429.1,184.9l-13.6,0c-0.1,0-0.2-0.3-0.2-0.6c0-0.3,0.1-0.5,0.3-0.6
		c0.9-0.4,5.4-2.1,7.8-3l5.7,0V184.9z M443.9,180.7l5.7,0c2.4,0.9,6.9,2.6,7.8,3c0.2,0.1,0.3,0.3,0.3,0.6c0,0.3-0.1,0.5-0.2,0.6
		h-13.6V180.7z"/>
	<path d="M289.1,73.4l-1.2-1c0.1-0.1,5.2-6,14.2-12.4l0.9,1.3C294.2,67.5,289.1,73.3,289.1,73.4z M404.4,69.5
		c-4.9-4.2-9.9-7.8-14.9-10.9l0.8-1.3c5.1,3.1,10.1,6.8,15.1,11L404.4,69.5z M319,52.2l-0.6-1.4c5.9-2.5,11.9-4.3,18-5.3l0.3,1.5
		C330.7,47.9,324.8,49.7,319,52.2z M372.9,50.5C367,48.4,361,47,355,46.4l0.2-1.5c6.1,0.6,12.2,2,18.3,4.2L372.9,50.5z"/>
</g>
</svg>
