<?xml version="1.0" encoding="utf-8"?>
<!-- Generator: Adobe Illustrator 21.1.0, SVG Export Plug-In . SVG Version: 6.00 Build 0)  -->
<svg version="1.1" id="Layer_1" xmlns="http://www.w3.org/2000/svg" xmlns:xlink="http://www.w3.org/1999/xlink" x="0px" y="0px"
	 viewBox="0 0 500 500" style="enable-background:new 0 0 500 500;" xml:space="preserve">
<style type="text/css">
	.st0{fill:url(#SVGID_1_);}
	.st1{fill:#FA969E;}
	.st2{fill:url(#SVGID_2_);}
	.st3{fill:url(#SVGID_3_);}
	.st4{fill:url(#SVGID_4_);}
	.st5{fill:url(#SVGID_5_);}
	.st6{fill:#FFFFFF;}
	.st7{opacity:0.5;}
	.st8{clip-path:url(#SVGID_7_);}
	.st9{fill:#BCBCBC;}
	.st10{fill:#A3A3A3;}
	.st11{fill:#727271;}
	.st12{fill:#A5A5A2;}
	.st13{fill:#828282;}
	.st14{fill:#4F4F4F;}
	.st15{fill:#FFB411;}
	.st16{fill:#46B49F;}
	.st17{opacity:0.3;fill:#110D13;}
	.st18{fill:#F70840;}
	.st19{fill:#D8E2E4;}
	.st20{fill:#95BAC2;}
	.st21{fill:#260000;}
	.st22{fill:#B8C0C2;}
	.st23{fill:#080807;}
	.st24{fill:#363634;}
	.st25{fill:#262625;}
	.st26{fill:#30302F;}
	.st27{fill:#FEFFFD;}
	.st28{fill:#D5DBCE;}
	.st29{fill:#FDE776;}
	.st30{fill:#FFD214;}
</style>
<g>
	<linearGradient id="SVGID_1_" gradientUnits="userSpaceOnUse" x1="116.8254" y1="143.9614" x2="419.3902" y2="446.5263">
		<stop  offset="8.527380e-02" style="stop-color:#4432F6"/>
		<stop  offset="0.7534" style="stop-color:#2394B1"/>
		<stop  offset="1" style="stop-color:#4AADAF"/>
	</linearGradient>
	<path class="st0" d="M188.8,100.1C62.4,129.2,66.5,311.5,66.5,311.5C68.6,467.1,256.2,494,298.7,485.7
		c42.5-8.3,176.2-12.4,176.2-174.2C474.9,311.5,470.7,56.8,188.8,100.1z"/>
	<g>
		<g>
			<g>
				<path class="st1" d="M101.5,470.2c-5.4-5.4-13.8,3-8.4,8.4C98.6,484,106.9,475.6,101.5,470.2L101.5,470.2z"/>
			</g>
			<g>
				<path class="st1" d="M94.8,420.7c-13.5-13.5-34.4,7.4-20.9,20.9C87.3,455.1,108.2,434.2,94.8,420.7L94.8,420.7z"/>
			</g>
			<g>
				
					<linearGradient id="SVGID_2_" gradientUnits="userSpaceOnUse" x1="-895.3949" y1="1019.3268" x2="-872.3872" y2="1019.3268" gradientTransform="matrix(-0.7071 -0.7071 0.7071 -0.7071 -930.7817 195.0055)">
					<stop  offset="0" style="stop-color:#27ECB8"/>
					<stop  offset="1" style="stop-color:#A2D4CC"/>
				</linearGradient>
				<path class="st2" d="M423.4,90.8c-10.8-10.8-27.7,6-16.8,16.8C417.4,118.5,434.2,101.7,423.4,90.8L423.4,90.8z"/>
			</g>
			<g>
				<g>
					
						<linearGradient id="SVGID_3_" gradientUnits="userSpaceOnUse" x1="-717.9421" y1="944.4025" x2="-694.9345" y2="944.4025" gradientTransform="matrix(-0.7071 -0.7071 0.7071 -0.7071 -930.7817 195.0055)">
						<stop  offset="8.527380e-02" style="stop-color:#4432F6"/>
						<stop  offset="0.301" style="stop-color:#423BEB"/>
						<stop  offset="0.682" style="stop-color:#3B53CD"/>
						<stop  offset="1" style="stop-color:#356BAF"/>
					</linearGradient>
					<path class="st3" d="M244.9,18.3c-10.8-10.8-27.7,6-16.8,16.8C239,46,255.8,29.2,244.9,18.3L244.9,18.3z"/>
				</g>
			</g>
			<g>
				<g>
					
						<linearGradient id="SVGID_4_" gradientUnits="userSpaceOnUse" x1="-740.02" y1="976.7853" x2="-729.7354" y2="976.7853" gradientTransform="matrix(-0.7071 -0.7071 0.7071 -0.7071 -930.7817 195.0055)">
						<stop  offset="8.527380e-02" style="stop-color:#4432F6"/>
						<stop  offset="0.301" style="stop-color:#423BEB"/>
						<stop  offset="0.682" style="stop-color:#3B53CD"/>
						<stop  offset="1" style="stop-color:#356BAF"/>
					</linearGradient>
					<path class="st4" d="M283.3,20.2c-4.8-4.8-12.4,2.7-7.5,7.5C280.6,32.6,288.1,25,283.3,20.2L283.3,20.2z"/>
				</g>
			</g>
			<g>
				
					<linearGradient id="SVGID_5_" gradientUnits="userSpaceOnUse" x1="-785.5577" y1="580.4153" x2="-774.1147" y2="580.4153" gradientTransform="matrix(-0.7071 -0.7071 0.7071 -0.7071 -930.7817 195.0055)">
					<stop  offset="0" style="stop-color:#27ECB8"/>
					<stop  offset="1" style="stop-color:#99D7B4"/>
				</linearGradient>
				<path class="st5" d="M35.2,331.8c-5.4-5.4-13.8,3-8.4,8.4C32.3,345.6,40.6,337.2,35.2,331.8L35.2,331.8z"/>
			</g>
		</g>
	</g>
	<g>
		<g>
			<path class="st6" d="M302.2,53.8c-1.1,0-2.3-0.6-2.9-1.6c-1-1.6-0.5-3.7,1.1-4.6l10.8-6.6c1.6-1,3.7-0.5,4.6,1.1
				c1,1.6,0.5,3.7-1.1,4.6L304,53.3C303.4,53.6,302.8,53.8,302.2,53.8z"/>
		</g>
		<g>
			<path class="st6" d="M260,79.5c-1.1,0-2.3-0.6-2.9-1.6c-1-1.6-0.5-3.7,1.1-4.6l27.6-16.8c1.6-1,3.7-0.5,4.6,1.1
				c1,1.6,0.5,3.7-1.1,4.6L261.7,79C261.2,79.4,260.6,79.5,260,79.5z"/>
		</g>
		<g>
			<path class="st6" d="M219.3,104.3c-1.1,0-2.3-0.6-2.9-1.6c-1-1.6-0.5-3.7,1.1-4.6L248.8,79c1.6-1,3.7-0.5,4.6,1.1
				c1,1.6,0.5,3.7-1.1,4.6L221,103.8C220.5,104.2,219.9,104.3,219.3,104.3z"/>
		</g>
		<g>
			<path class="st6" d="M241.7,140.9c-0.6,0-1.2-0.2-1.8-0.5l-22.4-13.7c-1.6-1-2.1-3.1-1.1-4.6c1-1.6,3.1-2.1,4.6-1.1l22.4,13.7
				c1.6,1,2.1,3.1,1.1,4.6C243.9,140.3,242.8,140.9,241.7,140.9z"/>
		</g>
		<g>
			<path class="st6" d="M291.3,171.1c-0.6,0-1.2-0.2-1.8-0.5l-38-23.2c-1.6-1-2.1-3.1-1.1-4.6c1-1.6,3.1-2.1,4.6-1.1l38,23.2
				c1.6,1,2.1,3.1,1.1,4.6C293.6,170.6,292.5,171.1,291.3,171.1z"/>
		</g>
		<g>
			<path class="st6" d="M313,184.4c-0.6,0-1.2-0.2-1.8-0.5l-11.4-7c-1.6-1-2.1-3.1-1.1-4.6c1-1.6,3.1-2.1,4.6-1.1l11.4,7
				c1.6,1,2.1,3.1,1.1,4.6C315.3,183.8,314.1,184.4,313,184.4z"/>
		</g>
		<g>
			<path class="st6" d="M273,115.8h-37.4c-1.9,0-3.4-1.5-3.4-3.4c0-1.9,1.5-3.4,3.4-3.4H273c1.9,0,3.4,1.5,3.4,3.4
				C276.3,114.3,274.8,115.8,273,115.8z"/>
		</g>
		<g>
			<path class="st6" d="M321.1,115.8h-26.1c-1.9,0-3.4-1.5-3.4-3.4c0-1.9,1.5-3.4,3.4-3.4h26.1c1.9,0,3.4,1.5,3.4,3.4
				C324.4,114.3,322.9,115.8,321.1,115.8z"/>
		</g>
		<g>
			<path class="st6" d="M360.5,115.8h-16.6c-1.9,0-3.4-1.5-3.4-3.4c0-1.9,1.5-3.4,3.4-3.4h16.6c1.9,0,3.4,1.5,3.4,3.4
				C363.8,114.3,362.3,115.8,360.5,115.8z"/>
		</g>
	</g>
	<g class="st7">
		<g>
			<path class="st6" d="M205.5,379c-17.1-13.5-28.8-32-33.9-53.1c-0.1,0-0.2,0-0.3,0.1c5.1,21.1,16.9,39.7,34,53.2
				c20.7,16.4,46.7,23.5,73.2,20c7.9-1,15.6-3,23-5.8c0-0.1,0-0.2-0.1-0.3c-7.3,2.8-15,4.7-23,5.8C252,402.4,226.1,395.3,205.5,379z
				"/>
			<path class="st6" d="M362.1,263.1c0.1,0,0.2-0.1,0.3-0.1c-6.1-16.9-16.6-31.7-30.9-43c-17.5-13.9-38.9-21.1-61.2-20.9
				c-0.1,0.1-0.1,0.2-0.2,0.3c22.3-0.3,43.6,6.9,61.2,20.8C345.5,231.4,356,246.2,362.1,263.1z"/>
			<path class="st6" d="M352.4,351.5c11.9-18.9,17.3-40.9,15.5-63.1c-0.1,0-0.2,0-0.3,0.1c1.9,22.2-3.6,44.1-15.4,62.9
				C352.2,351.4,352.3,351.4,352.4,351.5z"/>
			<path class="st6" d="M191.1,238.4c2.2-2.8,4.5-5.4,6.9-7.9c-0.1-0.1-0.2-0.1-0.2-0.2c-2.4,2.5-4.7,5.1-6.9,7.9
				c-8.8,11.1-15.1,23.7-18.8,36.9c0.1,0,0.2,0,0.3,0.1C176,262,182.4,249.5,191.1,238.4z"/>
		</g>
		<g>
			<path class="st6" d="M381,314.5c-2.4,15.4-7.9,30.2-16.2,43.7c0.1,0,0.3,0,0.4-0.1c8.3-13.4,13.7-28.2,16.1-43.5
				C381.2,314.5,381.1,314.5,381,314.5z"/>
			<path class="st6" d="M302.7,189.2c13.5,3.9,26.3,10.5,37.6,19.4c18,14.3,30.9,33.5,37.3,55.3c0.1-0.1,0.2-0.1,0.3-0.2
				c-6.5-21.8-19.3-41-37.4-55.4c-11.3-9-24.1-15.5-37.6-19.5C302.8,189,302.8,189.1,302.7,189.2z"/>
			<path class="st6" d="M280,413.7c15.5-2,30.3-7.1,43.6-14.8c-0.1-0.1-0.2-0.2-0.2-0.2c-13.2,7.7-27.9,12.7-43.4,14.8
				c-26.7,3.5-52.8-2.4-74.8-16.6c-0.1,0.1-0.1,0.2-0.2,0.3C227,411.3,253.2,417.2,280,413.7z"/>
			<path class="st6" d="M154.4,306.7c-1-27.7,7.9-54.9,25.5-77.1c8.5-10.8,18.7-19.8,29.9-26.9c-0.1-0.1-0.1-0.2-0.2-0.2
				c-11.3,7.1-21.4,16.2-30,27c-17.7,22.3-26.6,49.5-25.6,77.4C154.2,306.7,154.3,306.7,154.4,306.7z"/>
		</g>
		<g>
			<path class="st6" d="M336.8,188.3c4.4,2.7,8.6,5.6,12.7,8.8c25.8,20.4,42.1,49.6,46.3,82.5c0.1-0.1,0.2-0.1,0.3-0.2
				c-4.2-33-20.6-62.2-46.4-82.7c-4.1-3.2-8.3-6.1-12.6-8.8C337,188.1,336.9,188.2,336.8,188.3z"/>
			<path class="st6" d="M180.8,396.6c-0.1,0.1-0.2,0.2-0.2,0.3c2.1,1.9,4.2,3.7,6.4,5.5c26.7,21.1,60.2,30.3,94.4,25.8
				c24.8-3.2,47.9-13.4,67-29.2l-0.3-0.2c-19,15.7-42,25.8-66.7,29.1c-34.1,4.5-67.6-4.7-94.2-25.7
				C185,400.3,182.9,398.4,180.8,396.6z"/>
			<path class="st6" d="M141.3,322.2c-0.3-2-0.5-4-0.8-6c-3.5-34.2,6.5-68.2,28.2-95.5c19.2-24.2,45.5-40.7,74.9-47.3
				c0-0.1-0.1-0.2-0.1-0.3c-29.5,6.6-55.9,23.1-75.1,47.4c-21.7,27.4-31.8,61.5-28.3,95.8c0.2,2,0.5,4,0.7,5.9
				C141.1,322.2,141.2,322.2,141.3,322.2z"/>
		</g>
		<g>
			<path class="st6" d="M302.9,159c0-0.1,0.1-0.2,0.1-0.4c-15.9-3.5-32.5-4.3-49.3-2.1c-22.7,3-44,11.1-62.7,23.6
				c0,0.1,0.1,0.3,0.1,0.4c18.6-12.5,39.9-20.7,62.6-23.6C270.5,154.8,287.1,155.5,302.9,159z"/>
			<path class="st6" d="M411.6,297.9c0.1-5.6-0.2-11.3-0.7-17c-2.5-24.8-11.2-47.7-25-67.2c-0.1,0.1-0.2,0.2-0.2,0.3
				c13.8,19.4,22.4,42.3,24.9,66.9c0.6,5.7,0.8,11.3,0.7,16.9C411.3,297.9,411.5,297.9,411.6,297.9z"/>
			<path class="st6" d="M282.9,442.6c8.7-1.1,17.2-3,25.5-5.7c0.1-0.2,0.2-0.3,0.3-0.5c-8.3,2.7-16.9,4.6-25.8,5.8
				c-38,5-75.2-5.2-104.8-28.6c-29.6-23.4-48-57.3-51.9-95.4c-2.5-24.4,1.2-48.7,10.5-71c-0.1,0-0.3,0-0.4,0
				c-9.3,22.3-13,46.6-10.5,71.1c3.9,38.2,22.4,72.2,52,95.7C207.5,437.3,244.8,447.5,282.9,442.6z"/>
		</g>
		<g>
			<path class="st6" d="M226.6,453.9l0.3-0.4c-20.9-5.2-40.6-14.7-57.9-28.5c-32.6-25.8-52.9-63.1-57.1-105
				c-3.5-34.4,4.1-68.5,21.6-98.1c-0.1-0.1-0.2-0.2-0.3-0.3c-17.5,29.7-25.1,63.9-21.6,98.4c4.3,42.1,24.6,79.5,57.3,105.3
				C186,439.1,205.7,448.7,226.6,453.9z"/>
			<path class="st6" d="M303.1,143.7c-12.4-2.5-25.2-3.4-38.1-2.7c0,0.1,0,0.3,0.1,0.4c12.8-0.6,25.5,0.3,37.8,2.7
				C303,144,303,143.8,303.1,143.7z"/>
			<path class="st6" d="M416,240.6c0.1-0.1,0.2-0.2,0.3-0.3c-9.7-26.1-26.1-48.9-48.3-66.5c-18.9-15-40.7-25-63.7-29.8
				c-0.1,0.1-0.2,0.3-0.3,0.4c23.1,4.7,44.9,14.8,63.8,29.8C389.9,191.6,406.3,214.5,416,240.6z"/>
			<path class="st6" d="M326.4,445.1c0.1,0.1,0.3,0.2,0.4,0.3c24.7-10.6,46.6-27.2,63.9-49c0.9-1.1,1.7-2.2,2.6-3.3l-0.3-0.3
				c-0.8,1.1-1.7,2.2-2.6,3.3C373.1,417.9,351.1,434.6,326.4,445.1z"/>
		</g>
		<g>
			<path class="st6" d="M425.7,364.6c0.1,0.1,0.3,0.2,0.4,0.2c6.5-15,10.9-30.8,13-47c-0.2,0-0.3-0.1-0.5-0.1
				C436.5,333.8,432.2,349.6,425.7,364.6z"/>
			<path class="st6" d="M358.6,149.5c-17.6-10.5-36.9-17.5-57-20.9c0,0.2,0,0.3,0,0.5c20,3.4,39.2,10.4,56.7,20.8
				C358.4,149.7,358.5,149.6,358.6,149.5z"/>
			<path class="st6" d="M130.4,200.5c1.6-2.1,3.1-4.3,4.8-6.4c20.5-26,47.2-45.3,77.2-56.5c-0.1-0.1-0.1-0.3-0.2-0.4
				c-30.1,11.2-56.8,30.6-77.4,56.6c-1.7,2.1-3.3,4.2-4.8,6.4C130.1,200.3,130.2,200.4,130.4,200.5z"/>
			<path class="st6" d="M285.8,471.5c22.5-2.9,43.9-10.1,63.2-21c-0.1-0.1-0.2-0.2-0.3-0.3c-19.3,10.8-40.6,17.9-62.9,20.9
				c-31,4-61.5-0.3-89.1-12.3c-0.1,0.1-0.2,0.3-0.3,0.4C224,471.2,254.7,475.5,285.8,471.5z"/>
		</g>
		<g>
			<path class="st6" d="M412.8,413.9c-2.8,3.6-5.8,7.1-8.9,10.4l0.2,0.2c3.1-3.4,6-6.8,8.9-10.4c13.9-17.5,24.5-36.9,31.6-57.7
				c-0.1,0-0.2-0.1-0.2-0.1C437.2,377.1,426.6,396.5,412.8,413.9z"/>
			<path class="st6" d="M354.9,131.1c0.1-0.1,0.1-0.1,0.2-0.2c-11-5.5-22.5-9.9-34.5-13c-15.3-4-30.9-6.1-46.6-6.1
				c0,0.1,0,0.2,0,0.3c15.7,0,31.3,2,46.5,6.1C332.5,121.3,344,125.6,354.9,131.1z"/>
			<path class="st6" d="M454.6,284c-0.2-2.9-0.4-5.8-0.7-8.7c-2.2-22-8.2-42.9-17.7-62.4c-0.1,0-0.2,0-0.3,0
				c9.5,19.5,15.5,40.5,17.8,62.4c0.3,2.9,0.5,5.8,0.7,8.7C454.5,284,454.5,284,454.6,284z"/>
			<path class="st6" d="M82.6,319.7c-1.8-22.8,0.5-45.5,6.8-67.6c7-24.3,18.6-46.8,34.5-66.8c3.5-4.4,7.2-8.6,11-12.7
				c-0.1-0.1-0.1-0.1-0.2-0.2c-3.8,4.1-7.5,8.3-11,12.7c-15.9,20.1-27.5,42.6-34.5,66.9c-6.4,22.1-8.6,44.9-6.8,67.6
				C82.4,319.6,82.5,319.6,82.6,319.7z"/>
			<path class="st6" d="M338.3,471.4c0.1,0.1,0.1,0.1,0.2,0.2c5.9-2.6,11.6-5.4,17.3-8.6c17.8-10,33.8-22.7,47.7-37.7l-0.2-0.2
				c-13.9,15.1-29.8,27.7-47.6,37.7C350,466,344.2,468.8,338.3,471.4z"/>
		</g>
	</g>
	<g>
		<defs>
			<path id="SVGID_6_" d="M144.6,29.1C18.2,58.2,66.5,311.5,66.5,311.5C68.6,467.1,256.2,494,298.7,485.7
				c42.5-8.3,176.2-12.4,176.2-174.2C474.9,311.5,426.5-14.2,144.6,29.1z"/>
		</defs>
		<clipPath id="SVGID_7_">
			<use xlink:href="#SVGID_6_"  style="overflow:visible;"/>
		</clipPath>
		<g class="st8">
			<g>
				<rect x="135.1" y="86" class="st9" width="58.7" height="56.1"/>
				<rect x="135.1" y="86" class="st10" width="29.2" height="56.1"/>
				<path class="st11" d="M193.9,90.7c-1-0.2-2.1-0.3-3.2-0.3c-12,0-21.7,9.7-21.7,21.7c0,12,9.7,21.7,21.7,21.7
					c1.1,0,2.2-0.1,3.2-0.3V90.7z"/>
				<path class="st12" d="M169,112.1c0,9.8,6.5,18,15.3,20.7h3.1v-32.4h-15C170.3,103.8,169,107.8,169,112.1z"/>
				<path class="st13" d="M199.1,136.4c-2.6-4.2-7.2-6.7-12.1-6.7h-42.9c-4.9,0-9.5,2.5-12.1,6.7L124,149h83L199.1,136.4z"/>
				<ellipse class="st14" cx="182.4" cy="112.7" rx="3.9" ry="7.7"/>
				<ellipse class="st6" cx="182.4" cy="112.7" rx="1.2" ry="2.4"/>
				<ellipse class="st14" cx="182.4" cy="112.7" rx="0.5" ry="1.1"/>
			</g>
			<rect x="104.1" y="142.7" class="st14" width="120.1" height="26.3"/>
			<path class="st15" d="M223.2,459.4H104.1c-8.5,0-15.4-6.9-15.4-15.4V170c0-8.5,6.9-15.4,15.4-15.4h119.1
				c8.5,0,15.4,6.9,15.4,15.4v274C238.6,452.5,231.7,459.4,223.2,459.4z"/>
			<path class="st6" d="M220.1,207.7L220.1,207.7c-4.4,0-8-2.6-8-5.9v-13.3c0-3.3,3.6-5.9,8-5.9l0,0c4.4,0,8,2.6,8,5.9v13.3
				C228.2,205.1,224.6,207.7,220.1,207.7z"/>
			<rect x="88.8" y="256.3" class="st16" width="149.8" height="123.4"/>
			<path class="st17" d="M131.3,444.1v-64.3V256.3V170c0-8.5,6.9-15.4,15.4-15.4h-42.5c-8.5,0-15.4,6.9-15.4,15.4v86.3v123.4v64.3
				c0,8.5,6.9,15.4,15.4,15.4h42.5C138.2,459.4,131.3,452.5,131.3,444.1z"/>
			<circle class="st18" cx="165.8" cy="318" r="51.2"/>
			<circle class="st6" cx="165.8" cy="318" r="40.9"/>
			<g>
				<g>
					<path class="st19" d="M147.3,311.5c0,0-10.1,34.6,4,35.2C162.4,347.2,147.3,311.5,147.3,311.5z"/>
					<path class="st20" d="M150.5,343.4c-0.2-3.5-0.5-7.1-0.8-10.6c1.1,1.7,2.2,3.5,3.5,5c0,0,0,0,0,0c-1-2.1-2.4-4-3.6-5.9l0,0
						c-0.1-1.1-0.2-2.2-0.3-3.3c0-0.5-0.1-1.1-0.1-1.6c0.8,1.6,1.5,3.1,2.4,4.7c0,0,0.1,0,0,0c-0.8-1.9-1.6-3.8-2.5-5.7
						c-0.1-1.5-0.3-3-0.4-4.5c0.6,1.2,1.3,2.4,1.9,3.6c0,0,0.1,0,0.1,0c-0.7-1.7-1.3-3.5-2.1-5.1c0,0,0,0,0,0c0-0.1,0-0.1,0-0.2
						c0-0.1,0.1-0.1,0.1-0.2c0-0.1,0-0.2-0.1-0.3c-0.1-0.6-0.1-1.3-0.2-1.9c-0.1-1.2-0.1-2.5-0.5-3.6c-0.1-0.2-0.4-0.2-0.5,0.1
						c-0.2,1,0.1,2.1,0.2,3.1c0.1,1,0.2,2,0.3,3c-1.1,1.6-1.8,3.5-2.7,5.1c-0.1,0.1,0.1,0.2,0.2,0.1c0.8-1.4,1.8-2.8,2.6-4.3
						c0.2,1.5,0.3,3,0.5,4.5l0,0c-0.9,1.6-2,3.1-2.8,4.8c0,0,0,0.1,0.1,0c1-1.3,1.9-2.7,2.8-4.1c0.1,0.7,0.1,1.3,0.2,2
						c0.1,1.1,0.2,2.2,0.3,3.4c-0.6,0.8-1.1,1.6-1.6,2.4c-0.5,0.7-1.1,1.5-1.5,2.3c0,0.1,0.1,0.1,0.1,0.1c0.6-0.7,1.1-1.4,1.6-2.2
						c0.5-0.7,1-1.3,1.4-2c0.3,3.8,0.7,7.6,1.2,11.4C150.4,343.5,150.5,343.5,150.5,343.4z"/>
				</g>
				<g>
					<path class="st19" d="M162.2,302.4c0,0,6.1,35.5,19,29.9C191.5,327.9,162.2,302.4,162.2,302.4z"/>
					<path class="st20" d="M179.1,329.7c-1.7-3.1-3.5-6.1-5.4-9.2c1.8,1,3.5,2.2,5.4,3c0,0,0,0,0,0c-1.8-1.4-3.9-2.5-5.9-3.7l0,0
						c-0.6-0.9-1.2-1.9-1.7-2.8c-0.3-0.5-0.5-0.9-0.8-1.4c1.4,1.1,2.8,2.1,4.2,3.2c0,0,0.1,0,0,0c-1.6-1.4-3.1-2.7-4.8-4
						c-0.8-1.3-1.5-2.6-2.3-3.9c1.1,0.9,2.2,1.6,3.3,2.4c0,0,0.1,0,0,0c-1.3-1.2-2.6-2.6-4.1-3.6c0,0,0,0,0,0c0-0.1-0.1-0.1-0.1-0.2
						c0-0.1,0-0.2,0-0.2c0-0.1-0.1-0.2-0.2-0.2c-0.3-0.6-0.7-1.1-1-1.7c-0.6-1-1.1-2.2-2-3c-0.2-0.2-0.4,0-0.4,0.3
						c0.3,1,1,1.9,1.5,2.7c0.5,0.9,1.1,1.7,1.6,2.6c-0.3,1.9-0.1,3.9-0.2,5.8c0,0.1,0.2,0.2,0.2,0c0.1-1.6,0.4-3.3,0.5-5
						c0.8,1.3,1.6,2.6,2.4,3.8c0,0,0,0,0,0c-0.1,1.8-0.4,3.7-0.4,5.5c0,0,0.1,0,0.1,0c0.4-1.6,0.5-3.3,0.7-4.9
						c0.4,0.6,0.7,1.1,1.1,1.7c0.6,1,1.2,1.9,1.7,2.9c-0.2,0.9-0.3,1.9-0.4,2.9c-0.1,0.9-0.3,1.8-0.3,2.7c0,0.1,0.1,0.1,0.1,0
						c0.3-0.9,0.3-1.8,0.5-2.6c0.1-0.8,0.3-1.6,0.4-2.5c2,3.3,4,6.6,6.1,9.7C179.1,329.8,179.2,329.8,179.1,329.7z"/>
				</g>
				<path class="st21" d="M177.7,346.5c-0.6,0.1-1.2,0.2-1.8,0.2c-3.3,0.3-6.6-0.2-9.6-1.3c-1.6-0.6-3.1-1.4-4.6-2.4
					c-1.4-0.9-2.7-2-3.8-3.3c-0.2-0.2-0.5-0.5-0.7-0.8c-0.9-1.1-1.8-2.3-2.6-3.6c-0.9-1.4-1.6-3-2.3-4.7c-1.6-4.3-2.3-9.4-1.6-15.5
					c0.1-0.5,0.1-0.9,0.2-1.4l4.1-0.7l10.7-1.8c0,0,3.2,0.9,7.1,6.7c0.9,1.3,1.8,2.9,2.7,4.8c0.2,0.3,0.3,0.7,0.5,1
					c0.5,1,1,2,1.7,2.8c1,1.4,2.3,2.6,3.8,3.6c1,0.7,2.1,1.2,3.3,1.6c0.1,0,0.3,0.1,0.4,0.1c0,0,0,0,0.1,0c1.9,0.6,3.2,2.1,3.6,3.9
					c0.3,1.3,0.1,2.8-0.7,4C186.2,342.7,183,345.5,177.7,346.5z"/>
				<g>
					<g>
						<path class="st18" d="M175.5,322.7c-0.9-1.9-1.8-3.5-2.7-4.8c-3.6,4.3-8.9,8.3-15.3,10.9c-1.7,0.7-3.4,1.3-5.2,1.8
							c0.6,1.7,1.4,3.3,2.3,4.7c1.6-0.5,3.3-1.1,4.9-1.8C165.8,330.9,171.3,327.1,175.5,322.7z"/>
					</g>
					<g>
						<path class="st18" d="M181.4,330.1c-1.5-1-2.7-2.2-3.8-3.6c-3.6,4.2-8.8,8-15,10.6c-1.8,0.8-3.6,1.4-5.4,1.9
							c0.2,0.3,0.5,0.5,0.7,0.8c1.2,1.2,2.4,2.3,3.8,3.3c1-0.3,2-0.7,2.9-1.1C171.4,339.1,177.2,335,181.4,330.1z"/>
					</g>
					<g>
						<path class="st18" d="M175.9,346.7c5.2-2.9,9.7-6.7,13-10.9c-0.4-1.8-1.7-3.3-3.6-3.9c-3.6,4.9-9.4,9.5-16.5,12.5
							c-0.8,0.3-1.6,0.7-2.4,0.9C169.3,346.5,172.6,347,175.9,346.7z"/>
					</g>
				</g>
				<path class="st22" d="M177.7,346.5c-0.6,0.1-1.2,0.2-1.8,0.2c-3.3,0.3-6.6-0.2-9.6-1.3c-1.6-0.6-3.1-1.4-4.6-2.4
					c-1.4-0.9-2.7-2-3.8-3.3c-0.2-0.2-0.5-0.5-0.7-0.8c-0.9-1.1-1.8-2.3-2.6-3.6c-0.9-1.4-1.6-3-2.3-4.7c-1.6-4.3-2.3-9.4-1.6-15.5
					c0.1-0.5,0.1-0.9,0.2-1.4l3.1-0.5c-0.1,4.3,0.6,8.2,1.9,11.4c0.6,1.7,1.4,3.3,2.3,4.7c0.8,1.3,1.7,2.5,2.6,3.6
					c0.2,0.3,0.5,0.5,0.7,0.8c1.2,1.2,2.4,2.3,3.8,3.3c1.4,1,3,1.8,4.6,2.4c3,1.1,6.3,1.6,9.6,1.3c0.6-0.1,1.2-0.1,1.8-0.2
					c3.4-0.6,5.9-1.9,7.8-3.5c0,1-0.3,2-0.9,2.9C186.2,342.7,183,345.5,177.7,346.5z"/>
				<g>
					<g>
						<path class="st23" d="M165.1,311.7l2.8-0.6c1-0.2,2,0.2,2.6,1l5.4,7.4c0.2,0.3,0.6,0.5,1,0.5l2.2-0.1c0.5,0,1,0.3,1.2,0.8
							l1.3,4l-2-2.8c-0.2-0.2-0.4-0.4-0.7-0.4l-3.1-0.1c-0.5,0-0.9-0.3-1.2-0.6l-4.9-6.8c-0.2-0.3-0.5-0.4-0.8-0.3l-3.2,0.7
							c-0.6,0.1-1.3-0.2-1.5-0.7l0,0C163.7,312.9,164.2,311.9,165.1,311.7z"/>
						<path class="st23" d="M162.8,308.7l1.8-2.2c0.6-0.8,1.7-1.2,2.7-0.9l8.9,2.3c0.4,0.1,0.8,0,1.1-0.3l1.6-1.5
							c0.4-0.4,1-0.4,1.4-0.1l3.6,2.3l-3.3-0.9c-0.3-0.1-0.5,0-0.7,0.1l-2.5,1.8c-0.4,0.3-0.9,0.4-1.3,0.3l-8.1-2.1
							c-0.3-0.1-0.6,0-0.8,0.3l-2,2.6c-0.4,0.5-1.1,0.7-1.7,0.4l0,0C162.5,310.4,162.3,309.4,162.8,308.7z"/>
						<path class="st23" d="M160.2,307.5l-0.3-2.8c-0.1-1,0.4-2,1.2-2.5l7.8-4.7c0.3-0.2,0.6-0.6,0.6-1l0.1-2.2c0-0.5,0.4-1,0.9-1.1
							l4.1-0.9l-3,1.7c-0.2,0.1-0.4,0.4-0.4,0.6l-0.4,3c-0.1,0.5-0.3,0.9-0.7,1.1l-7.2,4.3c-0.3,0.2-0.4,0.5-0.4,0.8l0.4,3.2
							c0.1,0.6-0.3,1.2-0.9,1.5l0,0C161.3,308.9,160.3,308.4,160.2,307.5z"/>
					</g>
				</g>
				<path class="st24" d="M160.7,321c-1.4,0.5-4.1-2.6-4.1-2.6s1,3.3,0.4,3.6c-1.9,0.8-4-0.9-5.2-3.6c0.4,1.2,1.2,3.7,0,4
					c-1.3,0.3-6.7-5.2-5.2-12c0.3-1.5,1-3,2-4.6l11.6-4c0,0,1.7,0,3.8,1c2.3,1.1,5,3.5,5.9,8.6c0.2,1.2-1,2-2,1.3
					c-0.3-0.2-0.6-0.5-0.9-0.9c0,0,2.4,4.1,0.4,5.1c-1,0.6-1.9-2.6-2.1-3c0.1,0.5,0.8,4.6-1.5,5.7c-1.2,0.5-2.7-3.8-2.7-3.8
					S162.2,320.6,160.7,321z"/>
				<path class="st25" d="M157.1,310.9c-3.5,1.5-7.3,1.2-10.4-0.5c0.3-1.5,1-3,2-4.6l11.6-4c0,0,1.7,0,3.8,1
					C163.2,306.4,160.7,309.4,157.1,310.9z"/>
				<path class="st26" d="M157.8,309.1c-5.4,2.3-11.7-0.3-14-5.7c-1-2.4-1.1-5-0.3-7.3c0.7-2.3,2.2-4.4,4.3-5.7
					c0.2-0.2,0.5-0.3,0.8-0.5c0.3-0.2,0.6-0.3,1-0.5c1.5-0.6,3-0.9,4.5-0.8c3.1,0.1,6.1,1.6,8,4.1c0.6,0.7,1.1,1.6,1.4,2.5
					c0.3,0.6,0.4,1.2,0.6,1.8C165.2,301.9,162.7,307,157.8,309.1z"/>
				<path class="st24" d="M158.2,306.5c-5,2.1-10.7-0.3-12.7-5.2c-1.6-3.9-0.5-8.2,2.4-10.9c0.5-0.4,1.1-0.7,1.7-0.9
					c5.4-2.3,11.7,0.3,14,5.7c0.3,0.6,0.4,1.2,0.6,1.8C164.4,300.9,162.1,304.8,158.2,306.5z"/>
				<g>
					<path class="st25" d="M149.5,298.5c-1.7,0.7-3.7,0.3-5-1c0,0,0,0,0,0c-0.4-0.4-0.7-0.9-0.9-1.4l0,0c0.7-2.3,2.2-4.4,4.3-5.7
						c0.2-0.2,0.5-0.3,0.8-0.5c0.8,0.2,1.5,0.5,2.1,1.1c0,0,0,0,0,0c0.5,0.5,0.9,1,1.2,1.6c0,0.1,0.1,0.1,0.1,0.2c0,0,0,0,0,0
						C152.8,295,151.7,297.6,149.5,298.5z"/>
					<path class="st25" d="M160.1,294.3c-2.3,1-5-0.1-5.9-2.4c-0.3-0.6-0.4-1.3-0.3-2c0,0,0,0,0,0c0-0.4,0.1-0.9,0.3-1.3
						c3.1,0.1,6.1,1.6,8,4.1c0,0.1-0.1,0.1-0.1,0.2C161.5,293.5,160.9,294,160.1,294.3z"/>
				</g>
				<path class="st27" d="M154.5,307.7c-0.1-0.1-0.3-0.3-0.4-0.6c-1.9-4.6,7.9-6.6,7.9-6.6C157.4,303.1,155.9,308.8,154.5,307.7z"/>
				<g>
					<g>
						<path class="st26" d="M144.8,297.1c-0.3-0.3-0.6-0.8-0.8-1.2c-0.9-2.1,0.1-4.5,2.2-5.3c0.5-0.2,1-0.3,1.5-0.3c1,0,2,0.4,2.8,1
							l-4.8,5L144.8,297.1z"/>
						<path class="st24" d="M145.6,296.3c-0.2-0.2-0.3-0.5-0.5-0.8c-0.8-2,0.1-4.3,2.1-5.1c0.1-0.1,0.3-0.1,0.4-0.1c1,0,2,0.4,2.8,1
							L145.6,296.3z"/>
						<path class="st28" d="M149.3,298.1c-1.6,0.7-3.4,0.2-4.5-0.9l0.8-0.8l1.3-1.3l1.7-1.8l1.9-1.9c0.4,0.4,0.8,0.9,1.1,1.5
							c0,0.1,0.1,0.1,0.1,0.2c0,0,0,0,0,0C152.3,295,151.3,297.2,149.3,298.1z"/>
						<path class="st27" d="M149.1,296.4c-1.2,0.5-2.4,0.4-3.5-0.2l1.3-1.3l1.7-1.8l1.9-1.9c0.4,0.4,0.8,0.9,1.1,1.5
							c0,0.1,0.1,0.1,0.1,0.2c0,0,0,0,0,0C151.5,294.4,150.5,295.8,149.1,296.4z"/>
					</g>
					<path class="st18" d="M148.3,295.3c-0.5,0.2-1.1,0.1-1.4-0.4l1.7-1.8c0.2,0.1,0.3,0.3,0.4,0.5
						C149.2,294.3,148.9,295.1,148.3,295.3z"/>
				</g>
				<g>
					<g>
						<path class="st26" d="M162.4,290l-7-0.1l-1.1,0c0.1-1.5,1-2.9,2.5-3.6c1.5-0.6,3.2-0.3,4.3,0.8c0.4,0.4,0.8,0.9,1,1.4
							C162.3,289,162.4,289.5,162.4,290z"/>
						<path class="st24" d="M162.4,290l-7-0.1c0.2-1.2,1.1-2.4,2.4-2.9c1.2-0.5,2.4-0.4,3.4,0.1c0.4,0.4,0.8,0.9,1,1.4
							C162.3,289,162.4,289.5,162.4,290z"/>
						<path class="st28" d="M159.9,293.9c-2.1,0.9-4.5-0.1-5.3-2.2c-0.2-0.6-0.3-1.2-0.3-1.8l1,0l1.7,0l2.4,0l3,0
							c0,0.9-0.3,1.8-0.8,2.5C161.2,293.1,160.6,293.6,159.9,293.9z"/>
						<path class="st27" d="M160.8,293c-2.1,0.9-4.5-0.1-5.3-2.2c-0.1-0.3-0.2-0.6-0.3-0.9l1.7,0l2.4,0l3,0c0,0.9-0.3,1.8-0.8,2.5
							C161.4,292.7,161.1,292.8,160.8,293z"/>
					</g>
					<path class="st18" d="M158.7,291.2c0.5-0.2,0.8-0.7,0.7-1.3l-2.4,0c0,0.2,0,0.4,0.1,0.6C157.3,291.2,158.1,291.5,158.7,291.2z"
						/>
				</g>
				<path class="st28" d="M154.5,307.7c0.2-1.6,1.2-2.5,1.2-2.5l0.9-0.2l0-0.8c1.5-2.2,5.4-3.6,5.4-3.6
					C157.4,303.1,155.9,308.8,154.5,307.7z"/>
				<path class="st26" d="M163.9,296.2l-1.8,1.5c-0.4,0.4-1.1,0.4-1.5,0.1c-0.6-0.4-1-1.2-0.1-2.7L163.9,296.2z"/>
				<path class="st24" d="M161.1,294.7l7.5-2.5l2,0.3l0.7-1.2l3.6-1.5l1.8,0.5l3.8-1.6l-4.9,3.4l-1.1-0.9l-1.6,0.7l-1.5,2.5
					l-2.8-0.7l-7.1,3.8C160.3,297.9,159.7,295.1,161.1,294.7z"/>
				<path class="st25" d="M150.8,311.6c0,0,0.5,1.2-0.4,1.6c-0.9,0.4-1.9,0.5-2.1-0.5L150.8,311.6z"/>
				<path class="st25" d="M149.6,313.6c0,0,1.8-0.3,2.1,1.2c0.2,1.5-2.2,1.6-2.2,1.6L149.6,313.6z"/>
				<path class="st25" d="M150.5,317.3c0,0,1.2-1.4,2.4-0.3c1.2,1.1-0.7,2.5-0.7,2.5L150.5,317.3z"/>
				<g>
					<g>
						<path class="st24" d="M149.6,338.3l-2.2-3.6c-0.3-0.4-0.2-1,0.1-1.4l1.5-1.6c0.3-0.3,0.4-0.7,0.3-1.1l-2.1-8.9
							c-0.2-1,0.1-2,0.9-2.7l2.2-1.7c0,0,0,0,0,0c0.1-0.1,0.2-0.1,0.3-0.2c0.7-0.3,1.5,0,1.8,0.8c0.2,0.6,0.1,1.3-0.4,1.7l-2.6,2
							c-0.3,0.2-0.4,0.5-0.3,0.8l1.9,8.1c0.1,0.5,0,0.9-0.3,1.3l-1.9,2.4c-0.2,0.2-0.2,0.5-0.2,0.7L149.6,338.3z"/>
						<path class="st24" d="M135.6,329.2l0.6-4.2c0.1-0.5,0.5-0.9,1-1l2.2-0.3c0.4,0,0.7-0.3,0.9-0.6l4.1-8.2
							c0.5-0.9,1.4-1.5,2.4-1.4l2.8,0.1c0.6,0,1,0.4,1.2,0.9c0.1,0.3,0.1,0.6,0,0.9c-0.2,0.6-0.8,1-1.4,1l-3.3-0.2
							c-0.3,0-0.6,0.2-0.8,0.4l-3.7,7.5c-0.2,0.4-0.6,0.7-1.1,0.8l-3,0.6c-0.3,0.1-0.5,0.2-0.6,0.5L135.6,329.2z"/>
						<path class="st24" d="M148.3,312.7l-2.2-2.4c-0.2-0.2-0.5-0.3-0.8-0.2l-7.9,2.6c-0.4,0.2-0.9,0.1-1.3-0.2l-2.6-1.7
							c-0.2-0.1-0.5-0.2-0.7-0.1l-3.3,1.1l3.4-2.5c0.4-0.3,1-0.3,1.4,0l1.7,1.4c0.3,0.2,0.7,0.3,1.1,0.2l8.7-2.9c1-0.3,2,0,2.7,0.7
							l1.9,2.1c0.1,0.1,0.2,0.3,0.3,0.4l0,0.1c0.2,0.6,0,1.4-0.7,1.7C149.5,313.3,148.8,313.2,148.3,312.7z"/>
					</g>
				</g>
				<path class="st26" d="M148.3,312.7l-2.2-2.4c-0.2-0.2-0.5-0.3-0.8-0.2l-7.9,2.6c-0.4,0.2-0.9,0.1-1.3-0.2l-2.6-1.7
					c-0.2-0.1-0.5-0.2-0.7-0.1l-3.3,1.1l3.3-1.8c0.4-0.2,0.9-0.2,1.3,0.1l2.3,1.5c0.3,0.2,0.7,0.3,1.1,0.2l8-2.4
					c0.4-0.1,0.9,0,1.3,0.3c0.7,0.6,1.8,1.7,2.4,2.2c0.9,0.8,1.6-0.7,1.6-0.7l0,0c0.2,0.6,0,1.4-0.7,1.7
					C149.5,313.3,148.8,313.2,148.3,312.7z"/>
				<path class="st26" d="M135.6,329.2l1.3-3.4c0.2-0.5,0.6-0.9,1.1-1l2.2-0.7c0.4-0.1,0.8-0.4,1-0.8l3.8-7c0.3-0.6,0.9-0.9,1.5-0.9
					l3.2,0.1c1.2-0.9-0.1-1.9-0.1-1.9c0.6,0,1,0.4,1.2,0.9c0.1,0.3,0.1,0.6,0,0.9c-0.2,0.6-0.8,1-1.4,1l-3.3-0.2
					c-0.3,0-0.6,0.2-0.8,0.4l-3.7,7.5c-0.2,0.4-0.6,0.7-1.1,0.8l-3,0.6c-0.3,0.1-0.5,0.2-0.6,0.5L135.6,329.2z"/>
				<path class="st26" d="M149.6,338.3l-1.2-3.8c-0.1-0.3-0.1-0.7,0.1-1l1.6-2.4c0.2-0.3,0.2-0.6,0.2-0.9l-2.1-8.3
					c-0.1-0.5,0.1-1,0.5-1.3l1.9-1.1c0.8-0.5,0.7-1.7-0.1-2.1c0,0,0,0,0,0s0,0,0,0c0.1-0.1,0.2-0.1,0.3-0.2c0.7-0.3,1.5,0,1.8,0.8
					c0.2,0.6,0.1,1.3-0.4,1.7l-2.6,2c-0.3,0.2-0.4,0.5-0.3,0.8l1.9,8.1c0.1,0.5,0,0.9-0.3,1.3l-1.9,2.4c-0.2,0.2-0.2,0.5-0.2,0.7
					L149.6,338.3z"/>
			</g>
			<g>
				
					<rect x="121.1" y="313.4" transform="matrix(0.6351 -0.7725 0.7725 0.6351 -185.5786 245.2091)" class="st18" width="91.2" height="11.2"/>
			</g>
		</g>
		<g id="XMLID_288_" class="st8">
			<g id="XMLID_488_">
				<g id="XMLID_587_">
					<path id="XMLID_588_" class="st10" d="M328.8,210.3c-0.8-0.3-1.4-1.1-1.5-2c-0.1-1.3,0.9-2.4,2.2-2.5l47.8-3.4
						c0.7-0.1,1.4,0.2,1.9,0.8l31.4,35.4c0.9,1,0.8,2.5-0.2,3.3c-1,0.9-2.5,0.8-3.3-0.2l-30.7-34.6l-46.6,3.3
						C329.5,210.5,329.1,210.4,328.8,210.3z"/>
				</g>
				<g id="XMLID_489_">
					<path id="XMLID_586_" class="st10" d="M376.7,205.7c-0.6-0.2-0.9-0.9-0.7-1.5l4.7-11.7c0.2-0.5,0.8-0.8,1.3-0.7
						c0.5,0.1,11.9,2.2,16.4-9.1c3.5-8.6-5.3-14.6-8.5-16.3l-0.4,0.9c-0.2,0.6-0.9,0.9-1.5,0.7c-0.6-0.2-0.9-0.9-0.7-1.5l0.8-2.1
						c0.2-0.6,0.9-0.9,1.5-0.7c0.2,0.1,15.8,7.6,10.8,20c-4.4,11-14.8,10.9-18.1,10.6l-4.4,10.9C378,205.6,377.3,205.9,376.7,205.7z
						"/>
				</g>
			</g>
			<g id="XMLID_289_">
				<path id="XMLID_294_" class="st29" d="M417.3,414.5c13.9-46.7,21-90.5,24.2-115.3c1.7-13.1-2.1-26.2-10.6-36.3l-22.1-26.3
					c-12.8,10.9-31.1,14.5-47.7,7.7c-16.7-6.7-27.3-22-28.9-38.7l-34.2,3.6c-13.1,1.4-25,8.2-32.9,18.8
					c-14.9,20.1-40.3,56.5-62.7,99.7c-34.4,66.2-67.3,128.5-67.3,128.5l33,13.3l66-117l-49.9,123.5l71.6,29l71.6,29l49.9-123.5
					l-33.9,130l33,13.3C376.4,553.7,396.1,486,417.3,414.5z"/>
				<path id="XMLID_293_" class="st30" d="M276.5,217c-4.3,2.9-8.2,6.6-11.3,10.8c-14.9,20.1-40.3,56.5-62.7,99.7
					c-34.4,66.2-67.3,128.5-67.3,128.5l33,13.3l66-117C269,290.4,276.4,217.8,276.5,217z"/>
				<path id="XMLID_292_" class="st30" d="M440.9,283.5c1.1,5.1,1.3,10.4,0.6,15.7c-3.2,24.8-10.3,68.6-24.2,115.3
					c-21.2,71.5-40.9,139.2-40.9,139.2l-33-13.3l33.9-130C395.3,341.4,440.4,284.1,440.9,283.5z"/>
				<path id="XMLID_291_" class="st30" d="M408.5,236.3l2.8-17.7c0,0-21.6,24-45.6,14.3c-23.9-9.7-22.8-42-22.8-42l-10.3,14.7
					c0,0-0.1,0.2-0.3,0.5c1.9,16.5,12.4,31.4,28.9,38.1c16.4,6.7,34.4,3.2,47.2-7.3C408.4,236.6,408.5,236.3,408.5,236.3z"/>
				
					<rect id="XMLID_290_" x="249.1" y="417.7" transform="matrix(0.3749 -0.9271 0.9271 0.3749 -296.5081 550.2358)" class="st30" width="21.4" height="154.6"/>
			</g>
		</g>
	</g>
</g>
</svg>
