<?xml version="1.0" encoding="utf-8"?>
<!-- Generator: Adobe Illustrator 21.1.0, SVG Export Plug-In . SVG Version: 6.00 Build 0)  -->
<svg version="1.1" id="Layer_1" xmlns="http://www.w3.org/2000/svg" xmlns:xlink="http://www.w3.org/1999/xlink" x="0px" y="0px"
	 viewBox="0 0 500 529" style="enable-background:new 0 0 500 529;" xml:space="preserve">
<style type="text/css">
	.st0{fill:#696464;}
	.st1{fill:url(#SVGID_1_);}
	.st2{fill:url(#SVGID_2_);}
	.st3{fill:url(#SVGID_3_);}
	.st4{fill:url(#SVGID_4_);}
	.st5{fill:url(#SVGID_5_);}
	.st6{fill:url(#SVGID_6_);}
	.st7{fill:url(#SVGID_7_);}
	.st8{fill:url(#SVGID_8_);}
	.st9{fill:url(#SVGID_9_);}
	.st10{fill:url(#SVGID_10_);}
	.st11{fill:url(#SVGID_11_);}
	.st12{fill:url(#SVGID_12_);}
	.st13{fill:url(#SVGID_13_);}
	.st14{fill:url(#SVGID_14_);}
	.st15{fill:url(#SVGID_15_);}
	.st16{fill:url(#SVGID_16_);}
</style>
<g>
	<path class="st0" d="M240.4,480.8c-106.2,0-192.6-90.9-192.6-202.7c0-111.7,86.4-202.7,192.6-202.7S433,166.4,433,278.2
		C433,389.9,346.6,480.8,240.4,480.8z M240.4,77.2c-105.3,0-190.9,90.2-190.9,201s85.6,201,190.9,201s190.9-90.2,190.9-201
		S345.7,77.2,240.4,77.2z"/>
	
		<linearGradient id="SVGID_1_" gradientUnits="userSpaceOnUse" x1="-748.7177" y1="-182.3409" x2="-636.2276" y2="-69.8508" gradientTransform="matrix(0.5457 1.084 -1.1149 0.5612 498.1843 924.5456)">
		<stop  offset="8.527380e-02" style="stop-color:#4432F6"/>
		<stop  offset="0.7534" style="stop-color:#2394B1"/>
		<stop  offset="1" style="stop-color:#4AADAF"/>
	</linearGradient>
	<path class="st1" d="M325.7,30.5c-37.7-44.9-112.4-5.2-112.4-5.2c-64.1,33.3-37.2,114.5-25.1,129.9c12.1,15.4,40.9,68.4,108,34.7
		C296.1,189.9,400.8,135,325.7,30.5z"/>
	
		<linearGradient id="SVGID_2_" gradientUnits="userSpaceOnUse" x1="-1027.262" y1="-301.1125" x2="-917.3055" y2="-191.1561" gradientTransform="matrix(0 1 -1 0 176.9425 1198.4269)">
		<stop  offset="8.527380e-02" style="stop-color:#4432F6"/>
		<stop  offset="0.7534" style="stop-color:#2394B1"/>
		<stop  offset="1" style="stop-color:#4AADAF"/>
	</linearGradient>
	<path class="st2" d="M494,197.3c-10.6-45.9-76.8-44.4-76.8-44.4c-56.5,0.8-66.3,68.9-63.3,84.4c3,15.5,4.5,64,63.3,64
		C417.2,301.3,509.7,299.8,494,197.3z"/>
	
		<linearGradient id="SVGID_3_" gradientUnits="userSpaceOnUse" x1="-1318.7622" y1="326.3606" x2="-1201.7703" y2="443.3526" gradientTransform="matrix(-0.7071 0.7071 -0.7071 -0.7071 -252.003 1593.9163)">
		<stop  offset="8.527380e-02" style="stop-color:#4432F6"/>
		<stop  offset="0.7534" style="stop-color:#2394B1"/>
		<stop  offset="1" style="stop-color:#4AADAF"/>
	</linearGradient>
	<path class="st3" d="M442,462.3c26.6-42.5-24.4-91.2-24.4-91.2c-43.1-42-101.8,1.9-111.1,15.8c-9.4,13.9-44.8,51.6-0.5,95.8
		C306,482.7,376.8,551.2,442,462.3z"/>
	
		<linearGradient id="SVGID_4_" gradientUnits="userSpaceOnUse" x1="149.2051" y1="1517.9447" x2="251.3399" y2="1620.0795" gradientTransform="matrix(0 -1 1 0 -1433.9524 652.1369)">
		<stop  offset="8.527380e-02" style="stop-color:#4432F6"/>
		<stop  offset="0.7534" style="stop-color:#2394B1"/>
		<stop  offset="1" style="stop-color:#4AADAF"/>
	</linearGradient>
	<path class="st4" d="M69.2,478.6c9.8,42.7,71.4,41.3,71.4,41.3c52.5-0.7,61.6-64,58.8-78.4c-2.8-14.4-4.2-59.5-58.8-59.5
		C140.5,382.1,54.6,383.5,69.2,478.6z"/>
	
		<linearGradient id="SVGID_5_" gradientUnits="userSpaceOnUse" x1="603.3437" y1="290.3305" x2="688.0334" y2="375.0202" gradientTransform="matrix(1 0 0 1 -585.0681 -94.1076)">
		<stop  offset="8.527380e-02" style="stop-color:#4432F6"/>
		<stop  offset="0.7534" style="stop-color:#2394B1"/>
		<stop  offset="1" style="stop-color:#4AADAF"/>
	</linearGradient>
	<path class="st5" d="M38.4,183.9C3,192.1,4.2,243.1,4.2,243.1c0.6,43.5,53.1,51.1,65,48.8c11.9-2.3,49.3-3.5,49.3-48.8
		C118.5,243.1,117.3,171.8,38.4,183.9z"/>
	<g>
		<radialGradient id="SVGID_6_" cx="218.0929" cy="301.8127" r="57.4715" gradientUnits="userSpaceOnUse">
			<stop  offset="0" style="stop-color:#A2D4CC"/>
			<stop  offset="0.5287" style="stop-color:#2BC7B9"/>
			<stop  offset="1" style="stop-color:#27C7B8"/>
		</radialGradient>
		<path class="st6" d="M158.7,284.1c6.9-31.7,36.9-38.3,61.9-36.6c25,1.6,65.4,32.2,56.4,72.3c-8.9,40.1-44.6,37.1-67.3,36.1
			C187,354.9,151.8,315.8,158.7,284.1z"/>
	</g>
	<g>
		<g>
			<g>
				
					<linearGradient id="SVGID_7_" gradientUnits="userSpaceOnUse" x1="-1286.1373" y1="-157.7561" x2="-1281.257" y2="-157.7561" gradientTransform="matrix(0 1 -1 0 182.5762 1377.5889)">
					<stop  offset="0" style="stop-color:#27ECB8"/>
					<stop  offset="1" style="stop-color:#A2D4CC"/>
				</linearGradient>
				<path class="st7" d="M337.8,93.9c0,3.3,5,3.3,5,0C342.9,90.6,337.8,90.6,337.8,93.9L337.8,93.9z"/>
			</g>
		</g>
		<g>
			<g>
				
					<linearGradient id="SVGID_8_" gradientUnits="userSpaceOnUse" x1="-1282.9164" y1="-244.5168" x2="-1270.7227" y2="-244.5168" gradientTransform="matrix(0 1 -1 0 182.5762 1377.5889)">
					<stop  offset="0" style="stop-color:#27ECB8"/>
					<stop  offset="1" style="stop-color:#99D7B4"/>
				</linearGradient>
				<path class="st8" d="M420.8,100.8c0,8.1,12.6,8.1,12.6,0C433.4,92.6,420.8,92.6,420.8,100.8L420.8,100.8z"/>
			</g>
		</g>
		<g>
			<g>
				
					<linearGradient id="SVGID_9_" gradientUnits="userSpaceOnUse" x1="-972.2115" y1="134.3075" x2="-967.3314" y2="134.3075" gradientTransform="matrix(0 1 -1 0 182.5762 1377.5889)">
					<stop  offset="0" style="stop-color:#27ECB8"/>
					<stop  offset="1" style="stop-color:#A2D4CC"/>
				</linearGradient>
				<path class="st9" d="M45.7,407.8c0,3.3,5,3.3,5,0C50.8,404.6,45.7,404.6,45.7,407.8L45.7,407.8z"/>
			</g>
		</g>
		<g>
			<g>
				
					<linearGradient id="SVGID_10_" gradientUnits="userSpaceOnUse" x1="-1326.8969" y1="118.0517" x2="-1312.2562" y2="118.0517" gradientTransform="matrix(0 1 -1 0 182.5762 1377.5889)">
					<stop  offset="0" style="stop-color:#27ECB8"/>
					<stop  offset="1" style="stop-color:#A2D4CC"/>
				</linearGradient>
				<path class="st10" d="M57,58c0,9.8,15.1,9.8,15.1,0S57,48.3,57,58L57,58z"/>
			</g>
		</g>
		<g>
			<g>
				
					<linearGradient id="SVGID_11_" gradientUnits="userSpaceOnUse" x1="-1189.2278" y1="127.2553" x2="-1179.4156" y2="127.2553" gradientTransform="matrix(0 1 -1 0 182.5762 1377.5889)">
					<stop  offset="8.527380e-02" style="stop-color:#4432F6"/>
					<stop  offset="0.301" style="stop-color:#423BEB"/>
					<stop  offset="0.682" style="stop-color:#3B53CD"/>
					<stop  offset="1" style="stop-color:#356BAF"/>
				</linearGradient>
				<path class="st11" d="M50.2,193.3c0,6.5,10.1,6.5,10.1,0C60.4,186.7,50.2,186.7,50.2,193.3L50.2,193.3z"/>
			</g>
		</g>
		<g>
			<g>
				
					<linearGradient id="SVGID_12_" gradientUnits="userSpaceOnUse" x1="-923.5105" y1="-61.1012" x2="-913.6983" y2="-61.1012" gradientTransform="matrix(0 1 -1 0 182.5762 1377.5889)">
					<stop  offset="8.527380e-02" style="stop-color:#4432F6"/>
					<stop  offset="0.301" style="stop-color:#423BEB"/>
					<stop  offset="0.682" style="stop-color:#3B53CD"/>
					<stop  offset="1" style="stop-color:#356BAF"/>
				</linearGradient>
				<path class="st12" d="M238.6,459c0,6.5,10.1,6.5,10.1,0C248.7,452.4,238.6,452.4,238.6,459L238.6,459z"/>
			</g>
		</g>
		<g>
			<g>
				
					<linearGradient id="SVGID_13_" gradientUnits="userSpaceOnUse" x1="-939.6532" y1="-79.2442" x2="-935.267" y2="-79.2442" gradientTransform="matrix(0 1 -1 0 182.5762 1377.5889)">
					<stop  offset="8.527380e-02" style="stop-color:#4432F6"/>
					<stop  offset="0.301" style="stop-color:#423BEB"/>
					<stop  offset="0.682" style="stop-color:#3B53CD"/>
					<stop  offset="1" style="stop-color:#356BAF"/>
				</linearGradient>
				<path class="st13" d="M259.6,440.1c0,2.9,4.5,2.9,4.5,0C264.1,437.2,259.6,437.2,259.6,440.1L259.6,440.1z"/>
			</g>
		</g>
		<g>
			<g>
				
					<linearGradient id="SVGID_14_" gradientUnits="userSpaceOnUse" x1="-958.5432" y1="-278.0082" x2="-953.663" y2="-278.0082" gradientTransform="matrix(0 1 -1 0 182.5762 1377.5889)">
					<stop  offset="8.527380e-02" style="stop-color:#4432F6"/>
					<stop  offset="0.7534" style="stop-color:#2394B1"/>
				</linearGradient>
				<path class="st14" d="M458.1,421.5c0,3.3,5,3.3,5,0C463.1,418.2,458.1,418.2,458.1,421.5L458.1,421.5z"/>
			</g>
		</g>
		<g>
			
				<linearGradient id="SVGID_15_" gradientUnits="userSpaceOnUse" x1="-1094.7654" y1="-178.7846" x2="-1089.8851" y2="-178.7846" gradientTransform="matrix(0 1 -1 0 182.5762 1377.5889)">
				<stop  offset="0" style="stop-color:#27ECB8"/>
				<stop  offset="1" style="stop-color:#99D7B4"/>
			</linearGradient>
			<path class="st15" d="M358.8,285.3c0,3.3,5,3.3,5,0C363.9,282,358.8,282,358.8,285.3L358.8,285.3z"/>
		</g>
		<g>
			
				<linearGradient id="SVGID_16_" gradientUnits="userSpaceOnUse" x1="-1032.5404" y1="-249.4183" x2="-1027.6603" y2="-249.4183" gradientTransform="matrix(0 1 -1 0 182.5762 1377.5889)">
				<stop  offset="0" style="stop-color:#27ECB8"/>
				<stop  offset="1" style="stop-color:#99D7B4"/>
			</linearGradient>
			<path class="st16" d="M429.5,347.5c0,3.3,5,3.3,5,0C434.5,344.2,429.5,344.2,429.5,347.5L429.5,347.5z"/>
		</g>
	</g>
</g>
</svg>
