<?xml version="1.0" encoding="utf-8"?>
<!-- Generator: Adobe Illustrator 21.1.0, SVG Export Plug-In . SVG Version: 6.00 Build 0)  -->
<svg version="1.1" id="Layer_1" xmlns="http://www.w3.org/2000/svg" xmlns:xlink="http://www.w3.org/1999/xlink" x="0px" y="0px"
	 viewBox="0 0 500 624" style="enable-background:new 0 0 500 624;" xml:space="preserve">
<style type="text/css">
	.st0{fill:#696464;}
	.st1{fill:url(#SVGID_1_);}
	.st2{fill:url(#SVGID_2_);}
	.st3{fill:url(#SVGID_3_);}
	.st4{fill:#FFFFFF;}
	.st5{fill:url(#SVGID_4_);}
	.st6{fill:url(#SVGID_5_);}
	.st7{fill:url(#SVGID_6_);}
	.st8{fill:url(#SVGID_7_);}
	.st9{fill:url(#SVGID_8_);}
	.st10{fill:url(#SVGID_9_);}
	.st11{fill:url(#SVGID_10_);}
	.st12{fill:url(#SVGID_11_);}
	.st13{fill:url(#SVGID_12_);}
	.st14{fill:url(#SVGID_13_);}
</style>
<path class="st0" d="M239.8,420c-90.6,0-164.3-73.7-164.3-164.3S149.3,91.5,239.8,91.5s164.3,73.7,164.3,164.3S330.4,420,239.8,420z
	 M239.8,93c-89.7,0-162.8,73-162.8,162.8c0,89.7,73,162.8,162.8,162.8c89.7,0,162.8-73,162.8-162.8C402.6,166,329.6,93,239.8,93z"/>
<linearGradient id="SVGID_1_" gradientUnits="userSpaceOnUse" x1="151.123" y1="95.1781" x2="327.5337" y2="95.1781">
	<stop  offset="0" style="stop-color:#27ECB8"/>
	<stop  offset="1" style="stop-color:#99D7B4"/>
</linearGradient>
<path class="st1" d="M186.6,42.8c0,0-53.1,9.8-29.4,64.5c31.3,72.4,159,54,169.9-23.7C334.5,31.4,234.8,33,186.6,42.8z"/>
<linearGradient id="SVGID_2_" gradientUnits="userSpaceOnUse" x1="-37.6754" y1="370.613" x2="123.5624" y2="370.613" gradientTransform="matrix(0.9811 -0.1936 0.1936 0.9811 -26.1245 -128.5312)">
	<stop  offset="0.3889" style="stop-color:#2394B1"/>
	<stop  offset="1" style="stop-color:#4AADAF"/>
</linearGradient>
<path class="st2" d="M31.2,189.2c0,0-45.9,18.2-15,63.1c40.9,59.4,152.1,20.3,148.2-51.3C161.8,152.7,72.7,171.8,31.2,189.2z"/>
<linearGradient id="SVGID_3_" gradientUnits="userSpaceOnUse" x1="302.8854" y1="-88.5225" x2="463.0655" y2="71.6575" gradientTransform="matrix(0.9262 0.377 -0.377 0.9262 10.3902 202.3083)">
	<stop  offset="8.527380e-02" style="stop-color:#4432F6"/>
	<stop  offset="0.301" style="stop-color:#423BEB"/>
	<stop  offset="0.682" style="stop-color:#3B53CD"/>
	<stop  offset="1" style="stop-color:#356BAF"/>
</linearGradient>
<path class="st3" d="M321,249.6c0,0-79.3-16.4-77.3,73c2.6,118.2,190.2,164.8,249.3,63.1C532.8,317.3,393.5,263.2,321,249.6z"/>
<g>
	<g>
		<path class="st4" d="M379.6,307.2c0,34.9-10,68.1-28.4,95.4c0.1,0.1,0.2,0.2,0.3,0.3c18.5-27.4,28.5-60.7,28.5-95.7
			c0-42.3-14.6-82.1-41-112c-7.9-8.9-16.6-16.7-25.9-23.1c-0.1,0.1-0.2,0.2-0.2,0.4c9.3,6.4,18,14.2,25.9,23.1
			C365,225.4,379.6,265,379.6,307.2z"/>
		<path class="st4" d="M120.1,225.7c-0.1-0.1-0.2-0.1-0.4-0.2c-13.1,24.4-20,52.4-20,81.7c0,35.9,10.5,69.9,29.8,97.7
			c0.2,0,0.3-0.1,0.4-0.1c-19.4-27.7-29.9-61.8-29.9-97.6C100.1,278,107,250,120.1,225.7z"/>
		<path class="st4" d="M224,149.8c-30.6,3.9-59.1,18.9-81.5,43.4c0.1,0.1,0.2,0.2,0.3,0.3c22.4-24.4,50.7-39.4,81.2-43.2
			C224,150.1,224,150,224,149.8z"/>
		<path class="st4" d="M239.8,465.1c-4.9,0-9.7-0.3-14.4-0.8c0,0.2,0,0.3,0,0.5c4.8,0.5,9.6,0.8,14.4,0.8c19.6,0,38.5-4.5,56-13.1
			c-0.1-0.1-0.1-0.3-0.2-0.4C278.2,460.6,259.3,465.1,239.8,465.1z"/>
	</g>
	<g>
		<path class="st4" d="M159.5,150.8c18.7-12.3,39.4-20.2,61.2-23.1c-0.1-0.2-0.3-0.3-0.4-0.5c-21.6,3-42.3,10.8-60.9,23.1
			C159.4,150.4,159.4,150.6,159.5,150.8z"/>
		<path class="st4" d="M91,373.8c-7.3-20.9-11.2-43.5-11.2-66.6c0-36.9,9.7-72.1,27.8-101.9c-0.1-0.1-0.3-0.1-0.4-0.2
			c-18.1,29.9-27.8,65.1-27.8,102.1c0,23.2,3.8,45.7,11.2,66.7C90.7,373.9,90.8,373.8,91,373.8z"/>
		<path class="st4" d="M353.3,179c-15.5-17.5-33.6-31-53.4-40c0,0.2,0,0.3-0.1,0.5c19.6,9,37.7,22.4,53.1,39.8
			c26.6,30,42.7,68.8,46.1,110.6c0.1,0,0.3,0,0.4,0C396.1,248,379.9,209.1,353.3,179z"/>
		<path class="st4" d="M345.1,443.3c-29.2,28.9-66.1,44.6-105.3,44.6c-19,0-37.4-3.7-54.7-10.8c0,0.2-0.1,0.3-0.1,0.5
			c17.3,7.1,35.8,10.8,54.8,10.8c39.3,0,76.4-15.8,105.6-44.8C345.3,443.5,345.2,443.4,345.1,443.3z"/>
	</g>
	<g>
		<path class="st4" d="M60.8,331.9c-0.9-8.1-1.3-16.4-1.3-24.7c0-52.7,17.6-102.3,49.6-140.4c-0.2-0.1-0.3-0.2-0.5-0.3
			C76.6,204.7,59,254.4,59,307.2c0,8.3,0.4,16.5,1.3,24.7C60.5,331.8,60.7,331.9,60.8,331.9z"/>
		<path class="st4" d="M419.7,320.7c0.2,0,0.3,0,0.5,0c0.3-4.5,0.4-9,0.4-13.5c0-54.6-18.8-105.8-52.9-144.4
			c-24.8-28-55.5-46.9-88.9-55.1v0.6c33.3,8.2,63.9,27,88.6,54.9c34.1,38.5,52.8,89.6,52.8,144C420.1,311.7,420,316.2,419.7,320.7z"
			/>
		<path class="st4" d="M373.1,444.3c-1.9,2.3-3.8,4.6-5.8,6.9c-34.1,38.5-79.3,59.7-127.5,59.7c-42.6,0-83-16.6-115.3-47.1
			c-0.1,0.2-0.2,0.3-0.3,0.5c32.4,30.6,72.9,47.2,115.6,47.2c48.3,0,93.7-21.2,127.8-59.8c2-2.2,3.9-4.5,5.8-6.8
			C373.3,444.6,373.2,444.5,373.1,444.3z"/>
	</g>
	<g>
		<path class="st4" d="M58.2,403.6c-0.2,0.1-0.3,0.1-0.5,0.2c9.8,23.5,23.2,45.1,39.9,64c22.6,25.6,49.7,44.3,79.2,55.2
			c0.1-0.2,0.2-0.4,0.3-0.5c-29.5-10.9-56.6-29.6-79.1-55.1C81.3,448.6,68,427,58.2,403.6z"/>
		<path class="st4" d="M115.4,128.7c-6.2,5.5-12.1,11.5-17.7,17.8c-24.6,27.8-42.1,61.6-51.3,98.4c0.2,0,0.4,0,0.6,0
			c9.2-36.7,26.6-70.2,51.1-97.9c5.6-6.4,11.5-12.3,17.7-17.8C115.6,129,115.5,128.9,115.4,128.7z"/>
		<path class="st4" d="M382,146.5c-8.7-9.8-18-18.6-27.9-26.4c-0.3,0.1-0.5,0.1-0.8,0.2c10,7.8,19.5,16.7,28.3,26.6
			c37.9,42.8,58.7,99.7,58.7,160.2c0,60.5-20.9,117.4-58.7,160.2c-24.3,27.4-53.7,47-85.8,57.4c0.1,0.2,0.2,0.4,0.4,0.5
			c32.1-10.5,61.6-30.1,85.9-57.5c38-42.9,58.9-100,58.9-160.6C440.9,246.5,420,189.4,382,146.5z"/>
	</g>
	<g>
		<path class="st4" d="M442.5,206.1l-0.7,0c12.3,31.4,18.8,65.7,18.8,101.1c0,66.6-23,129.3-64.7,176.4
			c-34.2,38.6-77.6,63-124.6,70.5c0,0.2,0,0.5,0,0.7c47.1-7.6,90.7-32,125-70.7c41.8-47.2,64.9-110.1,64.9-176.9
			C461.2,271.8,454.8,237.5,442.5,206.1z"/>
		<path class="st4" d="M41.4,418.6c8,18.1,17.9,35.1,29.7,50.7c0.1-0.2,0.3-0.3,0.4-0.5c-11.7-15.5-21.5-32.3-29.5-50.2
			C41.9,418.5,41.7,418.6,41.4,418.6z"/>
		<path class="st4" d="M49.6,180.3c-0.2,0-0.4-0.1-0.6-0.1c-19.9,38.1-30.5,81.6-30.5,127c0,38.7,7.7,76,22.4,109.8
			c0.2,0,0.4,0,0.7,0C26.8,383.2,19,345.9,19,307.2C19,261.8,29.6,218.4,49.6,180.3z"/>
		<path class="st4" d="M347.6,89.3c0-0.3,0-0.5,0-0.8C315,68,278.1,57,239.8,57c-1.9,0-3.9,0-5.8,0.1v0.7c1.9-0.1,3.9-0.1,5.8-0.1
			C278.2,57.7,315,68.7,347.6,89.3z"/>
	</g>
	<g>
		<path class="st4" d="M175.4,44.6c0-0.2,0-0.5-0.1-0.7c-21.8,6.8-42.7,17-62,30.5c0.1,0.2,0.2,0.4,0.3,0.7
			C132.9,61.6,153.6,51.4,175.4,44.6z"/>
		<path class="st4" d="M0.2,343.1c3.8,32.6,12.6,63.9,26.2,92.5c0.2-0.2,0.3-0.3,0.5-0.5c-13.5-28.5-22.3-59.6-26-92
			C0.6,343.1,0.4,343.1,0.2,343.1z"/>
		<path class="st4" d="M250.8,579.3c-3.6,0.2-7.3,0.3-11,0.3c-45.7,0-89.4-14.3-127.2-40.9c-0.1,0.2-0.2,0.4-0.3,0.7
			c37.9,26.7,81.7,41,127.5,41c3.7,0,7.3-0.1,11-0.3C250.8,579.7,250.8,579.5,250.8,579.3z"/>
		<path class="st4" d="M410.7,114.1c-22.4-25.3-48.5-45.1-76.9-58.6c0,0.3,0,0.5-0.1,0.8c28.2,13.5,54.1,33.1,76.5,58.4
			c30.9,34.9,52.4,77.7,63,124.3c0.2,0,0.4,0,0.7,0C463.3,192.1,441.8,149.1,410.7,114.1z"/>
	</g>
	<g>
		<path class="st4" d="M239.8,11.7c6.3,0,12.6,0.3,18.9,0.8v-0.4c-6.3-0.5-12.5-0.8-18.9-0.8c-30.8,0-60.8,6-89.4,17.7
			c0,0.1,0.1,0.2,0.1,0.4C179,17.7,209,11.7,239.8,11.7z"/>
		<path class="st4" d="M-16.5,366.1c-0.1,0-0.2,0-0.4,0c3.4,19.2,8.6,38,15.4,56.3c8.7,23.2,19.9,44.8,33.3,64.7
			c0.1-0.1,0.2-0.2,0.3-0.3c-13.5-19.8-24.6-41.4-33.3-64.6C-8,404-13.1,385.3-16.5,366.1z"/>
		<path class="st4" d="M63.4,88.5c-3,3.1-5.9,6.3-8.8,9.5c-21.8,24.7-39.4,53-52.3,84.4c0.1,0.1,0.2,0.2,0.2,0.3
			c12.9-31.4,30.5-59.8,52.3-84.5c2.9-3.3,5.8-6.4,8.8-9.5C63.6,88.7,63.5,88.6,63.4,88.5z"/>
		<path class="st4" d="M420.6,520.7c-23.1,25-49.6,44.7-79,58.7c-32.2,15.4-66.5,23.2-101.8,23.2c-7.8,0-15.5-0.4-23.1-1.2
			c0,0.1,0,0.3,0,0.4c7.6,0.7,15.3,1.2,23.1,1.2c35.4,0,69.6-7.8,101.9-23.3c29.4-14,55.9-33.8,79-58.7
			C420.7,520.9,420.6,520.8,420.6,520.7z"/>
		<path class="st4" d="M365.8,48.2c0-0.1,0-0.3,0-0.4c-7.8-4.8-15.8-9.2-24.1-13.2c-26.1-12.5-53.5-20-81.7-22.4v0.4
			c28.2,2.4,55.5,9.9,81.5,22.3C349.9,38.9,358,43.3,365.8,48.2z"/>
	</g>
</g>
<g>
	<g>
		<linearGradient id="SVGID_4_" gradientUnits="userSpaceOnUse" x1="100.6781" y1="183.1607" x2="104.9916" y2="183.1607">
			<stop  offset="0" style="stop-color:#27ECB8"/>
			<stop  offset="1" style="stop-color:#A2D4CC"/>
		</linearGradient>
		<path class="st5" d="M102.8,185.4c2.9,0,2.9-4.5,0-4.5C100,180.9,100,185.4,102.8,185.4L102.8,185.4z"/>
	</g>
	<g>
		<linearGradient id="SVGID_5_" gradientUnits="userSpaceOnUse" x1="122.8486" y1="47.0193" x2="133.626" y2="47.0193">
			<stop  offset="0" style="stop-color:#27ECB8"/>
			<stop  offset="1" style="stop-color:#99D7B4"/>
		</linearGradient>
		<path class="st6" d="M128.2,52.6c7.2,0,7.2-11.1,0-11.1C121.1,41.4,121.1,52.6,128.2,52.6L128.2,52.6z"/>
	</g>
	<g>
		<linearGradient id="SVGID_6_" gradientUnits="userSpaceOnUse" x1="387.0624" y1="537.9214" x2="391.3758" y2="537.9214">
			<stop  offset="0" style="stop-color:#27ECB8"/>
			<stop  offset="1" style="stop-color:#A2D4CC"/>
		</linearGradient>
		<path class="st7" d="M389.2,540.2c2.9,0,2.9-4.5,0-4.5C386.3,535.7,386.3,540.2,389.2,540.2L389.2,540.2z"/>
	</g>
	<g>
		<linearGradient id="SVGID_7_" gradientUnits="userSpaceOnUse" x1="64.6525" y1="426.9355" x2="77.5927" y2="426.9355">
			<stop  offset="0" style="stop-color:#27ECB8"/>
			<stop  offset="1" style="stop-color:#A2D4CC"/>
		</linearGradient>
		<path class="st8" d="M71.1,433.6c8.6,0,8.6-13.4,0-13.4S62.5,433.6,71.1,433.6L71.1,433.6z"/>
	</g>
	<g>
		<linearGradient id="SVGID_8_" gradientUnits="userSpaceOnUse" x1="186.3323" y1="435.0703" x2="195.0049" y2="435.0703">
			<stop  offset="8.527380e-02" style="stop-color:#4432F6"/>
			<stop  offset="0.301" style="stop-color:#423BEB"/>
			<stop  offset="0.682" style="stop-color:#3B53CD"/>
			<stop  offset="1" style="stop-color:#356BAF"/>
		</linearGradient>
		<path class="st9" d="M190.7,439.6c5.8,0,5.8-9,0-9C184.9,430.6,184.9,439.6,190.7,439.6L190.7,439.6z"/>
	</g>
	<g>
		<linearGradient id="SVGID_9_" gradientUnits="userSpaceOnUse" x1="421.1886" y1="268.5899" x2="429.8611" y2="268.5899">
			<stop  offset="8.527380e-02" style="stop-color:#4432F6"/>
			<stop  offset="0.301" style="stop-color:#423BEB"/>
			<stop  offset="0.682" style="stop-color:#3B53CD"/>
			<stop  offset="1" style="stop-color:#356BAF"/>
		</linearGradient>
		<path class="st10" d="M425.5,273.1c5.8,0,5.8-9,0-9C419.7,264.1,419.7,273.1,425.5,273.1L425.5,273.1z"/>
	</g>
	<g>
		<linearGradient id="SVGID_10_" gradientUnits="userSpaceOnUse" x1="406.9207" y1="252.5541" x2="410.7975" y2="252.5541">
			<stop  offset="8.527380e-02" style="stop-color:#4432F6"/>
			<stop  offset="0.301" style="stop-color:#423BEB"/>
			<stop  offset="0.682" style="stop-color:#3B53CD"/>
			<stop  offset="1" style="stop-color:#356BAF"/>
		</linearGradient>
		<path class="st11" d="M408.9,254.6c2.6,0,2.6-4,0-4C406.3,250.6,406.3,254.6,408.9,254.6L408.9,254.6z"/>
	</g>
	<g>
		<linearGradient id="SVGID_11_" gradientUnits="userSpaceOnUse" x1="390.2247" y1="76.875" x2="394.538" y2="76.875">
			<stop  offset="8.527380e-02" style="stop-color:#4432F6"/>
			<stop  offset="0.7534" style="stop-color:#2394B1"/>
		</linearGradient>
		<path class="st12" d="M392.4,79.1c2.9,0,2.9-4.5,0-4.5C389.5,74.6,389.5,79.1,392.4,79.1L392.4,79.1z"/>
	</g>
	<g>
		<linearGradient id="SVGID_12_" gradientUnits="userSpaceOnUse" x1="269.8237" y1="164.5745" x2="274.137" y2="164.5745">
			<stop  offset="0" style="stop-color:#27ECB8"/>
			<stop  offset="1" style="stop-color:#99D7B4"/>
		</linearGradient>
		<path class="st13" d="M272,166.8c2.9,0,2.9-4.5,0-4.5C269.1,162.3,269.1,166.8,272,166.8L272,166.8z"/>
	</g>
	<g>
		<linearGradient id="SVGID_13_" gradientUnits="userSpaceOnUse" x1="324.8217" y1="102.1443" x2="329.135" y2="102.1443">
			<stop  offset="0" style="stop-color:#27ECB8"/>
			<stop  offset="1" style="stop-color:#99D7B4"/>
		</linearGradient>
		<path class="st14" d="M327,104.4c2.9,0,2.9-4.5,0-4.5C324.1,99.9,324.1,104.4,327,104.4L327,104.4z"/>
	</g>
</g>
</svg>
