<?xml version="1.0" encoding="utf-8"?>
<!-- Generator: Adobe Illustrator 21.1.0, SVG Export Plug-In . SVG Version: 6.00 Build 0)  -->
<svg version="1.1" xmlns="http://www.w3.org/2000/svg" xmlns:xlink="http://www.w3.org/1999/xlink" x="0px" y="0px"
	 viewBox="0 0 500 334.4" style="enable-background:new 0 0 500 334.4;" xml:space="preserve">
<style type="text/css">
	.st0{fill:url(#SVGID_1_);}
	.st1{fill:url(#SVGID_2_);}
	.st2{fill:url(#SVGID_3_);}
	.st3{fill:url(#SVGID_4_);}
	.st4{fill:url(#SVGID_5_);}
	.st5{fill:url(#SVGID_6_);}
	.st6{fill:url(#SVGID_7_);}
	.st7{fill:url(#SVGID_8_);}
	.st8{fill:url(#SVGID_9_);}
	.st9{fill:url(#SVGID_10_);}
	.st10{fill:url(#SVGID_11_);}
	.st11{fill:url(#SVGID_12_);}
</style>
<g id="Layer_1">
</g>
<g id="Layer_2">
	<g>
		
			<linearGradient id="SVGID_1_" gradientUnits="userSpaceOnUse" x1="354.5629" y1="661.1921" x2="457.0308" y2="661.1921" gradientTransform="matrix(0.7071 -0.7071 0.7071 0.7071 -294.2205 107.0499)">
			<stop  offset="0" style="stop-color:#27ECB8"/>
			<stop  offset="1" style="stop-color:#99D7B4"/>
		</linearGradient>
		<path class="st0" d="M417.1,287.8c0,0-17.8,25.8,14.4,38.6c42.6,16.9,87.5-43.1,60.1-79.5C473.1,222.4,432.9,264,417.1,287.8z"/>
		
			<linearGradient id="SVGID_2_" gradientUnits="userSpaceOnUse" x1="5.001" y1="147.7969" x2="175.5201" y2="318.316" gradientTransform="matrix(0.9215 -0.3883 0.3883 0.9215 -37.8996 -78.1735)">
			<stop  offset="8.527380e-02" style="stop-color:#4432F6"/>
			<stop  offset="0.301" style="stop-color:#423BEB"/>
			<stop  offset="0.682" style="stop-color:#3B53CD"/>
			<stop  offset="1" style="stop-color:#356BAF"/>
		</linearGradient>
		<path class="st1" d="M33,69.9c0,0-72,47.3-3.3,113.1c90.9,87,267.2-19.2,235.2-140.1C243.3-38.5,97.8,25.6,33,69.9z"/>
		<g>
			<g>
				<g>
					
						<linearGradient id="SVGID_3_" gradientUnits="userSpaceOnUse" x1="-769.4618" y1="-372.6426" x2="-765.6544" y2="-372.6426" gradientTransform="matrix(0 1 -1 0 1.6509 840.6636)">
						<stop  offset="0" style="stop-color:#27ECB8"/>
						<stop  offset="1" style="stop-color:#A2D4CC"/>
					</linearGradient>
					<path class="st2" d="M372.3,73.1c0,2.5,3.9,2.5,3.9,0C376.3,70.6,372.3,70.6,372.3,73.1L372.3,73.1z"/>
				</g>
			</g>
			<g>
				<g>
					
						<linearGradient id="SVGID_4_" gradientUnits="userSpaceOnUse" x1="-749.8924" y1="-492.8116" x2="-740.3794" y2="-492.8116" gradientTransform="matrix(0 1 -1 0 1.6509 840.6636)">
						<stop  offset="0" style="stop-color:#27ECB8"/>
						<stop  offset="1" style="stop-color:#99D7B4"/>
					</linearGradient>
					<path class="st3" d="M489.5,95.5c0,6.3,9.8,6.3,9.8,0C499.4,89.2,489.5,89.2,489.5,95.5L489.5,95.5z"/>
				</g>
			</g>
			<g>
				<g>
					
						<linearGradient id="SVGID_5_" gradientUnits="userSpaceOnUse" x1="-516.6766" y1="-59.5031" x2="-512.8693" y2="-59.5031" gradientTransform="matrix(0 1 -1 0 1.6509 840.6636)">
						<stop  offset="0" style="stop-color:#27ECB8"/>
						<stop  offset="1" style="stop-color:#A2D4CC"/>
					</linearGradient>
					<path class="st4" d="M59.2,325.9c0,2.5,3.9,2.5,3.9,0C63.1,323.4,59.2,323.4,59.2,325.9L59.2,325.9z"/>
				</g>
			</g>
			<g>
				<g>
					
						<linearGradient id="SVGID_6_" gradientUnits="userSpaceOnUse" x1="-801.2608" y1="-157.4679" x2="-789.8388" y2="-157.4679" gradientTransform="matrix(0 1 -1 0 1.6509 840.6636)">
						<stop  offset="0" style="stop-color:#27ECB8"/>
						<stop  offset="1" style="stop-color:#A2D4CC"/>
					</linearGradient>
					<path class="st5" d="M153.2,45.1c0,7.6,11.8,7.6,11.8,0S153.2,37.5,153.2,45.1L153.2,45.1z"/>
				</g>
			</g>
			<g>
				<g>
					
						<linearGradient id="SVGID_7_" gradientUnits="userSpaceOnUse" x1="-766.0189" y1="-327.4131" x2="-758.3638" y2="-327.4131" gradientTransform="matrix(0 1 -1 0 1.6509 840.6636)">
						<stop  offset="8.527380e-02" style="stop-color:#4432F6"/>
						<stop  offset="0.301" style="stop-color:#423BEB"/>
						<stop  offset="0.682" style="stop-color:#3B53CD"/>
						<stop  offset="1" style="stop-color:#356BAF"/>
					</linearGradient>
					<path class="st6" d="M325.1,78.5c0,5.1,7.9,5.1,7.9,0C333,73.4,325.1,73.4,325.1,78.5L325.1,78.5z"/>
				</g>
			</g>
			<g>
				<g>
					
						<linearGradient id="SVGID_8_" gradientUnits="userSpaceOnUse" x1="-603.3259" y1="-76.8133" x2="-595.6708" y2="-76.8133" gradientTransform="matrix(0 1 -1 0 1.6509 840.6636)">
						<stop  offset="8.527380e-02" style="stop-color:#4432F6"/>
						<stop  offset="0.301" style="stop-color:#423BEB"/>
						<stop  offset="0.682" style="stop-color:#3B53CD"/>
						<stop  offset="1" style="stop-color:#356BAF"/>
					</linearGradient>
					<path class="st7" d="M74.5,241.2c0,5.1,7.9,5.1,7.9,0C82.4,236.1,74.5,236.1,74.5,241.2L74.5,241.2z"/>
				</g>
			</g>
			<g>
				<g>
					
						<linearGradient id="SVGID_9_" gradientUnits="userSpaceOnUse" x1="-615.9197" y1="-90.9677" x2="-612.4978" y2="-90.9677" gradientTransform="matrix(0 1 -1 0 1.6509 840.6636)">
						<stop  offset="8.527380e-02" style="stop-color:#4432F6"/>
						<stop  offset="0.301" style="stop-color:#423BEB"/>
						<stop  offset="0.682" style="stop-color:#3B53CD"/>
						<stop  offset="1" style="stop-color:#356BAF"/>
					</linearGradient>
					<path class="st8" d="M90.8,226.5c0,2.3,3.5,2.3,3.5,0C94.4,224.2,90.8,224.2,90.8,226.5L90.8,226.5z"/>
				</g>
			</g>
			<g>
				<g>
					
						<linearGradient id="SVGID_10_" gradientUnits="userSpaceOnUse" x1="-513.8854" y1="-466.4586" x2="-510.0781" y2="-466.4586" gradientTransform="matrix(0 1 -1 0 1.6509 840.6636)">
						<stop  offset="8.527380e-02" style="stop-color:#4432F6"/>
						<stop  offset="0.7534" style="stop-color:#2394B1"/>
					</linearGradient>
					<path class="st9" d="M466.1,328.7c0,2.5,3.9,2.5,3.9,0C470.1,326.1,466.1,326.1,466.1,328.7L466.1,328.7z"/>
				</g>
			</g>
			<g>
				
					<linearGradient id="SVGID_11_" gradientUnits="userSpaceOnUse" x1="-620.1607" y1="-389.0482" x2="-616.3534" y2="-389.0482" gradientTransform="matrix(0 1 -1 0 1.6509 840.6636)">
					<stop  offset="0" style="stop-color:#27ECB8"/>
					<stop  offset="1" style="stop-color:#99D7B4"/>
				</linearGradient>
				<path class="st10" d="M388.7,222.4c0,2.5,3.9,2.5,3.9,0C392.7,219.9,388.7,219.9,388.7,222.4L388.7,222.4z"/>
			</g>
			<g>
				
					<linearGradient id="SVGID_12_" gradientUnits="userSpaceOnUse" x1="-571.6152" y1="-444.154" x2="-567.8079" y2="-444.154" gradientTransform="matrix(0 1 -1 0 1.6509 840.6636)">
					<stop  offset="0" style="stop-color:#27ECB8"/>
					<stop  offset="1" style="stop-color:#99D7B4"/>
				</linearGradient>
				<path class="st11" d="M443.8,271c0,2.5,3.9,2.5,3.9,0C447.8,268.4,443.8,268.4,443.8,271L443.8,271z"/>
			</g>
		</g>
	</g>
</g>
</svg>
