<?xml version="1.0" encoding="utf-8"?>
<!-- Generator: Adobe Illustrator 21.1.0, SVG Export Plug-In . SVG Version: 6.00 Build 0)  -->
<svg version="1.1" xmlns="http://www.w3.org/2000/svg" xmlns:xlink="http://www.w3.org/1999/xlink" x="0px" y="0px"
	 viewBox="0 0 500 542" style="enable-background:new 0 0 500 542;" xml:space="preserve">
<style type="text/css">
	.st0{fill:url(#SVGID_1_);}
	.st1{fill:url(#SVGID_2_);}
	.st2{fill:#FA969E;}
	.st3{fill:url(#SVGID_3_);}
	.st4{fill:url(#SVGID_4_);}
	.st5{fill:url(#SVGID_5_);}
	.st6{fill:url(#SVGID_6_);}
	.st7{fill:url(#SVGID_7_);}
	.st8{fill:url(#SVGID_8_);}
	.st9{fill:#FFFFFF;}
</style>
<g id="Layer_1">
</g>
<g id="Layer_2">
	<g>
		<linearGradient id="SVGID_1_" gradientUnits="userSpaceOnUse" x1="34.5488" y1="83.5606" x2="238.6435" y2="287.6552">
			<stop  offset="8.527380e-02" style="stop-color:#4432F6"/>
			<stop  offset="0.7534" style="stop-color:#2394B1"/>
			<stop  offset="1" style="stop-color:#4AADAF"/>
		</linearGradient>
		<path class="st0" d="M83.1,54C-2.2,73.6,0.6,196.6,0.6,196.6C2,301.5,128.5,319.7,157.2,314.1c28.7-5.6,118.8-8.4,118.8-117.5
			C276.1,196.6,273.3,24.8,83.1,54z"/>
		<linearGradient id="SVGID_2_" gradientUnits="userSpaceOnUse" x1="470.0477" y1="75.491" x2="423.1062" y2="156.7961">
			<stop  offset="0" style="stop-color:#27C7B8"/>
			<stop  offset="1" style="stop-color:#A2D4CC"/>
		</linearGradient>
		<path class="st1" d="M394.9,100.3c6.1-27.7,32.3-33.5,54.1-32c21.8,1.4,57.1,28.1,49.3,63.2c-7.8,35-38.9,32.5-58.8,31.6
			C419.5,162.1,388.8,127.9,394.9,100.3z"/>
		<path class="st2" d="M357.3,490.4c3.2-14.6,17-17.6,28.5-16.9c11.5,0.8,30.1,14.8,26,33.3c-4.1,18.5-20.5,17.1-31,16.6
			C370.3,523,354.2,505,357.3,490.4z"/>
		<g>
			<g>
				<g>
					<linearGradient id="SVGID_3_" gradientUnits="userSpaceOnUse" x1="221.9723" y1="237.5367" x2="225.5483" y2="237.5367">
						<stop  offset="0" style="stop-color:#27ECB8"/>
						<stop  offset="1" style="stop-color:#A2D4CC"/>
					</linearGradient>
					<path class="st3" d="M223.8,239.4c2.4,0,2.4-3.7,0-3.7C221.4,235.7,221.4,239.4,223.8,239.4L223.8,239.4z"/>
				</g>
			</g>
			<g>
				<g>
					<linearGradient id="SVGID_4_" gradientUnits="userSpaceOnUse" x1="299.5026" y1="65.5212" x2="308.4374" y2="65.5212">
						<stop  offset="0" style="stop-color:#27ECB8"/>
						<stop  offset="1" style="stop-color:#A2D4CC"/>
					</linearGradient>
					<path class="st4" d="M304,70.1c6,0,6-9.2,0-9.2C298,60.9,298,70.1,304,70.1L304,70.1z"/>
				</g>
			</g>
			<g>
				<g>
					<linearGradient id="SVGID_5_" gradientUnits="userSpaceOnUse" x1="459.3935" y1="531.644" x2="462.9694" y2="531.644">
						<stop  offset="0" style="stop-color:#27ECB8"/>
						<stop  offset="1" style="stop-color:#A2D4CC"/>
					</linearGradient>
					<path class="st5" d="M461.2,533.5c2.4,0,2.4-3.7,0-3.7C458.8,529.8,458.8,533.5,461.2,533.5L461.2,533.5z"/>
				</g>
			</g>
			<g>
				<g>
					<linearGradient id="SVGID_6_" gradientUnits="userSpaceOnUse" x1="209.3581" y1="513.5712" x2="220.086" y2="513.5712">
						<stop  offset="0" style="stop-color:#27ECB8"/>
						<stop  offset="1" style="stop-color:#A2D4CC"/>
					</linearGradient>
					<path class="st6" d="M214.7,519.1c7.2,0,7.2-11.1,0-11.1C207.6,508,207.6,519.1,214.7,519.1L214.7,519.1z"/>
				</g>
			</g>
			<g>
				<linearGradient id="SVGID_7_" gradientUnits="userSpaceOnUse" x1="408.8182" y1="463.6294" x2="416.008" y2="463.6294">
					<stop  offset="8.527380e-02" style="stop-color:#4432F6"/>
					<stop  offset="0.7534" style="stop-color:#2394B1"/>
				</linearGradient>
				<path class="st7" d="M412.4,467.3c4.8,0,4.8-7.4,0-7.4C407.6,459.9,407.6,467.3,412.4,467.3L412.4,467.3z"/>
			</g>
			<g>
				<g>
					<linearGradient id="SVGID_8_" gradientUnits="userSpaceOnUse" x1="368.3606" y1="76.7171" x2="371.9365" y2="76.7171">
						<stop  offset="8.527380e-02" style="stop-color:#4432F6"/>
						<stop  offset="0.7534" style="stop-color:#2394B1"/>
					</linearGradient>
					<path class="st8" d="M370.1,78.6c2.4,0,2.4-3.7,0-3.7C367.8,74.9,367.8,78.6,370.1,78.6L370.1,78.6z"/>
				</g>
			</g>
		</g>
		<g>
			<g>
				<path class="st9" d="M411.2,269.3c0,30.8-8.8,60.1-25,84.1c0.1,0.1,0.2,0.2,0.3,0.2c16.3-24.2,25.1-53.5,25.1-84.4
					c0-37.3-12.9-72.3-36.2-98.7c-7-7.9-14.7-14.7-22.9-20.4c-0.1,0.1-0.1,0.2-0.2,0.3c8.2,5.7,15.9,12.5,22.8,20.4
					C398.4,197.2,411.2,232.2,411.2,269.3z"/>
				<path class="st9" d="M182.4,197.5c-0.1-0.1-0.2-0.1-0.3-0.2c-11.5,21.5-17.7,46.2-17.7,72c0,31.6,9.3,61.7,26.3,86.1
					c0.1,0,0.3-0.1,0.4-0.1C174,331,164.8,301,164.8,269.3C164.8,243.6,170.9,218.9,182.4,197.5z"/>
				<path class="st9" d="M274.1,130.6c-27,3.4-52.1,16.7-71.9,38.2c0.1,0.1,0.2,0.2,0.3,0.3c19.7-21.5,44.7-34.7,71.6-38.1
					C274.1,130.9,274.1,130.8,274.1,130.6z"/>
				<path class="st9" d="M288,408.5c-4.3,0-8.5-0.3-12.7-0.7c0,0.1,0,0.3,0,0.4c4.2,0.5,8.4,0.7,12.7,0.7c17.3,0,34-4,49.3-11.5
					c-0.1-0.1-0.1-0.2-0.1-0.4C321.9,404.6,305.2,408.5,288,408.5z"/>
			</g>
			<g>
				<path class="st9" d="M217.2,131.4c16.5-10.8,34.8-17.8,53.9-20.4c-0.1-0.1-0.3-0.3-0.4-0.4c-19.1,2.6-37.3,9.5-53.7,20.3
					C217.1,131.2,217.1,131.3,217.2,131.4z"/>
				<path class="st9" d="M156.8,328.1c-6.5-18.5-9.9-38.3-9.9-58.8c0-32.5,8.6-63.6,24.5-89.9c-0.1-0.1-0.2-0.1-0.4-0.2
					c-16,26.3-24.5,57.4-24.5,90c0,20.5,3.4,40.3,9.8,58.8C156.5,328.1,156.6,328.1,156.8,328.1z"/>
				<path class="st9" d="M388,156.3c-13.7-15.4-29.7-27.3-47.1-35.3c0,0.2,0,0.3-0.1,0.5c17.3,7.9,33.2,19.7,46.8,35.1
					c23.4,26.5,37.6,60.7,40.7,97.5c0.1,0,0.3,0,0.4,0C425.7,217.1,411.5,182.9,388,156.3z"/>
				<path class="st9" d="M380.8,389.4c-25.7,25.5-58.3,39.4-92.8,39.4c-16.7,0-33-3.3-48.3-9.5c0,0.1,0,0.3-0.1,0.4
					c15.3,6.3,31.6,9.5,48.3,9.5c34.6,0,67.3-14,93.1-39.5C381,389.6,380.9,389.5,380.8,389.4z"/>
			</g>
			<g>
				<path class="st9" d="M130.2,291.1c-0.8-7.2-1.2-14.4-1.2-21.8c0-46.5,15.5-90.2,43.8-123.7c-0.1-0.1-0.3-0.2-0.4-0.2
					c-28.3,33.6-43.8,77.4-43.8,124c0,7.3,0.4,14.6,1.1,21.7C129.9,291.1,130,291.1,130.2,291.1z"/>
				<path class="st9" d="M446.6,281.2c0.1,0,0.3,0,0.4,0c0.2-4,0.3-7.9,0.3-11.9c0-48.1-16.6-93.3-46.7-127.3
					c-21.8-24.7-48.9-41.3-78.4-48.6v0.5c29.4,7.3,56.3,23.8,78.1,48.4c30,33.9,46.6,79,46.6,127
					C446.9,273.3,446.8,277.3,446.6,281.2z"/>
				<path class="st9" d="M405.5,390.2c-1.7,2.1-3.4,4.1-5.1,6.1c-30,33.9-69.9,52.6-112.4,52.6c-37.6,0-73.2-14.6-101.7-41.5
					c-0.1,0.1-0.2,0.3-0.2,0.4c28.6,26.9,64.2,41.6,101.9,41.6c42.6,0,82.6-18.7,112.7-52.7c1.7-2,3.4-4,5.1-6
					C405.7,390.5,405.6,390.4,405.5,390.2z"/>
			</g>
			<g>
				<path class="st9" d="M127.9,354.3c-0.2,0.1-0.3,0.1-0.5,0.2c8.6,20.7,20.5,39.8,35.2,56.5c19.9,22.5,43.8,39,69.8,48.7
					c0.1-0.2,0.2-0.3,0.3-0.5c-26-9.6-49.9-26.1-69.8-48.6C148.2,394,136.5,375,127.9,354.3z"/>
				<path class="st9" d="M178.3,112c-5.4,4.9-10.7,10.1-15.6,15.7c-21.7,24.5-37.1,54.3-45.2,86.7c0.2,0,0.3,0,0.5,0
					c8.1-32.3,23.4-61.9,45-86.3c5-5.6,10.2-10.8,15.6-15.7C178.5,112.3,178.4,112.1,178.3,112z"/>
				<path class="st9" d="M413.3,127.7c-7.7-8.7-15.9-16.4-24.6-23.2c-0.2,0-0.4,0.1-0.7,0.1c8.8,6.9,17.2,14.7,24.9,23.5
					c33.4,37.7,51.8,87.9,51.8,141.2c0,53.4-18.4,103.5-51.8,141.2c-21.4,24.2-47.4,41.4-75.7,50.6c0.1,0.2,0.2,0.3,0.3,0.5
					c28.3-9.3,54.3-26.5,75.7-50.7c33.5-37.8,51.9-88.1,51.9-141.6C465.3,215.8,446.8,165.5,413.3,127.7z"/>
			</g>
			<g>
				<path class="st9" d="M466.6,180.2l-0.6,0c10.9,27.7,16.6,57.9,16.6,89.2c0,58.7-20.3,114-57,155.5
					c-30.1,34-68.4,55.5-109.8,62.2c0,0.2,0,0.4,0,0.6c41.6-6.7,80-28.2,110.2-62.4c36.9-41.7,57.2-97,57.2-155.9
					C483.2,238.1,477.5,207.9,466.6,180.2z"/>
				<path class="st9" d="M113.1,367.5c7,15.9,15.8,30.9,26.2,44.7c0.1-0.2,0.2-0.3,0.4-0.5c-10.3-13.6-19-28.5-26-44.3
					C113.5,367.5,113.3,367.5,113.1,367.5z"/>
				<path class="st9" d="M120.3,157.5c-0.2,0-0.4-0.1-0.6-0.1c-17.6,33.6-26.9,71.9-26.9,111.9c0,34.1,6.8,67,19.7,96.8
					c0.2,0,0.4,0,0.6,0c-12.9-29.8-19.8-62.7-19.8-96.8C93.3,229.4,102.7,191,120.3,157.5z"/>
				<path class="st9" d="M383,77.3c0-0.2,0-0.5,0-0.7c-28.7-18.1-61.2-27.8-95-27.8c-1.7,0-3.4,0-5.1,0.1v0.6c1.7,0,3.4-0.1,5.1-0.1
					C321.8,49.4,354.3,59.1,383,77.3z"/>
			</g>
			<g>
				<path class="st9" d="M231.2,37.9c0-0.2,0-0.4-0.1-0.7c-19.2,6-37.6,15-54.6,26.8c0.1,0.2,0.2,0.4,0.2,0.6
					C193.7,52.8,212,43.9,231.2,37.9z"/>
				<path class="st9" d="M76.7,301c3.3,28.8,11.1,56.3,23.1,81.6c0.1-0.2,0.3-0.3,0.4-0.5c-11.9-25.1-19.6-52.5-23-81.1
					C77.1,301,76.9,301,76.7,301z"/>
				<path class="st9" d="M297.7,509.2c-3.2,0.2-6.4,0.3-9.7,0.3c-40.3,0-78.8-12.6-112.1-36.1c-0.1,0.2-0.2,0.4-0.2,0.6
					c33.4,23.5,72,36.1,112.4,36.1c3.2,0,6.5-0.1,9.7-0.3C297.7,509.6,297.7,509.4,297.7,509.2z"/>
				<path class="st9" d="M438.7,99.1c-19.8-22.3-42.8-39.7-67.8-51.7c0,0.2,0,0.4-0.1,0.7c24.9,11.9,47.7,29.2,67.4,51.5
					c27.3,30.8,46.2,68.5,55.5,109.6c0.2,0,0.4,0,0.6,0C485,167.8,466,130,438.7,99.1z"/>
			</g>
			<g>
				<path class="st9" d="M288,8.9c5.6,0,11.1,0.2,16.6,0.7V9.2c-5.5-0.4-11.1-0.7-16.6-0.7c-27.2,0-53.6,5.2-78.8,15.6
					c0,0.1,0.1,0.2,0.1,0.3C234.4,14.1,260.8,8.9,288,8.9z"/>
				<path class="st9" d="M62,321.3c-0.1,0-0.2,0-0.3,0c3,17,7.6,33.5,13.6,49.6c7.7,20.5,17.5,39.5,29.4,57c0.1-0.1,0.2-0.2,0.2-0.2
					c-11.9-17.5-21.7-36.5-29.3-56.9C69.5,354.7,65,338.2,62,321.3z"/>
				<path class="st9" d="M132.5,76.5c-2.6,2.7-5.2,5.5-7.8,8.4c-19.3,21.8-34.7,46.8-46.1,74.4c0.1,0.1,0.1,0.2,0.2,0.3
					c11.4-27.7,26.9-52.7,46.1-74.5c2.5-2.9,5.1-5.7,7.8-8.4C132.6,76.7,132.6,76.6,132.5,76.5z"/>
				<path class="st9" d="M447.4,457.6c-20.3,22-43.7,39.4-69.6,51.8c-28.4,13.6-58.6,20.5-89.7,20.5c-6.8,0-13.6-0.4-20.4-1
					c0,0.1,0,0.2,0,0.4c6.7,0.7,13.5,1,20.4,1c31.2,0,61.4-6.9,89.9-20.5c25.9-12.4,49.3-29.8,69.6-51.8
					C447.4,457.8,447.4,457.7,447.4,457.6z"/>
				<path class="st9" d="M399,41c0-0.1,0-0.3,0-0.4c-6.9-4.3-13.9-8.1-21.2-11.6c-23-11-47.1-17.6-72-19.7v0.4
					c24.8,2.1,48.9,8.7,71.9,19.7C385,32.8,392.1,36.7,399,41z"/>
			</g>
		</g>
	</g>
</g>
</svg>
