<?xml version="1.0" encoding="utf-8"?>
<!-- Generator: Adobe Illustrator 21.1.0, SVG Export Plug-In . SVG Version: 6.00 Build 0)  -->
<svg version="1.1" xmlns="http://www.w3.org/2000/svg" xmlns:xlink="http://www.w3.org/1999/xlink" x="0px" y="0px"
	 viewBox="0 0 500 888.1" style="enable-background:new 0 0 500 888.1;" xml:space="preserve">
<style type="text/css">
	.st0{fill:url(#SVGID_1_);}
	.st1{fill:#FFFFFF;}
	.st2{fill:url(#SVGID_2_);}
	.st3{fill:url(#SVGID_3_);}
	.st4{fill:url(#SVGID_4_);}
	.st5{fill:url(#SVGID_5_);}
	.st6{fill:url(#SVGID_6_);}
	.st7{fill:url(#SVGID_7_);}
	.st8{fill:url(#SVGID_8_);}
	.st9{fill:url(#SVGID_9_);}
	.st10{fill:url(#SVGID_10_);}
	.st11{fill:url(#SVGID_11_);}
	.st12{fill:url(#SVGID_12_);}
	.st13{fill:url(#SVGID_13_);}
	.st14{fill:url(#SVGID_14_);}
	.st15{fill:url(#SVGID_15_);}
	.st16{fill:url(#SVGID_16_);}
</style>
<g id="Layer_1">
</g>
<g id="Layer_2">
	<linearGradient id="SVGID_1_" gradientUnits="userSpaceOnUse" x1="690.3218" y1="328.6737" x2="-69.3495" y2="767.2701">
		<stop  offset="8.527380e-02" style="stop-color:#4432F6"/>
		<stop  offset="0.7534" style="stop-color:#2394B1"/>
		<stop  offset="1" style="stop-color:#4AADAF"/>
	</linearGradient>
	<path class="st0" d="M500.6,0C288.7,0,521.4,753.3,0.4,753.3v134.8h500.1V0z"/>
	<g>
		<g>
			<path class="st1" d="M469.3,466.4c5.9,0,5.9-9.1,0-9.1C463.4,457.3,463.4,466.4,469.3,466.4L469.3,466.4z"/>
		</g>
		<g>
			<g>
				<g>
					
						<linearGradient id="SVGID_2_" gradientUnits="userSpaceOnUse" x1="-605.2938" y1="1227.7584" x2="-600.1486" y2="1227.7584" gradientTransform="matrix(0.8453 0.5343 -0.5343 0.8453 1542.6775 -610.6801)">
						<stop  offset="0" style="stop-color:#27ECB8"/>
						<stop  offset="1" style="stop-color:#A2D4CC"/>
					</linearGradient>
					<path class="st2" d="M375.8,107.4c2.9,1.8,5.7-2.7,2.8-4.5C375.7,101,372.9,105.5,375.8,107.4L375.8,107.4z"/>
				</g>
			</g>
			<g>
				<g>
					
						<linearGradient id="SVGID_3_" gradientUnits="userSpaceOnUse" x1="-526.202" y1="1143.1904" x2="-521.0567" y2="1143.1904" gradientTransform="matrix(0.8453 0.5343 -0.5343 0.8453 1542.6775 -610.6801)">
						<stop  offset="0" style="stop-color:#27ECB8"/>
						<stop  offset="1" style="stop-color:#A2D4CC"/>
					</linearGradient>
					<path class="st3" d="M487.8,78.1c2.9,1.8,5.7-2.7,2.8-4.5C487.8,71.8,484.9,76.3,487.8,78.1L487.8,78.1z"/>
				</g>
			</g>
			<g>
				<g>
					<linearGradient id="SVGID_4_" gradientUnits="userSpaceOnUse" x1="469.5656" y1="713.9821" x2="473.9635" y2="713.9821">
						<stop  offset="0" style="stop-color:#27ECB8"/>
						<stop  offset="1" style="stop-color:#A2D4CC"/>
					</linearGradient>
					<path class="st4" d="M471.8,716.3c2.9,0,2.9-4.5,0-4.5C468.8,711.7,468.8,716.3,471.8,716.3L471.8,716.3z"/>
				</g>
			</g>
			<g>
				<g>
					<linearGradient id="SVGID_5_" gradientUnits="userSpaceOnUse" x1="292.7059" y1="734.5972" x2="305.8999" y2="734.5972">
						<stop  offset="0" style="stop-color:#27ECB8"/>
						<stop  offset="1" style="stop-color:#A2D4CC"/>
					</linearGradient>
					<path class="st5" d="M299.3,741.4c8.8,0,8.8-13.6,0-13.6C290.5,727.8,290.5,741.4,299.3,741.4L299.3,741.4z"/>
				</g>
			</g>
			<g>
				<g>
					<linearGradient id="SVGID_6_" gradientUnits="userSpaceOnUse" x1="72.7594" y1="790.9148" x2="81.602" y2="790.9148">
						<stop  offset="0" style="stop-color:#27ECB8"/>
						<stop  offset="1" style="stop-color:#A2D4CC"/>
					</linearGradient>
					<path class="st6" d="M77.2,795.5c5.9,0,5.9-9.1,0-9.1C71.3,786.3,71.3,795.5,77.2,795.5L77.2,795.5z"/>
				</g>
			</g>
			<g>
				<g>
					<linearGradient id="SVGID_7_" gradientUnits="userSpaceOnUse" x1="404.2859" y1="197.5938" x2="409.431" y2="197.5938">
						<stop  offset="0" style="stop-color:#27ECB8"/>
						<stop  offset="1" style="stop-color:#A2D4CC"/>
					</linearGradient>
					<path class="st7" d="M406.9,200.3c3.4,0,3.4-5.3,0-5.3C403.4,194.9,403.4,200.3,406.9,200.3L406.9,200.3z"/>
				</g>
			</g>
			<g>
				<g>
					<linearGradient id="SVGID_8_" gradientUnits="userSpaceOnUse" x1="378.9245" y1="288.612" x2="382.7827" y2="288.612">
						<stop  offset="0" style="stop-color:#27ECB8"/>
						<stop  offset="1" style="stop-color:#A2D4CC"/>
					</linearGradient>
					<path class="st8" d="M380.9,290.6c2.6,0,2.6-4,0-4C378.3,286.6,378.3,290.6,380.9,290.6L380.9,290.6z"/>
				</g>
			</g>
			<g>
				<g>
					<path class="st1" d="M251.5,649c2.2,0,2.2-3.4,0-3.4S249.3,649,251.5,649L251.5,649z"/>
				</g>
			</g>
			<g>
				<g>
					<path class="st1" d="M267.7,661.1c2.2,0,2.2-3.4,0-3.4C265.5,657.7,265.5,661.1,267.7,661.1L267.7,661.1z"/>
				</g>
			</g>
			<g>
				<g>
					<linearGradient id="SVGID_9_" gradientUnits="userSpaceOnUse" x1="54.8459" y1="624.0566" x2="58.1449" y2="624.0566">
						<stop  offset="0" style="stop-color:#27ECB8"/>
						<stop  offset="1" style="stop-color:#A2D4CC"/>
					</linearGradient>
					<path class="st9" d="M56.5,625.8c2.2,0,2.2-3.4,0-3.4C54.3,622.4,54.3,625.8,56.5,625.8L56.5,625.8z"/>
				</g>
			</g>
		</g>
	</g>
	<g>
		<g>
			<g>
				
					<linearGradient id="SVGID_10_" gradientUnits="userSpaceOnUse" x1="-1166.4641" y1="1454.9742" x2="-1161.6393" y2="1454.9742" gradientTransform="matrix(0.7071 0.7071 -0.7071 0.7071 1960.4796 217.5226)">
					<stop  offset="0" style="stop-color:#27ECB8"/>
					<stop  offset="1" style="stop-color:#A2D4CC"/>
				</linearGradient>
				<path class="st10" d="M106.8,425c2.3,2.3,5.8-1.3,3.5-3.5C108.1,419.2,104.5,422.7,106.8,425L106.8,425z"/>
			</g>
		</g>
		<g>
			<g>
				
					<linearGradient id="SVGID_11_" gradientUnits="userSpaceOnUse" x1="-1068.4603" y1="1444.8077" x2="-1060.7891" y2="1444.8077" gradientTransform="matrix(0.7071 0.7071 -0.7071 0.7071 1960.4796 217.5226)">
					<stop  offset="0" style="stop-color:#27ECB8"/>
					<stop  offset="1" style="stop-color:#A2D4CC"/>
				</linearGradient>
				<path class="st11" d="M183.3,489.2c3.6,3.6,9.2-2,5.6-5.6C185.2,479.9,179.6,485.5,183.3,489.2L183.3,489.2z"/>
			</g>
		</g>
		<g>
			<g>
				
					<linearGradient id="SVGID_12_" gradientUnits="userSpaceOnUse" x1="-1060.6359" y1="1459.2593" x2="-1056.8002" y2="1459.2593" gradientTransform="matrix(0.7071 0.7071 -0.7071 0.7071 1960.4796 217.5226)">
					<stop  offset="0" style="stop-color:#27ECB8"/>
					<stop  offset="1" style="stop-color:#A2D4CC"/>
				</linearGradient>
				<path class="st12" d="M178.6,502.1c1.8,1.8,4.6-1,2.8-2.8C179.6,497.5,176.8,500.3,178.6,502.1L178.6,502.1z"/>
			</g>
		</g>
		<g>
			<g>
				
					<linearGradient id="SVGID_13_" gradientUnits="userSpaceOnUse" x1="-973.2468" y1="1312.153" x2="-970.0413" y2="1312.153" gradientTransform="matrix(0.7071 0.7071 -0.7071 0.7071 1960.4796 217.5226)">
					<stop  offset="0" style="stop-color:#27ECB8"/>
					<stop  offset="1" style="stop-color:#A2D4CC"/>
				</linearGradient>
				<path class="st13" d="M344.4,459.5c1.5,1.5,3.9-0.8,2.3-2.3C345.3,455.6,342.9,458,344.4,459.5L344.4,459.5z"/>
			</g>
		</g>
		<g>
			<g>
				
					<linearGradient id="SVGID_14_" gradientUnits="userSpaceOnUse" x1="-1045.8512" y1="1615.5312" x2="-1018.0538" y2="1615.5312" gradientTransform="matrix(0.7071 0.7071 -0.7071 0.7071 1960.4796 217.5226)">
					<stop  offset="0" style="stop-color:#27ECB8"/>
					<stop  offset="1" style="stop-color:#A2D4CC"/>
				</linearGradient>
				<path class="st14" d="M78.3,640.3c13.1,13.1,33.4-7.2,20.3-20.3C85.5,606.9,65.2,627.2,78.3,640.3L78.3,640.3z"/>
			</g>
		</g>
		<g>
			
				<linearGradient id="SVGID_15_" gradientUnits="userSpaceOnUse" x1="-994.8934" y1="1616.0569" x2="-986.3737" y2="1616.0569" gradientTransform="matrix(0.7071 0.7071 -0.7071 0.7071 1960.4796 217.5226)">
				<stop  offset="8.527380e-02" style="stop-color:#4432F6"/>
				<stop  offset="0.7534" style="stop-color:#2394B1"/>
			</linearGradient>
			<path class="st15" d="M114.2,662.9c4,4,10.2-2.2,6.2-6.2C116.4,652.6,110.2,658.9,114.2,662.9L114.2,662.9z"/>
		</g>
	</g>
</g>
</svg>
