<?xml version="1.0" encoding="utf-8"?>
<!-- Generator: Adobe Illustrator 21.1.0, SVG Export Plug-In . SVG Version: 6.00 Build 0)  -->
<svg version="1.1" xmlns="http://www.w3.org/2000/svg" xmlns:xlink="http://www.w3.org/1999/xlink" x="0px" y="0px"
	 viewBox="0 0 500 422.4" style="enable-background:new 0 0 500 422.4;" xml:space="preserve">
<style type="text/css">
	.st0{fill:#FA969E;}
	.st1{fill:url(#SVGID_1_);}
	.st2{fill:url(#SVGID_2_);}
	.st3{fill:url(#SVGID_3_);}
	.st4{fill:url(#SVGID_4_);}
	.st5{clip-path:url(#SVGID_6_);}
	.st6{fill:url(#SVGID_7_);}
	.st7{fill:url(#SVGID_8_);}
	.st8{fill:url(#SVGID_9_);}
</style>
<g id="Layer_1">
</g>
<g id="Layer_2">
	<g>
		<g>
			<g>
				<g>
					<path class="st0" d="M137,307c-3.7-3.7-9.4,2-5.7,5.7C135,316.3,140.7,310.6,137,307L137,307z"/>
				</g>
				<g>
					<path class="st0" d="M132.4,273.2c-9.2-9.2-23.4,5.1-14.2,14.2C127.3,296.7,141.6,282.4,132.4,273.2L132.4,273.2z"/>
				</g>
				<g>
					
						<linearGradient id="SVGID_1_" gradientUnits="userSpaceOnUse" x1="-293.7928" y1="2262.2366" x2="-278.1191" y2="2262.2366" gradientTransform="matrix(-0.7071 -0.7071 0.7071 -0.7071 -1451.2999 1451.6547)">
						<stop  offset="0" style="stop-color:#27ECB8"/>
						<stop  offset="1" style="stop-color:#A2D4CC"/>
					</linearGradient>
					<path class="st1" d="M356.3,48.5c-7.4-7.4-18.8,4.1-11.5,11.5C352.2,67.3,363.6,55.9,356.3,48.5L356.3,48.5z"/>
				</g>
				<g>
					<g>
						
							<linearGradient id="SVGID_2_" gradientUnits="userSpaceOnUse" x1="-165.574" y1="2164.5974" x2="-149.9004" y2="2164.5974" gradientTransform="matrix(-0.7071 -0.7071 0.7071 -0.7071 -1451.2999 1451.6547)">
							<stop  offset="8.527380e-02" style="stop-color:#4432F6"/>
							<stop  offset="0.301" style="stop-color:#423BEB"/>
							<stop  offset="0.682" style="stop-color:#3B53CD"/>
							<stop  offset="1" style="stop-color:#356BAF"/>
						</linearGradient>
						<path class="st2" d="M196.6,26.9c-7.4-7.4-18.8,4.1-11.5,11.5C192.5,45.7,203.9,34.3,196.6,26.9L196.6,26.9z"/>
					</g>
				</g>
				<g>
					<g>
						
							<linearGradient id="SVGID_3_" gradientUnits="userSpaceOnUse" x1="-373.9999" y1="2275.6433" x2="-366.9936" y2="2275.6433" gradientTransform="matrix(-0.7071 -0.7071 0.7071 -0.7071 -1451.2999 1451.6547)">
							<stop  offset="8.527380e-02" style="stop-color:#4432F6"/>
							<stop  offset="0.301" style="stop-color:#423BEB"/>
							<stop  offset="0.682" style="stop-color:#3B53CD"/>
							<stop  offset="1" style="stop-color:#356BAF"/>
						</linearGradient>
						<path class="st3" d="M422.3,102c-3.3-3.3-8.4,1.8-5.1,5.1C420.5,110.4,425.6,105.3,422.3,102L422.3,102z"/>
					</g>
				</g>
				<g>
					
						<linearGradient id="SVGID_4_" gradientUnits="userSpaceOnUse" x1="-200.1779" y1="1944.4453" x2="-192.3826" y2="1944.4453" gradientTransform="matrix(-0.7071 -0.7071 0.7071 -0.7071 -1451.2999 1451.6547)">
						<stop  offset="0" style="stop-color:#27ECB8"/>
						<stop  offset="1" style="stop-color:#99D7B4"/>
					</linearGradient>
					<path class="st4" d="M65.3,212.7c-3.7-3.7-9.4,2-5.7,5.7C63.2,222.1,68.9,216.4,65.3,212.7L65.3,212.7z"/>
				</g>
			</g>
		</g>
		<g>
			<defs>
				<rect id="SVGID_5_" x="0.1" y="56" width="499.9" height="341.9"/>
			</defs>
			<clipPath id="SVGID_6_">
				<use xlink:href="#SVGID_5_"  style="overflow:visible;"/>
			</clipPath>
			<g class="st5">
				
					<linearGradient id="SVGID_7_" gradientUnits="userSpaceOnUse" x1="875.4603" y1="208.6785" x2="1384.4691" y2="208.6785" gradientTransform="matrix(-1 0 0 1 1379.9646 0)">
					<stop  offset="8.527380e-02" style="stop-color:#4432F6"/>
					<stop  offset="0.5419" style="stop-color:#2394B1"/>
					<stop  offset="1" style="stop-color:#4AADAF"/>
				</linearGradient>
				<path class="st6" d="M504.5,137.5c-126.5,17.9-255.9,7.7-382.1-11.8c-42-6.5-85-14-126.9-6.9v182.7h506.8L504.5,137.5z"/>
				<g>
					<linearGradient id="SVGID_8_" gradientUnits="userSpaceOnUse" x1="-2.3134" y1="262.7668" x2="504.5045" y2="262.7668">
						<stop  offset="0" style="stop-color:#27C1B8"/>
						<stop  offset="0.5473" style="stop-color:#27ECB8"/>
						<stop  offset="0.9933" style="stop-color:#97FDCA"/>
					</linearGradient>
					<path class="st7" d="M-1.8,219c80.4-25.3,168.1-21.2,252.5-12.1c84.4,9.1,169.2,23,253.9,16.2v102.6H-2.3L-1.8,219z"/>
				</g>
				<g>
					<linearGradient id="SVGID_9_" gradientUnits="userSpaceOnUse" x1="250" y1="247.9247" x2="250" y2="383.629">
						<stop  offset="8.527380e-02" style="stop-color:#4432F6"/>
						<stop  offset="0.5419" style="stop-color:#2394B1"/>
						<stop  offset="1" style="stop-color:#4AADAF"/>
					</linearGradient>
					<path class="st8" d="M377.6,259.9C251.4,283.8,122,296.4-4.5,274.4l0.6,71c74.6,32.3,155.8,44.5,235.1,35.2
						c48.6-5.7,96.4-19.2,145.1-24.3c42.6-4.4,85.5-2.3,128.2,0.6V251.4C462.6,242.8,419.7,252,377.6,259.9z"/>
				</g>
			</g>
		</g>
	</g>
</g>
</svg>
