<?xml version="1.0" encoding="utf-8"?>
<!-- Generator: Adobe Illustrator 21.1.0, SVG Export Plug-In . SVG Version: 6.00 Build 0)  -->
<svg version="1.1" id="Layer_1" xmlns="http://www.w3.org/2000/svg" xmlns:xlink="http://www.w3.org/1999/xlink" x="0px" y="0px"
	 viewBox="0 0 500 500" style="enable-background:new 0 0 500 500;" xml:space="preserve">
<style type="text/css">
	.st0{fill:url(#SVGID_1_);}
	.st1{fill:url(#SVGID_2_);}
	.st2{fill:url(#SVGID_3_);}
	.st3{fill:url(#SVGID_4_);}
	.st4{fill:url(#SVGID_5_);}
	.st5{fill:url(#SVGID_6_);}
	.st6{fill:url(#SVGID_7_);}
	.st7{fill:url(#SVGID_8_);}
	.st8{fill:url(#SVGID_9_);}
	.st9{fill:#FFFFFF;}
	.st10{clip-path:url(#SVGID_11_);}
	.st11{fill:#E0E0E2;}
	.st12{fill:url(#SVGID_12_);}
	.st13{opacity:0.2;fill:#EEEDF3;}
	.st14{fill:#FF3131;}
	.st15{fill:#FF7373;}
	.st16{fill:#010080;}
	.st17{fill:#F8B7B0;}
	.st18{fill:#E49F98;}
	.st19{fill:#77D2FF;}
	.st20{fill:url(#SVGID_13_);}
	.st21{fill:#4003A9;}
	.st22{fill:url(#SVGID_14_);}
	.st23{fill:#EEFAFF;}
	.st24{fill:#EEEDF3;}
	.st25{fill:#C8C7D9;}
	.st26{opacity:0.1;fill:#3F3F3F;}
	.st27{fill:url(#SVGID_15_);}
	.st28{fill:#E2E2E2;}
	.st29{fill:#F8AA00;}
	.st30{fill:#FFBB33;}
	.st31{fill:#ED9E00;}
	.st32{fill:#FE8A25;}
	.st33{fill:#FF3158;}
	.st34{fill:url(#SVGID_16_);}
</style>
<g>
	<g>
		<g>
			
				<linearGradient id="SVGID_1_" gradientUnits="userSpaceOnUse" x1="-1165.474" y1="-347.8524" x2="-1145.8358" y2="-347.8524" gradientTransform="matrix(0 1 -1 0 120.5762 1315.5889)">
				<stop  offset="0" style="stop-color:#27ECB8"/>
				<stop  offset="1" style="stop-color:#99D7B4"/>
			</linearGradient>
			<path class="st0" d="M458.3,159.9c0,13.1,20.3,13.1,20.3,0C478.6,146.8,458.3,146.8,458.3,159.9L458.3,159.9z"/>
		</g>
	</g>
	<g>
		<g>
			
				<linearGradient id="SVGID_2_" gradientUnits="userSpaceOnUse" x1="-1252.1461" y1="-150.1315" x2="-1232.5079" y2="-150.1315" gradientTransform="matrix(0 1 -1 0 120.5762 1315.5889)">
				<stop  offset="0" style="stop-color:#27ECB8"/>
				<stop  offset="1" style="stop-color:#99D7B4"/>
			</linearGradient>
			<path class="st1" d="M260.6,73.3c0,13.1,20.3,13.1,20.3,0C280.9,60.2,260.6,60.2,260.6,73.3L260.6,73.3z"/>
		</g>
	</g>
	<g>
		<g>
			
				<linearGradient id="SVGID_3_" gradientUnits="userSpaceOnUse" x1="-986.7126" y1="82.7999" x2="-967.0745" y2="82.7999" gradientTransform="matrix(0 1 -1 0 120.5762 1315.5889)">
				<stop  offset="0" style="stop-color:#27ECB8"/>
				<stop  offset="1" style="stop-color:#99D7B4"/>
			</linearGradient>
			<path class="st2" d="M27.6,338.7c0,13.1,20.3,13.1,20.3,0C47.9,325.6,27.6,325.6,27.6,338.7L27.6,338.7z"/>
		</g>
	</g>
	<g>
		<g>
			
				<linearGradient id="SVGID_4_" gradientUnits="userSpaceOnUse" x1="-1192.3329" y1="66.2482" x2="-1174.08" y2="66.2482" gradientTransform="matrix(0 1 -1 0 120.5762 1315.5889)">
				<stop  offset="8.527380e-02" style="stop-color:#4432F6"/>
				<stop  offset="0.301" style="stop-color:#423BEB"/>
				<stop  offset="0.682" style="stop-color:#3B53CD"/>
				<stop  offset="1" style="stop-color:#356BAF"/>
			</linearGradient>
			<path class="st3" d="M44.9,132.4c0,12.2,18.9,12.2,18.9,0C63.8,120.2,44.9,120.2,44.9,132.4L44.9,132.4z"/>
		</g>
	</g>
	<g>
		<g>
			
				<linearGradient id="SVGID_5_" gradientUnits="userSpaceOnUse" x1="-1211.317" y1="51.4758" x2="-1201.1649" y2="51.4758" gradientTransform="matrix(0 1 -1 0 120.5762 1315.5889)">
				<stop  offset="8.527380e-02" style="stop-color:#4432F6"/>
				<stop  offset="0.301" style="stop-color:#423BEB"/>
				<stop  offset="0.682" style="stop-color:#3B53CD"/>
				<stop  offset="1" style="stop-color:#356BAF"/>
			</linearGradient>
			<path class="st4" d="M63.9,109.3c0,6.8,10.5,6.8,10.5,0S63.9,102.6,63.9,109.3L63.9,109.3z"/>
		</g>
	</g>
	<g>
		<g>
			
				<linearGradient id="SVGID_6_" gradientUnits="userSpaceOnUse" x1="-978.0243" y1="1416.9873" x2="-962.2212" y2="1416.9873" gradientTransform="matrix(-0.9998 1.870000e-02 -1.870000e-02 -0.9998 -811.9019 1851.3611)">
				<stop  offset="8.527380e-02" style="stop-color:#4432F6"/>
				<stop  offset="0.301" style="stop-color:#423BEB"/>
				<stop  offset="0.682" style="stop-color:#3B53CD"/>
				<stop  offset="1" style="stop-color:#356BAF"/>
			</linearGradient>
			<path class="st5" d="M131.4,408.3c-10.5,0.2-10.2,16.5,0.3,16.3C142.2,424.5,141.9,408.2,131.4,408.3L131.4,408.3z"/>
		</g>
	</g>
	<g>
		<g>
			
				<linearGradient id="SVGID_7_" gradientUnits="userSpaceOnUse" x1="-1004.0245" y1="1387.7683" x2="-996.9602" y2="1387.7683" gradientTransform="matrix(-0.9998 1.870000e-02 -1.870000e-02 -0.9998 -811.9019 1851.3611)">
				<stop  offset="8.527380e-02" style="stop-color:#4432F6"/>
				<stop  offset="0.301" style="stop-color:#423BEB"/>
				<stop  offset="0.682" style="stop-color:#3B53CD"/>
				<stop  offset="1" style="stop-color:#356BAF"/>
			</linearGradient>
			<path class="st6" d="M162.4,441.5c-4.7,0.1-4.6,7.4,0.1,7.3C167.2,448.7,167.1,441.4,162.4,441.5L162.4,441.5z"/>
		</g>
	</g>
	<g>
		<g>
			
				<linearGradient id="SVGID_8_" gradientUnits="userSpaceOnUse" x1="-945.7869" y1="-322.7339" x2="-938.7228" y2="-322.7339" gradientTransform="matrix(0 1 -1 0 120.5762 1315.5889)">
				<stop  offset="8.527380e-02" style="stop-color:#4432F6"/>
				<stop  offset="0.301" style="stop-color:#423BEB"/>
				<stop  offset="0.682" style="stop-color:#3B53CD"/>
				<stop  offset="1" style="stop-color:#356BAF"/>
			</linearGradient>
			<path class="st7" d="M439.7,373.3c0,4.7,7.3,4.7,7.3,0C447,368.6,439.7,368.6,439.7,373.3L439.7,373.3z"/>
		</g>
	</g>
</g>
<linearGradient id="SVGID_9_" gradientUnits="userSpaceOnUse" x1="-1105.8063" y1="1177.4843" x2="-820.8342" y2="1462.4563" gradientTransform="matrix(-1 0 0 -1 -713.1895 1573.7456)">
	<stop  offset="0" style="stop-color:#27ECB8"/>
	<stop  offset="1" style="stop-color:#A2D4CC"/>
</linearGradient>
<path class="st8" d="M324.8,437.6C443.9,410.1,440,238.5,440,238.5C438,91.9,261.4,66.5,221.3,74.4c-40,7.8-165.9,11.7-165.9,164.1
	C55.4,238.5,59.3,478.4,324.8,437.6z"/>
<g>
	<g>
		<path class="st9" d="M175.6,338.4c-16.2-12.9-27.4-30.5-32.2-50.5c-0.1,0-0.2,0-0.3,0.1c4.8,20.1,16,37.8,32.3,50.7
			c19.7,15.6,44.4,22.3,69.6,19c7.6-1,14.9-2.8,21.9-5.5c0-0.1,0-0.2-0.1-0.3c-7,2.7-14.3,4.5-21.8,5.5
			C219.8,360.7,195.2,353.9,175.6,338.4z"/>
		<path class="st9" d="M324.6,228.1c0.1,0,0.2-0.1,0.2-0.1c-5.8-16-15.8-30.1-29.4-40.9c-16.7-13.2-37-20.1-58.2-19.8
			c-0.1,0.1-0.1,0.2-0.2,0.3c21.2-0.3,41.5,6.6,58.2,19.8C308.8,198,318.8,212.1,324.6,228.1z"/>
		<path class="st9" d="M315.3,312.3c11.3-18,16.5-38.9,14.7-60c-0.1,0-0.2,0-0.3,0c1.8,21.1-3.4,41.9-14.7,59.8
			C315.2,312.2,315.3,312.2,315.3,312.3z"/>
		<path class="st9" d="M161.9,204.7c2.1-2.6,4.3-5.1,6.6-7.5c-0.1-0.1-0.2-0.1-0.2-0.2c-2.3,2.4-4.5,4.9-6.5,7.5
			c-8.4,10.6-14.4,22.5-17.9,35.1c0.1,0,0.2,0,0.3,0.1C147.6,227.1,153.6,215.3,161.9,204.7z"/>
	</g>
	<g>
		<path class="st9" d="M342.5,277c-2.3,14.6-7.5,28.8-15.5,41.6c0.1,0,0.3,0,0.4-0.1c7.9-12.8,13.1-26.8,15.3-41.4
			C342.7,277.1,342.6,277.1,342.5,277z"/>
		<path class="st9" d="M268.1,157.8c12.9,3.7,25,10,35.8,18.5c17.2,13.6,29.4,31.8,35.5,52.6c0.1-0.1,0.2-0.1,0.3-0.2
			c-6.1-20.8-18.4-39-35.6-52.7c-10.8-8.5-22.9-14.8-35.8-18.5C268.2,157.7,268.2,157.8,268.1,157.8z"/>
		<path class="st9" d="M246.4,371.4c14.8-1.9,28.8-6.8,41.5-14.1c-0.1-0.1-0.1-0.1-0.2-0.2c-12.6,7.3-26.6,12.1-41.3,14
			c-25.4,3.3-50.3-2.3-71.2-15.8c-0.1,0.1-0.1,0.2-0.2,0.3C196,369.1,221,374.7,246.4,371.4z"/>
		<path class="st9" d="M127,269.6c-0.9-26.4,7.6-52.2,24.3-73.4c8.1-10.3,17.7-18.9,28.5-25.6c-0.1-0.1-0.1-0.2-0.2-0.2
			c-10.7,6.8-20.4,15.4-28.5,25.7c-16.8,21.2-25.3,47.1-24.4,73.6C126.8,269.7,126.9,269.6,127,269.6z"/>
	</g>
	<g>
		<path class="st9" d="M300.5,157c4.2,2.5,8.2,5.3,12,8.4c24.5,19.4,40.1,47.2,44,78.5c0.1,0,0.2-0.1,0.3-0.2
			c-4-31.4-19.6-59.2-44.1-78.6c-3.9-3.1-7.9-5.9-12-8.4C300.7,156.8,300.6,156.9,300.5,157z"/>
		<path class="st9" d="M152.1,355.1c-0.1,0.1-0.2,0.2-0.2,0.3c2,1.8,4,3.5,6.1,5.2c25.4,20.1,57.3,28.8,89.8,24.6
			c23.6-3.1,45.5-12.7,63.7-27.8l-0.3-0.2c-18.1,15-39.9,24.6-63.5,27.7c-32.5,4.2-64.3-4.5-89.6-24.5
			C156.1,358.6,154.1,356.9,152.1,355.1z"/>
		<path class="st9" d="M114.5,284.4c-0.3-1.9-0.5-3.8-0.7-5.7c-3.3-32.6,6.2-64.9,26.8-90.9c18.2-23,43.3-38.8,71.3-45
			c0-0.1-0.1-0.2-0.1-0.3c-28.1,6.3-53.1,22-71.4,45.1c-20.7,26.1-30.2,58.5-26.9,91.1c0.2,1.9,0.4,3.8,0.7,5.6
			C114.3,284.4,114.4,284.4,114.5,284.4z"/>
	</g>
	<g>
		<path class="st9" d="M268.3,129.2c0-0.1,0.1-0.2,0.1-0.4c-15.1-3.4-30.9-4.1-46.9-2c-21.6,2.8-41.9,10.6-59.6,22.5
			c0,0.1,0.1,0.2,0.1,0.4c17.7-11.9,38-19.7,59.5-22.5C237.5,125.1,253.2,125.8,268.3,129.2z"/>
		<path class="st9" d="M371.7,261.3c0.1-5.4-0.1-10.8-0.7-16.2c-2.4-23.6-10.6-45.4-23.8-64c-0.1,0.1-0.2,0.2-0.2,0.3
			c13.1,18.5,21.3,40.2,23.7,63.7c0.5,5.4,0.8,10.8,0.7,16.1C371.4,261.3,371.6,261.3,371.7,261.3z"/>
		<path class="st9" d="M249.2,398.9c8.3-1.1,16.4-2.9,24.2-5.4c0.1-0.2,0.2-0.3,0.3-0.5c-7.9,2.5-16.1,4.4-24.5,5.5
			c-36.1,4.7-71.5-5-99.7-27.2c-28.2-22.3-45.7-54.5-49.4-90.8c-2.4-23.2,1.2-46.3,10-67.6c-0.1,0-0.3,0-0.4,0
			c-8.9,21.2-12.4,44.4-10,67.6c3.7,36.3,21.3,68.7,49.5,91C177.5,393.9,213,403.6,249.2,398.9z"/>
	</g>
	<g>
		<path class="st9" d="M195.7,409.6l0.3-0.3c-19.9-4.9-38.6-14-55.1-27.1c-31-24.5-50.3-60-54.4-99.9c-3.3-32.7,3.9-65.1,20.5-93.3
			c-0.1-0.1-0.2-0.2-0.3-0.2C90,217,82.8,249.6,86.1,282.3c4.1,40,23.4,75.6,54.5,100.2C157.1,395.6,175.8,404.7,195.7,409.6z"/>
		<path class="st9" d="M268.5,114.6c-11.8-2.3-24-3.2-36.3-2.6c0,0.1,0,0.3,0.1,0.4c12.2-0.6,24.3,0.3,36,2.6
			C268.3,114.8,268.4,114.7,268.5,114.6z"/>
		<path class="st9" d="M375.8,206.7c0.1-0.1,0.2-0.2,0.3-0.3c-9.2-24.8-24.9-46.6-46-63.3c-18-14.2-38.7-23.8-60.6-28.3
			c-0.1,0.1-0.2,0.2-0.3,0.4c22,4.5,42.7,14.1,60.7,28.3C351,160.2,366.7,181.9,375.8,206.7z"/>
		<path class="st9" d="M290.6,401.3c0.1,0.1,0.3,0.2,0.4,0.3c23.5-10,44.4-25.9,60.8-46.6c0.8-1.1,1.6-2.1,2.5-3.2l-0.3-0.2
			c-0.8,1.1-1.6,2.1-2.5,3.2C335,375.5,314.1,391.3,290.6,401.3z"/>
	</g>
	<g>
		<path class="st9" d="M385.1,324.7c0.1,0.1,0.2,0.2,0.4,0.2c6.2-14.3,10.3-29.3,12.4-44.7c-0.1,0-0.3-0.1-0.4-0.1
			C395.4,295.5,391.3,310.4,385.1,324.7z"/>
		<path class="st9" d="M321.3,120c-16.8-10-35.1-16.7-54.3-19.9c0,0.2,0,0.3,0,0.5c19,3.2,37.3,9.9,54,19.8
			C321.1,120.3,321.2,120.2,321.3,120z"/>
		<path class="st9" d="M104.1,168.6c1.5-2,3-4.1,4.6-6c19.5-24.7,44.9-43.1,73.5-53.7c-0.1-0.1-0.1-0.3-0.2-0.4
			c-28.6,10.7-54,29.1-73.6,53.8c-1.6,2-3.1,4-4.6,6C103.9,168.4,104,168.5,104.1,168.6z"/>
		<path class="st9" d="M252,426.4c21.4-2.8,41.7-9.6,60.2-20c-0.1-0.1-0.2-0.2-0.3-0.3c-18.4,10.3-38.6,17.1-59.9,19.8
			c-29.5,3.9-58.5-0.3-84.8-11.7c-0.1,0.1-0.2,0.2-0.3,0.4C193.3,426.1,222.4,430.2,252,426.4z"/>
	</g>
	<g>
		<path class="st9" d="M380.7,368.5c-2.7,3.4-5.5,6.7-8.4,9.9l0.2,0.1c2.9-3.2,5.7-6.5,8.4-9.9c13.2-16.7,23.3-35.1,30-54.9
			c-0.1,0-0.1,0-0.2-0.1C403.9,333.5,393.8,351.9,380.7,368.5z"/>
		<path class="st9" d="M325.6,99.4c0.1-0.1,0.1-0.1,0.2-0.2c-10.4-5.2-21.4-9.4-32.8-12.4c-14.5-3.9-29.4-5.8-44.4-5.8
			c0,0.1,0,0.2,0,0.2c15,0,29.8,1.9,44.3,5.8C304.3,90.1,315.2,94.2,325.6,99.4z"/>
		<path class="st9" d="M420.4,244.9c-0.2-2.8-0.4-5.5-0.6-8.3c-2.1-20.9-7.8-40.8-16.9-59.4c-0.1,0-0.2,0-0.3,0
			c9.1,18.5,14.8,38.5,16.9,59.4c0.3,2.8,0.5,5.5,0.6,8.3C420.3,244.9,420.4,244.9,420.4,244.9z"/>
		<path class="st9" d="M66.5,278.8c-1.7-21.7,0.4-43.3,6.5-64.3c6.6-23.1,17.7-44.5,32.8-63.6c3.3-4.2,6.8-8.2,10.4-12.1
			c-0.1,0-0.1-0.1-0.2-0.1c-3.6,3.9-7.1,7.9-10.4,12.1c-15.1,19.1-26.2,40.5-32.8,63.7c-6,21-8.2,42.7-6.5,64.3
			C66.4,278.8,66.5,278.8,66.5,278.8z"/>
		<path class="st9" d="M309.8,423.2c0.1,0.1,0.1,0.1,0.2,0.2c5.6-2.4,11.1-5.1,16.4-8.2c17-9.5,32.2-21.6,45.4-35.9l-0.2-0.1
			c-13.2,14.3-28.4,26.4-45.3,35.8C320.9,418,315.4,420.8,309.8,423.2z"/>
	</g>
</g>
<g>
	<defs>
		<path id="SVGID_10_" d="M324.8,437.6c74.4-17.2,100.8-90.7,110.1-143.4c5.6-31.6,70.1-150.6,70.1-150.6
			C503-2.9,241.7,27.5,201.6,35.3C161.6,43.1-7.1,4.7-17.9,167.2S56.4,303.5,94.9,360.1C130.4,412.2,197.5,457.1,324.8,437.6z"/>
	</defs>
	<clipPath id="SVGID_11_">
		<use xlink:href="#SVGID_10_"  style="overflow:visible;"/>
	</clipPath>
	<g class="st10">
		<linearGradient id="SVGID_12_" gradientUnits="userSpaceOnUse" x1="255.7097" y1="147.0703" x2="308.2862" y2="549.2817">
			<stop  offset="0" style="stop-color:#00FFFF"/>
			<stop  offset="0.3693" style="stop-color:#0071BC"/>
			<stop  offset="0.7613" style="stop-color:#9E005D"/>
			<stop  offset="1" style="stop-color:#ED1E79"/>
		</linearGradient>
		<path class="st12" d="M402.5,189.4l-147.2-54.7c-4.4-1.6-9.4,0.6-11,5.1l-99.4,267.8c-1.6,4.4,0.6,9.4,5.1,11l147.2,54.7
			c4.4,1.6,9.4-0.6,11-5.1l99.4-267.8C409.2,196,407,191,402.5,189.4z"/>
		<polygon class="st13" points="366.9,176.1 350.6,187.1 208.2,282.7 185.6,297.8 216.7,214.2 239.3,199 290.4,164.7 306.7,153.8 		
			"/>
		<polygon class="st13" points="399.3,188.2 383,199.1 191.5,327.7 191.5,327.7 168.9,342.8 179.8,313.4 179.8,313.4 202.4,298.2 
			202.4,298.2 361.8,191.2 378.1,180.3 		"/>
		
			<rect x="319.6" y="339.8" transform="matrix(0.9875 -0.1573 0.1573 0.9875 -54.1299 64.5061)" class="st14" width="121.8" height="68.7"/>
		<polygon class="st15" points="380.4,374.2 435.2,330.7 314.9,349.8 		"/>
		<path class="st16" d="M273.8,231.2c4.6-4.1,8.7-23.9-1.7-18.9c-10.4,5-2.5,19.1-2.5,19.1L273.8,231.2z"/>
		<path class="st17" d="M276.7,274.3c9.4,2.5,16.1-2.1,18.4-4.3c2.2-2.2-3.6-5.4-5.6-8.2c-0.8-1.2-1-2.9-0.8-5.1
			c0.3-2.9,1.4-6.6,2.7-10.7l-18.8-5.8c0,0-0.6,9.8-1,13.4c-0.1,0.6-0.2,1.2-0.4,1.7c-1,2.2-3.4,2.8-7.5,5.3
			C258.8,263.8,267.3,271.9,276.7,274.3z"/>
		<path class="st18" d="M271.6,253.7c0,0.2-0.1,0.5-0.1,0.7c1.9,2.3,4.2,4.1,6.2,4.3c3.1,0.4,7.1-0.7,11.3-3.5
			c0.5-2.6,1.4-5.7,2.5-9.1l-18.8-5.8C272.6,240.3,272,250.1,271.6,253.7z"/>
		<path class="st17" d="M298.3,234.6c-2.1,9.2-3.3,13.7-7.9,17c-4.6,3.3-9,4.6-12.4,4.2c-4.2-0.5-9.6-8-10.2-12
			c-0.6-4.2-0.8-15,1.8-25.1c1.3-5.1,8.5-10.6,15.1-9.8S303.4,212,298.3,234.6z"/>
		
			<ellipse transform="matrix(0.9956 -9.418939e-02 9.418939e-02 0.9956 -20.647 26.3973)" class="st17" cx="269.3" cy="231.9" rx="3.3" ry="6.4"/>
		<linearGradient id="SVGID_13_" gradientUnits="userSpaceOnUse" x1="295.2677" y1="370.1046" x2="251.9002" y2="239.6078">
			<stop  offset="0" style="stop-color:#3301A0"/>
			<stop  offset="1" style="stop-color:#6A01A0"/>
		</linearGradient>
		<path class="st20" d="M354.3,322.8l-43.4,11.3l-11.6-32.8c0,0-9,54.9-10.8,61.3c-1.7,6.2-3.3,6.5-6,6.1l-43.7-7.7
			c-3-0.5-4.6-4.1-3-9.7c1.2-4.6,10.8-41.7,12.5-58.8c0,0-5.5,13.1-14,26L193,302.8l4.5-12.6l28.7,7.9c0,0,9.7-20,20.5-31.8
			c3.2-3.6,12.4-8.1,18-9c1.7-0.3,3.1-0.5,4.2-0.5c0.2,5.2,4.9,8.8,8.7,9.4c3.8,0.7,11.6-0.6,12.6-4.6c1.5,0.5,2.9,1.3,4.4,2.3
			c5.5,3.7,9,4.9,11.5,9.7c3.9,7.8,15.9,42.4,15.9,42.4l32.7-7.3L354.3,322.8z"/>
		<path class="st21" d="M162.8,489c-0.4,2.1-5.9,6.9-11.5,11.5c-5.6,4.6-12,7.1-7.6,9.4c7.6,4.1,11.4,0.5,22.4-6
			c4.7-2.5,4.4-1.6,9.5-3.6c3.5-1.4,6.4-3.2,4.9-10.1C178,479.7,164.2,482.2,162.8,489z"/>
		<linearGradient id="SVGID_14_" gradientUnits="userSpaceOnUse" x1="221.4716" y1="543.4754" x2="227.385" y2="362.5197">
			<stop  offset="0" style="stop-color:#F7631E"/>
			<stop  offset="1" style="stop-color:#FEBC66"/>
		</linearGradient>
		<path class="st22" d="M288.1,366.4c0,0-6.1,42.3-10.2,67.6c-0.5,2.9-0.9,5.5-1.3,7.8c-0.6,3.3-1,5.9-1.4,7.5
			c-0.6,2.8-1.8,8.1-3.1,14.8c-0.5,2.4-1,5-1.6,7.7c-4.5,22.1-10.4,51.7-10.7,55.5c-0.3,3.8-0.2,7,0,8.7c0,0.6-0.5,0.9-1.1,0.7
			l-6-2.8c-0.2-0.1-0.4-0.1-0.6,0c-1.9,0.7-13.2,4.9-14.8,6.8c-1.8,2.1,0.7-5.2,1.3-13.1c0.5-5.8,7.5-41.1,12-63.2
			c0.6-2.8,1.1-5.4,1.6-7.7c0.9-4.5,1.6-7.9,1.9-9.5c0.5-2.3,0.8-7.2,1.1-13.3c0.1-2.6,0.2-5.3,0.3-8.1c0.4-14.9,0.5-32.1,0.5-35.4
			c0-0.3-0.2-0.6-0.6-0.7l-9.8-2.6c-0.2,0-0.3,0-0.5,0c-2.5,1.2-25,12.3-35.8,21.5c-2.6,2.2-4.6,4.4-5.3,6.3
			c-0.1,0.3-0.2,0.5-0.3,0.8c-2.2,8.7-4.2,15.7-6,20.8c-0.6,1.8-1.3,3.5-1.8,4.8c-0.3,0.6-0.6,1.5-1,2.4c-4,9.6-12.8,33.3-14.4,37.9
			c-1,2.9,0,4.9,0,7c0,3.4-5.5,4.9-8.4,3.6c-2.1-1-6.4-3.9-8.9-3.4c-0.6,0.1-1.1-0.3-0.9-0.9c1.6-6.7,7.5-31.1,12.9-51.5
			c0.7-2.6,1.3-5.1,2-7.5c2.7-10.1,5.2-18.4,6.5-21.4c0.7-1.6,2.3-3.8,4.6-6.6c13-15.3,45.3-44,45.3-44s1.2-3.5,3.1-3.2
			c4.2,0.6,4.6,1.4,26,5.7C286,363.8,288.8,361.5,288.1,366.4z"/>
		<path class="st16" d="M296.7,218.8c-12.8-1.5-21.8-3.4-26.1-9.3c-4.3-5.9-0.3-6.6,2.9-4.5c0,0,2.1-5.4,7.1-2c0,0,6.4-4.2,11.3,2.5
			c0,0,8.8-2.6,9.5,4.2C301.4,209.6,308,220.1,296.7,218.8z"/>
		<path class="st16" d="M302.6,215.9c3.5,5.1,2.5,25.3-6.3,17.9c-8.8-7.4,1.2-17.6,1.2-17.6L302.6,215.9z"/>
		
			<ellipse transform="matrix(0.4906 -0.8714 0.8714 0.4906 -53.2528 380.0598)" class="st17" cx="298.4" cy="235.6" rx="6.4" ry="3.3"/>
		<path class="st16" d="M287.9,366l-53.6-9.7c-0.4-0.1-0.6-0.4-0.5-0.8l1.9-5.3c0.1-0.3,0.4-0.4,0.7-0.4l52.7,9.2
			c0.3,0.1,0.6,0.4,0.5,0.7l-1,5.8C288.6,365.9,288.2,366.1,287.9,366z"/>
		<path class="st23" d="M294.7,263.9c-4.1,4.9-10.1,7.5-16.3,6.4c-6.7-1.2-11.8-6.4-13.7-13.1c1.7-0.3,3.1-0.5,4.2-0.5
			c0.2,5.2,4.9,8.8,8.7,9.4c3.8,0.7,11.6-0.6,12.6-4.6C291.7,262.1,293.2,262.9,294.7,263.9z"/>
		<path class="st16" d="M305.8,215.9c0.7-1.4,0.1-3.1-1.2-3.8l-2.5,5C303.4,217.9,305.1,217.3,305.8,215.9z"/>
		<path class="st16" d="M275.4,216.4c4.7-1.5,7.3-6.5,5.8-11.2l-17,5.5C265.7,215.3,270.8,217.9,275.4,216.4z"/>
		<path class="st16" d="M282.6,218.2c2.4-2.2,2.7-5.9,0.5-8.4l-8.9,7.9C276.4,220.2,280.2,220.4,282.6,218.2z"/>
		<path class="st16" d="M305.3,219.5c1.5-0.3,2.5-1.8,2.2-3.3l-5.5,1.1C302.2,218.8,303.7,219.8,305.3,219.5z"/>
		<path class="st24" d="M402.5,189.4l-3.2-1.2l-21.2-7.9l-11.2-4.2l-60.2-22.4l-51.3-19.1c-4.4-1.6-9.4,0.6-11,5.1l-27.6,74.4
			l-31,83.6l-5.8,15.5v0l-10.9,29.5l-24.1,64.8c-0.3,0.8-0.4,1.6-0.5,2.4c-0.3,3.7,1.9,7.3,5.6,8.6l27.3,10.1l20.6,7.7l54.4,20.2
			l19.8,7.4l25,9.3c4.4,1.7,9.4-0.6,11-5l97.6-262.9l1.8-4.9C409.2,196,407,191,402.5,189.4z M388.5,206.1l-2.1,5.6l-84.1,226.5
			c-0.9,2.4-3.6,3.6-6,2.7l-18.5-6.9l-22.3-8.3l-46.1-17.1l-21.1-7.8l-16.8-6.2c-1.8-0.7-3-2.4-3-4.2c0-0.6,0-1.2,0.3-1.8l22.6-60.9
			v0l11-29.5v0l5.8-15.5l31.1-83.6l15.8-42.5c0.9-2.4,3.5-3.6,6-2.7l29.4,10.9l60.2,22.4l11.2,4.2l21.2,7.9l2.8,1
			C388.2,201,389.4,203.7,388.5,206.1z"/>
		<path class="st11" d="M250.7,464.3l19.8,7.4c0.6-2.7,1.1-5.3,1.6-7.7l-19.8-7.4C251.8,458.9,251.3,461.5,250.7,464.3z"/>
		<path class="st11" d="M175.2,436.3l19.8,7.3c0.4-1,0.7-1.8,1-2.4c0.6-1.3,1.2-2.9,1.8-4.8l-20.6-7.7
			C176.6,431.2,175.9,433.7,175.2,436.3z"/>
		<path class="st25" d="M219.4,434.9L219.4,434.9c-4.2-1.6-6.3-6.2-4.8-10.4l0,0c1.6-4.2,6.2-6.3,10.4-4.8l0,0
			c4.2,1.5,6.3,6.2,4.8,10.4l0,0C228.2,434.4,223.5,436.5,219.4,434.9z"/>
		<path class="st17" d="M186.3,296.1c2.1,0.4,5.4-0.2,7-1c1.6-0.8,3.1-5.7,3.6-9.2c0.5-3.5-4-3-4-3s1.7-0.7,4.6-1.1
			c2.8-0.4,4-3.6-0.2-3.6c-4.1,0.1-8.1,2-12,9.8c0,0-3.9,7.3,0,10.4L186.3,296.1z"/>
		<path class="st17" d="M373.6,302.5c0-2.8-4.7-7.2-6.1-5.4c-1.3,1.8-4.9,8.1-4.3,11.3c0.6,3.1,2.2,5.5,2.2,5.5l-0.9,2.4
			C364.6,316.3,373.6,314.5,373.6,302.5z"/>
		<path class="st26" d="M299.7,98.8l-179,14.8c-4.3,0.4-7.5,4.1-7.2,8.5l4.3,52.4c0.4,4.3,4.1,7.5,8.5,7.2l17.6-1.5l8.6-0.7
			c1.7,1.8,6,6.5,7.8,8.2c1.6,1.5,4.3,1.3,5.7-0.5c1.5-2,5-7.3,6.3-9.4l43.5-3.6l89.5-7.4c4.3-0.4,7.5-4.1,7.2-8.5l-4.3-52.4
			C307.9,101.7,304.1,98.4,299.7,98.8z"/>
		<path class="st26" d="M425.4,95.8L369,89c-2.4-0.3-4.6,1.4-4.9,3.8l-6.7,56.4c-0.3,2.4,1.4,4.6,3.8,4.9l56.4,6.7
			c2.4,0.3,4.6-1.4,4.9-3.8l6.7-56.4C429.5,98.3,427.8,96.1,425.4,95.8z"/>
		<path class="st26" d="M179.3,214c-1.7-5.4-7.5-8.4-12.8-6.7l-65.8,20.8c-5.4,1.7-8.4,7.5-6.7,12.8l13.6,42.8
			c1.7,5.4,7.5,8.4,12.8,6.7l6.4-2c0,0,12,8.3,16.2,10.8c3,1.8,7.1,0.5,8.6-2.7c2-4.4,7-18.2,7-18.2l27.6-8.7
			c5.4-1.7,8.4-7.5,6.7-12.8L179.3,214z"/>
		<path class="st26" d="M400.1,233.4c-0.6-2.7-4.3-3.3-5.7-0.9l-5.9,9.7l-3.3-14c-0.7-2.8-3.5-4.6-6.3-3.9l-38.5,9.2
			c-2.8,0.7-4.6,3.5-3.9,6.3l9.2,38.5c0.7,2.8,3.5,4.6,6.3,3.9l38.5-9.2c2.8-0.7,4.6-3.5,3.9-6.3l-3.3-14l9.7,5.9
			c2.4,1.5,5.4-0.7,4.7-3.4L400.1,233.4z"/>
		
			<ellipse transform="matrix(0.9533 -0.3021 0.3021 0.9533 -23.1834 25.1488)" class="st26" cx="69.7" cy="87.5" rx="15.3" ry="15.3"/>
		
			<ellipse transform="matrix(0.9545 -0.2981 0.2981 0.9545 -96.6692 62.5836)" class="st26" cx="156.8" cy="348.2" rx="26.4" ry="26.4"/>
		<linearGradient id="SVGID_15_" gradientUnits="userSpaceOnUse" x1="265.8655" y1="228.5948" x2="131.6236" y2="-6.7724">
			<stop  offset="8.527380e-02" style="stop-color:#4432F6"/>
			<stop  offset="0.5999" style="stop-color:#4236F3"/>
			<stop  offset="0.8795" style="stop-color:#2394B1"/>
			<stop  offset="1" style="stop-color:#4AADAF"/>
		</linearGradient>
		<path class="st27" d="M302.9,86l-192,15.9c-4.6,0.4-8.1,4.4-7.7,9.1l4.6,56.2c0.4,4.6,4.4,8.1,9.1,7.7l18.9-1.6l9.2-0.8
			c1.8,2,6.4,7,8.3,8.8c1.7,1.6,4.6,1.4,6.1-0.5c1.6-2.1,5.3-7.8,6.8-10l46.7-3.9l96-7.9c4.6-0.4,8.1-4.4,7.7-9.1l-4.6-56.2
			C311.6,89.1,307.5,85.6,302.9,86z"/>
		<path class="st9" d="M149.9,137.1c1.7-1.9,2.7-4.4,2.5-7.1l-0.4-4.6c-0.4-5.1-4.7-9.2-9.8-8.9c-5.3,0.3-9.2,4.8-8.8,10l0.4,4.9
			c0.2,2.7,1.6,5.1,3.6,6.6c-6.1,2.6-10.5,8.1-11.6,14.7c-0.4,2.5,1.7,4.8,4.3,4.6l30-2.5c2.6-0.2,4.4-2.8,3.5-5.2
			C161.6,143.4,156.3,138.7,149.9,137.1z"/>
		<path class="st9" d="M227.4,109.5l-38.3,3.2c-3.1,0.3-5.5,3-5.2,6.1l1.6,18.8c0.3,3.1,3,5.5,6.1,5.2l3.7-0.3c0,0,5.5,6,7.4,7.9
			c1.4,1.3,3.8,1.1,5-0.4c1.6-2.2,6-9,6-9l16.1-1.3c3.1-0.3,5.5-3,5.2-6.1l-1.6-18.8C233.3,111.5,230.5,109.2,227.4,109.5z"/>
		<path class="st28" d="M193.4,122.2c-1.2,0-2.3-0.9-2.4-2.2c-0.1-1.3,0.9-2.4,2.2-2.6l31-2.6c1.3-0.1,2.4,0.9,2.6,2.2
			c0.1,1.3-0.9,2.4-2.2,2.6l-31,2.6C193.5,122.2,193.4,122.2,193.4,122.2z"/>
		<path class="st28" d="M194.1,130.3c-1.2,0-2.3-0.9-2.4-2.2c-0.1-1.3,0.9-2.4,2.2-2.6l31-2.6c1.3-0.1,2.4,0.9,2.6,2.2
			c0.1,1.3-0.9,2.4-2.2,2.6l-31,2.6C194.2,130.3,194.1,130.3,194.1,130.3z"/>
		<path class="st28" d="M194.7,138.5c-1.2,0-2.3-0.9-2.4-2.2c-0.1-1.3,0.9-2.4,2.2-2.6l14-1.2c1.3-0.1,2.4,0.9,2.6,2.2
			c0.1,1.3-0.9,2.4-2.2,2.6l-14,1.2C194.9,138.5,194.8,138.5,194.7,138.5z"/>
		<path class="st9" d="M299.2,135.6c-0.3-3.8-1.9-7.3-4.2-10l-0.3-4c-0.6-6.8-6-12.1-12.6-12.7l-0.1-1.2c-0.1-1.3-1.3-2.3-2.6-2.2
			c-1.3,0.1-2.3,1.3-2.2,2.6l0.1,1.2c-6.4,1.7-10.9,7.8-10.3,14.6l0.3,4c0,0,0,0,0,0c-1.9,3-2.8,6.7-2.5,10.5l0.1,1.8
			c0.1,0.9,0.9,1.6,1.8,1.5l6.9-0.6c-0.1,0.5,0.1,1,0.6,1.4c2.4,1.5,5.4,2.3,8.5,2c3.1-0.3,5.8-1.5,8-3.4c0.5-0.4,0.6-1,0.4-1.5
			l6.9-0.6c0.9-0.1,1.6-0.9,1.5-1.8L299.2,135.6z"/>
		
			<ellipse transform="matrix(0.9966 -8.236989e-02 8.236989e-02 0.9966 -10.6433 22.0937)" class="st14" cx="262.4" cy="140" rx="7.3" ry="7.3"/>
		<path class="st29" d="M432,153l-65.9-7.9c-1.1-0.1-1.9-1.1-1.7-2.2l7.9-65.9c0.1-1.1,1.1-1.9,2.2-1.7l65.9,7.9
			c1.1,0.1,1.9,1.1,1.7,2.2l-7.9,65.9C434.1,152.3,433.1,153.1,432,153z"/>
		<path class="st30" d="M371.5,138l6.5-54.5c0.1-0.7,0.7-1.1,1.3-1.1l54.5,6.5c0.7,0.1,1.1,0.7,1.1,1.3l-6.5,54.5
			c-0.1,0.7-0.7,1.1-1.3,1.1l-54.5-6.5C371.9,139.2,371.4,138.6,371.5,138z"/>
		<path class="st31" d="M404.6,118.8l-6.3,5c-1.2,0.9-2.8,0.7-3.7-0.4l0,0c-0.9-1.2-2.6-1.4-3.7-0.4l-9.3,7.3
			c-1.9,1.5-1,4.5,1.3,4.7l1.1,0.1l22,2.6l12.3,1.5c2.4,0.3,3.9-2.4,2.4-4.3l-12.3-15.6C407.4,118.1,405.7,117.9,404.6,118.8z"/>
		
			<ellipse transform="matrix(0.1188 -0.9929 0.9929 0.1188 235.5752 480.6941)" class="st31" cx="388.6" cy="107.6" rx="4.7" ry="4.7"/>
		<path class="st32" d="M155.1,197.6l-70.6,22.4c-5.8,1.8-9,8-7.1,13.8l14.6,46c1.8,5.8,8,9,13.8,7.1l6.9-2.2
			c0,0,12.9,8.9,17.4,11.6c3.2,1.9,7.6,0.5,9.2-2.9c2.1-4.8,7.5-19.5,7.5-19.5l29.6-9.4c5.8-1.8,9-8,7.1-13.8l-14.6-46
			C167.1,198.9,160.9,195.7,155.1,197.6z"/>
		<path class="st24" d="M155.3,221.4l-57.2,18.1c-1.9,0.6-3.9-0.4-4.5-2.3c-0.6-1.9,0.4-3.9,2.3-4.5l57.2-18.1
			c1.9-0.6,3.9,0.4,4.5,2.3C158.3,218.8,157.2,220.8,155.3,221.4z"/>
		<path class="st24" d="M160.5,237.6l-57.2,18.1c-1.9,0.6-3.9-0.4-4.5-2.3c-0.6-1.9,0.4-3.9,2.3-4.5l57.2-18.1
			c1.9-0.6,3.9,0.4,4.5,2.3C163.4,235,162.3,237,160.5,237.6z"/>
		<path class="st24" d="M134.1,263.7l-25.8,8.2c-1.9,0.6-3.9-0.4-4.5-2.3c-0.6-1.9,0.4-3.9,2.3-4.5l25.8-8.2
			c1.9-0.6,3.9,0.4,4.5,2.3C137.1,261.1,136,263.1,134.1,263.7z"/>
		<path class="st33" d="M398.9,222l-6.4,10.4l-3.6-15c-0.7-3-3.8-4.9-6.8-4.2l-41.3,9.8c-3,0.7-4.9,3.8-4.2,6.8l9.8,41.3
			c0.7,3,3.8,4.9,6.8,4.2l41.3-9.8c3-0.7,4.9-3.8,4.2-6.8l-3.6-15l10.4,6.4c2.6,1.6,5.7-0.7,5-3.7l-5.6-23.4
			C404.4,220.1,400.5,219.5,398.9,222z"/>
		<polyline class="st9" points="360.4,233.2 375.5,242.5 366.2,257.5 		"/>
		
			<ellipse transform="matrix(0.9533 -0.3021 0.3021 0.9533 -20.7573 21.9082)" class="st14" cx="60.5" cy="78.1" rx="16.4" ry="16.4"/>
		<path class="st9" d="M66.8,70.1c-2.9-1.7-6.6-0.6-8.2,2.4c-3-1.5-6.6-0.3-8,2.8c-1.3,2.9,0,6.3,2.8,7.7l8.2,4.3
			c1.1,0.6,2.5,0.1,3.1-1l4.3-8.2C70.5,75.3,69.6,71.7,66.8,70.1z"/>
		<linearGradient id="SVGID_16_" gradientUnits="userSpaceOnUse" x1="70.4784" y1="430.0846" x2="297.5662" y2="196.6889">
			<stop  offset="0" style="stop-color:#00FFFF"/>
			<stop  offset="0.6927" style="stop-color:#9E005D"/>
			<stop  offset="1" style="stop-color:#ED1E79"/>
		</linearGradient>
		<circle class="st34" cx="145" cy="353.5" r="28.3"/>
		<path class="st9" d="M143.6,335.7c-1.7-0.3-3.3,0.8-3.6,2.5c0,0.1-0.4,4.9-2.2,10.6l-2.8,0.9c-0.2,0.1-0.4,0.3-0.3,0.5l4.5,14.6
			c0.1,0.2,0.3,0.4,0.5,0.3l2.1-0.6c2,1.9,4.9,2.6,7.6,1.8l1.2-0.4l8-2.5l1.8-0.6c1.6-0.5,2.5-2.2,2-3.9c-0.3-0.8-0.8-1.5-1.6-1.8
			l1.3-0.4c1.6-0.5,2.5-2.2,2-3.9c-0.3-0.9-1-1.6-1.8-1.9c1-0.8,1.5-2.1,1.1-3.4c-0.5-1.6-2.2-2.5-3.9-2l0,0
			c0.4-0.7,0.5-1.6,0.2-2.4c-0.5-1.6-2.2-2.5-3.9-2l-11.2,3.5C145.5,341.1,146.5,336.2,143.6,335.7z"/>
		<path class="st9" d="M132.7,368.1l5-1.6c0.2-0.1,0.4-0.3,0.3-0.6l-5-16.1c-0.1-0.2-0.3-0.4-0.6-0.3l-5,1.6
			c-0.2,0.1-0.4,0.3-0.3,0.6l5,16.1C132.2,368.1,132.5,368.2,132.7,368.1z"/>
	</g>
</g>
</svg>
