<?xml version="1.0" encoding="utf-8"?>
<!-- Generator: Adobe Illustrator 21.1.0, SVG Export Plug-In . SVG Version: 6.00 Build 0)  -->
<svg version="1.1" id="Layer_1" xmlns="http://www.w3.org/2000/svg" xmlns:xlink="http://www.w3.org/1999/xlink" x="0px" y="0px"
	 viewBox="0 0 500 500" style="enable-background:new 0 0 500 500;" xml:space="preserve">
<style type="text/css">
	.st0{fill:url(#SVGID_1_);}
	.st1{fill:url(#SVGID_2_);}
	.st2{fill:url(#SVGID_3_);}
	.st3{fill:url(#SVGID_4_);}
	.st4{fill:url(#SVGID_5_);}
	.st5{fill:url(#SVGID_6_);}
	.st6{fill:url(#SVGID_7_);}
	.st7{fill:url(#SVGID_8_);}
	.st8{fill:url(#SVGID_9_);}
	.st9{fill:#FFFFFF;}
	.st10{clip-path:url(#SVGID_11_);}
	.st11{fill:#0D061C;}
	.st12{fill:#939393;}
	.st13{fill:#19B5FF;}
	.st14{fill:#4DB8C4;}
	.st15{fill:#B6CBD3;}
	.st16{fill:url(#SVGID_12_);}
	.st17{fill:url(#SVGID_13_);}
	.st18{fill:#E2E2E2;}
	.st19{fill:#FEBD8F;}
	.st20{fill:#F9B485;}
	.st21{fill:#FE8A25;}
	.st22{fill:#D64C02;}
	.st23{fill:#F4F4F4;}
	.st24{opacity:0.3;fill:#FFFFFF;}
	.st25{opacity:0.7;fill:#FFFFFF;}
	.st26{fill:#33C3EF;}
	.st27{font-family:'OpenSans-Semibold';}
	.st28{font-size:26.637px;}
	.st29{fill:url(#SVGID_14_);}
	.st30{fill:#4BBFB1;}
	.st31{fill:#FFDA00;}
	.st32{fill:#69FFE9;}
	.st33{fill:#359B8C;}
	.st34{fill:#7F7F7F;}
	.st35{fill:#F9921E;}
</style>
<g>
	<g>
		<g>
			
				<linearGradient id="SVGID_1_" gradientUnits="userSpaceOnUse" x1="-1148.5999" y1="-336.8096" x2="-1130.7312" y2="-336.8096" gradientTransform="matrix(0 1 -1 0 120.5762 1315.5889)">
				<stop  offset="0" style="stop-color:#27ECB8"/>
				<stop  offset="1" style="stop-color:#99D7B4"/>
			</linearGradient>
			<path class="st0" d="M448.2,175.9c0,11.9,18.5,11.9,18.5,0C466.6,164,448.2,164,448.2,175.9L448.2,175.9z"/>
		</g>
	</g>
	<g>
		<g>
			
				<linearGradient id="SVGID_2_" gradientUnits="userSpaceOnUse" x1="-1227.4626" y1="-156.9039" x2="-1209.5939" y2="-156.9039" gradientTransform="matrix(0 1 -1 0 120.5762 1315.5889)">
				<stop  offset="0" style="stop-color:#27ECB8"/>
				<stop  offset="1" style="stop-color:#99D7B4"/>
			</linearGradient>
			<path class="st1" d="M268.2,97.1c0,11.9,18.5,11.9,18.5,0C286.7,85.1,268.2,85.1,268.2,97.1L268.2,97.1z"/>
		</g>
	</g>
	<g>
		<g>
			
				<linearGradient id="SVGID_3_" gradientUnits="userSpaceOnUse" x1="-985.9454" y1="55.0398" x2="-968.0767" y2="55.0398" gradientTransform="matrix(0 1 -1 0 120.5762 1315.5889)">
				<stop  offset="0" style="stop-color:#27ECB8"/>
				<stop  offset="1" style="stop-color:#99D7B4"/>
			</linearGradient>
			<path class="st2" d="M56.3,338.6c0,11.9,18.5,11.9,18.5,0C74.8,326.7,56.3,326.7,56.3,338.6L56.3,338.6z"/>
		</g>
	</g>
	<g>
		<g>
			
				<linearGradient id="SVGID_4_" gradientUnits="userSpaceOnUse" x1="-1173.0387" y1="39.9794" x2="-1156.4304" y2="39.9794" gradientTransform="matrix(0 1 -1 0 120.5762 1315.5889)">
				<stop  offset="8.527380e-02" style="stop-color:#4432F6"/>
				<stop  offset="0.301" style="stop-color:#423BEB"/>
				<stop  offset="0.682" style="stop-color:#3B53CD"/>
				<stop  offset="1" style="stop-color:#356BAF"/>
			</linearGradient>
			<path class="st3" d="M72,150.9c0,11.1,17.2,11.1,17.2,0C89.2,139.8,72,139.8,72,150.9L72,150.9z"/>
		</g>
	</g>
	<g>
		<g>
			
				<linearGradient id="SVGID_5_" gradientUnits="userSpaceOnUse" x1="-1190.3123" y1="26.538" x2="-1181.075" y2="26.538" gradientTransform="matrix(0 1 -1 0 120.5762 1315.5889)">
				<stop  offset="8.527380e-02" style="stop-color:#4432F6"/>
				<stop  offset="0.301" style="stop-color:#423BEB"/>
				<stop  offset="0.682" style="stop-color:#3B53CD"/>
				<stop  offset="1" style="stop-color:#356BAF"/>
			</linearGradient>
			<path class="st4" d="M89.3,129.9c0,6.2,9.5,6.2,9.5,0C98.8,123.7,89.3,123.7,89.3,129.9L89.3,129.9z"/>
		</g>
	</g>
	<g>
		<g>
			
				<linearGradient id="SVGID_6_" gradientUnits="userSpaceOnUse" x1="-996.7556" y1="1423.7544" x2="-982.3763" y2="1423.7544" gradientTransform="matrix(-0.9998 1.870000e-02 -1.870000e-02 -0.9998 -811.9019 1851.3611)">
				<stop  offset="8.527380e-02" style="stop-color:#4432F6"/>
				<stop  offset="0.301" style="stop-color:#423BEB"/>
				<stop  offset="0.682" style="stop-color:#3B53CD"/>
				<stop  offset="1" style="stop-color:#356BAF"/>
			</linearGradient>
			<path class="st5" d="M150.7,402c-9.6,0.2-9.3,15,0.3,14.9C160.6,416.6,160.3,401.8,150.7,402L150.7,402z"/>
		</g>
	</g>
	<g>
		<g>
			
				<linearGradient id="SVGID_7_" gradientUnits="userSpaceOnUse" x1="-1020.413" y1="1397.1682" x2="-1013.9852" y2="1397.1682" gradientTransform="matrix(-0.9998 1.870000e-02 -1.870000e-02 -0.9998 -811.9019 1851.3611)">
				<stop  offset="8.527380e-02" style="stop-color:#4432F6"/>
				<stop  offset="0.301" style="stop-color:#423BEB"/>
				<stop  offset="0.682" style="stop-color:#3B53CD"/>
				<stop  offset="1" style="stop-color:#356BAF"/>
			</linearGradient>
			<path class="st6" d="M178.9,432.1c-4.3,0.1-4.2,6.7,0.1,6.6C183.3,438.7,183.2,432,178.9,432.1L178.9,432.1z"/>
		</g>
	</g>
	<g>
		<g>
			
				<linearGradient id="SVGID_8_" gradientUnits="userSpaceOnUse" x1="-948.7072" y1="-313.9544" x2="-942.2795" y2="-313.9544" gradientTransform="matrix(0 1 -1 0 120.5762 1315.5889)">
				<stop  offset="8.527380e-02" style="stop-color:#4432F6"/>
				<stop  offset="0.301" style="stop-color:#423BEB"/>
				<stop  offset="0.682" style="stop-color:#3B53CD"/>
				<stop  offset="1" style="stop-color:#356BAF"/>
			</linearGradient>
			<path class="st7" d="M431.2,370.1c0,4.3,6.6,4.3,6.6,0C437.9,365.8,431.2,365.8,431.2,370.1L431.2,370.1z"/>
		</g>
	</g>
</g>
<linearGradient id="SVGID_9_" gradientUnits="userSpaceOnUse" x1="-1101.5942" y1="1182.7886" x2="-842.2991" y2="1442.0839" gradientTransform="matrix(-1 0 0 -1 -713.1895 1573.7456)">
	<stop  offset="0" style="stop-color:#27ECB8"/>
	<stop  offset="1" style="stop-color:#A2D4CC"/>
</linearGradient>
<path class="st8" d="M326.7,428.6c108.4-25,104.8-181.2,104.8-181.2C429.7,114,269,90.9,232.6,98.1c-36.4,7.1-151,10.7-151,149.3
	C81.6,247.4,85.1,465.7,326.7,428.6z"/>
<g>
	<g>
		<path class="st9" d="M190.9,338.3c-14.8-11.7-24.9-27.7-29.3-46c-0.1,0-0.2,0-0.2,0.1c4.4,18.3,14.6,34.4,29.4,46.1
			c17.9,14.2,40.4,20.3,63.4,17.3c6.9-0.9,13.5-2.6,19.9-5c0-0.1,0-0.2-0.1-0.2c-6.3,2.4-13,4.1-19.9,5
			C231.2,358.6,208.8,352.4,190.9,338.3z"/>
		<path class="st9" d="M326.5,238c0.1,0,0.1-0.1,0.2-0.1c-5.2-14.6-14.4-27.4-26.8-37.2c-15.2-12-33.7-18.3-53-18.1
			c-0.1,0.1-0.1,0.2-0.1,0.3c19.3-0.2,37.8,6,53,18C312.1,210.6,321.2,223.4,326.5,238z"/>
		<path class="st9" d="M318.1,314.5c10.3-16.4,15-35.4,13.4-54.6c-0.1,0-0.2,0-0.2,0c1.6,19.2-3.1,38.1-13.3,54.4
			C317.9,314.4,318,314.5,318.1,314.5z"/>
		<path class="st9" d="M178.5,216.7c1.9-2.4,3.9-4.7,6-6.8c-0.1,0-0.1-0.1-0.2-0.1c-2.1,2.2-4.1,4.4-6,6.8
			c-7.6,9.6-13.1,20.5-16.3,31.9c0.1,0,0.2,0,0.2,0.1C165.5,237.1,170.9,226.3,178.5,216.7z"/>
	</g>
	<g>
		<path class="st9" d="M342.8,282.5c-2.1,13.3-6.8,26.2-14.1,37.8c0.1,0,0.2,0,0.4-0.1c7.2-11.6,11.9-24.4,14-37.7
			C343,282.5,342.9,282.5,342.8,282.5z"/>
		<path class="st9" d="M275.1,174c11.7,3.4,22.8,9.1,32.6,16.8c15.6,12.4,26.7,29,32.3,47.8c0.1-0.1,0.2-0.1,0.2-0.1
			c-5.6-18.9-16.7-35.5-32.4-47.9c-9.8-7.8-20.9-13.4-32.6-16.9C275.2,173.9,275.2,173.9,275.1,174z"/>
		<path class="st9" d="M255.4,368.3c13.5-1.8,26.2-6.2,37.7-12.9c-0.1-0.1-0.1-0.1-0.2-0.2c-11.5,6.7-24.2,11-37.6,12.8
			c-23.1,3-45.7-2.1-64.8-14.4c-0.1,0.1-0.1,0.2-0.2,0.2C209.5,366.3,232.3,371.4,255.4,368.3z"/>
		<path class="st9" d="M146.7,275.7c-0.9-24,6.9-47.5,22.1-66.7c7.4-9.3,16.1-17.2,25.9-23.3c-0.1-0.1-0.1-0.1-0.2-0.2
			c-9.8,6.1-18.5,14-25.9,23.3c-15.3,19.3-23,42.9-22.2,67C146.5,275.8,146.6,275.8,146.7,275.7z"/>
	</g>
	<g>
		<path class="st9" d="M304.6,173.2c3.8,2.3,7.4,4.8,11,7.6c22.3,17.7,36.5,42.9,40.1,71.5c0.1,0,0.2-0.1,0.3-0.1
			c-3.6-28.5-17.8-53.9-40.2-71.6c-3.5-2.8-7.2-5.3-10.9-7.6C304.7,173.1,304.7,173.2,304.6,173.2z"/>
		<path class="st9" d="M169.6,353.5c-0.1,0.1-0.1,0.2-0.2,0.2c1.8,1.6,3.7,3.2,5.6,4.7c23.1,18.3,52.1,26.2,81.7,22.3
			c21.5-2.8,41.4-11.6,58-25.3l-0.2-0.2c-16.5,13.6-36.3,22.4-57.7,25.2c-29.5,3.9-58.5-4.1-81.5-22.3
			C173.2,356.7,171.4,355.2,169.6,353.5z"/>
		<path class="st9" d="M135.4,289.2c-0.3-1.7-0.5-3.4-0.6-5.2c-3-29.6,5.6-59,24.4-82.7c16.6-21,39.4-35.3,64.9-40.9
			c0-0.1-0.1-0.2-0.1-0.3c-25.6,5.7-48.4,20-65,41c-18.8,23.8-27.5,53.2-24.5,82.9c0.2,1.7,0.4,3.4,0.6,5.1
			C135.2,289.2,135.3,289.2,135.4,289.2z"/>
	</g>
	<g>
		<path class="st9" d="M275.3,147.9c0-0.1,0.1-0.2,0.1-0.3c-13.8-3.1-28.1-3.7-42.7-1.8c-19.6,2.6-38.1,9.6-54.2,20.5
			c0,0.1,0.1,0.2,0.1,0.3c16.1-10.9,34.6-17.9,54.2-20.5C247.2,144.2,261.6,144.9,275.3,147.9z"/>
		<path class="st9" d="M369.4,268.2c0.1-4.9-0.1-9.8-0.6-14.7c-2.2-21.4-9.7-41.3-21.7-58.2c-0.1,0.1-0.1,0.2-0.2,0.3
			c11.9,16.8,19.4,36.6,21.5,58c0.5,4.9,0.7,9.8,0.6,14.7C369.1,268.2,369.2,268.2,369.4,268.2z"/>
		<path class="st9" d="M257.9,393.3c7.5-1,14.9-2.6,22-4.9c0.1-0.1,0.2-0.3,0.2-0.4c-7.2,2.3-14.7,4-22.3,5
			c-32.9,4.3-65.1-4.5-90.7-24.8c-25.6-20.3-41.6-49.6-44.9-82.6c-2.2-21.1,1-42.2,9.1-61.5c-0.1,0-0.2,0-0.4,0
			c-8.1,19.3-11.2,40.4-9.1,61.5c3.4,33.1,19.4,62.5,45.1,82.8C192.7,388.8,225,397.7,257.9,393.3z"/>
	</g>
	<g>
		<path class="st9" d="M209.2,403.1l0.3-0.3c-18.1-4.5-35.1-12.8-50.1-24.6c-28.2-22.3-45.8-54.6-49.5-90.9
			c-3-29.7,3.6-59.3,18.7-84.9c-0.1-0.1-0.2-0.1-0.3-0.2c-15.2,25.7-21.8,55.3-18.7,85.2c3.7,36.4,21.3,68.8,49.6,91.2
			C174.1,390.3,191.1,398.6,209.2,403.1z"/>
		<path class="st9" d="M275.5,134.7c-10.7-2.1-21.8-2.9-33-2.4c0,0.1,0,0.2,0.1,0.4c11.1-0.6,22.1,0.2,32.7,2.3
			C275.3,134.9,275.4,134.8,275.5,134.7z"/>
		<path class="st9" d="M373.1,218.5c0.1-0.1,0.2-0.2,0.3-0.3c-8.4-22.6-22.6-42.4-41.8-57.6c-16.4-13-35.2-21.7-55.2-25.8
			c-0.1,0.1-0.2,0.2-0.3,0.3c20,4.1,38.8,12.8,55.2,25.8C350.5,176.1,364.8,195.9,373.1,218.5z"/>
		<path class="st9" d="M295.6,395.6c0.1,0.1,0.2,0.2,0.4,0.2c21.4-9.1,40.4-23.6,55.3-42.4c0.8-1,1.5-1.9,2.2-2.9l-0.3-0.2
			c-0.7,1-1.5,1.9-2.2,2.9C336,372,317,386.5,295.6,395.6z"/>
	</g>
	<g>
		<path class="st9" d="M381.6,325.8c0.1,0.1,0.2,0.1,0.3,0.2c5.6-13,9.4-26.7,11.2-40.7c-0.1,0-0.3-0.1-0.4-0.1
			C390.9,299.2,387.2,312.9,381.6,325.8z"/>
		<path class="st9" d="M323.5,139.6c-15.3-9.1-32-15.2-49.4-18.1c0,0.1,0,0.3,0,0.4c17.3,2.9,33.9,9,49.1,18
			C323.3,139.8,323.4,139.7,323.5,139.6z"/>
		<path class="st9" d="M125.9,183.8c1.3-1.9,2.7-3.7,4.2-5.5c17.8-22.5,40.9-39.2,66.9-48.9c-0.1-0.1-0.1-0.2-0.2-0.4
			c-26.1,9.7-49.2,26.5-67,49c-1.4,1.8-2.8,3.6-4.2,5.5C125.7,183.6,125.8,183.7,125.9,183.8z"/>
		<path class="st9" d="M260.5,418.4c19.5-2.5,38-8.8,54.7-18.2c-0.1-0.1-0.2-0.2-0.3-0.3c-16.7,9.4-35.1,15.5-54.5,18.1
			c-26.8,3.5-53.3-0.3-77.1-10.7c-0.1,0.1-0.2,0.2-0.3,0.3C207,418.1,233.6,421.9,260.5,418.4z"/>
	</g>
	<g>
		<path class="st9" d="M370.4,368.6c-2.5,3.1-5,6.1-7.7,9l0.2,0.1c2.6-2.9,5.2-5.9,7.7-9c12-15.2,21.2-31.9,27.3-49.9
			c-0.1,0-0.1,0-0.2-0.1C391.5,336.7,382.4,353.4,370.4,368.6z"/>
		<path class="st9" d="M320.3,123.7c0.1-0.1,0.1-0.1,0.2-0.2c-9.5-4.8-19.4-8.5-29.8-11.3c-13.2-3.5-26.7-5.3-40.4-5.3
			c0,0.1,0,0.1,0,0.2c13.6,0,27.1,1.8,40.3,5.3C300.9,115.2,310.8,119,320.3,123.7z"/>
		<path class="st9" d="M406.6,256.1c-0.1-2.5-0.3-5-0.6-7.5c-1.9-19-7.1-37.2-15.4-54c-0.1,0-0.2,0-0.2,0c8.3,16.9,13.4,35,15.4,54
			c0.3,2.5,0.4,5,0.6,7.5C406.5,256.1,406.5,256.1,406.6,256.1z"/>
		<path class="st9" d="M84.6,287c-1.6-19.7,0.4-39.4,5.9-58.5c6-21,16.1-40.5,29.8-57.9c3-3.8,6.2-7.5,9.5-11
			c-0.1,0-0.1-0.1-0.2-0.1c-3.3,3.5-6.5,7.2-9.5,11c-13.8,17.4-23.8,36.9-29.9,57.9c-5.5,19.2-7.5,38.8-5.9,58.5
			C84.4,286.9,84.5,286.9,84.6,287z"/>
		<path class="st9" d="M305.9,418.3c0.1,0.1,0.1,0.1,0.2,0.2c5.1-2.2,10.1-4.7,15-7.4c15.4-8.7,29.3-19.6,41.3-32.7l-0.2-0.1
			c-12,13-25.8,24-41.2,32.6C316,413.6,311,416.1,305.9,418.3z"/>
	</g>
</g>
<polygon class="st9" points="155.5,129 179,139.3 172.9,143.8 194.4,173.1 209.3,162.2 273.6,249.9 265,256.2 207,177.1 192.1,188 
	164.3,150 158.3,154.5 "/>
<g>
	<defs>
		<path id="SVGID_10_" d="M326.7,428.6c67.7-15.6,91.7-82.5,100.2-130.5c5.1-28.8,63.8-137,63.8-137
			c-1.8-133.3-239.6-105.7-276-98.6c-36.4,7.1-251.4,73.9-261.2,221.8s129.1,22.2,164.1,73.7C149.8,405.5,210.9,446.3,326.7,428.6z"
			/>
	</defs>
	<clipPath id="SVGID_11_">
		<use xlink:href="#SVGID_10_"  style="overflow:visible;"/>
	</clipPath>
	<g class="st10">
		<g>
			<path class="st11" d="M423.5,415.6H120V228c0-2.1,1.7-3.8,3.8-3.8h296c2.1,0,3.8,1.7,3.8,3.8V415.6z"/>
			<path class="st12" d="M409.5,403.5H134c-1.1,0-1.9-0.9-1.9-1.9V238.3c0-1.1,0.9-1.9,1.9-1.9h275.4c1.1,0,1.9,0.9,1.9,1.9v163.3
				C411.4,402.7,410.5,403.5,409.5,403.5z"/>
			<path class="st13" d="M409.5,403.5H134c-1.1,0-1.9-0.9-1.9-1.9V238.3c0-1.1,0.9-1.9,1.9-1.9h275.4c1.1,0,1.9,0.9,1.9,1.9v163.3
				C411.4,402.7,410.5,403.5,409.5,403.5z"/>
			<path class="st14" d="M407.7,401.6H135.8c-1,0-1.9-0.8-1.9-1.9V239.8c0-1,0.8-1.9,1.9-1.9h271.8c1,0,1.9,0.8,1.9,1.9v159.9
				C409.5,400.8,408.7,401.6,407.7,401.6z"/>
			<rect x="102.6" y="415.6" class="st9" width="338.4" height="12.9"/>
			<polygon class="st15" points="428.8,435.8 114.7,435.8 102.6,428.5 440.9,428.5 			"/>
			<rect x="232.6" y="415.6" class="st15" width="78.3" height="6.5"/>
		</g>
		<g>
			<linearGradient id="SVGID_12_" gradientUnits="userSpaceOnUse" x1="198.1519" y1="348.2561" x2="323.9316" y2="348.2561">
				<stop  offset="8.527380e-02" style="stop-color:#4432F6"/>
				<stop  offset="0.5999" style="stop-color:#4236F3"/>
				<stop  offset="0.8795" style="stop-color:#2394B1"/>
				<stop  offset="1" style="stop-color:#4AADAF"/>
			</linearGradient>
			<polygon class="st16" points="323.9,326 267.4,403.5 198.2,403.5 278.7,293 			"/>
			<linearGradient id="SVGID_13_" gradientUnits="userSpaceOnUse" x1="240.3792" y1="358.3155" x2="323.9338" y2="358.3155">
				<stop  offset="8.527380e-02" style="stop-color:#4432F6"/>
				<stop  offset="0.5999" style="stop-color:#4236F3"/>
				<stop  offset="0.8795" style="stop-color:#2394B1"/>
				<stop  offset="1" style="stop-color:#4AADAF"/>
			</linearGradient>
			<polygon class="st17" points="323.9,326 267.4,403.5 240.4,403.5 306.3,313.1 			"/>
			
				<rect x="281.9" y="293.4" transform="matrix(0.808 0.5892 -0.5892 0.808 236.9454 -122.5597)" class="st9" width="49.2" height="17.8"/>
			
				<rect x="277.3" y="307.6" transform="matrix(0.808 0.5892 -0.5892 0.808 239.7975 -118.6122)" class="st18" width="49.2" height="2.1"/>
			
				<rect x="295.4" y="275.3" transform="matrix(0.808 0.5892 -0.5892 0.808 229.774 -132.5714)" class="st19" width="45.7" height="22"/>
			
				<rect x="289.6" y="293" transform="matrix(0.808 0.5892 -0.5892 0.808 233.3426 -127.6351)" class="st20" width="45.7" height="2.3"/>
			<path class="st19" d="M331.2,205.3l-30.5,41.9c-1.3,1.7-1.7,3.9-1.3,6l3.3,15.7l34.8-47.7c3.5-4.8,2.4-11.5-2.4-15l-1.6-1.2
				C332.8,204.4,331.8,204.6,331.2,205.3z"/>
			<path class="st21" d="M368.6,291.2l-71.2-51.9l21.6-29.6l71.2,51.9c1.8,1.3,2.1,3.7,0.9,5.5l-16.9,23.2
				C372.8,292.1,370.3,292.4,368.6,291.2z"/>
			<path class="st19" d="M313.7,276.9l-11.1-8.1l40.3-55.3c2.2-3.1,6.5-3.7,9.6-1.5l0,0c3.1,2.2,3.7,6.5,1.5,9.6L313.7,276.9z"/>
			<path class="st19" d="M324.8,285l-11.1-8.1l38.7-53c2.2-3.1,6.5-3.7,9.6-1.5l0,0c3.1,2.2,3.7,6.5,1.5,9.6L324.8,285z"/>
			<path class="st19" d="M335.9,293.1l-11.1-8.1l36.1-49.5c2.2-3.1,6.5-3.7,9.6-1.5l0,0c3.1,2.2,3.7,6.5,1.5,9.6L335.9,293.1z"/>
			<path class="st19" d="M372,243.5l-36.1,49.5l2.7,2c4.6,3.4,10.9,2.6,14-1.8l2.8-3.9l27.6-37.8c2.2-3.1,1.6-7.3-1.5-9.6l0,0
				C378.5,239.8,374.2,240.5,372,243.5z"/>
			<path class="st9" d="M289.5,239.7L289.5,239.7L317,202l0,0c3.6,2.6,4.4,7.6,1.8,11.2l-18,24.7
				C298.1,241.5,293.1,242.3,289.5,239.7z"/>
			<path class="st21" d="M276.8,249.5l-36.3-26.5c-2-1.5-2.5-4.3-1-6.3l40.5-55.6c1.5-2,4.3-2.5,6.3-1l36.3,26.5
				c2,1.5,2.5,4.3,1,6.3l-40.5,55.6C281.6,250.6,278.8,251,276.8,249.5z"/>
			<path class="st21" d="M321.7,195.6L285,245.9c-2.5,3.5-7.4,4.3-10.9,1.7l-6.6-4.8l45.8-62.9l6.6,4.8
				C323.5,187.3,324.2,192.1,321.7,195.6z"/>
			<path class="st22" d="M257.5,249.8l-11.4-8.3c-5.2-3.8-6.3-11-2.5-16.2l0,0l30.1,22l0,0C269.9,252.4,262.7,253.6,257.5,249.8z"/>
			<path class="st9" d="M306.3,68.6c0,0,11.9,53.9-17.1,93.7l30.6,22.3c29-39.8,84-44.9,84-44.9L306.3,68.6z"/>
			<path class="st23" d="M403.7,139.7c0,0-54.9,5.1-84,44.9l-9.3-6.8c23-30.4,59-42.9,80-47.8L403.7,139.7z"/>
			<path class="st21" d="M400.5,142.4l-95.9-69.9c-1.2-0.9-1.4-2.5-0.6-3.7l0,0c0.9-1.2,2.5-1.4,3.7-0.6l95.9,69.9
				c1.2,0.9,1.4,2.5,0.6,3.7l0,0C403.4,143,401.7,143.3,400.5,142.4z"/>
			
				<ellipse transform="matrix(0.5892 -0.808 0.808 0.5892 -142.0359 383.8571)" class="st11" cx="306.5" cy="331.6" rx="5.5" ry="5.5"/>
			
				<ellipse transform="matrix(0.5892 -0.808 0.808 0.5892 -158.6718 381.1769)" class="st11" cx="295.5" cy="346.6" rx="5.5" ry="5.5"/>
			
				<rect x="369.8" y="251.8" transform="matrix(0.808 0.5892 -0.5892 0.808 230.4052 -166.6415)" class="st21" width="2.2" height="36.6"/>
			
				<rect x="323.8" y="218.3" transform="matrix(0.808 0.5892 -0.5892 0.808 201.7655 -145.9602)" class="st22" width="2.2" height="36.6"/>
		</g>
		<g>
			<rect x="327.2" y="332.9" class="st24" width="60.9" height="61.3"/>
			<rect x="327.2" y="332.9" class="st25" width="60.9" height="8.1"/>
			<circle class="st26" cx="332.1" cy="337" r="1.7"/>
			<circle class="st26" cx="337.7" cy="337" r="1.7"/>
			<circle class="st26" cx="343.3" cy="337" r="1.7"/>
			<text transform="matrix(1 0 0 1 334.3171 365.828)" class="st9 st27 st28">A</text>
			<rect x="355.7" y="346.9" class="st9" width="27.6" height="1.7"/>
			<rect x="355.7" y="351.6" class="st9" width="27.6" height="1.7"/>
			<rect x="355.7" y="356.3" class="st9" width="27.6" height="1.7"/>
			<rect x="355.7" y="361" class="st9" width="27.6" height="1.7"/>
			<rect x="355.7" y="365.7" class="st9" width="27.6" height="1.7"/>
			<rect x="332.1" y="370.3" class="st9" width="51.2" height="1.7"/>
			<rect x="332.1" y="375" class="st9" width="51.2" height="1.7"/>
			<rect x="332.1" y="379.7" class="st9" width="51.2" height="1.7"/>
			<rect x="332.1" y="384.4" class="st9" width="51.2" height="1.7"/>
		</g>
		<g>
			<g>
				<rect x="35.9" y="193.8" class="st9" width="163.9" height="147.4"/>
				<linearGradient id="SVGID_14_" gradientUnits="userSpaceOnUse" x1="35.9118" y1="200.5366" x2="199.8556" y2="200.5366">
					<stop  offset="0.1324" style="stop-color:#443281"/>
					<stop  offset="0.5174" style="stop-color:#4432F6"/>
					<stop  offset="0.8937" style="stop-color:#2394B1"/>
					<stop  offset="1" style="stop-color:#4AADAF"/>
				</linearGradient>
				<rect x="35.9" y="193.8" class="st29" width="163.9" height="13.5"/>
				<circle class="st9" cx="51.3" cy="200.5" r="2.8"/>
				<circle class="st9" cx="62.2" cy="200.5" r="2.8"/>
				<circle class="st9" cx="73.2" cy="200.5" r="2.8"/>
				<rect x="48.5" y="223.8" class="st30" width="42.1" height="42.1"/>
				<path class="st31" d="M69.5,283.6L69.5,283.6c-11.6,0-21,9.4-21,21.1c0,4.5,1.4,8.7,3.9,12.2c3.8,5.4,10.1,8.9,17.1,8.9
					c11.6,0,21.1-9.4,21.1-21C90.5,293,81.1,283.6,69.5,283.6z M69.5,311.3c-2.3,0-4.3-1.1-5.5-2.8c-0.8-1.1-1.2-2.4-1.2-3.9
					c0-3.7,3-6.7,6.7-6.7h0c3.7,0,6.7,3,6.7,6.7C76.2,308.3,73.2,311.3,69.5,311.3z"/>
				<polygon class="st32" points="78.1,241.1 73.1,248.9 62.2,232 48.5,253.4 48.5,265.9 90.5,265.9 90.5,260.5 				"/>
				<rect x="48.5" y="262.9" class="st33" width="42.1" height="3"/>
				<circle class="st32" cx="82.4" cy="231.6" r="3.6"/>
				<rect x="99.8" y="223.8" class="st34" width="45.7" height="1.7"/>
				<rect x="99.8" y="228.5" class="st15" width="87.2" height="1.7"/>
				<rect x="99.8" y="233.2" class="st15" width="76.6" height="1.7"/>
				<rect x="99.8" y="237.9" class="st15" width="87.2" height="1.7"/>
				<rect x="99.8" y="242.6" class="st15" width="68.4" height="1.7"/>
				<rect x="99.8" y="247.3" class="st15" width="87.2" height="1.7"/>
				<rect x="99.8" y="252" class="st15" width="87.2" height="1.7"/>
				<rect x="99.8" y="256.7" class="st15" width="87.2" height="1.7"/>
				<rect x="99.8" y="261.4" class="st15" width="87.2" height="1.7"/>
				<rect x="99.8" y="266.1" class="st15" width="87.2" height="1.7"/>
				<rect x="99.8" y="282.6" class="st34" width="45.7" height="1.7"/>
				<rect x="99.8" y="287.3" class="st15" width="75.5" height="1.7"/>
				<rect x="99.8" y="292" class="st15" width="87.2" height="1.7"/>
				<rect x="99.8" y="296.7" class="st15" width="68.4" height="1.7"/>
				<rect x="99.8" y="301.4" class="st15" width="87.2" height="1.7"/>
				<rect x="99.8" y="306.1" class="st15" width="71.4" height="1.7"/>
				<rect x="99.8" y="310.8" class="st15" width="71.4" height="1.7"/>
				<rect x="99.8" y="315.5" class="st15" width="87.2" height="1.7"/>
				<rect x="99.8" y="320.2" class="st15" width="87.2" height="1.7"/>
				<rect x="99.8" y="324.9" class="st15" width="87.2" height="1.7"/>
				<path class="st35" d="M69.5,283.6v14.3h0c-3.7,0-6.7,3-6.7,6.7c0,1.4,0.5,2.8,1.2,3.9l-11.7,8.3c-2.4-3.4-3.9-7.6-3.9-12.2
					C48.5,293,57.9,283.6,69.5,283.6L69.5,283.6z"/>
			</g>
		</g>
	</g>
</g>
</svg>
