<?xml version="1.0" encoding="utf-8"?>
<!-- Generator: Adobe Illustrator 21.1.0, SVG Export Plug-In . SVG Version: 6.00 Build 0)  -->
<svg version="1.1" id="Layer_1" xmlns="http://www.w3.org/2000/svg" xmlns:xlink="http://www.w3.org/1999/xlink" x="0px" y="0px"
	 viewBox="0 0 500 500" style="enable-background:new 0 0 500 500;" xml:space="preserve">
<style type="text/css">
	.st0{fill:url(#SVGID_1_);}
	.st1{opacity:0.5;}
	.st2{fill:#FFFFFF;}
	.st3{clip-path:url(#SVGID_3_);}
	.st4{opacity:0.5;fill:#173D7A;}
	.st5{fill:#FE8A25;}
	.st6{fill:#D64C02;}
	.st7{fill:#173D7A;}
	.st8{fill:#396CAA;}
	.st9{fill:#274F89;}
	.st10{fill:#D4ECFF;}
	.st11{fill:#5793CE;}
	.st12{opacity:0.5;fill:#D4ECFF;}
	.st13{fill:#983BE9;}
	.st14{fill:#FFC2B0;}
	.st15{fill:#EA9C92;}
	.st16{fill:url(#SVGID_4_);}
	.st17{fill:url(#SVGID_5_);}
	.st18{fill:url(#SVGID_6_);}
	.st19{fill:url(#SVGID_7_);}
	.st20{fill:url(#SVGID_8_);}
	.st21{fill:url(#SVGID_9_);}
</style>
<linearGradient id="SVGID_1_" gradientUnits="userSpaceOnUse" x1="-1098.1837" y1="1177.6842" x2="-814.8007" y2="1461.0673" gradientTransform="matrix(-1 0 0 -1 -713.1895 1573.7456)">
	<stop  offset="8.527380e-02" style="stop-color:#4432F6"/>
	<stop  offset="0.7534" style="stop-color:#2394B1"/>
	<stop  offset="1" style="stop-color:#4AADAF"/>
</linearGradient>
<path class="st0" d="M317.6,437.2c118.4-27.3,114.5-198,114.5-198C430.2,93.4,254.5,68.2,214.7,76c-39.8,7.8-165,11.6-165,163.2
	C49.6,239.1,53.5,477.7,317.6,437.2z"/>
<g class="st1">
	<g>
		<path class="st2" d="M177.2,337.3c-16.2-12.8-27.3-30.3-32.1-50.2c-0.1,0-0.2,0-0.3,0.1c4.8,20,15.9,37.5,32.1,50.4
			c19.6,15.5,44.2,22.2,69.3,18.9c7.5-1,14.8-2.8,21.7-5.5c0-0.1,0-0.2-0.1-0.3c-6.9,2.6-14.2,4.5-21.7,5.5
			C221.3,359.5,196.7,352.8,177.2,337.3z"/>
		<path class="st2" d="M325.4,227.7c0.1,0,0.2-0.1,0.2-0.1c-5.7-16-15.7-30-29.3-40.7c-16.6-13.1-36.8-20-57.9-19.7
			c-0.1,0.1-0.1,0.2-0.2,0.3c21.1-0.3,41.3,6.5,57.9,19.7C309.7,197.8,319.7,211.8,325.4,227.7z"/>
		<path class="st2" d="M316.2,311.3c11.3-17.9,16.4-38.7,14.6-59.7c-0.1,0-0.2,0-0.3,0c1.8,21-3.4,41.7-14.6,59.5
			C316.1,311.2,316.1,311.3,316.2,311.3z"/>
		<path class="st2" d="M163.7,204.4c2.1-2.6,4.2-5.1,6.5-7.5c-0.1-0.1-0.2-0.1-0.2-0.2c-2.3,2.4-4.5,4.8-6.5,7.4
			c-8.3,10.5-14.3,22.4-17.8,34.9c0.1,0,0.2,0,0.3,0.1C149.4,226.7,155.4,214.9,163.7,204.4z"/>
	</g>
	<g>
		<path class="st2" d="M343.3,276.3c-2.3,14.6-7.5,28.6-15.4,41.3c0.1,0,0.3,0,0.4-0.1c7.8-12.7,13-26.7,15.3-41.2
			C343.5,276.4,343.4,276.3,343.3,276.3z"/>
		<path class="st2" d="M269.2,157.8c12.8,3.7,24.9,9.9,35.6,18.4c17.1,13.5,29.2,31.7,35.3,52.3c0.1-0.1,0.2-0.1,0.3-0.2
			c-6.1-20.7-18.3-38.8-35.4-52.4c-10.7-8.5-22.8-14.7-35.6-18.4C269.4,157.6,269.3,157.7,269.2,157.8z"/>
		<path class="st2" d="M247.7,370.2c14.7-1.9,28.7-6.7,41.2-14c-0.1-0.1-0.1-0.1-0.2-0.2c-12.5,7.3-26.4,12.1-41,14
			c-25.2,3.3-50-2.3-70.8-15.7c-0.1,0.1-0.1,0.2-0.2,0.3C197.6,367.9,222.4,373.5,247.7,370.2z"/>
		<path class="st2" d="M128.9,269c-0.9-26.3,7.5-51.9,24.2-73c8.1-10.2,17.6-18.8,28.3-25.5c-0.1-0.1-0.1-0.2-0.2-0.2
			c-10.7,6.7-20.3,15.3-28.3,25.5c-16.7,21.1-25.2,46.9-24.2,73.2C128.7,269,128.8,269,128.9,269z"/>
	</g>
	<g>
		<path class="st2" d="M301.5,156.9c4.1,2.5,8.1,5.3,12,8.3c24.4,19.3,39.8,46.9,43.8,78.1c0.1,0,0.2-0.1,0.3-0.2
			c-4-31.2-19.5-58.9-43.9-78.2c-3.8-3-7.8-5.8-12-8.3C301.6,156.8,301.6,156.9,301.5,156.9z"/>
		<path class="st2" d="M153.9,354c-0.1,0.1-0.2,0.2-0.2,0.3c2,1.8,4,3.5,6.1,5.2c25.2,20,57,28.7,89.3,24.4
			c23.5-3.1,45.3-12.7,63.3-27.6l-0.3-0.2c-18,14.9-39.7,24.4-63.1,27.5c-32.3,4.2-63.9-4.4-89.1-24.4
			C157.9,357.5,155.9,355.8,153.9,354z"/>
		<path class="st2" d="M116.5,283.6c-0.3-1.9-0.5-3.8-0.7-5.6c-3.3-32.4,6.2-64.5,26.7-90.4c18.1-22.9,43-38.5,70.9-44.7
			c0-0.1-0.1-0.2-0.1-0.3c-27.9,6.2-52.9,21.9-71,44.9c-20.6,26-30.1,58.1-26.7,90.6c0.2,1.9,0.4,3.7,0.7,5.6
			C116.3,283.6,116.4,283.6,116.5,283.6z"/>
	</g>
	<g>
		<path class="st2" d="M269.4,129.3c0-0.1,0.1-0.2,0.1-0.4c-15-3.3-30.8-4.1-46.6-2c-21.4,2.8-41.6,10.5-59.3,22.4
			c0,0.1,0.1,0.2,0.1,0.4c17.6-11.9,37.8-19.6,59.2-22.4C238.8,125.2,254.5,125.9,269.4,129.3z"/>
		<path class="st2" d="M372.3,260.7c0.1-5.3-0.1-10.7-0.7-16.1c-2.4-23.4-10.6-45.2-23.7-63.6c-0.1,0.1-0.2,0.2-0.2,0.3
			c13,18.4,21.2,40,23.5,63.3c0.5,5.4,0.8,10.7,0.7,16C372,260.7,372.1,260.7,372.3,260.7z"/>
		<path class="st2" d="M250.5,397.5c8.2-1.1,16.3-2.9,24.1-5.4c0.1-0.2,0.2-0.3,0.2-0.5c-7.9,2.5-16,4.4-24.4,5.5
			c-35.9,4.7-71.1-4.9-99.1-27.1c-28-22.2-45.4-54.2-49.1-90.3c-2.4-23.1,1.1-46.1,10-67.2c-0.1,0-0.3,0-0.4,0
			c-8.8,21.1-12.3,44.1-9.9,67.2c3.7,36.1,21.2,68.3,49.2,90.5C179.2,392.6,214.5,402.2,250.5,397.5z"/>
	</g>
	<g>
		<path class="st2" d="M197.2,408.2l0.3-0.3c-19.8-4.9-38.4-13.9-54.8-26.9c-30.8-24.4-50-59.7-54.1-99.4
			c-3.3-32.5,3.9-64.8,20.4-92.8c-0.1-0.1-0.2-0.2-0.3-0.2c-16.6,28.1-23.8,60.5-20.5,93.1c4.1,39.8,23.3,75.2,54.2,99.6
			C158.8,394.2,177.4,403.3,197.2,408.2z"/>
		<path class="st2" d="M269.6,114.8c-11.7-2.3-23.8-3.2-36.1-2.6c0,0.1,0,0.3,0.1,0.4c12.1-0.6,24.1,0.3,35.8,2.6
			C269.5,115,269.6,114.9,269.6,114.8z"/>
		<path class="st2" d="M376.4,206.4c0.1-0.1,0.2-0.2,0.3-0.3c-9.1-24.6-24.7-46.3-45.7-62.9c-17.9-14.2-38.5-23.7-60.3-28.2
			c-0.1,0.1-0.2,0.2-0.3,0.4c21.9,4.5,42.4,14,60.3,28.2C351.7,160.1,367.3,181.7,376.4,206.4z"/>
		<path class="st2" d="M291.6,399.9c0.1,0.1,0.3,0.2,0.4,0.3c23.4-10,44.1-25.8,60.4-46.4c0.8-1,1.6-2.1,2.4-3.2l-0.3-0.2
			c-0.8,1.1-1.6,2.1-2.4,3.2C335.8,374.2,315,390,291.6,399.9z"/>
	</g>
	<g>
		<path class="st2" d="M385.6,323.7c0.1,0.1,0.2,0.2,0.4,0.2c6.1-14.2,10.3-29.2,12.3-44.5c-0.1,0-0.3-0.1-0.4-0.1
			C395.8,294.6,391.7,309.5,385.6,323.7z"/>
		<path class="st2" d="M322.1,120.2c-16.7-9.9-34.9-16.6-54-19.8c0,0.2,0,0.3,0,0.5c18.9,3.2,37.1,9.8,53.7,19.7
			C321.9,120.4,322,120.3,322.1,120.2z"/>
		<path class="st2" d="M106.2,168.5c1.5-2,3-4,4.5-6c19.4-24.6,44.6-42.8,73.1-53.4c-0.1-0.1-0.1-0.3-0.2-0.4
			c-28.5,10.6-53.7,28.9-73.2,53.5c-1.6,2-3.1,4-4.5,6C106,168.3,106.1,168.4,106.2,168.5z"/>
		<path class="st2" d="M253.3,424.8c21.3-2.8,41.5-9.6,59.8-19.9c-0.1-0.1-0.2-0.2-0.3-0.3c-18.3,10.2-38.4,17-59.5,19.7
			c-29.3,3.8-58.2-0.3-84.3-11.6c-0.1,0.1-0.2,0.2-0.3,0.4C194.8,424.5,223.9,428.7,253.3,424.8z"/>
	</g>
	<g>
		<path class="st2" d="M373.4,370.4c-2.7,3.4-5.5,6.7-8.4,9.9l0.2,0.1c2.9-3.2,5.7-6.5,8.4-9.9c13.1-16.6,23.1-34.9,29.9-54.6
			c-0.1,0-0.1,0-0.2-0.1C396.5,335.6,386.5,353.9,373.4,370.4z"/>
		<path class="st2" d="M318.6,102.8c0.1-0.1,0.1-0.1,0.2-0.2c-10.4-5.2-21.3-9.3-32.6-12.3c-14.4-3.8-29.2-5.7-44.1-5.8
			c0,0.1,0,0.2,0,0.2c14.9,0,29.6,1.9,44,5.8C297.4,93.5,308.3,97.6,318.6,102.8z"/>
		<path class="st2" d="M413,247.5c-0.2-2.7-0.4-5.5-0.6-8.2c-2.1-20.8-7.8-40.6-16.8-59c-0.1,0-0.2,0-0.3,0
			c9,18.4,14.7,38.3,16.8,59.1c0.3,2.7,0.5,5.5,0.6,8.2C412.8,247.5,412.9,247.5,413,247.5z"/>
		<path class="st2" d="M61,281.2c-1.7-21.5,0.4-43.1,6.4-64c6.6-23,17.6-44.3,32.6-63.2c3.3-4.2,6.8-8.2,10.4-12
			c-0.1,0-0.1-0.1-0.2-0.1c-3.6,3.8-7.1,7.8-10.4,12c-15,19-26,40.3-32.6,63.3c-6,20.9-8.2,42.4-6.5,64
			C60.9,281.2,60.9,281.2,61,281.2z"/>
		<path class="st2" d="M302.9,424.8c0.1,0.1,0.1,0.1,0.2,0.2c5.6-2.4,11-5.1,16.3-8.1c16.9-9.5,32-21.4,45.1-35.7l-0.2-0.1
			c-13.1,14.2-28.2,26.2-45,35.6C314,419.6,308.5,422.4,302.9,424.8z"/>
	</g>
</g>
<g>
	<defs>
		<path id="SVGID_2_" d="M317.6,437.2c118.4-27.3,114.5-198,114.5-198C666.4-16.7,112.7,10.6,72.8,18.4
			C33,26.2-79.6,169.1,49.6,239.1C49.6,239.1,53.5,477.7,317.6,437.2z"/>
	</defs>
	<clipPath id="SVGID_3_">
		<use xlink:href="#SVGID_2_"  style="overflow:visible;"/>
	</clipPath>
	<g class="st3">
		<path class="st4" d="M242.7,477.1L72.8,379.1c-3.8-2.2-3.8-7.7,0-9.9l161.5-93.2l180.7,104.3c3.8,2.2,3.8,7.7,0,9.9l-150.7,87
			C257.7,481,249.4,481,242.7,477.1z"/>
		<g>
			<g>
				<path class="st5" d="M237.8,223.7c0-10.8-7.6-15.2-16.9-9.8L62,305.4c-2.6,1.5-4.7,5.1-4.7,8.1c0,3,2.1,4.2,4.6,2.7l158.9-91.5
					c4.2-2.4,7.6-0.4,7.6,4.4l0,17.8c3.1-0.2,6.2-0.2,9.3-0.1L237.8,223.7z"/>
				<path class="st6" d="M61.9,348.1l158.9-57.9c9.3-5.4,17-18.5,17-29.3l0-14.2c-3.1-0.1-6.2-0.1-9.3,0.1l0,19.4
					c0,4.9-3.4,10.8-7.7,13.2L62,337.4c-2.6,1.5-4.7,5.1-4.7,8.1C57.3,348.4,59.4,349.6,61.9,348.1z"/>
			</g>
			<polygon class="st6" points="58.5,348.4 251.8,460.2 415.4,362.6 428.4,343.2 427,350.1 423.5,332.1 119.8,343.7 66.3,340.3 			
				"/>
			<polygon class="st2" points="64.9,314.6 64.9,338.4 251.6,446.5 256.7,423.8 			"/>
			<polygon class="st5" points="426,324.5 233,212.8 59,314 58.7,316.5 251.9,428.3 			"/>
			<g>
				<path class="st2" d="M364.4,381.8l45.4-26.9c3.8-2.7,6.8-8.1,6.8-12.7l0-3.6c0-2.9-1.2-4.7-3.1-5.3l-89.3,49.7l-72.7,39.3
					l0.1,24.1L364.4,381.8z"/>
			</g>
			<path class="st6" d="M258.1,424.6L66.4,313.7l-4.1-2.4l-3.7-2.1c-0.8,1.4-1.2,2.9-1.2,4.3c0,1.5,0.5,2.5,1.3,3l0,0l0,0l0,0
				l193.2,111.8L258.1,424.6z"/>
			<polygon class="st2" points="249.4,458.8 251.8,460.2 252.2,459.4 250.7,458.2 			"/>
			<polygon class="st2" points="249.4,426.8 251.9,428.3 251.3,426.9 			"/>
			<g>
				<path class="st5" d="M255.2,417.2l158.9-91.5c9.3-5.4,16.9-1,16.9,9.8l0,3.6c0,10.8-7.6,23.9-17,29.3l-158.9,91.5
					c-2.6,1.5-4.7,0.3-4.6-2.7c0-3,2.1-6.6,4.7-8.1l158.9-91.5c4.2-2.4,7.6-8.4,7.7-13.2l0-3.6c0-4.9-3.4-6.8-7.6-4.4L255.2,428
					c-2.6,1.5-4.7,0.3-4.6-2.7C250.6,422.3,252.7,418.7,255.2,417.2z"/>
			</g>
			<g>
				<path class="st2" d="M250.5,457.2c0-3,2.1-6.6,4.7-8.1l158.9-91.5c4.2-2.4,7.6-8.4,7.7-13.2l0-3.6c0-3.2-1.5-5.1-3.7-5.4
					c0.7,0.9,1.1,2.3,1.1,3.9l0,3.6c0,4.9-3.4,10.8-7.7,13.2l-158.9,91.5c-2.6,1.5-4.7,5.1-4.7,8.1c0,2.2,1.2,3.5,2.9,3.3
					C250.7,458.6,250.5,458,250.5,457.2z"/>
				<path class="st2" d="M250.6,425.3c0-3,2.1-6.6,4.7-8.1l158.9-91.5c4-2.3,7.7-2.8,10.6-1.8c-3.1-2.6-7.9-2.8-13.2,0.3
					l-158.9,91.5c-2.6,1.5-4.7,5.1-4.7,8.1c0,2.2,1.2,3.5,2.9,3.3C250.7,426.6,250.6,426,250.6,425.3z"/>
			</g>
		</g>
		<g>
			<path class="st7" d="M432.4,160.5L261,61.5c-2-1.1-4-1.3-5.8-0.7l0,0l-0.3,0.1c0,0-0.1,0-0.1,0l-6.2,2.4l5.6,2.7
				c0,0.1-0.1,0.2-0.1,0.3l-27.9,127.1c-1.4,6.4,1.4,13.8,6.3,16.6l167.3,96.6l-0.6,7.1l6.8-2.6c2.3-1.1,4.1-3.5,4.8-6.9l27.9-127.1
				C440.1,170.7,437.3,163.3,432.4,160.5z"/>
			<path class="st8" d="M432.4,160.5L261,61.5c-2-1.1-4-1.3-5.8-0.7l0,0l-0.3,0.1c0,0-0.1,0-0.1,0l-6.2,2.4l5.6,2.7
				c0,0.1-0.1,0.2-0.1,0.3l-18.4,83.8l83.9,65.3l118.3-48.1C436.7,164.4,434.8,161.8,432.4,160.5z"/>
			<path class="st9" d="M426,180l13-5.6c0.2-5.1-1.9-10.3-5.3-13.1l-20.7,8.7L426,180z"/>
			<path class="st10" d="M393.2,313l-171.4-99c-4.8-2.8-7.6-10.2-6.3-16.6l27.9-127.1c1.4-6.4,6.5-9.2,11.3-6.4l171.4,99
				c4.8,2.8,7.6,10.2,6.3,16.6l-27.9,127.1C403.1,312.9,398,315.8,393.2,313z"/>
			<path class="st2" d="M427.8,162.3l-171.4-99c-2.3-1.4-4.7-1.4-6.7-0.3c1.6-0.4,3.4-0.1,5.1,0.9l171.4,99
				c4.8,2.8,7.6,10.2,6.3,16.6l-27.9,127.1c-0.7,3.3-2.4,5.6-4.6,6.7c2.9-0.6,5.3-3.3,6.2-7.3l27.9-127.1
				C435.5,172.5,432.7,165.1,427.8,162.3z"/>
			<path class="st2" d="M389.5,303.5l-161.2-93c-4.4-2.6-7-9.4-5.7-15.2L248.1,79c1.3-5.8,5.9-8.5,10.3-5.9l161.2,93
				c4.4,2.6,7,9.4,5.7,15.2l-25.5,116.3C398.6,303.5,393.9,306.1,389.5,303.5z"/>
			<path class="st7" d="M389.5,303.5l-161.2-93c-4.4-2.6-7-9.4-5.7-15.2L248.1,79c1.3-5.8,5.9-8.5,10.3-5.9l161.2,93
				c4.4,2.6,7,9.4,5.7,15.2l-25.5,116.3C398.6,303.5,393.9,306.1,389.5,303.5z"/>
			<path class="st11" d="M390.9,303l-161.2-93c-4.4-2.6-7-9.4-5.7-15.2l25.5-116.3c0.6-2.9,2.2-5.1,4.1-6.1
				c-2.6,0.7-4.7,3.1-5.5,6.7l-25.5,116.3c-1.3,5.8,1.3,12.6,5.7,15.2l161.2,93c2.2,1.3,4.4,1.3,6.3,0.2
				C394.2,304.2,392.6,303.9,390.9,303z"/>
			<path class="st7" d="M395.6,317.3l-23.4-3.1l-151.3-87.3c-4.8-2.8-13.3-2.4-18.9,0.8L94.8,289.5l-14.2-1.9v8l0,0
				c-0.1,1.9,1,3.6,3.3,5l171.4,99c4.8,2.8,13.3,2.4,18.9-0.8l116.7-67.4c3.1-1.8,4.7-4.2,4.6-6.4l0,0V317.3z"/>
			<path class="st8" d="M281.9,262.1l-10.7-6.2H153l-58.2,33.6l-14.2-1.9v8l0,0c-0.1,1.9,1,3.6,3.3,5l171.4,99
				c2.6,1.5,6.1,2.1,9.8,1.8L281.9,262.1z"/>
			<path class="st11" d="M86.9,288.5l-6.3-0.8v8l0,0c-0.1,1.9,1,3.6,3.3,5l3,1.7V288.5z"/>
			<path class="st9" d="M257,400.4c4.6,1.7,11.2,1.4,16.1-1v-17.9H257V400.4z"/>
			<path class="st10" d="M255.3,391.6l-171.4-99c-4.8-2.8-4.2-7.7,1.4-10.9L202,214.3c5.6-3.2,14.1-3.6,18.9-0.8l171.4,99
				c4.8,2.8,4.2,7.7-1.4,10.9l-116.7,67.4C268.6,394,260.1,394.4,255.3,391.6z"/>
			<path class="st2" d="M390.9,320.5l-116.7,67.4c-5.6,3.2-14.1,3.6-18.9,0.8l-171.4-99c-1.6-0.9-2.6-2.1-3-3.3
				c-0.8,2.3,0.2,4.6,3,6.2l171.4,99c4.8,2.8,13.3,2.4,18.9-0.8l116.7-67.4c3.8-2.2,5.3-5.1,4.4-7.6
				C394.8,317.5,393.3,319.1,390.9,320.5z"/>
			<g>
				<path class="st11" d="M156.8,259.9l-7.8-4.5c-0.6-0.4-0.5-1,0.2-1.4l9.2-5.3c0.7-0.4,1.8-0.5,2.4-0.1l7.8,4.5
					c0.6,0.4,0.5,1-0.2,1.4l-9.2,5.3C158.5,260.2,157.4,260.2,156.8,259.9z"/>
				<path class="st11" d="M168.8,266.8l-7.8-4.5c-0.6-0.4-0.5-1,0.2-1.4l9.2-5.3c0.7-0.4,1.8-0.5,2.4-0.1l7.8,4.5
					c0.6,0.4,0.5,1-0.2,1.4l-9.2,5.3C170.5,267.1,169.4,267.1,168.8,266.8z"/>
				<path class="st11" d="M180.7,273.7l-7.8-4.5c-0.6-0.4-0.5-1,0.2-1.4l9.2-5.3c0.7-0.4,1.8-0.5,2.4-0.1l7.8,4.5
					c0.6,0.4,0.5,1-0.2,1.4l-9.2,5.3C182.5,274,181.4,274.1,180.7,273.7z"/>
				<path class="st11" d="M197.3,268l-7.8-4.5c-0.6-0.4-0.5-1,0.2-1.4l7.7-4.4c0.7-0.4,1.8-0.5,2.4-0.1l7.8,4.5
					c0.6,0.4,0.5,1-0.2,1.4l-7.7,4.4C199,268.3,197.9,268.3,197.3,268z"/>
				<path class="st11" d="M209.3,274.9l-7.8-4.5c-0.6-0.4-0.5-1,0.2-1.4l7.7-4.4c0.7-0.4,1.8-0.5,2.4-0.1l7.8,4.5
					c0.6,0.4,0.5,1-0.2,1.4l-7.7,4.4C211,275.2,209.9,275.3,209.3,274.9z"/>
				<path class="st11" d="M221.3,281.8l-7.8-4.5c-0.6-0.4-0.5-1,0.2-1.4l7.7-4.4c0.7-0.4,1.8-0.5,2.4-0.1l7.8,4.5
					c0.6,0.4,0.5,1-0.2,1.4l-7.7,4.4C223,282.1,221.9,282.2,221.3,281.8z"/>
				<path class="st11" d="M233.2,288.7l-7.8-4.5c-0.6-0.4-0.5-1,0.2-1.4l7.7-4.4c0.7-0.4,1.8-0.5,2.4-0.1l7.8,4.5
					c0.6,0.4,0.5,1-0.2,1.4l-7.7,4.4C235,289,233.9,289.1,233.2,288.7z"/>
				<path class="st11" d="M245.2,295.6l-7.8-4.5c-0.6-0.4-0.5-1,0.2-1.4l7.7-4.4c0.7-0.4,1.8-0.5,2.4-0.1l7.8,4.5
					c0.6,0.4,0.5,1-0.2,1.4l-7.7,4.4C246.9,296,245.8,296,245.2,295.6z"/>
				<path class="st11" d="M257.2,302.6l-7.8-4.5c-0.6-0.4-0.5-1,0.2-1.4l7.7-4.4c0.7-0.4,1.8-0.5,2.4-0.1l7.8,4.5
					c0.6,0.4,0.5,1-0.2,1.4l-7.7,4.4C258.9,302.9,257.8,302.9,257.2,302.6z"/>
				<path class="st11" d="M269.2,309.5l-7.8-4.5c-0.6-0.4-0.5-1,0.2-1.4l7.7-4.4c0.7-0.4,1.8-0.5,2.4-0.1l7.8,4.5
					c0.6,0.4,0.5,1-0.2,1.4l-7.7,4.4C270.9,309.8,269.8,309.8,269.2,309.5z"/>
				<path class="st11" d="M281.2,316.4l-7.8-4.5c-0.6-0.4-0.5-1,0.2-1.4l7.7-4.4c0.7-0.4,1.8-0.5,2.4-0.1l7.8,4.5
					c0.6,0.4,0.5,1-0.2,1.4l-7.7,4.4C282.9,316.7,281.8,316.8,281.2,316.4z"/>
				<path class="st11" d="M293.1,323.3l-7.8-4.5c-0.6-0.4-0.5-1,0.2-1.4l7.7-4.4c0.7-0.4,1.8-0.5,2.4-0.1l7.8,4.5
					c0.6,0.4,0.5,1-0.2,1.4l-7.7,4.4C294.8,323.6,293.8,323.7,293.1,323.3z"/>
				<path class="st11" d="M305.1,330.2l-7.8-4.5c-0.6-0.4-0.5-1,0.2-1.4l7.7-4.4c0.7-0.4,1.8-0.5,2.4-0.1l7.8,4.5
					c0.6,0.4,0.5,1-0.2,1.4l-7.7,4.4C306.8,330.5,305.7,330.6,305.1,330.2z"/>
				<path class="st11" d="M215,264.7l-7.8-4.5c-0.6-0.4-0.5-1,0.2-1.4l7.7-4.4c0.7-0.4,1.8-0.5,2.4-0.1l7.8,4.5
					c0.6,0.4,0.5,1-0.2,1.4l-7.7,4.4C216.7,265,215.6,265.1,215,264.7z"/>
				<path class="st11" d="M202.8,257.7l-7.8-4.5c-0.6-0.4-0.5-1,0.2-1.4l7.7-4.4c0.7-0.4,1.8-0.5,2.4-0.1l7.8,4.5
					c0.6,0.4,0.5,1-0.2,1.4l-7.7,4.4C204.5,258,203.4,258.1,202.8,257.7z"/>
				<path class="st11" d="M190.6,250.7l-16.7-9.6c-0.6-0.4-0.5-1,0.2-1.4l7.7-4.4c0.7-0.4,1.8-0.5,2.4-0.1l16.7,9.6
					c0.6,0.4,0.5,1-0.2,1.4l-7.7,4.4C192.3,251,191.2,251,190.6,250.7z"/>
				<path class="st11" d="M199.1,242.1l-13.6-7.8c-0.6-0.4-0.5-1,0.2-1.4l7.7-4.4c0.7-0.4,1.8-0.5,2.4-0.1l13.6,7.8
					c0.6,0.4,0.5,1-0.2,1.4l-7.7,4.4C200.8,242.4,199.8,242.5,199.1,242.1z"/>
				<path class="st11" d="M226.9,271.6l-7.8-4.5c-0.6-0.4-0.5-1,0.2-1.4l7.7-4.4c0.7-0.4,1.8-0.5,2.4-0.1l7.8,4.5
					c0.6,0.4,0.5,1-0.2,1.4l-7.7,4.4C228.6,271.9,227.6,272,226.9,271.6z"/>
				<path class="st11" d="M238.9,278.5l-7.8-4.5c-0.6-0.4-0.5-1,0.2-1.4l7.7-4.4c0.7-0.4,1.8-0.5,2.4-0.1l7.8,4.5
					c0.6,0.4,0.5,1-0.2,1.4l-7.7,4.4C240.6,278.9,239.5,278.9,238.9,278.5z"/>
				<path class="st11" d="M250.9,285.5l-7.8-4.5c-0.6-0.4-0.5-1,0.2-1.4l7.7-4.4c0.7-0.4,1.8-0.5,2.4-0.1l7.8,4.5
					c0.6,0.4,0.5,1-0.2,1.4l-7.7,4.4C252.6,285.8,251.5,285.8,250.9,285.5z"/>
				<path class="st11" d="M262.9,292.4l-7.8-4.5c-0.6-0.4-0.5-1,0.2-1.4l7.7-4.4c0.7-0.4,1.8-0.5,2.4-0.1l7.8,4.5
					c0.6,0.4,0.5,1-0.2,1.4l-7.7,4.4C264.6,292.7,263.5,292.7,262.9,292.4z"/>
				<path class="st11" d="M274.8,299.3l-7.8-4.5c-0.6-0.4-0.5-1,0.2-1.4l7.7-4.4c0.7-0.4,1.8-0.5,2.4-0.1l7.8,4.5
					c0.6,0.4,0.5,1-0.2,1.4l-7.7,4.4C276.6,299.6,275.5,299.6,274.8,299.3z"/>
				<path class="st11" d="M286.8,306.2l-7.8-4.5c-0.6-0.4-0.5-1,0.2-1.4l7.7-4.4c0.7-0.4,1.8-0.5,2.4-0.1l7.8,4.5
					c0.6,0.4,0.5,1-0.2,1.4l-7.7,4.4C288.5,306.5,287.4,306.6,286.8,306.2z"/>
				<path class="st11" d="M298.8,313.1l-7.8-4.5c-0.6-0.4-0.5-1,0.2-1.4l7.7-4.4c0.7-0.4,1.8-0.5,2.4-0.1l7.8,4.5
					c0.6,0.4,0.5,1-0.2,1.4l-7.7,4.4C300.5,313.4,299.4,313.5,298.8,313.1z"/>
				<path class="st11" d="M310.8,320l-7.8-4.5c-0.6-0.4-0.5-1,0.2-1.4l7.7-4.4c0.7-0.4,1.8-0.5,2.4-0.1l7.8,4.5
					c0.6,0.4,0.5,1-0.2,1.4l-7.7,4.4C312.5,320.3,311.4,320.4,310.8,320z"/>
				<path class="st11" d="M322.8,326.9l-7.8-4.5c-0.6-0.4-0.5-1,0.2-1.4l7.7-4.4c0.7-0.4,1.8-0.5,2.4-0.1l7.8,4.5
					c0.6,0.4,0.5,1-0.2,1.4l-7.7,4.4C324.5,327.3,323.4,327.3,322.8,326.9z"/>
				<path class="st11" d="M344,339.2l-16.9-9.8c-0.6-0.4-0.5-1,0.2-1.4l7.7-4.4c0.7-0.4,1.8-0.5,2.4-0.1l16.9,9.8
					c0.6,0.4,0.5,1-0.2,1.4l-7.7,4.4C345.8,339.6,344.7,339.6,344,339.2z"/>
				<path class="st11" d="M367.4,325.8l-14.3-8.2c-0.6-0.4-0.5-1,0.2-1.4l7.7-4.4c0.7-0.4,1.8-0.5,2.4-0.1l14.3,8.2
					c0.6,0.4,0.5,1-0.2,1.4l-7.7,4.4C369.1,326.1,368,326.1,367.4,325.8z"/>
				<path class="st11" d="M247.9,270.3l-7.8-4.5c-0.6-0.4-0.5-1,0.2-1.4l7.7-4.4c0.7-0.4,1.8-0.5,2.4-0.1l7.8,4.5
					c0.6,0.4,0.5,1-0.2,1.4l-7.7,4.4C249.6,270.6,248.5,270.6,247.9,270.3z"/>
				<path class="st11" d="M235.6,263.2l-7.8-4.5c-0.6-0.4-0.5-1,0.2-1.4l7.7-4.4c0.7-0.4,1.8-0.5,2.4-0.1l7.8,4.5
					c0.6,0.4,0.5,1-0.2,1.4l-7.7,4.4C237.3,263.5,236.3,263.5,235.6,263.2z"/>
				<path class="st11" d="M223.4,256.1l-7.8-4.5c-0.6-0.4-0.5-1,0.2-1.4l7.7-4.4c0.7-0.4,1.8-0.5,2.4-0.1l7.8,4.5
					c0.6,0.4,0.5,1-0.2,1.4l-7.7,4.4C225.1,256.4,224,256.5,223.4,256.1z"/>
				<path class="st11" d="M211.1,249l-7.8-4.5c-0.6-0.4-0.5-1,0.2-1.4l7.7-4.4c0.7-0.4,1.8-0.5,2.4-0.1l7.8,4.5
					c0.6,0.4,0.5,1-0.2,1.4l-7.7,4.4C212.8,249.3,211.7,249.4,211.1,249z"/>
				<path class="st11" d="M259.9,277.2l-7.8-4.5c-0.6-0.4-0.5-1,0.2-1.4l7.7-4.4c0.7-0.4,1.8-0.5,2.4-0.1l7.8,4.5
					c0.6,0.4,0.5,1-0.2,1.4l-7.7,4.4C261.6,277.5,260.5,277.5,259.9,277.2z"/>
				<path class="st11" d="M271.9,284.1l-7.8-4.5c-0.6-0.4-0.5-1,0.2-1.4l7.7-4.4c0.7-0.4,1.8-0.5,2.4-0.1l7.8,4.5
					c0.6,0.4,0.5,1-0.2,1.4l-7.7,4.4C273.6,284.4,272.5,284.5,271.9,284.1z"/>
				<path class="st11" d="M283.8,291l-7.8-4.5c-0.6-0.4-0.5-1,0.2-1.4l7.7-4.4c0.7-0.4,1.8-0.5,2.4-0.1l7.8,4.5
					c0.6,0.4,0.5,1-0.2,1.4l-7.7,4.4C285.6,291.3,284.5,291.4,283.8,291z"/>
				<path class="st11" d="M295.8,297.9l-7.8-4.5c-0.6-0.4-0.5-1,0.2-1.4l7.7-4.4c0.7-0.4,1.8-0.5,2.4-0.1l7.8,4.5
					c0.6,0.4,0.5,1-0.2,1.4l-7.7,4.4C297.5,298.2,296.4,298.3,295.8,297.9z"/>
				<path class="st11" d="M307.8,304.8l-7.8-4.5c-0.6-0.4-0.5-1,0.2-1.4l7.7-4.4c0.7-0.4,1.8-0.5,2.4-0.1l7.8,4.5
					c0.6,0.4,0.5,1-0.2,1.4l-7.7,4.4C309.5,305.2,308.4,305.2,307.8,304.8z"/>
				<path class="st11" d="M319.8,311.8l-7.8-4.5c-0.6-0.4-0.5-1,0.2-1.4l7.7-4.4c0.7-0.4,1.8-0.5,2.4-0.1l7.8,4.5
					c0.6,0.4,0.5,1-0.2,1.4l-7.7,4.4C321.5,312.1,320.4,312.1,319.8,311.8z"/>
				<path class="st11" d="M331.8,318.7l-7.8-4.5c-0.6-0.4-0.5-1,0.2-1.4l7.7-4.4c0.7-0.4,1.8-0.5,2.4-0.1l7.8,4.5
					c0.6,0.4,0.5,1-0.2,1.4l-7.7,4.4C333.5,319,332.4,319,331.8,318.7z"/>
				<path class="st11" d="M343.7,325.6l-7.8-4.5c-0.6-0.4-0.5-1,0.2-1.4l7.7-4.4c0.7-0.4,1.8-0.5,2.4-0.1l7.8,4.5
					c0.6,0.4,0.5,1-0.2,1.4l-7.7,4.4C345.4,325.9,344.4,326,343.7,325.6z"/>
				<path class="st11" d="M355.7,332.5L348,328c-0.6-0.4-0.5-1,0.2-1.4l7.7-4.4c0.7-0.4,1.8-0.5,2.4-0.1l7.8,4.5
					c0.6,0.4,0.5,1-0.2,1.4l-7.7,4.4C357.4,332.8,356.3,332.9,355.7,332.5z"/>
				<path class="st11" d="M241.6,253.2l-7.8-4.5c-0.6-0.4-0.5-1,0.2-1.4l7.7-4.4c0.7-0.4,1.8-0.5,2.4-0.1l7.8,4.5
					c0.6,0.4,0.5,1-0.2,1.4l-7.7,4.4C243.3,253.5,242.2,253.5,241.6,253.2z"/>
				<path class="st11" d="M229.7,246.3l-7.8-4.5c-0.6-0.4-0.5-1,0.2-1.4l7.7-4.4c0.7-0.4,1.8-0.5,2.4-0.1l7.8,4.5
					c0.6,0.4,0.5,1-0.2,1.4l-7.7,4.4C231.4,246.6,230.3,246.6,229.7,246.3z"/>
				<path class="st11" d="M217.8,239.4l-7.8-4.5c-0.6-0.4-0.5-1,0.2-1.4l7.7-4.4c0.7-0.4,1.8-0.5,2.4-0.1l7.8,4.5
					c0.6,0.4,0.5,1-0.2,1.4l-7.7,4.4C219.5,239.7,218.4,239.8,217.8,239.4z"/>
				<path class="st11" d="M205.9,232.5l-7.8-4.5c-0.6-0.4-0.5-1,0.2-1.4l7.7-4.4c0.7-0.4,1.8-0.5,2.4-0.1l7.8,4.5
					c0.6,0.4,0.5,1-0.2,1.4l-7.7,4.4C207.6,232.8,206.5,232.9,205.9,232.5z"/>
				<path class="st11" d="M218.1,225.5l-7.8-4.5c-0.6-0.4-0.5-1,0.2-1.4l2.5-1.5c0.7-0.4,1.8-0.5,2.4-0.1l7.8,4.5
					c0.6,0.4,0.5,1-0.2,1.4l-2.5,1.5C219.8,225.8,218.7,225.8,218.1,225.5z"/>
				<path class="st11" d="M233.7,234.4l-7.8-4.5c-0.6-0.4-0.5-1,0.2-1.4l2.5-1.5c0.7-0.4,1.8-0.5,2.4-0.1l7.8,4.5
					c0.6,0.4,0.5,1-0.2,1.4l-2.5,1.5C235.4,234.7,234.3,234.8,233.7,234.4z"/>
				<path class="st11" d="M245.5,241.3l-7.8-4.5c-0.6-0.4-0.5-1,0.2-1.4l2.5-1.5c0.7-0.4,1.8-0.5,2.4-0.1l7.8,4.5
					c0.6,0.4,0.5,1-0.2,1.4l-2.5,1.5C247.2,241.6,246.1,241.6,245.5,241.3z"/>
				<path class="st11" d="M257.4,248.1l-7.8-4.5c-0.6-0.4-0.5-1,0.2-1.4l2.5-1.5c0.7-0.4,1.8-0.5,2.4-0.1l7.8,4.5
					c0.6,0.4,0.5,1-0.2,1.4l-2.5,1.5C259.1,248.4,258,248.5,257.4,248.1z"/>
				<path class="st11" d="M269.3,255l-7.8-4.5c-0.6-0.4-0.5-1,0.2-1.4l2.5-1.5c0.7-0.4,1.8-0.5,2.4-0.1l7.8,4.5
					c0.6,0.4,0.5,1-0.2,1.4l-2.5,1.5C271,255.3,269.9,255.3,269.3,255z"/>
				<path class="st11" d="M335.5,293.2l-7.8-4.5c-0.6-0.4-0.5-1,0.2-1.4l2.5-1.5c0.7-0.4,1.8-0.5,2.4-0.1l7.8,4.5
					c0.6,0.4,0.5,1-0.2,1.4l-2.5,1.5C337.2,293.6,336.1,293.6,335.5,293.2z"/>
				<path class="st11" d="M347.4,300.1l-7.8-4.5c-0.6-0.4-0.5-1,0.2-1.4l2.5-1.5c0.7-0.4,1.8-0.5,2.4-0.1l7.8,4.5
					c0.6,0.4,0.5,1-0.2,1.4l-2.5,1.5C349.1,300.4,348,300.5,347.4,300.1z"/>
				<path class="st11" d="M359.3,306.9l-7.8-4.5c-0.6-0.4-0.5-1,0.2-1.4l2.5-1.5c0.7-0.4,1.8-0.5,2.4-0.1l7.8,4.5
					c0.6,0.4,0.5,1-0.2,1.4l-2.5,1.5C361,307.3,359.9,307.3,359.3,306.9z"/>
				<path class="st11" d="M371.1,313.8l-7.8-4.5c-0.6-0.4-0.5-1,0.2-1.4l2.5-1.5c0.7-0.4,1.8-0.5,2.4-0.1l7.8,4.5
					c0.6,0.4,0.5,1-0.2,1.4l-2.5,1.5C372.8,314.1,371.7,314.2,371.1,313.8z"/>
				<path class="st11" d="M253.6,260.1l-7.8-4.5c-0.6-0.4-0.5-1,0.2-1.4l7.7-4.4c0.7-0.4,1.8-0.5,2.4-0.1l7.8,4.5
					c0.6,0.4,0.5,1-0.2,1.4L256,260C255.3,260.4,254.2,260.4,253.6,260.1z"/>
				<path class="st11" d="M265.6,267l-7.8-4.5c-0.6-0.4-0.5-1,0.2-1.4l7.7-4.4c0.7-0.4,1.8-0.5,2.4-0.1l7.8,4.5
					c0.6,0.4,0.5,1-0.2,1.4l-7.7,4.4C267.3,267.3,266.2,267.4,265.6,267z"/>
				<path class="st11" d="M277.5,273.9l-7.8-4.5c-0.6-0.4-0.5-1,0.2-1.4l7.7-4.4c0.7-0.4,1.8-0.5,2.4-0.1l7.8,4.5
					c0.6,0.4,0.5,1-0.2,1.4l-7.7,4.4C279.2,274.2,278.2,274.3,277.5,273.9z"/>
				<path class="st11" d="M289.5,280.8l-7.8-4.5c-0.6-0.4-0.5-1,0.2-1.4l7.7-4.4c0.7-0.4,1.8-0.5,2.4-0.1l7.8,4.5
					c0.6,0.4,0.5,1-0.2,1.4l-7.7,4.4C291.2,281.1,290.1,281.2,289.5,280.8z"/>
				<path class="st11" d="M301.5,287.7l-7.8-4.5c-0.6-0.4-0.5-1,0.2-1.4l7.7-4.4c0.7-0.4,1.8-0.5,2.4-0.1l7.8,4.5
					c0.6,0.4,0.5,1-0.2,1.4l-7.7,4.4C303.2,288.1,302.1,288.1,301.5,287.7z"/>
				<path class="st11" d="M313.5,294.7l-7.8-4.5c-0.6-0.4-0.5-1,0.2-1.4l7.7-4.4c0.7-0.4,1.8-0.5,2.4-0.1l7.8,4.5
					c0.6,0.4,0.5,1-0.2,1.4l-7.7,4.4C315.2,295,314.1,295,313.5,294.7z"/>
				<path class="st11" d="M325.4,301.6l-7.8-4.5c-0.6-0.4-0.5-1,0.2-1.4l7.7-4.4c0.7-0.4,1.8-0.5,2.4-0.1l7.8,4.5
					c0.6,0.4,0.5,1-0.2,1.4l-7.7,4.4C327.2,301.9,326.1,301.9,325.4,301.6z"/>
				<path class="st11" d="M337.4,308.5l-7.8-4.5c-0.6-0.4-0.5-1,0.2-1.4l7.7-4.4c0.7-0.4,1.8-0.5,2.4-0.1l7.8,4.5
					c0.6,0.4,0.5,1-0.2,1.4l-7.7,4.4C339.1,308.8,338,308.8,337.4,308.5z"/>
				<path class="st11" d="M349.4,315.4l-7.8-4.5c-0.6-0.4-0.5-1,0.2-1.4l7.7-4.4c0.7-0.4,1.8-0.5,2.4-0.1l7.8,4.5
					c0.6,0.4,0.5,1-0.2,1.4l-7.7,4.4C351.1,315.7,350,315.8,349.4,315.4z"/>
				<path class="st11" d="M185.1,260.9l-22.8-13.2c-0.6-0.4-0.5-1,0.2-1.4l7.7-4.4c0.7-0.4,1.8-0.5,2.4-0.1l22.8,13.2
					c0.6,0.4,0.5,1-0.2,1.4l-7.7,4.4C186.8,261.3,185.7,261.3,185.1,260.9z"/>
				<path class="st11" d="M332.2,345.9l-22.8-13.2c-0.6-0.4-0.5-1,0.2-1.4l7.7-4.4c0.7-0.4,1.8-0.5,2.4-0.1l22.8,13.2
					c0.6,0.4,0.5,1-0.2,1.4l-7.7,4.4C334,346.2,332.9,346.3,332.2,345.9z"/>
				<path class="st11" d="M284.3,333.5l-7.8-4.5c-0.6-0.4-0.5-1,0.2-1.4l9.2-5.3c0.7-0.4,1.8-0.5,2.4-0.1l7.8,4.5
					c0.6,0.4,0.5,1-0.2,1.4l-9.2,5.3C286.1,333.8,285,333.9,284.3,333.5z"/>
				<path class="st11" d="M197.4,283.3l-12.4-7.2c-0.6-0.4-0.5-1,0.2-1.4l9.2-5.3c0.7-0.4,1.8-0.5,2.4-0.1l12.4,7.2
					c0.6,0.4,0.5,1-0.2,1.4l-9.2,5.3C199.1,283.6,198,283.7,197.4,283.3z"/>
				<path class="st11" d="M272.8,326.8l-12.4-7.2c-0.6-0.4-0.5-1,0.2-1.4l9.2-5.3c0.7-0.4,1.8-0.5,2.4-0.1l12.4,7.2
					c0.6,0.4,0.5,1-0.2,1.4l-9.2,5.3C274.5,327.2,273.4,327.2,272.8,326.8z"/>
				<path class="st11" d="M214.7,293.3l-12.4-7.2c-0.6-0.4-0.5-1,0.2-1.4l9.2-5.3c0.7-0.4,1.8-0.5,2.4-0.1l12.4,7.2
					c0.6,0.4,0.5,1-0.2,1.4l-9.2,5.3C216.4,293.6,215.3,293.6,214.7,293.3z"/>
				<path class="st11" d="M214.1,279.4l53.9,31.1c0.7,0.4,0.7,1,0,1.4l-9.3,5.4c-0.7,0.4-1.8,0.4-2.4,0l-53.9-31.1L214.1,279.4z"/>
				<path class="st11" d="M317.8,346l8.6,5c0.5,0.3,0.4,0.8-0.1,1.1l-3.7,2.2c-0.6,0.3-1.5,0.4-2,0.1l-8.6-5
					c-0.5-0.3-0.4-0.8,0.1-1.1l3.7-2.2C316.4,345.8,317.3,345.8,317.8,346z"/>
				<path class="st11" d="M305.7,339.1l8.6,5c0.5,0.3,0.4,0.8-0.1,1.1l-3.7,2.2c-0.6,0.3-1.5,0.4-2,0.1l-8.6-5
					c-0.5-0.3-0.4-0.8,0.1-1.1l3.7-2.2C304.3,338.8,305.2,338.8,305.7,339.1z"/>
				<path class="st11" d="M293.8,332.2l8.6,5c0.5,0.3,0.4,0.8-0.1,1.1l-3.7,2.2c-0.6,0.3-1.5,0.4-2,0.1l-8.6-5
					c-0.5-0.3-0.4-0.8,0.1-1.1l3.7-2.2C292.4,331.9,293.3,331.9,293.8,332.2z"/>
				<path class="st11" d="M312.4,335.3l8.6,5c0.5,0.3,0.4,0.8-0.1,1.1l-3.7,2.2c-0.6,0.3-1.5,0.4-2,0.1l-8.6-5
					c-0.5-0.3-0.4-0.8,0.1-1.1l3.7-2.2C311,335,311.9,335,312.4,335.3z"/>
			</g>
			<g>
				<polygon class="st10" points="359.7,200.3 295.2,163.1 296,158.9 360.5,196.1 				"/>
				<polygon class="st10" points="336.6,207.4 291.5,181.4 292.4,177.2 337.4,203.2 				"/>
				<polygon class="st2" points="332.3,194.7 293.3,172.2 294.2,168 333.1,190.5 				"/>
				<polygon class="st5" points="357.9,209.5 338.4,198.2 339.2,194 358.7,205.3 				"/>
				<polygon class="st10" points="288.3,126.5 268.8,115.2 269.6,111 289.1,122.3 				"/>
				<polygon class="st2" points="286.2,136.2 266.7,125 267.5,120.8 287,132 				"/>
				<polygon class="st10" points="381.8,271.4 362.3,260.2 363.1,256 382.6,267.2 				"/>
				<polygon class="st10" points="281.9,155.7 262.5,144.5 263.3,140.3 282.8,151.5 				"/>
			</g>
			<g>
				<path class="st5" d="M324,158.7c-0.6,1.4-2.2,1.8-3.5,1.1c-1.3-0.8-1.9-2.5-1.3-3.8c0.6-1.4,2.2-1.8,3.5-1.1
					C324.1,155.7,324.7,157.4,324,158.7z"/>
				<path class="st2" d="M332.4,163.6c-0.6,1.4-2.2,1.8-3.5,1.1c-1.3-0.8-1.9-2.5-1.3-3.8c0.6-1.4,2.2-1.8,3.5-1.1
					C332.5,160.5,333,162.2,332.4,163.6z"/>
				<path class="st10" d="M340.8,168.4c-0.6,1.4-2.2,1.8-3.5,1.1c-1.3-0.8-1.9-2.5-1.3-3.8c0.6-1.4,2.2-1.8,3.5-1.1
					C340.9,165.4,341.4,167.1,340.8,168.4z"/>
				<path class="st5" d="M349.2,173.3c-0.6,1.4-2.2,1.8-3.5,1.1c-1.3-0.8-1.9-2.5-1.3-3.8c0.6-1.4,2.2-1.8,3.5-1.1
					C349.3,170.2,349.8,171.9,349.2,173.3z"/>
			</g>
		</g>
		<g>
			<path class="st4" d="M433.9,441c-2.6-1.5-6.8-1.5-9.4,0l-121.8,70.4c-2.6,1.5-2.6,3.9,0,5.5c2.6,1.5,6.8,1.5,9.4,0l121.8-70.4
				C436.5,444.9,436.5,442.5,433.9,441z"/>
			<g>
				<g>
					<path class="st10" d="M454.7,402.9L454.7,402.9c-0.1-0.2-0.3-0.3-0.6-0.3l-7.4,1.6l2.9,4.9l5-5.7
						C454.8,403.3,454.9,403.1,454.7,402.9z"/>
					<g>
						<path class="st11" d="M451.8,406.5c0-1.1-0.8-2.4-1.7-2.9c-0.4-0.2-0.8-0.3-1.1-0.1c-8.5-0.1-16.9,2.2-24.2,6.5l-0.5,0.3
							l9.2,15.6l2.7-1.8c5.7-3.8,10.5-8.8,14.1-14.6l1.2-1.9C451.7,407.4,451.8,407,451.8,406.5z"/>
						<path class="st10" d="M435.3,421.7c0-4.1-2.9-9-6.5-11c-3.5-2-6.4-0.3-6.4,3.7c0,4.1,2.9,9,6.5,11
							C432.4,427.5,435.3,425.8,435.3,421.7z"/>
						<polygon class="st10" points="379.1,459.7 433.4,425.9 424.3,410.3 368.3,441.3 						"/>
						<path class="st10" d="M381.3,454.8c0-4.8-3.5-10.6-7.6-13c-4.2-2.4-7.6-0.4-7.5,4.4c0,4.8,3.5,10.6,7.6,13
							C377.9,461.6,381.3,459.6,381.3,454.8z"/>
					</g>
					<g>
						<path class="st10" d="M378.2,456.6c0-4.8-3.5-10.6-7.6-13c-4.2-2.4-7.6-0.4-7.5,4.4c0,4.8,3.5,10.6,7.6,13
							C374.8,463.4,378.2,461.5,378.2,456.6z"/>
						
							<rect x="293" y="462.8" transform="matrix(0.8621 -0.5067 0.5067 0.8621 -193.7763 234.8709)" class="st10" width="83.4" height="21.3"/>
						<path class="st10" d="M306.3,498.9c0-4.8-3.5-10.6-7.6-13c-4.2-2.4-7.6-0.4-7.5,4.4c0,4.8,3.5,10.6,7.6,13
							C303,505.7,306.3,503.7,306.3,498.9z"/>
						<path class="st8" d="M303.6,497.4c-0.2-2.8-2.5-6.4-5.2-7.9c-2.7-1.5-4.7-0.5-4.6,2.4c0.2,2.8,2.5,6.4,5.2,7.9
							C301.7,501.3,303.7,500.2,303.6,497.4z"/>
					</g>
					<g>
						<path class="st2" d="M381.8,454.5c0-4.8-3.5-10.6-7.6-13c-1.7-1-3.2-1.2-4.5-0.8c1.4-1.4,3.6-1.6,6.1-0.1
							c4.2,2.4,7.6,8.2,7.6,13c0,2.9-1.2,4.7-3,5.3C381.3,457.8,381.8,456.4,381.8,454.5z"/>
						<path class="st11" d="M381.8,454.5c0-4.8-3.5-10.6-7.6-13c-2.1-1.2-4-1.3-5.3-0.5l-4.1,2.4l1.9,3.3c0.4,4.4,3.3,9.4,6.9,11.8
							l1.9,3.3l4.1-2.4l0,0C381,458.6,381.8,456.9,381.8,454.5z"/>
						<path class="st10" d="M377.7,456.9c0-4.8-3.5-10.6-7.6-13c-4.2-2.4-7.6-0.4-7.5,4.4c0,4.8,3.5,10.6,7.6,13
							C374.4,463.7,377.8,461.7,377.7,456.9z"/>
					</g>
					<g>
						<path class="st5" d="M300.2,499.5l-4.7-7.9l-15.2,9c-2.2,1.3-2.9,4.1-1.6,6.3l0,0c1.3,2.2,4.1,2.9,6.3,1.6L300.2,499.5z"/>
						<path class="st5" d="M301.1,497.4c0-2.1-1.5-4.6-3.3-5.6c-1.8-1-3.3-0.2-3.2,1.9c0,2.1,1.5,4.6,3.3,5.6
							C299.7,500.3,301.1,499.4,301.1,497.4z"/>
					</g>
					<g>
						<path class="st11" d="M318.1,469.3l-2.3-1.3c-1.3-0.7-3-0.6-4.9,0.5l-7.8,4.6c-1.5,0.9-2.7,3-2.7,4.7l0,3.9
							c0,0.7-0.3,1.4-0.8,2l0.3,1.8l-2-1.1l0,0c-0.3-0.1-0.5-0.5-0.5-1l0-3.9c0-3.6,2.5-8,5.5-9.8l7.8-4.6c2.6-1.5,5.1-1.8,7-0.7
							l2.3,1.3c1.3,0.7,3,0.6,4.9-0.5l31.6-18.6c0.4-0.2,0.8-0.3,1-0.1v0l1.9,1.1l-1.7,0.6c-0.2,0.7-0.7,1.4-1.3,1.7L325,468.6
							C322.4,470.1,319.9,470.4,318.1,469.3z"/>
						<path class="st11" d="M317.8,469.2c-1.3-0.7-3-0.6-4.9,0.5l-7.8,4.6c-1.5,0.9-2.7,3-2.7,4.7l0,3.9c0,0.9-0.6,2.1-1.4,2.5
							c-0.8,0.5-1.5,0.1-1.5-0.8l0-3.9c0-3.6,2.5-8,5.5-9.8l7.8-4.6c2.6-1.5,5.1-1.8,7-0.7l2.3,1.3c1.3,0.7,3,0.6,4.9-0.5l31.6-18.5
							c0.8-0.5,1.5-0.1,1.5,0.8c0,0.9-0.6,2.1-1.4,2.5L327,469.7c-2.6,1.5-5.1,1.8-7,0.7L317.8,469.2z"/>
						<g>
							<path class="st2" d="M302.3,479.6l0,3.9c0,0,0,0.1,0,0.1c0.1-0.2,0.1-0.5,0.1-0.7l0-3.9c0-0.1,0-0.2,0-0.3
								C302.3,479,302.3,479.3,302.3,479.6z"/>
						</g>
					</g>
				</g>
			</g>
		</g>
		<g>
			<path class="st4" d="M13.1,429.1c0.4,1.4,1.1,2.7,1.9,4c-10,8.4-8.5,20,4.4,27.5c14.6,8.4,38.4,8.4,53,0
				c10.8-6.2,13.6-15.3,8.5-23c1.5-1.3,2.7-2.6,3.7-3.9c9.3,9.1,8.3,20.7-3.1,29.2l12.1,7.1c4.6-1.6,10.2-1.5,13.7,0.5l44.1,25.5
				c4.2,2.4,3.7,6.6-1.2,9.4c-4.8,2.8-12.1,3.1-16.3,0.7l-44.1-25.5c-3.2-1.8-3.6-4.7-1.6-7.2L76,466.2c-17.7,9.3-45,9-62.1-0.8
				C-3.3,455.4-3.6,439.3,13.1,429.1z"/>
			<g>
				<g>
					<path class="st12" d="M17.9,406.1c16-9.2,41.8-9.2,57.8,0c6.6,3.8,10.5,8.6,11.6,13.6c-1,4.4-4.1,8.6-9.4,12.2
						c-1.3-1.1-2.8-2.1-4.5-3.1c-16-9.2-41.8-9.2-57.8,0c-0.8,0.5-1.5,0.9-2.2,1.4c-3.9-3.2-6.3-6.8-7.1-10.5
						C7.5,414.8,11.3,410,17.9,406.1z"/>
					<path class="st6" d="M88.3,427.1L82,419l-18.9-8.8l-16.3-1.4L27.7,411l-13.2,6.8L6,423.3l-1.5-8.8l2.9-10.1
						c0,0,7.2-4.8,7.7-5.2c0.4-0.4,16.9-6.3,16.9-6.3l16.5-1.1l13.2,1.7l13.5,4l8.9,6.2l6.7,8.5l0.8,10.6L88.3,427.1z"/>
					<polygon class="st6" points="-0.1,416.6 -0.1,433.8 4.5,426.3 					"/>
					<path class="st6" d="M75.7,417.5c-16-9.2-41.8-9.2-57.8,0c-5,2.9-8.5,6.4-10.3,10c-1.4-1.3-3.2-2.2-4-3.9c2.3-3.1,5.6-6,10-8.6
						c18.3-10.6,48-10.6,66.3,0c4,2.3,7.1,4.9,9.4,7.7c-0.7,1.7-1.9,3.4-3.3,4.8C84.2,423.9,80.7,420.4,75.7,417.5z"/>
					<path class="st12" d="M17.9,406.1c16-9.2,41.8-9.2,57.8,0c6.6,3.8,10.5,8.6,11.6,13.6c-1.1,5-5,9.8-11.6,13.6
						c-16,9.2-41.8,9.2-57.8,0c-6.6-3.8-10.5-8.6-11.6-13.6C7.5,414.8,11.3,410,17.9,406.1z"/>
					<path class="st6" d="M3.7,423.6c0.3,0.7,0.8,1.3,1.4,1.9l0-0.2l4.2,2.5l5.2,4.8l7.2,3.2l9.9,3.6l8.8,2.1l12.2,0.5l7.9-0.8
						l15.6-4.1l10.2-9c-0.1-0.2-0.1-0.4-0.2-0.5c1.5-1.4,2.6-3,3.3-4.8c0.3,0.3,0.5,0.7,0.8,1l3.6-7.4v17.8l0,0
						c0,6.9-4.6,13.9-13.7,19.2c-18.3,10.6-48,10.6-66.3,0C-0.3,445.3-3.6,433.5,3.7,423.6z"/>
					<path class="st5" d="M82.6,431.4l3.7-3.2c-0.1-0.2-0.1-0.4-0.2-0.5c1.5-1.4,2.6-3,3.3-4.8c0.3,0.3,0.5,0.7,0.8,1l3.6-7.4v17.8
						l0,0c0,6.2-3.7,12.5-11.1,17.5V431.4z"/>
					<path class="st5" d="M13.7,435.8c18.3,10.6,48,10.6,66.3,0c18.3-10.6,18.3-27.7,0-38.3c-18.3-10.6-48-10.6-66.3,0
						S-4.7,425.2,13.7,435.8z M17.9,400c16-9.2,41.8-9.2,57.8,0c16,9.2,15.9,24.1,0,33.3c-16,9.2-41.8,9.2-57.8,0
						C2,424.1,2,409.2,17.9,400z"/>
					<g>
						<g>
							<polygon class="st10" points="110.6,455.2 84.7,440.1 81.2,445.7 107.3,460.9 							"/>
							<path class="st13" d="M106.6,459.4c0,1.5,1,2.1,2.3,1.3c1.3-0.7,2.3-2.5,2.3-4s-1-2.1-2.3-1.3
								C107.7,456.1,106.6,457.9,106.6,459.4z"/>
							<path class="st13" d="M106.6,459.4c0,1.5,1,2.1,2.3,1.3c1.3-0.7,2.3-2.5,2.3-4s-1-2.1-2.3-1.3
								C107.7,456.1,106.6,457.9,106.6,459.4z"/>
							<path class="st10" d="M80.6,444.2c0,1.5,1,2.1,2.3,1.3c1.3-0.7,2.3-2.5,2.3-4c0-1.5-1-2.1-2.3-1.3
								C81.7,440.9,80.6,442.8,80.6,444.2z"/>
						</g>
						<path class="st11" d="M93.9,460.5c0-6.4,4.5-14.2,10-17.4c2.8-1.6,5.4-1.7,7.2-0.6l0,0l54.9,31.9l-14.4,24.4l-54.4-31.7
							c-0.4-0.2-0.7-0.4-1-0.6l0,0l0,0C94.8,465.4,93.9,463.3,93.9,460.5z"/>
						<path class="st10" d="M162.1,481.2l-61.5-35.5c1-1,2.2-1.9,3.3-2.6c2.8-1.6,5.4-1.7,7.2-0.6l0,0l54.9,31.9L162.1,481.2z"/>
						<g>
							<path class="st10" d="M148.8,492.4c0,6.4,4.5,9,10,5.8c5.5-3.2,10-11,10-17.4s-4.5-9-10-5.8
								C153.3,478.3,148.8,486,148.8,492.4z"/>
							<circle class="st11" cx="163.5" cy="489.4" r="6.5"/>
							<circle class="st2" cx="166.6" cy="487" r="1.9"/>
						</g>
						<path class="st2" d="M158.1,474.6c3-1.7,5.6-1.7,7.5-0.5c-1.8-0.8-4.1-0.6-6.7,0.9c-5.5,3.2-10,11-10,17.4c0,3,1,5.1,2.6,6.2
							c-2-0.9-3.3-3.3-3.3-6.7C148.1,485.6,152.6,477.8,158.1,474.6z"/>
					</g>
					<g>
						<path class="st2" d="M17.9,400c16-9.2,41.8-9.2,57.8,0c8.3,4.8,12.3,11.1,11.9,17.4c-0.3-5.8-4.3-11.5-11.9-15.9
							c-16-9.2-41.8-9.2-57.8,0c-7.6,4.4-11.6,10.1-11.9,15.9C5.7,411.1,9.6,404.8,17.9,400z"/>
						<path class="st2" d="M13.7,435.8c18.3,10.6,48,10.6,66.3,0c8.8-5.1,13.4-11.7,13.7-18.4c0.3,7.2-4.2,14.4-13.7,19.9
							c-18.3,10.6-48,10.6-66.3,0c-9.5-5.5-14-12.7-13.7-19.9C0.3,424.1,4.8,430.7,13.7,435.8z"/>
					</g>
				</g>
			</g>
		</g>
		<g>
			<g>
				<g>
					<path class="st5" d="M169.7,400.2c0,0-4.9-2.5-8,1.2c-3,3.7-7.4,12.4-7.5,18.3c-0.1,5.9,4.7,5.5,7.5,4.1
						c2.9-1.4,11.2-13.5,11.7-15.9c0.5-2.4-0.6-5.6-1.4-6.2C171.3,401.1,169.7,400.2,169.7,400.2z"/>
					<path class="st7" d="M170.8,399l0.2,5.1c0,1.1-0.5,2.1-1.4,2.7c-0.9,0.5-2.1,0.9-3.8,0.6c-3.7-0.6-4-1.7-4.3-6.8
						C161.2,395.5,170.8,399,170.8,399z"/>
					<g>
						<path class="st5" d="M151.7,390.4c0,0-4.9-2.5-8,1.2c-3,3.7-7.4,12.4-7.5,18.3c-0.1,5.9,4.7,5.5,7.5,4.1
							c2.9-1.4,11.2-13.5,11.7-15.9c0.5-2.4-0.6-5.6-1.4-6.2C153.2,391.3,151.7,390.4,151.7,390.4z"/>
						<path class="st7" d="M152.7,389.2l0.2,5.1c0,1.1-0.5,2.1-1.4,2.7c-0.9,0.5-2.1,0.9-3.8,0.6c-3.7-0.6-4-1.7-4.3-6.8
							C143.1,385.7,152.7,389.2,152.7,389.2z"/>
						<path class="st7" d="M196.7,295.5c-1.5-23.7-25.7,3.5-25.7,3.5l-16.6,16.3l-14.9,16.4c-2.9,3.2-4.3,7.5-3.7,11.8l6,46
							c0.3,2.3,2.2,3.9,4.5,3.9c0.6,0,1.4-0.1,2.2-0.2c5.4-0.8,5-6,5-6l-1.1-43l31.4-18.9C183.8,325.3,198.1,319.2,196.7,295.5z"/>
					</g>
					<path class="st7" d="M214.7,304.5c-1.5-23.7-25.7,3.5-25.7,3.5l-16.6,16.3l-14.9,16.4c-2.9,3.2-4.3,7.5-3.7,11.8l6,46
						c0.3,2.3,2.2,3.9,4.5,3.9c0.6,0,1.4-0.1,2.2-0.2c5.4-0.8,5-6,5-6l-1.1-41.8l31.3-20.1C201.9,334.3,216.2,328.2,214.7,304.5z"/>
					<path class="st5" d="M200.4,228.4c18.4,7.6,18,18.5,18,18.5s-3.6,39.8-2.4,66.4c0.5,11.1-59.1,12-50.2-17.7
						c10.5-35,6.5-63.3,11.5-67.5C182.2,223.7,195.6,226.4,200.4,228.4z"/>
					
						<ellipse transform="matrix(0.2494 -0.9684 0.9684 0.2494 -80.2214 367.7352)" class="st14" cx="197.1" cy="235.6" rx="7" ry="9.5"/>
					<path class="st7" d="M198.9,242.5l-3.4,3.7c-0.4,0.5-0.6,1.1-0.6,1.8l2.3,20.1c0.1,0.6-0.1,1.1-0.4,1.6l-7.3,9.5
						c-0.3,0.4-1,0.3-1.1-0.2l-4-12.5c-0.2-0.5-0.1-1,0-1.4l7-18.3c0.2-0.4,0.2-0.8,0.1-1.3l-1-4.8L198.9,242.5z"/>
					<path class="st7" d="M198.5,243.7c-1.1,0-2.2-0.1-3.4-0.4c-2.6-0.7-4.9-2.1-6.4-3.9c-1.6-1.9-2.2-4.2-1.6-6.2
						c1.1-4.2,6.5-6.4,12-5c5.5,1.4,9.1,6,8.1,10.2c-0.5,2.1-2.1,3.7-4.4,4.7C201.4,243.4,200,243.7,198.5,243.7z M195.7,229.3
						c-3.4,0-6.3,1.6-6.9,4.1c-0.4,1.5,0.1,3.2,1.3,4.7c1.3,1.6,3.2,2.8,5.5,3.4c2.3,0.6,4.6,0.5,6.5-0.3c1.8-0.7,3-2,3.4-3.5l0,0
						c0.8-3.3-2.2-6.9-6.8-8C197.6,229.5,196.7,229.3,195.7,229.3z"/>
					<path class="st14" d="M193,227.5c0,0,0.2,0.7-0.2,6.6c-0.1,1.8,6.3,3.5,8,1.9c1.7-1.7,1-3.4,1.4-9.6
						C202.6,220.1,193,227.5,193,227.5z"/>
					<path class="st15" d="M202.2,226.4c0,0-1.6,5.8-9.4,8l0.1-5.2L202.2,226.4z"/>
					
						<ellipse transform="matrix(0.9682 -0.2503 0.2503 0.9682 -47.7147 55.2754)" class="st14" cx="193.5" cy="215.2" rx="14.1" ry="14.1"/>
					<path class="st15" d="M196.7,215.7c0,0-7.8,3.3-13.2,3.4c-5.4,0-4.2-4.5-4.2-4.5l16-2.3L196.7,215.7z"/>
					<path class="st7" d="M181.9,216.6c0,0,6.8-2.9,12.7-1.7c1.4,0.3,2.7,1,3.6,2.1c0.3,0.4,0.7,0.7,1.1,0.8
						c1.1,0.2,2.8-4.1,4.8-4.2s3.4,1.4,1.7,4c-1.7,2.7-1.1,5.7-0.3,6.1s10.4-6.3,3.1-20.6c-7.2-14.3-27-6.2-29.9-3.3
						c0,0-3,2.6-5.5,0.3C173.4,200.2,170.6,220.8,181.9,216.6z"/>
					<path class="st14" d="M208.1,275.9v10.8c0,1.2-0.5,2.4-1.4,3.2l-22.1,20.1l2.5,3.8l30.4-20c1.4-1,2.2-2.5,2.4-4.2l2.1-20
						L208.1,275.9z"/>
					<path class="st5" d="M216.8,241.5c0,0,6.7,10.1,9.2,36.6c0,0-11.5,3.7-18,1.6C201.6,277.6,216.8,241.5,216.8,241.5z"/>
					<path class="st6" d="M206.9,254.2c0,0-2.6,14-2.8,20.7c0,1.8,1.1,3.5,2.8,4.1l0,0V254.2z"/>
				</g>
				<g>
					<path class="st11" d="M201.1,324.1l-4.9-0.6l-31.5-18.2c-1-0.6-2.8-0.5-3.9,0.2l-22.3,12.9l-3-0.4v2.9l0,0c0,0.4,0.2,0.8,0.7,1
						l35.7,20.6c1,0.6,2.8,0.5,3.9-0.2l24.3-14c0.7-0.4,1-0.9,1-1.3l0,0V324.1z"/>
					<path class="st8" d="M177.4,312.6l-2.2-1.3h-24.6l-12.1,7l-3-0.4v2.9l0,0c0,0.4,0.2,0.8,0.7,1l35.7,20.6c0.5,0.3,1.3,0.4,2,0.4
						L177.4,312.6z"/>
					<path class="st11" d="M136.8,318l-1.3-0.2v2.9l0,0c0,0.4,0.2,0.8,0.7,1l0.6,0.4V318z"/>
					<path class="st11" d="M172.2,342.7c1,0.4,2.3,0.3,3.4-0.2v-5h-3.4V342.7z"/>
					<path class="st7" d="M171.9,339.5l-35.7-20.6c-1-0.6-0.9-1.6,0.3-2.3l24.3-14c1.2-0.7,2.9-0.7,3.9-0.2l35.7,20.6
						c1,0.6,0.9,1.6-0.3,2.3l-24.3,14C174.7,340.1,172.9,340.1,171.9,339.5z"/>
					<path class="st7" d="M171.3,336.4l-29.7-17.2c-0.8-0.5-0.7-1.3,0.2-1.9l13-7.3c1-0.6,2.4-0.6,3.3-0.1l29.7,17.2
						c0.8,0.5,0.7,1.3-0.2,1.9l-13,7.3C173.6,336.8,172.1,336.9,171.3,336.4z"/>
				</g>
				<path class="st14" d="M162.1,301.9l-0.4,2.5c-0.3,2.1-0.3,4.2,0.2,6.3l0.4,2.2c0.2,1.2,1.2,2.2,2.4,2.4l0,0c1,0.2,1.9-0.5,2-1.5
					l0.6-5.3c0,0,1.3,1.8,2,1.8c0.7,0-0.7-5.3-2.2-8.3C165.7,299,162.1,301.9,162.1,301.9z"/>
				<path class="st14" d="M174.3,262.7l-3.8,7.6c-0.9,1.8-1.4,3.8-1.6,5.8l-1.7,26l-5-0.1l-2.3-29.2c-0.1-0.9,0-1.8,0.1-2.7
					l2.6-14.8L174.3,262.7z"/>
				<g>
					<path class="st7" d="M170.7,341.5l-3-3.9l-31.5-18.2c-1-0.6-1.8-2.2-1.8-3.5l0-25.8l-1.8-2.4l1.7-1l0,0
						c0.3-0.2,0.8-0.2,1.2,0.1l35.7,20.7c1,0.6,1.8,2.2,1.8,3.5l0,28.1c0,0.8-0.3,1.3-0.7,1.5l0,0L170.7,341.5z"/>
					<path class="st8" d="M148.9,326.7l-2.2-1.3l-12.3-21.3l0-14l-1.8-2.4l1.7-1l0,0c0.3-0.2,0.8-0.2,1.2,0.1l35.7,20.7
						c0.5,0.3,1,0.9,1.3,1.6L148.9,326.7z"/>
					<path class="st11" d="M133.4,288.8l-0.8-1l1.7-1l0,0c0.3-0.2,0.8-0.2,1.2,0.1l0.6,0.4L133.4,288.8z"/>
					<path class="st9" d="M171.5,307.7c0.8,0.6,1.4,1.9,1.5,3l-3.5,2l-1.7-2.9L171.5,307.7z"/>
					<path class="st11" d="M169.5,308.5l-35.7-20.7c-1-0.6-1.8,0-1.8,1.4l0,28.1c0,1.3,0.8,2.9,1.8,3.5l35.7,20.7
						c1,0.6,1.8,0,1.8-1.4l0-28.1C171.3,310.6,170.5,309,169.5,308.5z"/>
				</g>
				<path class="st14" d="M187.1,313.9l-0.6,1.2c-0.7,1.4-1.7,2.5-3,3.3l-3.5,2.2c-1.1,0.7-2.5,0.7-3.6,0.1c0,0-0.1,0-0.1-0.1
					c-1.1-0.7-1.2-2.3-0.3-3.3l3.7-3.8c0,0-2.1,1.6-2.7,1c-0.4-0.5,2-2.8,3.9-2.8c1.9-0.1,3.7-1.6,3.7-1.6L187.1,313.9z"/>
				<path class="st5" d="M177.7,227.9c0,0-13.6,14.8-19.1,28.3c0,0,4.6,8.4,16,11.7C186,271.2,177.7,227.9,177.7,227.9z"/>
				<path class="st6" d="M172.1,267.1l2.2-21.3l-5.2,19.9C170,266.2,171,266.7,172.1,267.1z"/>
				<path class="st7" d="M187.8,225l-3.7-1c0,0,1.7,2.7,4.3,3.4c2.5,0.7,2.9-1.5,2.9-1.5L187.8,225z"/>
			</g>
			<circle class="st7" cx="205.3" cy="219.1" r="2"/>
		</g>
		<g>
			<g>
				<path class="st6" d="M208.4,130.1l-50.6-29.2c-1-0.6-2-0.6-2.9-0.2c0,0,0,0,0,0l-6,2.8c0,0,2.3,0.8,3.6,1.3l-7.3,36.8
					c-0.6,3,0.7,6.5,3,7.8l48.3,27.9l-0.9,4.3l6.1-2.9l0,0c1-0.5,1.9-1.6,2.2-3.2l7.4-37.6C212,134.9,210.7,131.4,208.4,130.1z"/>
				<path class="st5" d="M192.7,181.4l-50.6-29.2c-2.2-1.3-3.6-4.8-3-7.8l7.4-37.6c0.6-3,2.9-4.4,5.1-3.1l50.6,29.2
					c2.2,1.3,3.6,4.8,3,7.8l-7.4,37.6C197.3,181.3,194.9,182.7,192.7,181.4z"/>
				<path class="st2" d="M203.4,132.5l-50.6-29.2c-1.2-0.7-2.4-0.6-3.3,0c0.7-0.1,1.4,0,2.2,0.4l50.6,29.2c2.2,1.3,3.6,4.8,3,7.8
					l-7.4,37.6c-0.3,1.4-1,2.5-1.8,3c1.4-0.2,2.6-1.5,3-3.5l7.4-37.6C207,137.3,205.7,133.8,203.4,132.5z"/>
			</g>
			<g>
				<path class="st2" d="M163.7,139.3c-0.4,2.2-2.3,3.1-4.2,2c-1.9-1.1-3.1-3.7-2.6-5.9c0.4-2.2,2.3-3.1,4.2-2
					C162.9,134.5,164.1,137.1,163.7,139.3z"/>
				<path class="st2" d="M174,145.2c-0.4,2.2-2.3,3.1-4.2,2c-1.9-1.1-3.1-3.7-2.6-5.9c0.4-2.2,2.3-3.1,4.2-2
					C173.2,140.4,174.4,143.1,174,145.2z"/>
				<path class="st2" d="M184.3,151.2c-0.4,2.2-2.3,3.1-4.2,2c-1.9-1.1-3.1-3.7-2.6-5.9c0.4-2.2,2.3-3.1,4.2-2
					C183.6,146.4,184.8,149,184.3,151.2z"/>
			</g>
		</g>
		<g>
			<g>
				<path class="st11" d="M405.6,68.1L355,38.9c-1-0.6-2-0.6-2.9-0.2c0,0,0,0,0,0l-6,2.8c0,0,2.3,0.8,3.6,1.3l-7.3,36.8
					c-0.6,3,0.7,6.5,3,7.8l48.3,27.9l-0.9,4.3l6.1-2.9l0,0c1-0.5,1.9-1.6,2.2-3.2l7.4-37.6C409.2,72.9,407.9,69.4,405.6,68.1z"/>
				<path class="st10" d="M389.9,119.4l-50.6-29.2c-2.2-1.3-3.6-4.8-3-7.8l7.4-37.6c0.6-3,2.9-4.4,5.1-3.1L399.5,71
					c2.2,1.3,3.6,4.8,3,7.8l-7.4,37.6C394.4,119.3,392.1,120.7,389.9,119.4z"/>
				<path class="st2" d="M400.6,70.5l-50.6-29.2c-1.2-0.7-2.4-0.6-3.3,0c0.7-0.1,1.4,0,2.2,0.4L399.5,71c2.2,1.3,3.6,4.8,3,7.8
					l-7.4,37.6c-0.3,1.4-1,2.5-1.8,3c1.4-0.2,2.6-1.5,3-3.5l7.4-37.6C404.2,75.3,402.9,71.8,400.6,70.5z"/>
			</g>
			<g>
				<path class="st2" d="M360.8,77.3c-0.4,2.2-2.3,3.1-4.2,2s-3.1-3.7-2.6-5.9c0.4-2.2,2.3-3.1,4.2-2
					C360.1,72.4,361.3,75.1,360.8,77.3z"/>
				<path class="st2" d="M371.2,83.2c-0.4,2.2-2.3,3.1-4.2,2c-1.9-1.1-3.1-3.7-2.6-5.9c0.4-2.2,2.3-3.1,4.2-2
					C370.4,78.4,371.6,81,371.2,83.2z"/>
				<path class="st2" d="M381.5,89.2c-0.4,2.2-2.3,3.1-4.2,2c-1.9-1.1-3.1-3.7-2.6-5.9s2.3-3.1,4.2-2
					C380.8,84.4,381.9,87,381.5,89.2z"/>
			</g>
		</g>
	</g>
</g>
<g>
	<g>
		<g>
			
				<linearGradient id="SVGID_4_" gradientUnits="userSpaceOnUse" x1="-1172.3816" y1="-339.8072" x2="-1152.853" y2="-339.8072" gradientTransform="matrix(0 1 -1 0 120.5762 1315.5889)">
				<stop  offset="0" style="stop-color:#27ECB8"/>
				<stop  offset="1" style="stop-color:#99D7B4"/>
			</linearGradient>
			<path class="st16" d="M450.3,153c0,13,20.2,13,20.2,0C470.5,140,450.3,140,450.3,153L450.3,153z"/>
		</g>
	</g>
	<g>
		<g>
			
				<linearGradient id="SVGID_5_" gradientUnits="userSpaceOnUse" x1="-956.9094" y1="26.4956" x2="-937.3807" y2="26.4956" gradientTransform="matrix(0 1 -1 0 120.5762 1315.5889)">
				<stop  offset="0" style="stop-color:#27ECB8"/>
				<stop  offset="1" style="stop-color:#99D7B4"/>
			</linearGradient>
			<path class="st17" d="M84,368.4c0,13,20.2,13,20.2,0C104.2,355.4,84,355.4,84,368.4L84,368.4z"/>
		</g>
	</g>
	<g>
		<g>
			
				<linearGradient id="SVGID_6_" gradientUnits="userSpaceOnUse" x1="-1250.2654" y1="31.5835" x2="-1232.1143" y2="31.5835" gradientTransform="matrix(0 1 -1 0 120.5762 1315.5889)">
				<stop  offset="8.527380e-02" style="stop-color:#4432F6"/>
				<stop  offset="0.301" style="stop-color:#423BEB"/>
				<stop  offset="0.682" style="stop-color:#3B53CD"/>
				<stop  offset="1" style="stop-color:#356BAF"/>
			</linearGradient>
			<path class="st18" d="M79.6,74.4c0,12.1,18.8,12.1,18.8,0C98.4,62.3,79.6,62.3,79.6,74.4L79.6,74.4z"/>
		</g>
	</g>
	<g>
		<g>
			
				<linearGradient id="SVGID_7_" gradientUnits="userSpaceOnUse" x1="-890.3586" y1="-5.6582" x2="-874.644" y2="-5.6582" gradientTransform="matrix(0 1 -1 0 120.5762 1315.5889)">
				<stop  offset="8.527380e-02" style="stop-color:#4432F6"/>
				<stop  offset="0.301" style="stop-color:#423BEB"/>
				<stop  offset="0.682" style="stop-color:#3B53CD"/>
				<stop  offset="1" style="stop-color:#356BAF"/>
			</linearGradient>
			<path class="st19" d="M118.1,433.1c0,10.5,16.2,10.5,16.2,0C134.4,422.6,118.1,422.6,118.1,433.1L118.1,433.1z"/>
		</g>
	</g>
	<g>
		<g>
			
				<linearGradient id="SVGID_8_" gradientUnits="userSpaceOnUse" x1="-916.2119" y1="-34.7149" x2="-909.1871" y2="-34.7149" gradientTransform="matrix(0 1 -1 0 120.5762 1315.5889)">
				<stop  offset="8.527380e-02" style="stop-color:#4432F6"/>
				<stop  offset="0.301" style="stop-color:#423BEB"/>
				<stop  offset="0.682" style="stop-color:#3B53CD"/>
				<stop  offset="1" style="stop-color:#356BAF"/>
			</linearGradient>
			<path class="st20" d="M151.7,402.9c0,4.7,7.3,4.7,7.3,0C158.9,398.2,151.7,398.2,151.7,402.9L151.7,402.9z"/>
		</g>
	</g>
	<g>
		<g>
			
				<linearGradient id="SVGID_9_" gradientUnits="userSpaceOnUse" x1="-953.9194" y1="-314.8288" x2="-946.8947" y2="-314.8288" gradientTransform="matrix(0 1 -1 0 120.5762 1315.5889)">
				<stop  offset="8.527380e-02" style="stop-color:#4432F6"/>
				<stop  offset="0.301" style="stop-color:#423BEB"/>
				<stop  offset="0.682" style="stop-color:#3B53CD"/>
				<stop  offset="1" style="stop-color:#356BAF"/>
			</linearGradient>
			<path class="st21" d="M431.8,365.2c0,4.7,7.3,4.7,7.3,0C439,360.5,431.8,360.5,431.8,365.2L431.8,365.2z"/>
		</g>
	</g>
</g>
</svg>
