<?xml version="1.0" encoding="utf-8"?>
<!-- Generator: Adobe Illustrator 21.1.0, SVG Export Plug-In . SVG Version: 6.00 Build 0)  -->
<svg version="1.1" id="Layer_1" xmlns="http://www.w3.org/2000/svg" xmlns:xlink="http://www.w3.org/1999/xlink" x="0px" y="0px"
	 viewBox="0 0 500 500" style="enable-background:new 0 0 500 500;" xml:space="preserve">
<style type="text/css">
	.st0{fill:url(#SVGID_1_);}
	.st1{fill:url(#SVGID_2_);}
	.st2{fill:url(#SVGID_3_);}
	.st3{fill:url(#SVGID_4_);}
	.st4{fill:url(#SVGID_5_);}
	.st5{fill:url(#SVGID_6_);}
	.st6{fill:url(#SVGID_7_);}
	.st7{fill:url(#SVGID_8_);}
	.st8{fill:url(#SVGID_9_);}
	.st9{fill:#FFFFFF;}
	.st10{clip-path:url(#SVGID_11_);}
	.st11{fill:#231F20;}
	.st12{fill:#E6E7E8;}
	.st13{fill:#D6D6D6;}
	.st14{fill:url(#SVGID_12_);}
	.st15{fill:#D1D3D4;}
	.st16{fill:#D22940;}
	.st17{fill:#FFC200;}
	.st18{fill:#2D2D2D;}
	.st19{fill:url(#SVGID_13_);}
	.st20{fill:#F5C185;}
	.st21{fill:#F65338;}
	.st22{fill:#E2A971;}
	.st23{fill:url(#SVGID_14_);}
	.st24{fill:url(#SVGID_15_);}
	.st25{fill:url(#SVGID_16_);}
	.st26{fill:url(#SVGID_17_);}
	.st27{fill:url(#SVGID_18_);}
	.st28{fill:#70C6C5;}
	.st29{fill:url(#SVGID_19_);}
	.st30{fill:#66240E;}
	.st31{fill:#C0FFF7;}
	.st32{fill:#90DDD2;}
	.st33{fill:url(#SVGID_20_);}
	.st34{fill:url(#SVGID_21_);}
	.st35{fill:url(#SVGID_22_);}
	.st36{fill:#843817;}
	.st37{fill:url(#SVGID_23_);}
	.st38{fill:url(#SVGID_24_);}
	.st39{fill:url(#SVGID_25_);}
	.st40{fill:url(#SVGID_26_);}
	.st41{fill:url(#SVGID_27_);}
	.st42{fill:url(#SVGID_28_);}
	.st43{fill:url(#SVGID_29_);}
	.st44{fill:url(#SVGID_30_);}
	.st45{fill:url(#SVGID_31_);}
	.st46{fill:url(#SVGID_32_);}
	.st47{fill:url(#SVGID_33_);}
	.st48{fill:url(#SVGID_34_);}
</style>
<g>
	<g>
		<g>
			
				<linearGradient id="SVGID_1_" gradientUnits="userSpaceOnUse" x1="-1178.652" y1="-362.6155" x2="-1156.6805" y2="-362.6155" gradientTransform="matrix(0 1 -1 0 120.5762 1315.5889)">
				<stop  offset="0" style="stop-color:#27ECB8"/>
				<stop  offset="1" style="stop-color:#99D7B4"/>
			</linearGradient>
			<path class="st0" d="M472.4,147.9c0,14.6,21.6,14.6,21.6,0C494,133.3,472.4,133.3,472.4,147.9L472.4,147.9z"/>
		</g>
	</g>
	<g>
		<g>
			
				<linearGradient id="SVGID_2_" gradientUnits="userSpaceOnUse" x1="-1275.6222" y1="-152.0766" x2="-1253.6508" y2="-152.0766" gradientTransform="matrix(0 1 -1 0 120.5762 1315.5889)">
				<stop  offset="0" style="stop-color:#27ECB8"/>
				<stop  offset="1" style="stop-color:#99D7B4"/>
			</linearGradient>
			<path class="st1" d="M261.8,51c0,14.6,21.6,14.6,21.6,0C283.5,36.3,261.8,36.3,261.8,51L261.8,51z"/>
		</g>
	</g>
	<g>
		<g>
			
				<linearGradient id="SVGID_3_" gradientUnits="userSpaceOnUse" x1="-978.6511" y1="95.9556" x2="-956.6796" y2="95.9556" gradientTransform="matrix(0 1 -1 0 120.5762 1315.5889)">
				<stop  offset="0" style="stop-color:#27ECB8"/>
				<stop  offset="1" style="stop-color:#99D7B4"/>
			</linearGradient>
			<path class="st2" d="M13.8,347.9c0,14.6,21.6,14.6,21.6,0C35.4,333.3,13.8,333.3,13.8,347.9L13.8,347.9z"/>
		</g>
	</g>
	<g>
		<g>
			
				<linearGradient id="SVGID_4_" gradientUnits="userSpaceOnUse" x1="-1208.7021" y1="78.3309" x2="-1188.2805" y2="78.3309" gradientTransform="matrix(0 1 -1 0 120.5762 1315.5889)">
				<stop  offset="8.527380e-02" style="stop-color:#4432F6"/>
				<stop  offset="0.301" style="stop-color:#423BEB"/>
				<stop  offset="0.682" style="stop-color:#3B53CD"/>
				<stop  offset="1" style="stop-color:#356BAF"/>
			</linearGradient>
			<path class="st3" d="M32.2,117.1c0,13.6,20.1,13.6,20.1,0C52.3,103.5,32.2,103.5,32.2,117.1L32.2,117.1z"/>
		</g>
	</g>
	<g>
		<g>
			
				<linearGradient id="SVGID_5_" gradientUnits="userSpaceOnUse" x1="-1229.9419" y1="62.6008" x2="-1218.5836" y2="62.6008" gradientTransform="matrix(0 1 -1 0 120.5762 1315.5889)">
				<stop  offset="8.527380e-02" style="stop-color:#4432F6"/>
				<stop  offset="0.301" style="stop-color:#423BEB"/>
				<stop  offset="0.682" style="stop-color:#3B53CD"/>
				<stop  offset="1" style="stop-color:#356BAF"/>
			</linearGradient>
			<path class="st4" d="M52.4,91.3c0,7.6,11.2,7.6,11.2,0S52.4,83.8,52.4,91.3L52.4,91.3z"/>
		</g>
	</g>
	<g>
		<g>
			
				<linearGradient id="SVGID_6_" gradientUnits="userSpaceOnUse" x1="-971.1145" y1="1398.6478" x2="-954.2865" y2="1398.6478" gradientTransform="matrix(-0.9998 1.870000e-02 -1.870000e-02 -0.9998 -811.9019 1851.3611)">
				<stop  offset="8.527380e-02" style="stop-color:#4432F6"/>
				<stop  offset="0.301" style="stop-color:#423BEB"/>
				<stop  offset="0.682" style="stop-color:#3B53CD"/>
				<stop  offset="1" style="stop-color:#356BAF"/>
			</linearGradient>
			<path class="st5" d="M124.3,425.9c-11.2,0.2-10.9,18.5,0.3,18.3C135.8,443.9,135.5,425.6,124.3,425.9L124.3,425.9z"/>
		</g>
	</g>
	<g>
		<g>
			
				<linearGradient id="SVGID_7_" gradientUnits="userSpaceOnUse" x1="-998.7712" y1="1365.9884" x2="-991.2488" y2="1365.9884" gradientTransform="matrix(-0.9998 1.870000e-02 -1.870000e-02 -0.9998 -811.9019 1851.3611)">
				<stop  offset="8.527380e-02" style="stop-color:#4432F6"/>
				<stop  offset="0.301" style="stop-color:#423BEB"/>
				<stop  offset="0.682" style="stop-color:#3B53CD"/>
				<stop  offset="1" style="stop-color:#356BAF"/>
			</linearGradient>
			<path class="st6" d="M157.3,463c-5,0.1-4.9,8.3,0.1,8.2C162.5,471,162.3,462.9,157.3,463L157.3,463z"/>
		</g>
	</g>
	<g>
		<g>
			
				<linearGradient id="SVGID_8_" gradientUnits="userSpaceOnUse" x1="-932.8626" y1="-335.8687" x2="-924.9592" y2="-335.8687" gradientTransform="matrix(0 1 -1 0 120.5762 1315.5889)">
				<stop  offset="8.527380e-02" style="stop-color:#4432F6"/>
				<stop  offset="0.301" style="stop-color:#423BEB"/>
				<stop  offset="0.682" style="stop-color:#3B53CD"/>
				<stop  offset="1" style="stop-color:#356BAF"/>
			</linearGradient>
			<path class="st7" d="M452.6,386.7c0,5.3,7.8,5.3,7.8,0C460.3,381.4,452.6,381.4,452.6,386.7L452.6,386.7z"/>
		</g>
	</g>
</g>
<linearGradient id="SVGID_9_" gradientUnits="userSpaceOnUse" x1="-1119.567" y1="1164.8049" x2="-808.4564" y2="1475.9155" gradientTransform="matrix(-1 0 0 -1 -713.1895 1573.7456)">
	<stop  offset="0" style="stop-color:#27ECB8"/>
	<stop  offset="1" style="stop-color:#A2D4CC"/>
</linearGradient>
<path class="st8" d="M330.3,458.6c126.8-30.7,122.6-222.8,122.6-222.8C450.8,71.8,262.7,43.4,220.1,52.2
	C177.4,60.9,43.4,65.3,43.4,235.8C43.4,235.8,47.5,504.2,330.3,458.6z"/>
<g>
	<g>
		<path class="st9" d="M171.3,347.6c-17.3-14.4-29.2-34.1-34.3-56.5c-0.1,0-0.2,0-0.3,0.1c5.1,22.5,17.1,42.2,34.4,56.7
			c20.9,17.4,47.3,25,74.2,21.3c8-1.1,15.8-3.2,23.3-6.2c0-0.1,0-0.2-0.1-0.3c-7.4,3-15.2,5-23.2,6.1
			C218.5,372.5,192.2,365,171.3,347.6z"/>
		<path class="st9" d="M330,224.2c0.1,0,0.2-0.1,0.3-0.2c-6.1-17.9-16.8-33.7-31.3-45.8c-17.8-14.8-39.4-22.5-62-22.2
			c-0.1,0.1-0.1,0.2-0.2,0.3c22.6-0.3,44.2,7.4,62,22.1C313.2,190.6,323.9,206.3,330,224.2z"/>
		<path class="st9" d="M320.2,318.3c12.1-20.1,17.6-43.5,15.7-67.2c-0.1,0-0.2,0-0.3,0.1c1.9,23.6-3.6,46.9-15.6,66.9
			C320,318.2,320.1,318.3,320.2,318.3z"/>
		<path class="st9" d="M156.8,198c2.2-2.9,4.5-5.7,7-8.4c-0.1-0.1-0.2-0.1-0.2-0.2c-2.4,2.7-4.8,5.4-7,8.4
			c-8.9,11.8-15.3,25.2-19,39.2c0.1,0,0.2,0,0.3,0.1C141.6,223.1,147.9,209.8,156.8,198z"/>
	</g>
	<g>
		<path class="st9" d="M349.1,278.9c-2.4,16.4-8,32.2-16.5,46.5c0.1,0,0.3,0,0.4-0.1c8.4-14.3,13.9-30,16.3-46.3
			C349.3,279,349.2,279,349.1,278.9z"/>
		<path class="st9" d="M269.9,145.6c13.7,4.2,26.6,11.1,38.1,20.7c18.3,15.2,31.3,35.6,37.8,58.8c0.1-0.1,0.2-0.1,0.3-0.2
			c-6.5-23.3-19.6-43.7-37.9-58.9c-11.5-9.6-24.4-16.5-38.1-20.7C270,145.4,269.9,145.5,269.9,145.6z"/>
		<path class="st9" d="M246.8,384.5c15.7-2.2,30.7-7.6,44.1-15.8c-0.1-0.1-0.2-0.2-0.2-0.3c-13.4,8.2-28.3,13.6-43.9,15.7
			c-27,3.7-53.5-2.5-75.8-17.6c-0.1,0.1-0.1,0.2-0.2,0.3C193.1,382,219.7,388.2,246.8,384.5z"/>
		<path class="st9" d="M119.6,270.6c-1-29.5,8-58.4,25.9-82.1c8.6-11.5,18.9-21.1,30.3-28.7c-0.1-0.1-0.1-0.2-0.2-0.3
			c-11.4,7.6-21.7,17.2-30.3,28.7c-17.9,23.8-27,52.7-25.9,82.4C119.4,270.7,119.5,270.7,119.6,270.6z"/>
	</g>
	<g>
		<path class="st9" d="M304.4,144.6c4.4,2.8,8.7,6,12.8,9.4c26.1,21.7,42.7,52.8,46.9,87.9c0.1-0.1,0.2-0.1,0.3-0.2
			c-4.3-35.1-20.9-66.2-47-88c-4.1-3.4-8.4-6.5-12.8-9.4C304.6,144.4,304.5,144.5,304.4,144.6z"/>
		<path class="st9" d="M146.4,366.3c-0.1,0.1-0.2,0.2-0.2,0.3c2.1,2,4.3,3.9,6.5,5.8c27,22.5,61,32.2,95.7,27.5
			c25.2-3.5,48.5-14.3,67.8-31.1l-0.3-0.2c-19.3,16.8-42.5,27.5-67.6,30.9c-34.6,4.7-68.5-5-95.4-27.4
			C150.6,370.2,148.5,368.3,146.4,366.3z"/>
		<path class="st9" d="M106.4,287.2c-0.3-2.1-0.6-4.2-0.8-6.4c-3.5-36.4,6.6-72.6,28.6-101.7c19.4-25.8,46.1-43.4,75.9-50.3
			c0-0.1-0.1-0.2-0.1-0.4c-29.9,7-56.6,24.6-76.1,50.5c-22,29.2-32.2,65.4-28.6,102c0.2,2.1,0.5,4.2,0.8,6.3
			C106.1,287.2,106.2,287.2,106.4,287.2z"/>
	</g>
	<g>
		<path class="st9" d="M270.1,113.5c0-0.1,0.1-0.3,0.1-0.4c-16.1-3.8-32.9-4.6-49.9-2.2c-23,3.2-44.6,11.8-63.5,25.2
			c0,0.1,0.1,0.3,0.1,0.4c18.9-13.3,40.4-22,63.4-25.2C237.3,108.9,254,109.7,270.1,113.5z"/>
		<path class="st9" d="M380.2,261.3c0.1-6-0.2-12-0.7-18.1c-2.6-26.3-11.3-50.8-25.4-71.6c-0.1,0.1-0.2,0.2-0.3,0.4
			c14,20.7,22.7,45,25.2,71.3c0.6,6,0.8,12,0.7,18C379.9,261.3,380,261.3,380.2,261.3z"/>
		<path class="st9" d="M249.8,415.3c8.8-1.2,17.4-3.2,25.8-6c0.1-0.2,0.2-0.4,0.3-0.5c-8.4,2.8-17.2,4.9-26.1,6.1
			c-38.5,5.3-76.2-5.5-106.1-30.5c-30-24.9-48.6-61-52.6-101.5c-2.5-26,1.2-51.8,10.7-75.6c-0.1,0-0.3,0-0.4,0
			c-9.4,23.8-13.2,49.6-10.6,75.6c3.9,40.7,22.7,76.8,52.7,101.8C173.4,409.7,211.2,420.6,249.8,415.3z"/>
	</g>
	<g>
		<path class="st9" d="M192.7,427.3l0.3-0.4c-21.2-5.5-41.1-15.7-58.7-30.3c-33-27.5-53.6-67.2-57.9-111.8
			C73,248.3,80.7,212,98.3,180.4c-0.1-0.1-0.2-0.2-0.3-0.3c-17.7,31.6-25.5,68-21.9,104.7c4.3,44.8,25,84.6,58,112.1
			C151.6,411.6,171.6,421.8,192.7,427.3z"/>
		<path class="st9" d="M270.3,97.2c-12.6-2.6-25.5-3.6-38.6-2.9c0,0.2,0.1,0.3,0.1,0.5c13-0.7,25.8,0.3,38.3,2.9
			C270.1,97.5,270.2,97.3,270.3,97.2z"/>
		<path class="st9" d="M384.6,200.3c0.1-0.1,0.2-0.2,0.3-0.3c-9.8-27.7-26.5-52.1-49-70.8c-19.2-15.9-41.2-26.6-64.6-31.7
			c-0.1,0.1-0.2,0.3-0.3,0.4c23.4,5,45.4,15.7,64.6,31.7C358.2,148.2,374.8,172.5,384.6,200.3z"/>
		<path class="st9" d="M293.8,418c0.1,0.1,0.3,0.2,0.4,0.3c25-11.2,47.2-29,64.7-52.2c0.9-1.2,1.8-2.4,2.6-3.6l-0.3-0.3
			c-0.9,1.2-1.7,2.4-2.6,3.6C341.1,389.1,318.9,406.8,293.8,418z"/>
	</g>
	<g>
		<path class="st9" d="M394.5,332.3c0.1,0.1,0.3,0.2,0.4,0.3c6.6-16,11-32.8,13.2-50c-0.2,0-0.3-0.1-0.5-0.1
			C405.4,299.6,401,316.3,394.5,332.3z"/>
		<path class="st9" d="M326.5,103.3c-17.9-11.2-37.4-18.7-57.8-22.3c0,0.2,0,0.3,0,0.5c20.3,3.6,39.7,11.1,57.4,22.2
			C326.3,103.6,326.4,103.4,326.5,103.3z"/>
		<path class="st9" d="M95.3,157.6c1.6-2.3,3.2-4.5,4.9-6.8c20.8-27.6,47.8-48.2,78.2-60.1c-0.1-0.1-0.1-0.3-0.2-0.4
			c-30.5,11.9-57.5,32.5-78.4,60.2c-1.7,2.2-3.3,4.5-4.9,6.8C95,157.4,95.2,157.5,95.3,157.6z"/>
		<path class="st9" d="M252.8,446c22.8-3.1,44.4-10.8,64.1-22.3c-0.1-0.1-0.2-0.2-0.3-0.4c-19.5,11.5-41.1,19.1-63.8,22.2
			c-31.4,4.3-62.3-0.3-90.3-13.1c-0.1,0.1-0.2,0.3-0.3,0.4C190.2,445.7,221.3,450.4,252.8,446z"/>
	</g>
	<g>
		<path class="st9" d="M389.7,381.3c-2.9,3.8-5.9,7.5-9,11.1l0.2,0.2c3.1-3.6,6.1-7.3,9-11.1c14.1-18.6,24.8-39.3,32-61.4
			c-0.1,0-0.2-0.1-0.2-0.1C414.5,342.1,403.8,362.7,389.7,381.3z"/>
		<path class="st9" d="M331.1,80.2c0.1-0.1,0.1-0.1,0.2-0.2c-11.1-5.8-22.8-10.5-34.9-13.9c-15.5-4.3-31.3-6.5-47.2-6.5
			c0,0.1,0,0.2,0,0.3c15.9,0,31.7,2.2,47.1,6.5C308.4,69.8,320,74.4,331.1,80.2z"/>
		<path class="st9" d="M432.1,243c-0.2-3.1-0.4-6.2-0.7-9.2c-2.3-23.4-8.3-45.7-18-66.4c-0.1,0-0.2,0-0.3,0
			c9.7,20.8,15.7,43.1,18,66.5c0.3,3.1,0.5,6.2,0.7,9.3C431.9,243,432,243,432.1,243z"/>
		<path class="st9" d="M55.2,280.9c-1.8-24.2,0.5-48.4,6.9-72c7.1-25.9,18.8-49.8,34.9-71.1c3.5-4.7,7.2-9.2,11.1-13.5
			c-0.1-0.1-0.1-0.1-0.2-0.2c-3.9,4.3-7.6,8.8-11.1,13.5C80.7,159,69,183,61.9,208.9c-6.4,23.5-8.8,47.7-6.9,72
			C55.1,280.9,55.2,280.9,55.2,280.9z"/>
		<path class="st9" d="M314.2,442.5c0.1,0.1,0.1,0.1,0.2,0.2c5.9-2.7,11.8-5.8,17.5-9.1c18.1-10.6,34.3-24.1,48.3-40.2l-0.2-0.2
			c-14,16-30.2,29.5-48.2,40.1C326.1,436.7,320.2,439.7,314.2,442.5z"/>
	</g>
</g>
<g>
	<defs>
		<path id="SVGID_10_" d="M330.3,458.6c79.3-19.2,107.4-101.4,117.3-160.4C494,73.7,241.8-0.2,199.1,8.5
			C156.5,17.2-23.1-25.7-34.7,156.1S44.5,308.6,85.5,371.9C123.2,430.2,194.7,480.4,330.3,458.6z"/>
	</defs>
	<clipPath id="SVGID_11_">
		<use xlink:href="#SVGID_10_"  style="overflow:visible;"/>
	</clipPath>
	<g class="st10">
		<g>
			<g>
				<path class="st11" d="M210,279.7c-0.5,0-0.9-0.4-0.9-1v-15.8c0-0.5,0.4-1,0.9-1s0.9,0.4,0.9,1v15.8
					C210.9,279.3,210.5,279.7,210,279.7z"/>
			</g>
			<g>
				<ellipse class="st9" cx="210" cy="285" rx="5.7" ry="5.9"/>
				<path class="st11" d="M210,291.9c-3.6,0-6.6-3.1-6.6-6.9s2.9-6.9,6.6-6.9c3.6,0,6.6,3.1,6.6,6.9S213.6,291.9,210,291.9z
					 M210,280c-2.6,0-4.7,2.2-4.7,5c0,2.7,2.1,5,4.7,5c2.6,0,4.7-2.2,4.7-5C214.8,282.2,212.6,280,210,280z"/>
			</g>
			<rect x="90.7" y="78.6" class="st12" width="238.7" height="184.3"/>
			<path class="st13" d="M125,84.5c-29.5,0-33.8,116-34.3,164.7V78.6h42C134.4,82.2,132.5,84.5,125,84.5z"/>
			<linearGradient id="SVGID_12_" gradientUnits="userSpaceOnUse" x1="345.9667" y1="80.1787" x2="74.0651" y2="80.1787">
				<stop  offset="8.527380e-02" style="stop-color:#4432F6"/>
				<stop  offset="0.5999" style="stop-color:#4236F3"/>
				<stop  offset="0.8795" style="stop-color:#2394B1"/>
				<stop  offset="1" style="stop-color:#4AADAF"/>
			</linearGradient>
			<rect x="74.1" y="75.9" class="st14" width="271.9" height="8.6"/>
			<rect x="117.2" y="227" class="st15" width="185" height="7.3"/>
			<rect x="117.2" y="241.2" class="st15" width="140.6" height="7.3"/>
			<polygon class="st16" points="118.9,204.5 116,201.7 197.7,108.7 246.7,164.8 264.4,138.4 284.5,175.2 300.6,148.7 303.9,150.9 
				284.3,183.1 264,146 247.1,171.2 197.7,114.7 			"/>
			<polygon class="st17" points="203.2,174.5 157.2,121.4 122.8,158.8 120,156 157.3,115.5 203.4,168.7 258.5,114 289,133.4 
				301.2,125.3 303.3,128.7 289.1,138.2 259,119.1 			"/>
			<path class="st11" d="M302.3,216.2h-185c-0.5,0-0.9-0.4-0.9-1v-98.2c0-0.5,0.4-1,0.9-1s0.9,0.4,0.9,1v97.2h184.1
				c0.5,0,0.9,0.4,0.9,1C303.2,215.8,302.8,216.2,302.3,216.2z"/>
		</g>
		<path class="st12" d="M60,429.9h361.8c22,0,43.6,3.4,63.1,10l39.8,13.4c6.4,2.1,4,8.3-3.2,8.3H-19.7c-7.2,0-9.5-6.2-3.1-8.3
			l40.7-13.5C37.3,433.2,38.2,429.9,60,429.9z"/>
		<g>
			<path class="st9" d="M292.9,372.3l-11.7,72.2L292.9,372.3z"/>
			<path class="st11" d="M281.1,445.4c-0.1,0-0.1,0-0.2,0c-0.5-0.1-0.8-0.6-0.7-1.1l11.7-72.2c0.1-0.5,0.6-0.9,1.1-0.8
				c0.5,0.1,0.8,0.6,0.7,1.1L282,444.6C281.9,445.1,281.5,445.4,281.1,445.4z"/>
		</g>
		<g>
			<path class="st9" d="M343.1,372.3l11.7,72.2L343.1,372.3z"/>
			<path class="st11" d="M354.9,445.4c-0.4,0-0.8-0.3-0.9-0.8l-11.7-72.2c-0.1-0.5,0.2-1,0.7-1.1c0.5-0.1,1,0.3,1.1,0.8l11.7,72.2
				c0.1,0.5-0.2,1-0.7,1.1C355,445.4,354.9,445.4,354.9,445.4z"/>
		</g>
		<g>
			<path class="st9" d="M291.1,353.4l-15.7,81.8L291.1,353.4z"/>
			<path class="st11" d="M275.5,436.1c-0.1,0-0.1,0-0.2,0c-0.5-0.1-0.8-0.6-0.7-1.1l15.7-81.8c0.1-0.5,0.6-0.9,1.1-0.7
				c0.5,0.1,0.8,0.6,0.7,1.1l-15.7,81.8C276.3,435.8,275.9,436.1,275.5,436.1z"/>
		</g>
		<g>
			<path class="st9" d="M344.8,353.4l15.7,81.8L344.8,353.4z"/>
			<path class="st11" d="M360.5,436.1c-0.4,0-0.8-0.3-0.9-0.8l-15.7-81.8c-0.1-0.5,0.2-1,0.7-1.1c0.5-0.1,1,0.2,1.1,0.7l15.7,81.8
				c0.1,0.5-0.2,1-0.7,1.1C360.6,436.1,360.6,436.1,360.5,436.1z"/>
		</g>
		<g>
			<path class="st9" d="M419.9,367.5l-15.7,81.8L419.9,367.5z"/>
			<path class="st11" d="M404.2,450.2c-0.1,0-0.1,0-0.2,0c-0.5-0.1-0.8-0.6-0.7-1.1l15.7-81.8c0.1-0.5,0.6-0.9,1.1-0.7
				c0.5,0.1,0.8,0.6,0.7,1.1l-15.7,81.8C405,449.9,404.6,450.2,404.2,450.2z"/>
		</g>
		<g>
			<path class="st9" d="M473.6,367.5l15.7,81.8L473.6,367.5z"/>
			<path class="st11" d="M489.3,450.2c-0.4,0-0.8-0.3-0.9-0.8l-15.7-81.8c-0.1-0.5,0.2-1,0.7-1.1c0.5-0.1,1,0.2,1.1,0.7l15.7,81.8
				c0.1,0.5-0.2,1-0.7,1.1C489.4,450.2,489.3,450.2,489.3,450.2z"/>
		</g>
		<path class="st18" d="M279.6,363.5c0,0-1.9,10.3,17.6,10.2c51.8-0.2,57.7,2.2,59.3-10.2C338.7,359,279.6,363.5,279.6,363.5z"/>
		<path class="st18" d="M350.5,351.1h-64.9L284,287c0-7.6,5.8-13.7,13.1-13.7H339c7.2,0,13.1,6.1,13.1,13.7L350.5,351.1z"/>
		<path class="st11" d="M352,368.3h-67.8c-2.5,0-4.6-2.1-4.6-4.8c0,0,5.2-14.3,7.7-14.3h61.6c2.5,0,7.7,14.3,7.7,14.3
			C356.5,366.1,354.5,368.3,352,368.3z"/>
		<g>
			<linearGradient id="SVGID_13_" gradientUnits="userSpaceOnUse" x1="331.2966" y1="368.4051" x2="290.3061" y2="368.4051">
				<stop  offset="8.527380e-02" style="stop-color:#4432F6"/>
				<stop  offset="0.5999" style="stop-color:#4236F3"/>
				<stop  offset="0.8795" style="stop-color:#2394B1"/>
				<stop  offset="1" style="stop-color:#4AADAF"/>
			</linearGradient>
			<path class="st19" d="M290.4,368.3c0,0-4.7,8.9,40.9,3.9C326.3,354.4,290.4,368.3,290.4,368.3z"/>
			<path class="st20" d="M345,330.4c0.2,0.2,5.8,0.2,5.8,0.2c-1-2.6-0.7-2.4-1.9-7.5c-1-4.3-1.2-5.2-4-7.9
				c-2.3-2.2-2.8-6.5-3.6-10.8c0,0,0,0.1,0,0.1c-0.2,0.5-0.3,1.1-0.5,1.6c0,0,0,0,0,0.1c-0.1,0.2-0.1,0.5-0.2,0.6
				c-0.1,0.5-0.2,1-0.3,1.4c0,0.1-0.1,0.7-0.2,1.1c0,0.3-0.1,1.1-0.2,1.2c-0.3,2.6-0.4,1.6-0.5,4.2c-0.1,0.9,0.3,3.6,0.5,4.1
				C341.6,322.9,342.4,328.1,345,330.4z"/>
			<path class="st21" d="M337.1,280.3c-0.3-9.7-4.1-20.7-3-29.7c0.9-7.3,1.5-18-1.7-24.1c-3.3-6.5-9-7.6-14-8.9
				c-4.6-1.1-12,0.6-15.7,5.3c-3.4,4.4-3,10.9-3.4,18.1c-0.2,3.8,1.8,13.4,2.1,14.6c-0.1,0.3-0.1,0.7-0.2,1.1
				c-0.4,5.6-0.1,11.3,0,17c0.1,4.9-0.4,10.2,0.5,15c1.5,8,5.8,12.6,10.6,14c3.2,0.9,6.4,0.6,9.6-0.5c3-1.1,5.8-2.8,8.8-3.8
				c0.8-0.2,1.4-0.5,2-0.8l-0.5-8.9l1.8,8c1.8-1.6,2.5-4.2,2.9-9.5C337.2,285,337.2,282.6,337.1,280.3z"/>
			<path class="st20" d="M247.5,331.2c2.9,0.2,6.4,0.7,9.1,2.3c0.2-0.3,0.5-0.6,0.8-0.9c0.7-0.7,1.4-1.1,1.3-2.1
				c-0.1-0.4-0.3-0.9-0.6-1.3c0.1,0,0.2,0,0.2,0c1.1-0.3,0.5-1.7-0.6-1.4c-0.4,0.1-0.9,0.1-1.3,0.1c-0.1,0-0.2,0-0.3-0.1
				c-0.1,0-0.3-0.1-0.5-0.1c-0.1,0-0.2,0-0.3,0c-0.1,0-0.2,0-0.4,0c-0.3-0.1-0.7-0.1-1-0.1c-4.4-0.3-18.8,2.4-14.8,4.1
				C241.9,331.3,244.7,331,247.5,331.2z"/>
			<path class="st20" d="M313.2,268.5c2.4,2.3,7.6,3.3,9.8-0.1c1.1,0,2.1-1.1,1.8-2.9c0-0.2-0.1-0.4-0.1-0.5c0-0.3-0.1-0.6-0.2-0.9
				c-0.2-1.1-0.3-2.2-0.4-3.3c-0.1-0.4-0.1-0.9-0.2-1.3c0-0.3,0-0.6,0-0.9c0-0.7-0.1-1.2-0.4-1.5c0-0.1,0-0.2-0.1-0.3
				c0-0.2-0.1-0.5-0.1-0.7c-0.6-2.5-2.9-2-3.3,0c-0.4,0.2-0.8,0.7-0.9,1.4c0,0.1-0.1,0.2-0.1,0.4c-0.1,0.5-0.2,1.1-0.2,1.7
				c0,0,0,0,0,0c0,0,0,0-0.1,0c-0.6-0.5-1.4-0.4-2,0.2c-0.3-0.1-0.5-0.2-0.8-0.1c-0.1-0.1-0.1-0.2-0.2-0.3c0-0.3-0.1-0.5-0.2-0.7
				c-0.7-1.6-2.7-1-3.1,0.7c-0.1,0.4-0.1,0.8,0,1.3c0.1,0.5,0.1,1.1,0.2,1.6c0,0.4-0.1,0.9-0.1,1.3v0c-0.1,0.8-0.1,1.5-0.1,2.3
				C312.3,266.8,312.5,267.8,313.2,268.5z"/>
			<path class="st22" d="M312.5,260.7c0.1,0.5,0.1,1.1,0.2,1.6c0,0.4-0.1,0.9-0.1,1.3v0c0,0,3.9,7.8,11.9,0.5
				c-0.1-0.4-0.5-4.2-0.6-4.6c0-0.3,0-0.6,0-0.9c0-0.7-0.1-1.2-0.4-1.5c0-0.1,0-0.2-0.1-0.3l-4.5,1.1l-3.4,0.8l-3.1,0.7
				C312.5,259.8,312.4,260.2,312.5,260.7z"/>
			<path class="st20" d="M304.2,230.6c0.5-0.6,1.2-1.1,2.1-1.6c1.7-0.8,4.4-0.1,6.2-0.5c3-0.7,7.3-2.2,9.9,0.3c2.4,2.3,2,6,2.5,9.3
				c0.1,0.7,0.2,1.3,0.4,2c0,0,0.1-0.1,0.1-0.1c0.7-0.7,1.5-1.1,2.4-1.1c0.7,0,1.6,0.5,1.7,1.3c0.5,2.6-0.7,4.9-2.4,6.7c0,0,0,0,0,0
				c0.2,1.1,0.2,2.2,0.1,3.4c-0.4,4-2.7,6.9-5.2,9.8c-2.3,2.6-5.1,3.2-8.3,2.3c-3.3-0.9-5-3.4-6.4-6.5c-1.5-3.4-2.9-6.7-3.1-10.4
				C303.8,240.8,301,234.3,304.2,230.6z"/>
			<path class="st20" d="M291.7,300.5c-0.8,1.1-1.5,2.3-2.3,3.4c-2.4,3.7-3.5,7.8-7.7,9.5c-4.6,1.8-9.1,4-13.4,6.4
				c-4.5,2.6-9.7,5.4-13.2,9.4c-0.9,1-1,0.8-1.1,2.1c-0.1,3.9,7.2,0.2,9.2-0.4c3.6-1.1,7.2-2.4,10.8-3.7c0.8-0.3,1.7-0.6,2.6-1
				c4.3-1.6,8.8-3.3,12-6.5c2.5-2.5,4.9-5.2,7.3-7.7C294.3,308.4,292.6,304.5,291.7,300.5z"/>
			<path class="st20" d="M300.4,279c0.1-3-0.1-6.1-0.7-9.2c1.1-0.5,2.4-0.8,3.6-1.1c0.6-0.1,1.2-0.2,1.8-0.3
				c1.3-0.2,2.6-0.5,3.7-0.8c1.8-0.5,3.3-1,5.1,0c1,0.5,1.9,1.2,3,1.3c2,0.2,3-1.2,4.5-2.1c0.6-0.4,1.2-0.6,1.9-0.6
				c1.4-0.2,3.2,1.2,4.5,1.8c1.7,0.7,3.4,1.3,5.1,1.9c0,0,0.1,0,0.1,0c0.7,0.2,1.3,0.5,2,0.7c0.6,0.2,1.3,0.4,1.9,0.7
				c0.3,0.1,0.5,0.2,0.8,0.3c1.2,0.6,1.8,1.4,2.1,2.9c0.1,0.7,0.1,1.3,0.1,2c-0.2,0.1-0.4,0.3-0.5,0.5c-1.1,1.5-1.7,3-2.1,4.7
				c0,0.3,0,0.6-0.1,0.9c-0.3,1.5-0.7,2.9-0.9,4.4c-0.1,1-0.6,1.9-1.4,2.2c-0.3,0.1-0.6,0.2-1,0.2c-1,0-1.9,0-2.8-0.1
				c-1.3-0.1-2.7-0.3-4-0.5c-0.3,0-0.7-0.1-1-0.1c-0.6-0.1-1.2-0.1-1.8-0.2c-0.1,0.3-0.2,0.6-0.5,0.8c-4.4,4-10.8,4.5-15.1,0
				c-0.3-0.3-0.4-0.6-0.5-0.9c-0.6,0-1.2-0.1-1.8-0.1c-0.7,0.7-1.6,0.9-2.7,0.3c-1.7-1.1-3-3.1-3.5-5.2c-0.3-1.2-0.4-2.5-0.1-3.7
				C300.2,279.4,300.3,279.2,300.4,279z"/>
			<linearGradient id="SVGID_14_" gradientUnits="userSpaceOnUse" x1="349.8925" y1="310.2885" x2="256.2032" y2="310.2885">
				<stop  offset="8.527380e-02" style="stop-color:#4432F6"/>
				<stop  offset="0.5999" style="stop-color:#4236F3"/>
				<stop  offset="0.8795" style="stop-color:#2394B1"/>
				<stop  offset="1" style="stop-color:#4AADAF"/>
			</linearGradient>
			<path class="st23" d="M336.2,328.9c-1.5-4.8-3.6-10-3.2-14.8c0.1-1.8,0.6-3.6,1.2-5.2c0.3-0.8,0.6-1.6,0.9-2.4
				c0.2,0.6,0.4,1.1,0.6,1.7c1.3,3.4,4.9,15.2,5.6,18.8c0.1,0.6,3.5,0.3,5.6-0.1c0.6-0.1,1.3-0.2,2-0.5c2-0.7,0.5-11.1,0-13.2
				c-0.7-2.5-1.5-4.9-1.9-7.4c-1-5.6-1.2-11.1-1.6-16.8c-0.4-5.3-1-11.3-4-15.7c-1.9-2.8-14.7-0.9-25.3-1.4
				c-8-0.4-14.4-3.6-15.5-3.2c-3.8,1.4-5.7,4.8-7.2,8.6c-1.4,3.7-2.3,7.6-3.3,11.4c-1.5,5.3-1.5,11-3.3,16.2
				c-0.8,2.4-31.8,20.2-30.6,22.6c1.1,2.1,2.3,4.5,3.7,6.3c1.2,1.4,34-15.3,34.9-16.6c1.5-2,2.5-4.3,3.3-6.7c0.4-1.1,0.7-2.2,1-3.3
				c0.4,0.6,0.7,1.3,1,1.9c0.4,1.1,0.7,2.2,0.8,3.5c0,3.8-1.5,7.4-2.5,11c-1.5,5.6-4,12.5-3.9,18.5c0,0.5,0.1,0.9,0.2,1.2
				c0.1,0.2,0.2,0.4,0.3,0.6c1.7,2.9,5,3.8,8,4.6c9.1,2.5,19.1,5.3,28.4,2.1c3.3-1.1,6.8-2.8,7.7-6.7c0.8-3.3-1.4-8.7-2.1-11.9
				C336.7,330.9,336.5,330,336.2,328.9z"/>
			<linearGradient id="SVGID_15_" gradientUnits="userSpaceOnUse" x1="302.3079" y1="301.4806" x2="295.8697" y2="301.4806">
				<stop  offset="8.527380e-02" style="stop-color:#4432F6"/>
				<stop  offset="0.5999" style="stop-color:#4236F3"/>
				<stop  offset="0.8795" style="stop-color:#2394B1"/>
				<stop  offset="1" style="stop-color:#4AADAF"/>
			</linearGradient>
			<path class="st24" d="M302.3,308.1c-1,0-1.7,0.5-2.2,1c-0.3-0.7-0.6-1.3-1-1.9c-0.3,1.1-0.7,2.2-1,3.3c-1.5-4.1-4.3-13.7-0.1-18
				C294.1,302.4,302.3,308.1,302.3,308.1z"/>
			<linearGradient id="SVGID_16_" gradientUnits="userSpaceOnUse" x1="335.0146" y1="308.073" x2="329.586" y2="308.073">
				<stop  offset="8.527380e-02" style="stop-color:#4432F6"/>
				<stop  offset="0.5999" style="stop-color:#4236F3"/>
				<stop  offset="0.8795" style="stop-color:#2394B1"/>
				<stop  offset="1" style="stop-color:#4AADAF"/>
			</linearGradient>
			<path class="st25" d="M329.6,309.6c0,0,2.8-1.5,5.4-3.1c-0.3,0.8-0.6,1.6-0.9,2.4C332,309.6,329.6,309.6,329.6,309.6z"/>
			<linearGradient id="SVGID_17_" gradientUnits="userSpaceOnUse" x1="337.3574" y1="300.8558" x2="335.0146" y2="300.8558">
				<stop  offset="8.527380e-02" style="stop-color:#4432F6"/>
				<stop  offset="0.5999" style="stop-color:#4236F3"/>
				<stop  offset="0.8795" style="stop-color:#2394B1"/>
				<stop  offset="1" style="stop-color:#4AADAF"/>
			</linearGradient>
			<path class="st26" d="M336.9,307c-0.3,0.5-0.8,0.9-1.3,1.2c-0.2-0.6-0.4-1.1-0.6-1.7c2.6-1.6,0.2-12.6,0.1-13.1
				C335.2,293.9,338.5,304.4,336.9,307z"/>
			<path class="st20" d="M319.9,439c-0.7-3.1-1.7-6.1-3.3-8.9c-0.9-1.4-1.9-2-2.8-0.8c0.1-0.2-1.8-1.2-2.3-0.8
				c-0.8,0.7-0.8,3.4-0.9,4.6c-0.3,3.5-0.2,7.1,0.1,10.7c0,2,0.5,4.1,0.7,5.9c0.1,1.1,0.4,2.3,1.2,3c0.3,0.2,0.6,0.3,0.8,0.4
				c0.7,1.3,2,1.6,3.1,0.7c0.5,0.3,1,0.4,1.6,0.1c0.6-0.3,0.9-0.8,1.2-1.4c0.4,0.2,0.8,0.2,1.3,0c0.7-0.3,1.1-1.2,1.2-1.9
				c0.3-1.9-0.3-3.8-0.7-5.7C320.7,443,320.4,441,319.9,439z"/>
			<path class="st20" d="M333.1,440c-0.1-0.4-0.1-0.9-0.2-1.3c-0.9-3.7-2.1-7.4-3.6-10.8c-0.5-1.1-1.4-3.8-2.4-4.2
				c-0.6-0.2-2.1,1.3-1.9,1.5c-1.3-0.9-2,0-2.4,1.6c-0.7,2.8-0.4,7.9-0.2,9.4c0.1,0.5,0.1,1.1,0.2,1.7c0.2,1.4,0.5,2.9,0.8,4.3
				c0.3,1.5,0.5,3,0.8,4.5c0.2,0.9,0.5,2.1,1.3,2.6c0.7,0.4,1.3,0.2,1.8-0.3c0.4,0.5,0.9,0.8,1.7,0.7c0.5-0.1,0.9-0.3,1.2-0.6
				c0.5-0.2,0.9-0.5,1.3-0.9c0.5-0.4,1-1,1.2-1.8c0.9-0.4,1.2-1.7,1.1-2.9C333.8,442.3,333.5,441.2,333.1,440z"/>
			<path class="st22" d="M297.9,366.7c0,0,6-2.7,9.9-2.7c4,0,9,0.5,9,0.5l-7.7,8.2L297.9,366.7z"/>
			<path class="st20" d="M327.3,387.1c-0.7-8,0.3-21.4-10.5-22.6c-2.4-0.3-4.6-1.1-7.3,0c-1.4,2.5,0,10,0.6,13
				c1.8,8.3,3.6,16.6,5.1,25c0.5,3,1.4,5.8,2.4,8.6c1.3,4.8,2.7,9.5,4,14.3c0,0.3,0.1,0.6,0.2,0.9c0.3,1.1,0.6,2.2,0.8,3.4
				c0.3,1.5,1.9,2.1,3.2,1.8c1.4-0.3,2.2-1.7,2.2-3.2c0-0.5,0-1.1,0-1.6c0.4-0.5,0.6-1.2,0.6-2C328,412.1,328.4,399.6,327.3,387.1z"
				/>
			<path class="st20" d="M316.7,429.5c0-0.3,0-0.6-0.1-0.9c-0.5-5-0.9-9.9-1.3-14.9c-0.1-3-0.3-6-0.8-9c-1.6-8.4-2.7-16.8-4-25.3
				c-1.1-7-1.9-12.8-10-13.2c-2.1-0.1-4.9,1.9-6,3.1c-1.1,1.2-0.2,8.5,0.4,12c0.8,4.8,1.9,9.6,3.2,14.3c3.3,12,8,23.4,11.9,35.2
				c0.3,0.8,0.7,1.3,1.2,1.6c0.2,0.5,0.4,1,0.6,1.5c0.5,1.4,1.7,2.4,3.1,2.1c1.2-0.2,2.5-1.5,2.3-3
				C317,431.8,316.8,430.7,316.7,429.5z"/>
			<path class="st11" d="M324.4,451.4c-2.2-3.2-2.4-8.4-1.7-11.9c1.2,2.1,1.9,5.1,4.7,5.4c2.4,0.3,4.4-1.4,5-3.8
				c0.3-1.1,0.2-2.2,0.1-3.3c-0.2-1-0.4-1.9-0.6-2.8c1.8,2.1,2.5,5,2.9,7.7c0.4,2.5,0.8,5.5,0.1,8c-1.1,3.8-5.1,4.6-8.2,2.8
				C325.8,453.1,325,452.3,324.4,451.4z"/>
			<path class="st11" d="M323.6,453.6c0.8-3.9-1-8.7-3-11.6c-0.3,2.5,0.2,5.5-2.2,7c-2.1,1.3-4.6,0.6-6.1-1.3
				c-0.7-0.9-1.1-1.9-1.3-3c-0.2-0.9-0.4-1.9-0.5-2.8c-0.8,2.7-0.3,5.6,0.4,8.2c0.6,2.4,1.4,5.4,3,7.3c2.4,3,6.5,2,8.6-0.9
				C323,455.6,323.4,454.7,323.6,453.6z"/>
			<path class="st20" d="M350.1,327.8c-1.5-1.4-4.2-0.9-6-0.5c-1.7,0.4-2.3,1.8-2.5,3.9c-0.1,1.5,1.6,1.6,1.7,0.1
				c0-0.2,0-0.4,0.1-0.5c0.1,0.5,0.4,0.9,0.8,1c1.7,0.4,3.8,1.2,5.5,0.3C351.1,331.4,351.4,329,350.1,327.8z"/>
			<linearGradient id="SVGID_18_" gradientUnits="userSpaceOnUse" x1="340.541" y1="353.402" x2="289.3729" y2="353.402">
				<stop  offset="8.527380e-02" style="stop-color:#4432F6"/>
				<stop  offset="0.5999" style="stop-color:#4236F3"/>
				<stop  offset="0.8795" style="stop-color:#2394B1"/>
				<stop  offset="1" style="stop-color:#4AADAF"/>
			</linearGradient>
			<path class="st27" d="M338,353.4c3.5-9.2,5.3-18.4-7.5-18.8c-0.2,0-0.4,0-0.6,0c-1.9,0-4,0.2-5.9,0.3c-5.5,0.3-11.1,0.1-16.6,0.3
				c-1.3,0.1-2.6,0.1-3.8,0.3c-7.8,1.1-12.3,6.4-13.3,14.2c-0.6,4.6-1.9,16.2,0.3,20.3c2.9,5.4,4.3-11.3,31.6-4.2
				c1.4,0.4,9.1,7.3,9.1,6.4C331.2,368.6,335.7,359.6,338,353.4z"/>
		</g>
		<g>
			<polygon class="st28" points="440.1,194 430.3,183.9 442.2,181.2 			"/>
			<ellipse class="st28" cx="433.1" cy="170" rx="17.1" ry="17.9"/>
			<g>
				<path class="st9" d="M430.5,172.9v-1.2c0-0.9,0.2-1.7,0.5-2.3c0.4-0.6,1-1.2,1.9-1.8c0.7-0.5,1.2-0.9,1.5-1.3
					c0.3-0.4,0.5-0.8,0.5-1.3c0-0.4-0.2-0.7-0.5-0.9c-0.3-0.2-0.8-0.3-1.3-0.3c-1.3,0-2.9,0.5-4.6,1.5l-1.8-3.8c2.2-1.3,4.5-2,6.8-2
					c2,0,3.5,0.5,4.6,1.4c1.1,0.9,1.7,2.1,1.7,3.7c0,1.1-0.2,2.1-0.7,2.9c-0.5,0.8-1.3,1.6-2.4,2.3c-0.9,0.6-1.5,1.1-1.7,1.4
					c-0.2,0.3-0.3,0.6-0.3,1v0.7H430.5z M430,177.7c0-0.8,0.2-1.5,0.7-2c0.5-0.5,1.2-0.7,2.1-0.7c0.9,0,1.5,0.2,2,0.7
					c0.5,0.5,0.7,1.1,0.7,2c0,0.8-0.2,1.5-0.7,1.9c-0.5,0.5-1.1,0.7-2,0.7c-0.9,0-1.5-0.2-2-0.7C430.2,179.2,430,178.6,430,177.7z"
					/>
			</g>
		</g>
		<g>
			<polygon class="st28" points="343.5,215.3 353.4,205.2 341.4,202.5 			"/>
			<ellipse class="st28" cx="350.5" cy="191.3" rx="17.1" ry="17.9"/>
			<g>
				<path class="st9" d="M352.3,194.2H348l-0.7-13.1h5.7L352.3,194.2z M347.3,199.1c0-0.8,0.2-1.5,0.7-2c0.5-0.5,1.2-0.7,2.1-0.7
					c0.9,0,1.6,0.2,2,0.7c0.5,0.5,0.7,1.1,0.7,2c0,0.8-0.2,1.5-0.7,1.9c-0.5,0.5-1.1,0.7-2,0.7c-0.9,0-1.5-0.2-2-0.7
					C347.6,200.5,347.3,199.9,347.3,199.1z"/>
			</g>
		</g>
		<g>
			<path class="st9" d="M120.4,372.3l11.7,72.2L120.4,372.3z"/>
			<path class="st11" d="M132.2,445.4c-0.4,0-0.8-0.3-0.9-0.8l-11.7-72.2c-0.1-0.5,0.2-1,0.7-1.1c0.5-0.1,1,0.3,1.1,0.8l11.7,72.2
				c0.1,0.5-0.2,1-0.7,1.1C132.3,445.4,132.2,445.4,132.2,445.4z"/>
		</g>
		<g>
			<path class="st9" d="M70.2,372.3l-11.7,72.2L70.2,372.3z"/>
			<path class="st11" d="M58.4,445.4c-0.1,0-0.1,0-0.2,0c-0.5-0.1-0.8-0.6-0.7-1.1l11.7-72.2c0.1-0.5,0.6-0.9,1.1-0.8
				c0.5,0.1,0.8,0.6,0.7,1.1l-11.7,72.2C59.3,445.1,58.9,445.4,58.4,445.4z"/>
		</g>
		<g>
			<path class="st9" d="M122.2,353.4l15.7,81.8L122.2,353.4z"/>
			<path class="st11" d="M137.9,436.1c-0.4,0-0.8-0.3-0.9-0.8l-15.7-81.8c-0.1-0.5,0.2-1,0.7-1.1c0.5-0.1,1,0.2,1.1,0.7l15.7,81.8
				c0.1,0.5-0.2,1-0.7,1.1C138,436.1,137.9,436.1,137.9,436.1z"/>
		</g>
		<g>
			<path class="st9" d="M68.5,353.4l-15.7,81.8L68.5,353.4z"/>
			<path class="st11" d="M52.8,436.1c-0.1,0-0.1,0-0.2,0c-0.5-0.1-0.8-0.6-0.7-1.1l15.7-81.8c0.1-0.5,0.6-0.9,1.1-0.7
				c0.5,0.1,0.8,0.6,0.7,1.1l-15.7,81.8C53.6,435.8,53.2,436.1,52.8,436.1z"/>
		</g>
		<path class="st18" d="M133.7,363.5c0,0,1.9,10.3-17.6,10.2c-51.8-0.2-57.7,2.2-59.3-10.2C74.7,359,133.7,363.5,133.7,363.5z"/>
		<path class="st18" d="M62.8,351.1h64.9l1.6-64.1c0-7.6-5.8-13.7-13.1-13.7H74.3c-7.2,0-13.1,6.1-13.1,13.7L62.8,351.1z"/>
		<path class="st11" d="M61.4,368.3h67.8c2.5,0,4.6-2.1,4.6-4.8c0,0-5.2-14.3-7.7-14.3H64.5c-2.5,0-7.7,14.3-7.7,14.3
			C56.8,366.1,58.8,368.3,61.4,368.3z"/>
		<g>
			<linearGradient id="SVGID_19_" gradientUnits="userSpaceOnUse" x1="118.9525" y1="356.0508" x2="98.6435" y2="356.0508">
				<stop  offset="8.527380e-02" style="stop-color:#4432F6"/>
				<stop  offset="0.5999" style="stop-color:#4236F3"/>
				<stop  offset="0.8795" style="stop-color:#2394B1"/>
				<stop  offset="1" style="stop-color:#4AADAF"/>
			</linearGradient>
			<path class="st29" d="M118.8,369.4c0,0,1.3-27.6-4.6-32.2c-5.9-4.6-15.6,9.7-15.6,9.7s1.9,24.5,5.8,28.2
				C108.3,378.7,118.8,369.4,118.8,369.4z"/>
			<path class="st30" d="M80.4,264.8c10.8-1.5,21.7-2.8,32.6-4.3c0-0.2-0.9-6.3-1-6.5c-0.1-0.4-0.2-0.7-0.3-1.1
				c0.1-1.2,0.7-11.1,0-14.8c-1.4-7.1-2-13.6-6-17.4c-4.3-4.1-11.9-4.7-16.3-2.8c-4.8,2-10.2,4.1-12.6,11c-2.2,6.5-0.1,17,1.8,24.1
				C79.1,255,80.3,262.8,80.4,264.8z"/>
			<path class="st20" d="M100.2,268.5c-2.4,2.3-7.6,3.3-9.8-0.1c-1.1,0-2.1-1.1-1.8-2.9c0-0.2,0.1-0.4,0.1-0.5
				c0-0.3,0.1-0.6,0.2-0.9c0.2-1.1,0.3-2.2,0.4-3.3c0.1-0.4,0.1-0.9,0.2-1.3c0-0.3,0-0.6,0-0.9c0-0.7,0.1-1.2,0.4-1.5
				c0-0.1,0-0.2,0.1-0.3c0-0.2,0.1-0.5,0.1-0.7c0.6-2.5,2.9-2,3.3,0c0.4,0.2,0.8,0.7,0.9,1.4c0,0.1,0.1,0.2,0.1,0.4
				c0.1,0.5,0.2,1.1,0.2,1.7c0,0,0,0,0,0c0,0,0,0,0.1,0c0.6-0.5,1.4-0.4,2,0.2c0.3-0.1,0.5-0.2,0.8-0.1c0.1-0.1,0.1-0.2,0.2-0.3
				c0-0.3,0.1-0.5,0.2-0.7c0.7-1.6,2.7-1,3.1,0.7c0.1,0.4,0.1,0.8,0,1.3c-0.1,0.5-0.1,1.1-0.2,1.6c0,0.4,0.1,0.9,0.1,1.3v0
				c0.1,0.8,0.1,1.5,0.1,2.3C101,266.8,100.8,267.8,100.2,268.5z"/>
			<path class="st22" d="M100.8,260.7c-0.1,0.5-0.1,1.1-0.2,1.6c0,0.4,0.1,0.9,0.1,1.3v0c0,0-3.9,7.8-11.9,0.5
				c0.1-0.4,0.5-4.2,0.6-4.6c0-0.3,0-0.6,0-0.9c0-0.7,0.1-1.2,0.4-1.5c0-0.1,0-0.2,0.1-0.3l4.5,1.1l3.4,0.8l3.1,0.7
				C100.8,259.8,100.9,260.2,100.8,260.7z"/>
			<path class="st20" d="M105.3,228.7c-0.6-0.5-1.4-0.9-2.3-1.2c-1.8-0.6-4.4,0.6-6.2,0.4c-3.1-0.2-7.5-1-9.7,1.9
				c-2,2.7-1.1,6.3-1.1,9.6c0,0.7-0.1,1.4-0.1,2c0,0-0.1-0.1-0.1-0.1c-0.7-0.6-1.6-0.8-2.5-0.7c-0.7,0.1-1.5,0.7-1.5,1.5
				c-0.1,2.6,1.4,4.8,3.4,6.2c0,0,0,0,0.1,0c0,1.1,0.1,2.2,0.3,3.3c0.9,3.9,3.7,6.4,6.6,8.9c2.7,2.3,5.5,2.4,8.6,1
				c3.1-1.4,4.4-4.2,5.3-7.5c1-3.6,1.9-7.1,1.6-10.8C107.3,238.7,109.1,231.8,105.3,228.7z"/>
			<path class="st20" d="M112.9,279c-0.1-3,0.1-6.1,0.7-9.2c-1.1-0.5-2.4-0.8-3.6-1.1c-0.6-0.1-1.2-0.2-1.8-0.3
				c-1.3-0.2-2.6-0.5-3.7-0.8c-1.8-0.5-3.3-1-5.1,0c-1,0.5-1.9,1.2-3,1.3c-2,0.2-3-1.2-4.5-2.1c-0.6-0.4-1.2-0.6-1.9-0.6
				c-1.4-0.2-3.2,1.2-4.5,1.8c-1.7,0.7-3.4,1.3-5.1,1.9c0,0-0.1,0-0.1,0c-0.7,0.2-1.3,0.5-2,0.7c-0.6,0.2-1.3,0.4-1.9,0.7
				c-0.3,0.1-0.5,0.2-0.8,0.3c-1.2,0.6-1.8,1.4-2.1,2.9c-0.1,0.7-0.1,1.3-0.1,2c0.2,0.1,0.4,0.3,0.5,0.5c1.1,1.5,1.7,3,2.1,4.7
				c0,0.3,0,0.6,0.1,0.9c0.3,1.5,0.7,2.9,0.9,4.4c0.1,1,0.6,1.9,1.4,2.2c0.3,0.1,0.6,0.2,1,0.2c1,0,1.9,0,2.8-0.1
				c1.3-0.1,2.7-0.3,4-0.5c0.3,0,0.7-0.1,1-0.1c0.6-0.1,1.2-0.1,1.8-0.2c0.1,0.3,0.2,0.6,0.5,0.8c4.4,4,10.8,4.5,15.1,0
				c0.3-0.3,0.4-0.6,0.5-0.9c0.6,0,1.2-0.1,1.8-0.1c0.7,0.7,1.6,0.9,2.7,0.3c1.7-1.1,3-3.1,3.5-5.2c0.3-1.2,0.4-2.5,0.1-3.7
				C113.1,279.4,113,279.2,112.9,279z"/>
			<path class="st31" d="M77.2,328.9c1.5-4.8,3.6-10,3.2-14.8c-0.1-1.8-0.6-3.6-1.2-5.2c-0.3-0.8-0.6-1.6-0.9-2.4
				c-0.2,0.6-0.4,1.1-0.6,1.7c-1.3,3.4-4.9,15.2-5.6,18.8c-0.1,0.6-3.5,0.3-5.6-0.1c-0.6-0.1-1.3-0.2-2-0.5c-2-0.7-0.5-11.1,0-13.2
				c0.7-2.5,1.5-4.9,1.9-7.4c1-5.6,1.2-11.1,1.6-16.8c0.4-5.3,1-11.3,4-15.7c1.9-2.8,14.7-0.9,25.3-1.4c8-0.4,14.4-3.6,15.5-3.2
				c3.8,1.4,5.7,4.8,7.2,8.6c1.4,3.7,2.3,7.6,3.3,11.4c1.5,5.3,1.5,11,3.3,16.2c0.8,2.4,9.9,20.2,8.6,22.6c-1.1,2.1-2.3,4.5-3.7,6.3
				c-1.2,1.4-12-15.3-12.9-16.6c-1.5-2-2.5-4.3-3.3-6.7c-0.4-1.1-0.7-2.2-1-3.3c-0.4,0.6-0.7,1.3-1,1.9c-0.4,1.1-0.7,2.2-0.8,3.5
				c0,3.8,1.5,7.4,2.5,11c1.5,5.6,4,12.5,3.9,18.5c0,0.5-0.1,0.9-0.2,1.2c-0.1,0.2-0.2,0.4-0.3,0.6c-1.7,2.9-5,3.8-8,4.6
				c-9.1,2.5-19.1,5.3-28.4,2.1c-3.3-1.1-6.8-2.8-7.7-6.7c-0.8-3.3,1.4-8.7,2.1-11.9C76.6,330.9,76.8,330,77.2,328.9z"/>
			<path class="st32" d="M111,308.1c1,0,1.7,0.5,2.2,1c0.3-0.7,0.6-1.3,1-1.9c0.3,1.1,0.7,2.2,1,3.3c1.5-4.1,4.3-13.7,0.1-18
				C119.2,302.4,111,308.1,111,308.1z"/>
			<path class="st28" d="M83.7,309.6c0,0-2.8-1.5-5.4-3.1c0.3,0.8,0.6,1.6,0.9,2.4C81.3,309.6,83.7,309.6,83.7,309.6z"/>
			<path class="st32" d="M76.4,307c0.3,0.5,0.7,0.9,1.3,1.2c0.2-0.6,0.4-1.1,0.6-1.7c-2.6-1.6-0.2-12.6-0.1-13.1
				C78.1,293.9,74.8,304.4,76.4,307z"/>
			<path class="st20" d="M93.4,439c0.7-3.1,1.7-6.1,3.3-8.9c0.9-1.4,1.9-2,2.8-0.8c-0.1-0.2,1.8-1.2,2.3-0.8
				c0.8,0.7,0.8,3.4,0.9,4.6c0.3,3.5,0.2,7.1-0.1,10.7c0,2-0.5,4.1-0.7,5.9c-0.1,1.1-0.4,2.3-1.3,3c-0.3,0.2-0.6,0.3-0.8,0.4
				c-0.7,1.3-2,1.6-3.1,0.7c-0.5,0.3-1,0.4-1.6,0.1c-0.6-0.3-0.9-0.8-1.2-1.4c-0.4,0.2-0.8,0.2-1.3,0c-0.7-0.3-1.1-1.2-1.2-1.9
				c-0.3-1.9,0.3-3.8,0.7-5.7C92.6,443,92.9,441,93.4,439z"/>
			<path class="st20" d="M80.2,440c0.1-0.4,0.1-0.9,0.2-1.3c0.9-3.7,2.1-7.4,3.6-10.8c0.5-1.1,1.4-3.8,2.4-4.2
				c0.6-0.2,2.1,1.3,1.9,1.5c1.3-0.9,2,0,2.4,1.6c0.7,2.8,0.4,7.9,0.2,9.4c-0.1,0.5-0.1,1.1-0.2,1.7c-0.2,1.4-0.5,2.9-0.8,4.3
				c-0.3,1.5-0.5,3-0.8,4.5c-0.2,0.9-0.5,2.1-1.3,2.6c-0.7,0.4-1.3,0.2-1.8-0.3c-0.4,0.5-0.9,0.8-1.7,0.7c-0.5-0.1-0.9-0.3-1.2-0.6
				c-0.5-0.2-0.9-0.5-1.3-0.9c-0.5-0.4-1-1-1.2-1.8c-0.9-0.4-1.2-1.7-1.1-2.9C79.5,442.3,79.8,441.2,80.2,440z"/>
			<linearGradient id="SVGID_20_" gradientUnits="userSpaceOnUse" x1="104.4184" y1="396.8743" x2="82.0014" y2="396.8743">
				<stop  offset="8.527380e-02" style="stop-color:#4432F6"/>
				<stop  offset="0.5999" style="stop-color:#4236F3"/>
				<stop  offset="0.8795" style="stop-color:#2394B1"/>
				<stop  offset="1" style="stop-color:#4AADAF"/>
			</linearGradient>
			<path class="st33" d="M86,387.1c0.7-8-0.3-21.4,10.5-22.6c2.4-0.3,4.6-1.1,7.3,0c1.4,2.5,0,10-0.6,13c-1.8,8.3-3.6,16.6-5.1,25
				c-0.5,3-1.4,5.8-2.4,8.6c-0.9,2.7-0.2,25-11.7,16.9c-4.4-3.1-0.2-12.9-0.1-18.1C84,402.3,85.4,394.7,86,387.1z"/>
			<linearGradient id="SVGID_21_" gradientUnits="userSpaceOnUse" x1="119.3428" y1="400.6364" x2="94.8315" y2="400.6364">
				<stop  offset="8.527380e-02" style="stop-color:#4432F6"/>
				<stop  offset="0.5999" style="stop-color:#4236F3"/>
				<stop  offset="0.8795" style="stop-color:#2394B1"/>
				<stop  offset="1" style="stop-color:#4AADAF"/>
			</linearGradient>
			<path class="st34" d="M94.8,428.6c0.5-5,3.5-20.9,4-23.9c1.6-8.4,2.7-16.8,4-25.3c1.1-7,1.9-12.8,10-13.2c2.1-0.1,4.9,1.9,6,3.1
				c1.1,1.2,0.2,8.5-0.4,12c-0.8,4.8-1.9,9.6-3.2,14.3c-1.9,6.9-5.9,34.6-10.5,38.1C98.6,438.3,94.8,428.9,94.8,428.6z"/>
			<path class="st11" d="M88.9,451.4c2.2-3.2,2.4-8.4,1.7-11.9c-1.2,2.1-1.9,5.1-4.7,5.4c-2.4,0.3-4.4-1.4-5-3.8
				c-0.3-1.1-0.2-2.2-0.1-3.3c0.2-1,0.4-1.9,0.6-2.8c-1.8,2.1-2.5,5-2.9,7.7c-0.4,2.5-0.8,5.5-0.1,8c1.1,3.8,5.1,4.6,8.2,2.8
				C87.5,453.1,88.3,452.3,88.9,451.4z"/>
			<path class="st11" d="M89.7,453.6c-0.8-3.9,1-8.7,3-11.6c0.3,2.5-0.2,5.5,2.2,7c2.1,1.3,4.6,0.6,6.1-1.3c0.7-0.9,1.1-1.9,1.3-3
				c0.2-0.9,0.4-1.9,0.5-2.8c0.8,2.7,0.3,5.6-0.4,8.2c-0.6,2.4-1.4,5.4-3,7.3c-2.4,3-6.5,2-8.6-0.9
				C90.3,455.6,89.9,454.7,89.7,453.6z"/>
			<path class="st20" d="M137.5,327.3c-0.5-0.1-1.1-0.2-1.7-0.2c-1.6-0.1-3.2-0.1-4.7,0.3c-1.7,0.5-3.7,2.1-4.2,4c0,0.3,0,0.7,0,1
				c0,0.4,0,0.8-0.1,1.1c0.3,0.5,0.7,0.9,1.4,1.2c1,0.6,2,1,3.1,1.3c2.1,0.6,4.6,0.9,6.6-0.1c0.1,0,0.2-0.1,0.2-0.2
				c0.1,0.2,0.2,0.5,0.4,0.7c0.4,0.8,1.7,0.9,2-0.2c0.5-2,0.4-4.4-0.1-6.3C139.9,328.3,138.9,327.6,137.5,327.3z M135.4,333.9
				c-0.4-0.2-0.5-1-0.9-1.3c0,0,0,0,0,0c0.3-0.1,0.6-0.2,0.9-0.3c0.1,0,0.2-0.1,0.3-0.1c0.3,0,0.6,0,0.9,0.1c0.3,0.7,0.6,1.4,0.9,2
				C136.8,334.3,135.9,334.2,135.4,333.9z"/>
			<path class="st20" d="M98.7,325.6c-0.5-0.1-1.1-0.2-1.7-0.2c-1.6-0.1-3.2-0.1-4.7,0.3c-1.7,0.5-3.7,2.1-4.2,4c0,0.3,0,0.7,0,1
				c0,0.4,0,0.8-0.1,1.1c0.3,0.5,0.7,0.9,1.4,1.2c1,0.6,2,1,3.1,1.3c2.1,0.6,4.6,0.9,6.6-0.1c0.1,0,0.2-0.1,0.2-0.2
				c0.1,0.2,0.2,0.5,0.4,0.7c0.4,0.8,1.7,0.9,2-0.2c0.5-2,0.4-4.4-0.1-6.3C101.1,326.6,100.1,325.9,98.7,325.6z M96.6,332.2
				c-0.4-0.2-0.5-1-0.9-1.3c0,0,0,0,0,0c0.3-0.1,0.6-0.2,0.9-0.3c0.1,0,0.2-0.1,0.3-0.1c0.3,0,0.6,0,0.9,0.1c0.3,0.7,0.6,1.4,0.9,2
				C98,332.6,97.1,332.5,96.6,332.2z"/>
			<path class="st31" d="M63.7,317.6l29.1,8.3l-1.3,4.4c0,0-25.2,1.4-27.3-1.4C62.2,326.1,63.7,317.6,63.7,317.6z"/>
			<path class="st30" d="M84.8,234.3l23-1.6c0,0,0.2-8.6-6.9-8.6C93.9,224,83.8,227.2,84.8,234.3z"/>
			<linearGradient id="SVGID_22_" gradientUnits="userSpaceOnUse" x1="104.4143" y1="355.7441" x2="75.1969" y2="355.7441">
				<stop  offset="8.527380e-02" style="stop-color:#4432F6"/>
				<stop  offset="0.5999" style="stop-color:#4236F3"/>
				<stop  offset="0.8795" style="stop-color:#2394B1"/>
				<stop  offset="1" style="stop-color:#4AADAF"/>
			</linearGradient>
			<path class="st35" d="M88.1,372.8c0,0-16.5-18.7-12.1-29.3c4.4-10.6,26.2,0,26.2,0l2.3,25L88.1,372.8z"/>
		</g>
		<g>
			<polygon class="st28" points="69.8,215.3 59.9,205.2 71.9,202.5 			"/>
			<ellipse class="st28" cx="62.8" cy="191.3" rx="17.1" ry="17.9"/>
			<g>
				<path class="st9" d="M60.3,194.2V193c0-0.9,0.2-1.7,0.5-2.3s1-1.2,1.9-1.8c0.7-0.5,1.2-0.9,1.5-1.3c0.3-0.4,0.5-0.8,0.5-1.3
					c0-0.4-0.2-0.7-0.5-0.9c-0.3-0.2-0.8-0.3-1.3-0.3c-1.3,0-2.9,0.5-4.6,1.5l-1.8-3.8c2.2-1.3,4.5-2,6.8-2c2,0,3.5,0.5,4.6,1.4
					s1.7,2.1,1.7,3.7c0,1.1-0.2,2.1-0.7,2.9c-0.5,0.8-1.3,1.6-2.4,2.3c-0.9,0.6-1.5,1.1-1.7,1.4c-0.2,0.3-0.3,0.6-0.3,1v0.7H60.3z
					 M59.7,199.1c0-0.8,0.2-1.5,0.7-2c0.5-0.5,1.2-0.7,2.1-0.7c0.9,0,1.5,0.2,2,0.7c0.5,0.5,0.7,1.1,0.7,2c0,0.8-0.2,1.5-0.7,1.9
					c-0.5,0.5-1.1,0.7-2,0.7c-0.9,0-1.5-0.2-2-0.7C60,200.5,59.7,199.9,59.7,199.1z"/>
			</g>
		</g>
		<polygon class="st11" points="423.5,363.1 472.4,363.1 484.9,373.4 423.5,373.4 		"/>
		<path class="st18" d="M466.7,384.1h-43.2v-10.7h61.4l0,0C481,380.1,474.1,384.1,466.7,384.1z"/>
		<path class="st18" d="M484.9,373.4l7-79.4c0.8-4.6-1.9-9.2-6.2-10.4l-18.6-7.5c-5.6-1.7-11.2,2.8-11.2,9l1,75L484.9,373.4z"/>
		<g>
			<path class="st36" d="M462.8,216c0.1-4.2-1.9-8.2-5.4-10.3c-2.8-1.6-5.9-1.9-8.8-1c-2-1.7-4.4-2.6-7.1-2
				c-2.4,0.5-4.4,2.2-5.5,4.3c-0.8-0.9-1.8-1.5-3.5-1.2c-1.6,0.3-3.1,1.1-3.7,2.8c-0.2,0.4-0.2,0.9-0.3,1.3c-2.3-0.6-5,0.8-5.8,3.8
				c-1.5,5.4,3.2,8.9,6.7,11.7c1.9,1.5,3.8-1.9,1.9-3.4c-0.3-0.2-0.6-0.4-0.9-0.7c0.2,0,0.4,0.1,0.6,0.1c0.6,0,1.1-0.2,1.4-0.5
				c0.1,0,0.1,0,0.2,0c3.5,0.1,7.4,1.3,10.1-1.7c0.1-0.1,0.1-0.2,0.2-0.2c2.2,0.1,4.3,0.6,6.2,1.8c1.2,0.8,2.2,1.8,3.5,2.6
				c1.8,1.1,3.9,1.6,5.7,0.4c0.4-0.2,0.7-0.6,1-0.9c0.6-0.2,1.2-0.5,1.7-1.1C462.3,220.3,462.8,218,462.8,216z"/>
			<path class="st11" d="M379.4,431.3l-21.4,4.6c-1.8,0.4-3,2-3.1,3.9l0,0c0,2.2,1.6,4.1,3.8,4.1l30.3,0.7c2.4,0.1,4.3-2.2,3.9-4.7
				l-0.8-5.1c-0.3-1.9-1.9-3.4-3.7-3.4l-8.1-0.2C379.9,431.2,379.7,431.3,379.4,431.3z"/>
			<path class="st18" d="M391.8,441.3l-20.7,5.1c-2,0.5-2.8,2.8-1.9,5.5l0,0c0.9,2.9,3.5,4.9,5.7,4.8l23-0.9c1.4-0.1,2.6-2,2.7-4.3
				l0.2-5.2c0.1-2.2-0.8-4-2.1-4.2l-6.1-0.9C392.3,441.2,392.1,441.2,391.8,441.3z"/>
			<path class="st20" d="M368.5,331.3c0.6,0.3,1.5,0.2,2.1-0.1c1.9,1,4,1.7,6.3,1.4c0.2,0.1,0.5,0.3,0.8,0.3c2.4,0.4,4.8,0.5,7-0.1
				c0.9-0.2,1.7-0.5,2.3-1.1c0.7-0.6,0.6-1.4,1.1-2.1c0.2-0.2,0.2-0.5,0.2-0.7c1.5-0.8,2.2-2.4,0.2-3.6c-2.8-1.7-6.8-2.4-10.2-2.7
				c-2.2-0.2-4,0-5.8,0.5c-1.8,0.2-3.3,0.8-4.5,1.8c0,0,0,0,0,0c-0.1,0.1-0.3,0.1-0.4,0.2c-2.6,1.1-2.4,4.2-2.2,6.1
				C365.4,332.9,368.6,332.8,368.5,331.3z M372.7,328.6c0.5-0.3,1.1-0.5,1.6-0.7c0,0,0.1,0,0.1,0c-0.3,0,1,0.1,1.3,0.2
				c0,0,0.1,0,0.1,0c-0.1,0.2-0.2,0.4-0.1,0.7c0,0.1,0.1,0.1,0.1,0.1c0,0-0.1,0-0.3,0c-0.5,0.1-1,0.1-1.6,0.2c-0.7,0-1.3,0-2,0
				C372.2,328.9,372.5,328.8,372.7,328.6z"/>
			<polygon class="st31" points="388.9,322.6 385.2,323.2 386.7,332.5 391.2,331.4 			"/>
			<linearGradient id="SVGID_23_" gradientUnits="userSpaceOnUse" x1="453.7868" y1="355.1032" x2="399.8418" y2="355.1032">
				<stop  offset="8.527380e-02" style="stop-color:#4432F6"/>
				<stop  offset="0.5999" style="stop-color:#4236F3"/>
				<stop  offset="0.8795" style="stop-color:#2394B1"/>
				<stop  offset="1" style="stop-color:#4AADAF"/>
			</linearGradient>
			<path class="st37" d="M415.8,376.2c1.3-6.5,37-9.8,37.9-14.9c0.3-1.6-0.2-3.2-1.5-4c0.6-5.1,1-10.2,0.8-15.4
				c-0.1-3.8-5.8-4-5.7-0.2c0,1.2,0,2.3,0,3.5c0,0,0,0,0-0.1c-0.4-2.1-0.6-4.3-0.5-6.4c0-0.8-0.1-1.4-0.5-1.9c0-1.8-1.4-3.5-3.4-2.8
				c-1.4,0.4-2.9,1-4.2,1.5c-0.9-2.1-4.5-2.6-5.5,0.3c0,0.1-0.1,0.2-0.1,0.3c-1,3-1.1,6.2-1.3,9.3c-10.6,9-31,8.4-31.7,14.8
				C397.8,381.7,410,375.2,415.8,376.2z"/>
			<linearGradient id="SVGID_24_" gradientUnits="userSpaceOnUse" x1="415.7706" y1="400.9293" x2="377.2303" y2="400.9293">
				<stop  offset="8.527380e-02" style="stop-color:#4432F6"/>
				<stop  offset="0.5999" style="stop-color:#4236F3"/>
				<stop  offset="0.8795" style="stop-color:#2394B1"/>
				<stop  offset="1" style="stop-color:#4AADAF"/>
			</linearGradient>
			<path class="st38" d="M413.6,374.5c-5.1-4.1-9.8-8.8-13.5-14.3c-6.3,17.9-23.5,68.3-22.9,69.9c0.8,2.3,2.4,4.3,4,6.2
				c3.1,3.8,7,3.2,11.4,5.4c1.5,0.7,18-50.1,23.2-65.5C415.1,375.6,414.3,375.1,413.6,374.5z"/>
			<path class="st20" d="M455.7,262.8c-0.1,2.1-0.8,3.9-2.4,4.8c-1.9,1-4.3,2-6.5,2c-3.5,0.1-9.2-0.9-9.1-5.2c0-0.5,0.1-2.4,0.1-4.7
				c0.1-1.9,0.2-4.1,0.3-6c0.2-2.6,0.4-4.6,0.6-4.7c1.3-0.6,3.1-0.3,4.1,0.9c0.3,0,0.5,0.1,0.8,0.2c0.5,0.2,0.9,0.6,1.3,1l0.1,0
				c0.4-0.2,0.8-0.2,1.2-0.3c0.7-0.7,1.8-1,2.8-0.8c1-0.4,2.2-0.5,3.1,0c-0.2-0.1,0.1-0.9,0.4-1.2c0.3,1.8,0.7,3.6,1.1,5.3
				C454.1,257.1,454.9,260,455.7,262.8z"/>
			<path class="st22" d="M453.5,254.2c-5.6,9.8-12.8,7.1-15.6,5.5c0.1-1.9,0.2-4.1,0.3-6c0.6-0.4,2.8-2,5.5-3.7
				c0.5,0.2,0.9,0.6,1.3,1l0.1,0c0.4-0.2,0.8-0.2,1.2-0.3c0.7-0.7,1.8-1,2.8-0.8c1-0.4,2.2-0.5,3.1,0c-0.2-0.1,0.1-0.9,0.4-1.2
				C452.8,250.7,453.1,252.5,453.5,254.2z"/>
			<linearGradient id="SVGID_25_" gradientUnits="userSpaceOnUse" x1="435.6232" y1="415.4757" x2="386.4412" y2="415.4757">
				<stop  offset="8.527380e-02" style="stop-color:#4432F6"/>
				<stop  offset="0.5999" style="stop-color:#4236F3"/>
				<stop  offset="0.8795" style="stop-color:#2394B1"/>
				<stop  offset="1" style="stop-color:#4AADAF"/>
			</linearGradient>
			<path class="st39" d="M435.6,389.1c-0.9-0.4-1.8-0.7-2.7-1.1c-5.8-2.5-11.4-5.4-16.8-8.9c-10.7,23.9-23.2,51.1-29.7,63
				c-0.7,1.4,11,9.4,15.7,9.7c2.4,0.2,3.6-2.9,4.5-5C408.2,443.4,422.2,415.2,435.6,389.1z"/>
			<linearGradient id="SVGID_26_" gradientUnits="userSpaceOnUse" x1="471.4249" y1="361.0355" x2="416.1314" y2="361.0355">
				<stop  offset="8.527380e-02" style="stop-color:#4432F6"/>
				<stop  offset="0.5999" style="stop-color:#4236F3"/>
				<stop  offset="0.8795" style="stop-color:#2394B1"/>
				<stop  offset="1" style="stop-color:#4AADAF"/>
			</linearGradient>
			<path class="st40" d="M442.1,353.4c0.2,3.2-6.6,7.7-4.2,9.3c0,1.8-21.8,11.6-21.7,16.4c1.8,10,17.5,9.5,19.5,10
				c37.4-11,35.1-22.2,35.6-24.9c0.9-5.7-0.8-11.6-1.8-17.3c-0.4-2.4-0.9-5.5-2.5-7.3c0-0.1,0-0.3,0-0.4c0-0.4,0-0.7,0.1-1.1
				c0.1-0.8-0.2-1.5-0.5-2c0-1.9-1.4-3.7-3.6-3c-5.5,1.7-10.6,4.3-15,8c-0.5-3.5-5.9-3.5-6,0.4c-0.1,3,0.1,6,0.5,8.9
				C442.3,352.8,441.9,351.1,442.1,353.4z"/>
			<linearGradient id="SVGID_27_" gradientUnits="userSpaceOnUse" x1="471.2512" y1="351.2933" x2="430.8841" y2="351.2933">
				<stop  offset="8.527380e-02" style="stop-color:#4432F6"/>
				<stop  offset="0.5999" style="stop-color:#4236F3"/>
				<stop  offset="0.8795" style="stop-color:#2394B1"/>
				<stop  offset="1" style="stop-color:#4AADAF"/>
			</linearGradient>
			<path class="st41" d="M471.3,357.7c0,0-29.5,7.5-39.7-1.5c-5-4.4,19.6-14.1,19.6-14.1l18.3,4.9L471.3,357.7z"/>
			<path class="st31" d="M436,262c0.3,0.1,0.6,0.2,0.8,0.4c0.6,0.3,0.8,0.8,0.8,1.3c1,1.5,3,3.2,7.5,3.4c8.1,0.5,10.5-4.4,10.5-4.4
				l0.2,0.1c0.4-0.2,0.8-0.3,1.3-0.1c3.6,1.2,7.6,1.7,11.2,3.3c0.1,0,0.1,0.1,0.2,0.1c0.9,0.3,1.9,0.6,2.8,1
				c2,0.8-5.3,31.8-5.2,33.4c0.2,4.6,0.7,9.3,1.1,13.9c0.4,5.2,0.6,10.5,1.2,15.8c0.1,1.1,0.2,2.3,0.3,3.4c0.5,2.1,0.5,7.6-0.1,9.8
				c-0.5,1.9-1.5,0.5-2.8,1.9c-1.2,1.3-14.3,2.9-20,3.3c-5.7,0.4-11.7,1.3-15.7-3.2c-2.3-2.6-4-2.9-4.7-6.3
				c-0.9-4.2,1.9-30.9,1.9-32.9c0-3.9,0.3-8.3-0.2-12.3C427.1,283.8,421.5,261.6,436,262z"/>
			<linearGradient id="SVGID_28_" gradientUnits="userSpaceOnUse" x1="476.2892" y1="310.5743" x2="440.9732" y2="310.5743">
				<stop  offset="8.527380e-02" style="stop-color:#4432F6"/>
				<stop  offset="0.5999" style="stop-color:#4236F3"/>
				<stop  offset="0.8795" style="stop-color:#2394B1"/>
				<stop  offset="1" style="stop-color:#4AADAF"/>
			</linearGradient>
			<path class="st42" d="M460.6,263.7c0,0-15.6,34.8-15.6,37.7c-0.1,2.5-3.2,39-4,48c-0.1,1.1,0.7,8.1,1.8,8
				c5.8-0.2,24.7,0.1,28.4-3.2c-1-16.8-2-55.1-2-55.1s10.2-30.7,6.3-32C464.7,263.7,460.6,263.7,460.6,263.7z"/>
			<linearGradient id="SVGID_29_" gradientUnits="userSpaceOnUse" x1="465.3937" y1="285.8256" x2="444.3174" y2="285.8256">
				<stop  offset="8.527380e-02" style="stop-color:#4432F6"/>
				<stop  offset="0.5999" style="stop-color:#4236F3"/>
				<stop  offset="0.8795" style="stop-color:#2394B1"/>
				<stop  offset="1" style="stop-color:#4AADAF"/>
			</linearGradient>
			<path class="st43" d="M446.1,296.8l11.1-34l7.5,1c0.6,0.2,0.9,0.8,0.6,1.4l-21,43.7l0.6-6.8C445,300.2,445.4,298.4,446.1,296.8z"
				/>
			<linearGradient id="SVGID_30_" gradientUnits="userSpaceOnUse" x1="439.8859" y1="309.432" x2="387.639" y2="309.432">
				<stop  offset="8.527380e-02" style="stop-color:#4432F6"/>
				<stop  offset="0.5999" style="stop-color:#4236F3"/>
				<stop  offset="0.8795" style="stop-color:#2394B1"/>
				<stop  offset="1" style="stop-color:#4AADAF"/>
			</linearGradient>
			<path class="st44" d="M436,262c0,0-10.1,0.9-14.2,7.1c-4.1,6.2-10.3,45.5-10.3,45.5l-23.9,5.8l1.6,14.5c0,0,30.7-4.7,33.1-7.6
				c2.4-2.9,4.4-19.6,4.4-19.6l-2.4,43.5c0,0,11.3,7.9,12.7,4.9c1.4-3,2.8-55.1,2.8-55.1L436,262z"/>
			<linearGradient id="SVGID_31_" gradientUnits="userSpaceOnUse" x1="439.9207" y1="284.5816" x2="428.1418" y2="284.5816">
				<stop  offset="8.527380e-02" style="stop-color:#4432F6"/>
				<stop  offset="0.5999" style="stop-color:#4236F3"/>
				<stop  offset="0.8795" style="stop-color:#2394B1"/>
				<stop  offset="1" style="stop-color:#4AADAF"/>
			</linearGradient>
			<path class="st45" d="M439.7,307.1l0.2-7.5L436,262c0,0-4.8,0-7.9,1.4C431.3,276.2,439.7,307.1,439.7,307.1z"/>
			<polygon class="st28" points="443,267.1 454.8,259.4 457.2,262.8 446.5,272.7 			"/>
			<polygon class="st28" points="443,267.1 440.1,271.9 436,262 437.3,259.8 			"/>
			<g>
				<g>
					<path class="st36" d="M460.8,211.8c-2.8-2.6-6.8-4.4-9.9-1.4c-1.5,1.4,0.7,3.8,2.2,2.4c1.3-1.2,2.9-0.8,4.3,0.3
						c-0.7,0.2-1.3,0.9-1,1.9c0.6,2.4,1.7,4.5,2,7c0.1,1,0.9,1.4,1.7,1.2c-0.3,1.6-0.8,3.2-1.1,4.7c-0.8,3.4-1.6,7-3.4,10
						c-0.6,1-1.2,2-1.8,3.1c-0.4,0.7-1.1,1.7-1,2.5c0.2,2,3.1,2.2,3.2,0.3c0,0,0,0,0-0.1c0-0.1,0-0.1,0-0.2c0,0.1,0,0.1,0,0.2
						c0,0,0-0.1,0-0.1c0.1-0.3,0.3-0.5,0.4-0.8c0.4-0.7,0.8-1.3,1.2-2c0.7-1.1,1.3-2.3,1.8-3.5c1.9-4.8,3.1-9.9,3.9-15
						C463.9,218.6,463.6,214.5,460.8,211.8z"/>
					<path class="st36" d="M455.9,243.8C455.9,243.8,455.9,243.7,455.9,243.8C455.9,243.7,455.9,243.8,455.9,243.8z"/>
				</g>
				<path class="st36" d="M455.9,243.7C455.9,243.7,455.9,243.7,455.9,243.7L455.9,243.7C455.9,243.7,455.9,243.7,455.9,243.7z"/>
			</g>
			<path class="st20" d="M456.3,240.9c0.5-1.5,1.6-1.2,2.4-2c1.6-1.6,2.8-4.9,1.9-7.2c-0.7-1.8-2.3-3.1-4.2-2.8
				c-0.1,0-0.2,0-0.3,0.1c0.1-0.9,0.3-1.9,0.6-2.8c0-1.1,0-2.1,0-3.2c-0.2-0.5-0.4-0.9-0.7-1.4c-1.3-2.4-4.9-3.5-7.4-3.7
				c-6.4-0.6-13.2,2.8-19.1-0.9c-0.1,0.3-0.2,0.6-0.3,1c-0.8,5.7,0.5,11.8,1.1,17.4c0.1,1.5,0.2,2.9,0.3,4.4
				c0.2,1.4,0.3,2.8,0.4,4.2c0,0,0,0,0,0c0.4,2.7,1,5.2,2.4,7.6c0.3,1.1,0.6,2.2,1.1,3c1.4,2.6,4.4,2.8,6.9,2.9c2.5,0.1,5.1,0,7-1.9
				c1.8-1.8,3.5-4.2,4.9-6.4C455.1,246.9,455.4,243.9,456.3,240.9z"/>
			<linearGradient id="SVGID_32_" gradientUnits="userSpaceOnUse" x1="456.942" y1="366.7658" x2="435.6232" y2="366.7658">
				<stop  offset="8.527380e-02" style="stop-color:#4432F6"/>
				<stop  offset="0.5999" style="stop-color:#4236F3"/>
				<stop  offset="0.8795" style="stop-color:#2394B1"/>
				<stop  offset="1" style="stop-color:#4AADAF"/>
			</linearGradient>
			<polygon class="st46" points="435.6,364.6 442,373.4 456.9,360.1 437.9,362.7 			"/>
			<path class="st36" d="M458.2,222.1c-0.3-0.8-0.9-1.5-1.7-1.7c-1.4-0.5-2.6,0.4-3.1,1.8c-1.6,3.8,0.1,6.7,1.5,9.8
				c0.8,1.9,0,2.7-0.3,4.4c-0.1,0.6,0.4,3.7,1.8,2c0.9-1.1,1.7-2.4,2.1-3.6c0.9-3,4.4-13.2,4.4-13.2L458.2,222.1z"/>
			<polygon class="st28" points="443,267.1 439.5,348.9 441,349.4 444.3,268.1 			"/>
			<path class="st20" d="M438.4,366.8c0-0.3,0-0.5-0.2-0.7c0.9-1.3,0.6-3.1-1.6-3.4c-3.2-0.5-7,0.4-10.1,1.3c-1.1,0.3-2,0.8-2.8,1.3
				c-2.4,0.8-4.7,2.1-6.4,3.9c-1.9,2.1-1.9,4.5-2.9,7c-0.2,0.3-0.3,0.6-0.4,1c-0.3,0.9,0.7,1.6,1.5,1.5c0,0,0.3,0.6,0.4,0.6
				c0.4,0.3,0.3,0.3,0.9,0.3c0.9,0.1,2-0.3,2.8-0.6c-1.5,0.6,0.7,3.2,1.9,1.5c2.1-2.9,9.3-5.6,9.3-5.7c1.4-0.5,2.6-1.2,3.8-2.1
				c0,0,0,0,0.1-0.1c0.9-0.4,1.8-0.9,2.5-1.6c0.6-0.5,1.1-1.1,1.4-1.9C438.8,368.3,438.3,367.6,438.4,366.8z"/>
			<polygon class="st31" points="435.8,359.9 432.8,362.2 438,369.8 441.6,366.8 			"/>
			<linearGradient id="SVGID_33_" gradientUnits="userSpaceOnUse" x1="479.4163" y1="318.9882" x2="432.7479" y2="318.9882">
				<stop  offset="8.527380e-02" style="stop-color:#4432F6"/>
				<stop  offset="0.5999" style="stop-color:#4236F3"/>
				<stop  offset="0.8795" style="stop-color:#2394B1"/>
				<stop  offset="1" style="stop-color:#4AADAF"/>
			</linearGradient>
			<path class="st47" d="M476.3,267.8c0,0,7,11.9,0,61.7c-0.8,5.7-34.4,40.6-34.4,40.6l-9.2-12.7l28.2-32.5l5.9-31.5L476.3,267.8z"
				/>
			<linearGradient id="SVGID_34_" gradientUnits="userSpaceOnUse" x1="466.8863" y1="320.1723" x2="441.9207" y2="320.1723">
				<stop  offset="8.527380e-02" style="stop-color:#4432F6"/>
				<stop  offset="0.5999" style="stop-color:#4236F3"/>
				<stop  offset="0.8795" style="stop-color:#2394B1"/>
				<stop  offset="1" style="stop-color:#4AADAF"/>
			</linearGradient>
			<polygon class="st48" points="466.9,293.4 458.6,324.9 441.9,346.9 461,326.5 			"/>
		</g>
		<rect x="54.1" y="330.4" class="st36" width="376.3" height="13"/>
		<rect x="68" y="342.6" class="st30" width="348.7" height="8.5"/>
		<polygon class="st36" points="63,449.8 55.4,449.8 72.8,351.1 86.2,351.1 		"/>
		<polygon class="st36" points="421.4,449.8 429,449.8 411.6,351.1 398.2,351.1 		"/>
	</g>
</g>
</svg>
