<?xml version="1.0" encoding="utf-8"?>
<!-- Generator: Adobe Illustrator 21.1.0, SVG Export Plug-In . SVG Version: 6.00 Build 0)  -->
<svg version="1.1" id="Layer_1" xmlns="http://www.w3.org/2000/svg" xmlns:xlink="http://www.w3.org/1999/xlink" x="0px" y="0px"
	 viewBox="0 0 500 500" style="enable-background:new 0 0 500 500;" xml:space="preserve">
<style type="text/css">
	.st0{fill:url(#SVGID_1_);}
	.st1{fill:url(#SVGID_2_);}
	.st2{fill:url(#SVGID_3_);}
	.st3{fill:url(#SVGID_4_);}
	.st4{fill:url(#SVGID_5_);}
	.st5{fill:url(#SVGID_6_);}
	.st6{fill:url(#SVGID_7_);}
	.st7{fill:url(#SVGID_8_);}
	.st8{fill:url(#SVGID_9_);}
	.st9{fill:url(#SVGID_10_);}
	.st10{fill:url(#SVGID_11_);}
	.st11{fill:url(#SVGID_12_);}
	.st12{fill:url(#SVGID_13_);}
	.st13{fill:url(#SVGID_14_);}
	.st14{fill:url(#SVGID_15_);}
	.st15{fill:url(#SVGID_16_);}
	.st16{fill:#FFFFFF;}
</style>
<g>
	<g>
		<g>
			<g>
				<g>
					
						<linearGradient id="SVGID_1_" gradientUnits="userSpaceOnUse" x1="281.5782" y1="-64.8455" x2="381.8323" y2="-64.8455" gradientTransform="matrix(0.746 0.6659 -0.6659 0.746 90.1339 165.8138)">
						<stop  offset="0.3889" style="stop-color:#2394B1"/>
						<stop  offset="1" style="stop-color:#4AADAF"/>
					</linearGradient>
					<path class="st0" d="M400.4,390.7c-30.7,34.4-71,57.2-115.5,65.8c0,0.2,0.1,0.4,0.1,0.6c44.6-8.6,85-31.5,115.8-66
						c37.2-41.6,55.9-95.3,52.7-151c-0.9-16.7-3.8-32.9-8.5-48.5c-0.2,0-0.4,0.1-0.6,0.1c4.7,15.6,7.6,31.8,8.5,48.5
						C456.2,295.7,437.5,349.2,400.4,390.7z"/>
					
						<linearGradient id="SVGID_2_" gradientUnits="userSpaceOnUse" x1="-36.1422" y1="-28.2722" x2="9.0348" y2="-28.2722" gradientTransform="matrix(0.746 0.6659 -0.6659 0.746 90.1339 165.8138)">
						<stop  offset="0.3889" style="stop-color:#2394B1"/>
						<stop  offset="1" style="stop-color:#4AADAF"/>
					</linearGradient>
					<path class="st1" d="M183.4,52.8c-0.1-0.2-0.2-0.4-0.3-0.5c-36,11.1-68.4,31.7-94.1,60.5c-31.5,35.3-49.8,79.3-52.7,125.8
						c0.2,0.1,0.4,0.2,0.6,0.4c2.8-46.5,21-90.5,52.5-125.8C115.1,84.4,147.5,63.8,183.4,52.8z"/>
					
						<linearGradient id="SVGID_3_" gradientUnits="userSpaceOnUse" x1="27.7723" y1="-217.6974" x2="149.3233" y2="-217.6974" gradientTransform="matrix(0.746 0.6659 -0.6659 0.746 90.1339 165.8138)">
						<stop  offset="0.3889" style="stop-color:#2394B1"/>
						<stop  offset="1" style="stop-color:#4AADAF"/>
					</linearGradient>
					<path class="st2" d="M365.7,81.3c-37.5-26.6-82.3-40-128.8-38.2c0,0.2,0,0.4,0.1,0.6c46.3-1.8,91,11.6,128.3,38.1
						C365.4,81.6,365.6,81.5,365.7,81.3z"/>
					
						<linearGradient id="SVGID_4_" gradientUnits="userSpaceOnUse" x1="151.3193" y1="161.2218" x2="256.3071" y2="161.2218" gradientTransform="matrix(0.746 0.6659 -0.6659 0.746 90.1339 165.8138)">
						<stop  offset="0.3889" style="stop-color:#2394B1"/>
						<stop  offset="1" style="stop-color:#4AADAF"/>
					</linearGradient>
					<path class="st3" d="M106.2,407.4c-5.4-4.8-10.5-9.9-15.3-15.2c-0.1,0.2-0.2,0.3-0.4,0.5c4.8,5.3,9.9,10.3,15.3,15.1
						c21.8,19.4,46.8,33.8,73.8,42.7c0.1-0.2,0.1-0.4,0.2-0.6C152.9,441.1,127.9,426.8,106.2,407.4z"/>
				</g>
				<g>
					<linearGradient id="SVGID_5_" gradientUnits="userSpaceOnUse" x1="125.6965" y1="27.1366" x2="217.1717" y2="27.1366">
						<stop  offset="0.3889" style="stop-color:#2394B1"/>
						<stop  offset="1" style="stop-color:#4AADAF"/>
					</linearGradient>
					<path class="st4" d="M125.9,42.7c27.9-16.2,58.8-26.6,91.2-30.5c-0.2-0.2-0.4-0.4-0.6-0.6c-32.3,3.9-63,14.3-90.8,30.4
						C125.8,42.3,125.9,42.5,125.9,42.7z"/>
					<linearGradient id="SVGID_6_" gradientUnits="userSpaceOnUse" x1="6.4204" y1="225.7377" x2="48.5775" y2="225.7377">
						<stop  offset="0.3889" style="stop-color:#2394B1"/>
						<stop  offset="1" style="stop-color:#4AADAF"/>
					</linearGradient>
					<path class="st5" d="M23.8,337.1c-10.9-27.6-16.7-57.4-16.7-88c0-48.7,14.5-95.2,41.5-134.5c-0.2-0.1-0.4-0.2-0.6-0.3
						c-27,39.4-41.5,86-41.5,134.8c0,30.6,5.7,60.4,16.7,88C23.3,337.1,23.5,337.1,23.8,337.1z"/>
					<linearGradient id="SVGID_7_" gradientUnits="userSpaceOnUse" x1="335.2058" y1="126.7418" x2="483.8886" y2="126.7418">
						<stop  offset="0.3889" style="stop-color:#2394B1"/>
						<stop  offset="1" style="stop-color:#4AADAF"/>
					</linearGradient>
					<path class="st6" d="M414.9,79.9c-23.1-23.1-50.1-40.9-79.6-52.8c0,0.2-0.1,0.5-0.1,0.7c29.3,11.8,56.2,29.6,79.2,52.6
						c39.7,39.7,63.6,90.8,68.8,145.9c0.2,0,0.4,0,0.7-0.1C478.7,171,454.7,119.7,414.9,79.9z"/>
					<linearGradient id="SVGID_8_" gradientUnits="userSpaceOnUse" x1="163.9445" y1="458.6018" x2="403.1986" y2="458.6018">
						<stop  offset="0.3889" style="stop-color:#2394B1"/>
						<stop  offset="1" style="stop-color:#4AADAF"/>
					</linearGradient>
					<path class="st7" d="M402.7,428.8c-43.5,38.1-98.6,58.9-157,58.9c-28.3,0-55.8-4.9-81.6-14.3c0,0.2-0.1,0.4-0.1,0.7
						c25.9,9.4,53.4,14.3,81.7,14.3c58.6,0,113.9-20.9,157.5-59.2C403,429.1,402.9,429,402.7,428.8z"/>
				</g>
			</g>
		</g>
		<linearGradient id="SVGID_9_" gradientUnits="userSpaceOnUse" x1="63.1742" y1="250.6869" x2="427.1348" y2="250.6869">
			<stop  offset="0" style="stop-color:#27ECB8"/>
			<stop  offset="1" style="stop-color:#99D7B4"/>
		</linearGradient>
		<path class="st8" d="M64.2,248.7c0,0,0,84.8,70,142.1c98.4,80.5,210.9,47.9,271.4-59.4c45.7-81,15.6-188.6-62.9-233.9
			C265.6,53,158.9,47.8,102.4,130C102.4,130,55.7,197.8,64.2,248.7z"/>
		<g>
			<g>
				<g>
					
						<linearGradient id="SVGID_10_" gradientUnits="userSpaceOnUse" x1="-1205.2794" y1="-367.6346" x2="-1194.8931" y2="-367.6346" gradientTransform="matrix(0 1 -1 0 120.5762 1315.5889)">
						<stop  offset="0" style="stop-color:#27ECB8"/>
						<stop  offset="1" style="stop-color:#A2D4CC"/>
					</linearGradient>
					<path class="st9" d="M482.8,115.5c0,6.9,10.7,6.9,10.7,0S482.8,108.6,482.8,115.5L482.8,115.5z"/>
				</g>
			</g>
			<g>
				<g>
					
						<linearGradient id="SVGID_11_" gradientUnits="userSpaceOnUse" x1="-1176.9493" y1="-348.2689" x2="-1150.9983" y2="-348.2689" gradientTransform="matrix(0 1 -1 0 120.5762 1315.5889)">
						<stop  offset="0" style="stop-color:#27ECB8"/>
						<stop  offset="1" style="stop-color:#99D7B4"/>
					</linearGradient>
					<path class="st10" d="M455.4,151.6c0,17.3,26.8,17.3,26.8,0C482.3,134.3,455.4,134.3,455.4,151.6L455.4,151.6z"/>
				</g>
			</g>
			<g>
				<g>
					
						<linearGradient id="SVGID_12_" gradientUnits="userSpaceOnUse" x1="-1281.2883" y1="72.6057" x2="-1250.1295" y2="72.6057" gradientTransform="matrix(0 1 -1 0 120.5762 1315.5889)">
						<stop  offset="0" style="stop-color:#27ECB8"/>
						<stop  offset="1" style="stop-color:#A2D4CC"/>
					</linearGradient>
					<path class="st11" d="M31.9,49.9c0,20.8,32.2,20.8,32.2,0S31.9,29.1,31.9,49.9L31.9,49.9z"/>
				</g>
			</g>
			<g>
				<g>
					
						<linearGradient id="SVGID_13_" gradientUnits="userSpaceOnUse" x1="-1041.9823" y1="92.1933" x2="-1021.0997" y2="92.1933" gradientTransform="matrix(0 1 -1 0 120.5762 1315.5889)">
						<stop  offset="8.527380e-02" style="stop-color:#4432F6"/>
						<stop  offset="0.301" style="stop-color:#423BEB"/>
						<stop  offset="0.682" style="stop-color:#3B53CD"/>
						<stop  offset="1" style="stop-color:#356BAF"/>
					</linearGradient>
					<path class="st12" d="M17.6,284c0,13.9,21.6,13.9,21.6,0C39.2,270.1,17.6,270.1,17.6,284L17.6,284z"/>
				</g>
			</g>
			<g>
				<g>
					
						<linearGradient id="SVGID_14_" gradientUnits="userSpaceOnUse" x1="-880.9188" y1="24.1887" x2="-860.0361" y2="24.1887" gradientTransform="matrix(0 1 -1 0 120.5762 1315.5889)">
						<stop  offset="8.527380e-02" style="stop-color:#4432F6"/>
						<stop  offset="0.301" style="stop-color:#423BEB"/>
						<stop  offset="0.682" style="stop-color:#3B53CD"/>
						<stop  offset="1" style="stop-color:#356BAF"/>
					</linearGradient>
					<path class="st13" d="M85.6,445.1c0,13.9,21.6,13.9,21.6,0C107.2,431.2,85.6,431.2,85.6,445.1L85.6,445.1z"/>
				</g>
			</g>
			<g>
				<g>
					
						<linearGradient id="SVGID_15_" gradientUnits="userSpaceOnUse" x1="-900.9578" y1="53.5807" x2="-891.6227" y2="53.5807" gradientTransform="matrix(0 1 -1 0 120.5762 1315.5889)">
						<stop  offset="8.527380e-02" style="stop-color:#4432F6"/>
						<stop  offset="0.301" style="stop-color:#423BEB"/>
						<stop  offset="0.682" style="stop-color:#3B53CD"/>
						<stop  offset="1" style="stop-color:#356BAF"/>
					</linearGradient>
					<path class="st14" d="M62.2,419.3c0,6.2,9.6,6.2,9.6,0C71.8,413.1,62.2,413.1,62.2,419.3L62.2,419.3z"/>
				</g>
			</g>
			<g>
				
					<linearGradient id="SVGID_16_" gradientUnits="userSpaceOnUse" x1="-948.3187" y1="-362.2798" x2="-937.9326" y2="-362.2798" gradientTransform="matrix(0 1 -1 0 120.5762 1315.5889)">
					<stop  offset="0" style="stop-color:#27ECB8"/>
					<stop  offset="1" style="stop-color:#99D7B4"/>
				</linearGradient>
				<path class="st15" d="M477.5,372.5c0,6.9,10.7,6.9,10.7,0C488.2,365.5,477.5,365.5,477.5,372.5L477.5,372.5z"/>
			</g>
		</g>
	</g>
	<g>
		<path class="st16" d="M344,342.8l-39-70.2l-13.4,24l-39.3-70.8v-30.7h49.1l-7.7-20.8l7.7-20.8h-56.2v3.6v38v26.4
			c-8.1-12.6-22.3-20.5-37.6-20.5c-24.7,0-44.7,20.1-44.7,44.7c0,12.6,5.2,24.4,14.4,32.8l-35.6,64.2h-9.8v7.1h221.9v-7.1H344z
			 M291.2,188.1h-38.9v-27.3h38.9l-5,13.6L291.2,188.1z M305,287.3l30.8,55.5h-18.5L295.8,304L305,287.3z M248.8,234.1l19.4,34.8
			l-7.5,7.5l-11.9-11.9l-11.9,11.9l-7.5-7.5L248.8,234.1z M170,245.8c0-20.7,16.9-37.6,37.6-37.6c15.1,0,28.8,9.2,34.6,23l-28.9,52
			L194,248.5l-13.2,23.7C174,265.2,170,255.8,170,245.8z M194,263.2l15.2,27.4l-12.8,23.1l6.2,3.5l23.2-41.7l11.1,11.1l11.9-11.9
			l11.9,11.9l11.1-11.1l37.4,67.4H149.8L194,263.2z"/>
		<rect x="272.8" y="226.5" class="st16" width="20.8" height="7.1"/>
		<rect x="283.3" y="203.7" class="st16" width="29.5" height="7.1"/>
		<rect x="321" y="203.7" class="st16" width="11.6" height="7.1"/>
	</g>
</g>
</svg>
