<?xml version="1.0" encoding="utf-8"?>
<!-- Generator: Adobe Illustrator 21.1.0, SVG Export Plug-In . SVG Version: 6.00 Build 0)  -->
<svg version="1.1" id="Layer_1" xmlns="http://www.w3.org/2000/svg" xmlns:xlink="http://www.w3.org/1999/xlink" x="0px" y="0px"
	 viewBox="0 0 500 500" style="enable-background:new 0 0 500 500;" xml:space="preserve">
<style type="text/css">
	.st0{fill:url(#SVGID_1_);}
	.st1{fill:url(#SVGID_2_);}
	.st2{fill:url(#SVGID_3_);}
	.st3{fill:url(#SVGID_4_);}
	.st4{fill:url(#SVGID_5_);}
	.st5{fill:url(#SVGID_6_);}
	.st6{fill:url(#SVGID_7_);}
	.st7{fill:url(#SVGID_8_);}
	.st8{fill:url(#SVGID_9_);}
	.st9{fill:url(#SVGID_10_);}
	.st10{fill:url(#SVGID_11_);}
	.st11{fill:url(#SVGID_12_);}
	.st12{fill:url(#SVGID_13_);}
	.st13{fill:url(#SVGID_14_);}
	.st14{fill:url(#SVGID_15_);}
	.st15{fill:url(#SVGID_16_);}
	.st16{fill:#FFFFFF;}
</style>
<g>
	<g>
		<g>
			<g>
				<g>
					
						<linearGradient id="SVGID_1_" gradientUnits="userSpaceOnUse" x1="-361.9988" y1="691.5734" x2="-263.149" y2="691.5734" gradientTransform="matrix(-0.6659 0.746 -0.746 -0.6659 470.6862 1072.6339)">
						<stop  offset="0.3889" style="stop-color:#2394B1"/>
						<stop  offset="1" style="stop-color:#4AADAF"/>
					</linearGradient>
					<path class="st0" d="M111.3,398.3c-33.9-30.3-56.4-70-64.8-113.9c-0.2,0-0.4,0.1-0.6,0.1c8.5,44,31,83.8,65,114.2
						c41.1,36.7,93.9,55.1,148.9,52c16.4-0.9,32.5-3.8,47.9-8.4c0-0.2-0.1-0.4-0.1-0.6c-15.4,4.6-31.4,7.5-47.8,8.4
						C204.9,453.3,152.2,434.8,111.3,398.3z"/>
					
						<linearGradient id="SVGID_2_" gradientUnits="userSpaceOnUse" x1="-675.2692" y1="727.6344" x2="-630.725" y2="727.6344" gradientTransform="matrix(-0.6659 0.746 -0.746 -0.6659 470.6862 1072.6339)">
						<stop  offset="0.3889" style="stop-color:#2394B1"/>
						<stop  offset="1" style="stop-color:#4AADAF"/>
					</linearGradient>
					<path class="st1" d="M444.5,184.3c0.2-0.1,0.4-0.2,0.5-0.3c-10.9-35.5-31.3-67.4-59.7-92.7c-34.8-31.1-78.2-49.1-124.1-51.9
						c-0.1,0.2-0.2,0.4-0.4,0.6c45.9,2.8,89.2,20.7,124,51.8C413.3,117,433.6,148.9,444.5,184.3z"/>
					
						<linearGradient id="SVGID_3_" gradientUnits="userSpaceOnUse" x1="-612.2499" y1="540.8623" x2="-492.4014" y2="540.8623" gradientTransform="matrix(-0.6659 0.746 -0.746 -0.6659 470.6862 1072.6339)">
						<stop  offset="0.3889" style="stop-color:#2394B1"/>
						<stop  offset="1" style="stop-color:#4AADAF"/>
					</linearGradient>
					<path class="st2" d="M416.3,364.1c26.2-36.9,39.5-81.2,37.7-127c-0.2,0-0.4,0-0.6,0.1c1.8,45.7-11.4,89.7-37.5,126.5
						C416,363.8,416.2,363.9,416.3,364.1z"/>
					
						<linearGradient id="SVGID_4_" gradientUnits="userSpaceOnUse" x1="-490.4333" y1="914.4743" x2="-386.916" y2="914.4743" gradientTransform="matrix(-0.6659 0.746 -0.746 -0.6659 470.6862 1072.6339)">
						<stop  offset="0.3889" style="stop-color:#2394B1"/>
						<stop  offset="1" style="stop-color:#4AADAF"/>
					</linearGradient>
					<path class="st3" d="M94.8,108.2c4.8-5.3,9.7-10.4,14.9-15.1c-0.2-0.1-0.3-0.2-0.5-0.4c-5.2,4.7-10.2,9.8-14.9,15.1
						C75.2,129.3,61,154,52.3,180.5c0.2,0.1,0.4,0.1,0.6,0.2C61.6,154.2,75.7,129.6,94.8,108.2z"/>
				</g>
				<g>
					
						<linearGradient id="SVGID_5_" gradientUnits="userSpaceOnUse" x1="-855.0624" y1="166.7581" x2="-764.8685" y2="166.7581" gradientTransform="matrix(0 1 -1 0 636.5 982.5)">
						<stop  offset="0.3889" style="stop-color:#2394B1"/>
						<stop  offset="1" style="stop-color:#4AADAF"/>
					</linearGradient>
					<path class="st4" d="M454.4,127.7c16,27.5,26.3,58,30,90c0.2-0.2,0.4-0.4,0.6-0.6c-3.8-31.8-14.1-62.2-30-89.6
						C454.8,127.5,454.6,127.6,454.4,127.7z"/>
					
						<linearGradient id="SVGID_6_" gradientUnits="userSpaceOnUse" x1="-972.668" y1="362.5776" x2="-931.1013" y2="362.5776" gradientTransform="matrix(0 1 -1 0 636.5 982.5)">
						<stop  offset="0.3889" style="stop-color:#2394B1"/>
						<stop  offset="1" style="stop-color:#4AADAF"/>
					</linearGradient>
					<path class="st5" d="M164.1,26.9c27.2-10.8,56.6-16.5,86.7-16.5c48,0,93.9,14.3,132.7,40.9c0.1-0.2,0.2-0.4,0.3-0.6
						C344.9,24.2,299,9.8,250.9,9.8c-30.2,0-59.5,5.7-86.8,16.4C164.1,26.5,164.1,26.7,164.1,26.9z"/>
					
						<linearGradient id="SVGID_7_" gradientUnits="userSpaceOnUse" x1="-648.4876" y1="264.9682" x2="-501.8873" y2="264.9682" gradientTransform="matrix(0 1 -1 0 636.5 982.5)">
						<stop  offset="0.3889" style="stop-color:#2394B1"/>
						<stop  offset="1" style="stop-color:#4AADAF"/>
					</linearGradient>
					<path class="st6" d="M417.7,412.6c22.8-22.8,40.3-49.4,52.1-78.5c-0.2,0-0.5-0.1-0.7-0.1c-11.7,28.9-29.2,55.4-51.8,78.1
						c-39.1,39.1-89.5,62.7-143.9,67.8c0,0.2,0,0.4,0.1,0.7C327.9,475.5,378.5,451.8,417.7,412.6z"/>
					
						<linearGradient id="SVGID_8_" gradientUnits="userSpaceOnUse" x1="-817.3502" y1="592.1801" x2="-581.4471" y2="592.1801" gradientTransform="matrix(0 1 -1 0 636.5 982.5)">
						<stop  offset="0.3889" style="stop-color:#2394B1"/>
						<stop  offset="1" style="stop-color:#4AADAF"/>
					</linearGradient>
					<path class="st7" d="M73.7,400.5c-37.6-42.9-58.1-97.3-58.1-154.8c0-27.9,4.8-55,14.1-80.5c-0.2,0-0.4-0.1-0.7-0.1
						c-9.2,25.5-14.1,52.7-14.1,80.6c0,57.7,20.6,112.3,58.3,155.3C73.4,400.9,73.6,400.7,73.7,400.5z"/>
				</g>
			</g>
		</g>
		<linearGradient id="SVGID_9_" gradientUnits="userSpaceOnUse" x1="66.899" y1="245.2224" x2="431.7465" y2="245.2224">
			<stop  offset="8.527380e-02" style="stop-color:#4432F6"/>
			<stop  offset="0.301" style="stop-color:#423BEB"/>
			<stop  offset="0.682" style="stop-color:#3B53CD"/>
			<stop  offset="1" style="stop-color:#356BAF"/>
		</linearGradient>
		<path class="st8" d="M251.3,66.8c0,0-83.6,0-140.1,69c-79.3,97-47.3,207.9,58.6,267.6c79.8,45,185.9,15.4,230.6-62
			c43.9-76.1,49-181.3-32-237C368.4,104.4,301.4,58.4,251.3,66.8z"/>
		<g>
			<g>
				<g>
					
						<linearGradient id="SVGID_10_" gradientUnits="userSpaceOnUse" x1="-1066.8229" y1="618.2018" x2="-1056.5819" y2="618.2018" gradientTransform="matrix(-1 0 0 -1 -679.0889 1103.0762)">
						<stop  offset="0" style="stop-color:#27ECB8"/>
						<stop  offset="1" style="stop-color:#A2D4CC"/>
					</linearGradient>
					<path class="st9" d="M382.6,479.6c-6.8,0-6.8,10.6,0,10.6C389.4,490.2,389.4,479.6,382.6,479.6L382.6,479.6z"/>
				</g>
			</g>
			<g>
				<g>
					
						<linearGradient id="SVGID_11_" gradientUnits="userSpaceOnUse" x1="-1038.8896" y1="637.2963" x2="-1013.302" y2="637.2963" gradientTransform="matrix(-1 0 0 -1 -679.0889 1103.0762)">
						<stop  offset="0" style="stop-color:#27ECB8"/>
						<stop  offset="1" style="stop-color:#99D7B4"/>
					</linearGradient>
					<path class="st10" d="M347,452.6c-17.1,0-17.1,26.5,0,26.5C364.1,479,364.1,452.6,347,452.6L347,452.6z"/>
				</g>
			</g>
			<g>
				<g>
					
						<linearGradient id="SVGID_12_" gradientUnits="userSpaceOnUse" x1="-1141.7672" y1="1052.276" x2="-1111.0448" y2="1052.276" gradientTransform="matrix(-1 0 0 -1 -679.0889 1103.0762)">
						<stop  offset="0" style="stop-color:#27ECB8"/>
						<stop  offset="1" style="stop-color:#A2D4CC"/>
					</linearGradient>
					<path class="st11" d="M447.3,34.9c-20.5,0-20.5,31.8,0,31.8S467.8,34.9,447.3,34.9L447.3,34.9z"/>
				</g>
			</g>
			<g>
				<g>
					
						<linearGradient id="SVGID_13_" gradientUnits="userSpaceOnUse" x1="-905.813" y1="1071.5894" x2="-885.2228" y2="1071.5894" gradientTransform="matrix(-1 0 0 -1 -679.0889 1103.0762)">
						<stop  offset="8.527380e-02" style="stop-color:#4432F6"/>
						<stop  offset="0.301" style="stop-color:#423BEB"/>
						<stop  offset="0.682" style="stop-color:#3B53CD"/>
						<stop  offset="1" style="stop-color:#356BAF"/>
					</linearGradient>
					<path class="st12" d="M216.4,20.8c-13.7,0-13.7,21.3,0,21.3C230.2,42.1,230.2,20.8,216.4,20.8L216.4,20.8z"/>
				</g>
			</g>
			<g>
				<g>
					
						<linearGradient id="SVGID_14_" gradientUnits="userSpaceOnUse" x1="-747.0054" y1="1004.5372" x2="-726.4152" y2="1004.5372" gradientTransform="matrix(-1 0 0 -1 -679.0889 1103.0762)">
						<stop  offset="8.527380e-02" style="stop-color:#4432F6"/>
						<stop  offset="0.301" style="stop-color:#423BEB"/>
						<stop  offset="0.682" style="stop-color:#3B53CD"/>
						<stop  offset="1" style="stop-color:#356BAF"/>
					</linearGradient>
					<path class="st13" d="M57.6,87.9c-13.7,0-13.7,21.3,0,21.3C71.3,109.2,71.3,87.9,57.6,87.9L57.6,87.9z"/>
				</g>
			</g>
			<g>
				<g>
					
						<linearGradient id="SVGID_15_" gradientUnits="userSpaceOnUse" x1="-766.7636" y1="1033.5175" x2="-757.5594" y2="1033.5175" gradientTransform="matrix(-1 0 0 -1 -679.0889 1103.0762)">
						<stop  offset="8.527380e-02" style="stop-color:#4432F6"/>
						<stop  offset="0.301" style="stop-color:#423BEB"/>
						<stop  offset="0.682" style="stop-color:#3B53CD"/>
						<stop  offset="1" style="stop-color:#356BAF"/>
					</linearGradient>
					<path class="st14" d="M83.1,64.8c-6.1,0-6.1,9.5,0,9.5C89.2,74.3,89.2,64.8,83.1,64.8L83.1,64.8z"/>
				</g>
			</g>
			<g>
				
					<linearGradient id="SVGID_16_" gradientUnits="userSpaceOnUse" x1="-813.4612" y1="623.4817" x2="-803.2205" y2="623.4817" gradientTransform="matrix(-1 0 0 -1 -679.0889 1103.0762)">
					<stop  offset="0" style="stop-color:#27ECB8"/>
					<stop  offset="1" style="stop-color:#99D7B4"/>
				</linearGradient>
				<path class="st15" d="M129.3,474.3c-6.8,0-6.8,10.6,0,10.6C136.1,484.9,136.1,474.3,129.3,474.3L129.3,474.3z"/>
			</g>
		</g>
	</g>
	<g>
		<path class="st16" d="M322.8,195c28.6,43.3,16.7,101.5-26.6,130.1c-43.3,28.6-101.5,16.7-130.1-26.6S149.4,197,192.7,168.4
			c31.4-20.7,72.1-20.7,103.5,0l9.7-9.7c-48.6-33.9-115.5-22-149.4,26.6c-33.9,48.6-22,115.5,26.6,149.4
			c48.6,33.9,115.5,22,149.4-26.6c25.7-36.9,25.7-85.9,0-122.8L322.8,195z"/>
		<path class="st16" d="M244.5,193.3c7.6,0,15.1,1.6,22,4.7l10-10c-32.4-17.7-73-5.8-90.7,26.6c-17.7,32.4-5.8,73,26.6,90.7
			c32.4,17.7,73,5.8,90.7-26.6c10.9-20,10.9-44.1,0-64l-10,10c3.1,6.9,4.8,14.4,4.8,21.9c0,29.4-23.9,53.3-53.3,53.3
			c-29.4,0-53.3-23.9-53.3-53.3C191.2,217.2,215.1,193.3,244.5,193.3L244.5,193.3z"/>
		<path class="st16" d="M397.2,121.3c-5.4-3.6-10.4-7.7-15-12.2c-3.1-3.2-6-6.5-8.6-10c-2.2-2.9-3.6-5-3.6-5l-4.5-6.9l-41.2,41.2
			v29.2l-84.3,84.3l1,8.5l8.6,1l84.3-84.3h29.2l41.2-41.2L397.2,121.3z"/>
	</g>
</g>
</svg>
