<?xml version="1.0" encoding="utf-8"?>
<!-- Generator: Adobe Illustrator 21.1.0, SVG Export Plug-In . SVG Version: 6.00 Build 0)  -->
<svg version="1.1" id="Layer_1" xmlns="http://www.w3.org/2000/svg" xmlns:xlink="http://www.w3.org/1999/xlink" x="0px" y="0px"
	 viewBox="0 0 500 500" style="enable-background:new 0 0 500 500;" xml:space="preserve">
<style type="text/css">
	.st0{fill:url(#SVGID_1_);}
	.st1{fill:url(#SVGID_2_);}
	.st2{fill:url(#SVGID_3_);}
	.st3{fill:url(#SVGID_4_);}
	.st4{fill:url(#SVGID_5_);}
	.st5{fill:url(#SVGID_6_);}
	.st6{fill:url(#SVGID_7_);}
	.st7{fill:url(#SVGID_8_);}
	.st8{fill:url(#SVGID_9_);}
	.st9{fill:#FA969E;}
	.st10{fill:url(#SVGID_10_);}
	.st11{fill:url(#SVGID_11_);}
	.st12{fill:url(#SVGID_12_);}
	.st13{fill:url(#SVGID_13_);}
	.st14{fill:#FFFFFF;}
</style>
<g>
	<g>
		<g>
			<g>
				<g>
					
						<linearGradient id="SVGID_1_" gradientUnits="userSpaceOnUse" x1="-293.3245" y1="684.3416" x2="-197.1064" y2="684.3416" gradientTransform="matrix(-0.9984 5.660000e-02 -5.660000e-02 -0.9984 -96.2156 985.7885)">
						<stop  offset="0.3889" style="stop-color:#2394B1"/>
						<stop  offset="1" style="stop-color:#4AADAF"/>
					</linearGradient>
					<path class="st0" d="M61,266.5c-2.5-44.2,9.4-87,33.7-123c-0.2-0.1-0.3-0.2-0.5-0.3c-24.4,36.1-36.4,79.1-33.8,123.4
						c3,53.5,26.7,102.6,66.7,138.3c12,10.7,25,19.8,38.7,27.2c0.1-0.2,0.2-0.3,0.3-0.5c-13.7-7.4-26.7-16.5-38.7-27.1
						C87.6,368.7,64,319.8,61,266.5z"/>
					
						<linearGradient id="SVGID_2_" gradientUnits="userSpaceOnUse" x1="-598.226" y1="719.4524" x2="-554.8657" y2="719.4524" gradientTransform="matrix(-0.9984 5.660000e-02 -5.660000e-02 -0.9984 -96.2156 985.7885)">
						<stop  offset="0.3889" style="stop-color:#2394B1"/>
						<stop  offset="1" style="stop-color:#4AADAF"/>
					</linearGradient>
					<path class="st1" d="M437.6,348.5c0.2,0.1,0.4,0.1,0.5,0.2c16.9-31.9,24.8-67.9,22.8-104.9c-2.6-45.4-20-87.6-49.7-121.1
						c-0.2,0-0.4,0.1-0.6,0.1c29.7,33.5,47.1,75.7,49.7,121C462.4,280.7,454.5,316.6,437.6,348.5z"/>
					
						<linearGradient id="SVGID_3_" gradientUnits="userSpaceOnUse" x1="-536.8951" y1="537.6621" x2="-420.2476" y2="537.6621" gradientTransform="matrix(-0.9984 5.660000e-02 -5.660000e-02 -0.9984 -96.2156 985.7885)">
						<stop  offset="0.3889" style="stop-color:#2394B1"/>
						<stop  offset="1" style="stop-color:#4AADAF"/>
					</linearGradient>
					<path class="st2" d="M294.5,452.8c43.5-7.4,83-28.7,113.3-61.5c-0.1-0.1-0.3-0.2-0.4-0.4c-30.2,32.7-69.6,53.9-112.9,61.3
						C294.5,452.4,294.5,452.6,294.5,452.8z"/>
					
						<linearGradient id="SVGID_4_" gradientUnits="userSpaceOnUse" x1="-418.3157" y1="901.2967" x2="-317.562" y2="901.2967" gradientTransform="matrix(-0.9984 5.660000e-02 -5.660000e-02 -0.9984 -96.2156 985.7885)">
						<stop  offset="0.3889" style="stop-color:#2394B1"/>
						<stop  offset="1" style="stop-color:#4AADAF"/>
					</linearGradient>
					<path class="st3" d="M249.3,55.5c6.9-0.4,13.8-0.4,20.7-0.1c0-0.2-0.1-0.4-0.1-0.6c-6.8-0.3-13.7-0.3-20.6,0.1
						c-28,1.6-54.7,8.8-79,21.1c0.1,0.2,0.2,0.3,0.3,0.5C194.8,64.3,221.4,57,249.3,55.5z"/>
				</g>
				<g>
					
						<linearGradient id="SVGID_5_" gradientUnits="userSpaceOnUse" x1="-793.6985" y1="214.8654" x2="-705.9085" y2="214.8654" gradientTransform="matrix(-0.7071 0.7071 -0.7071 -0.7071 84.8481 1039.8994)">
						<stop  offset="0.3889" style="stop-color:#2394B1"/>
						<stop  offset="1" style="stop-color:#4AADAF"/>
					</linearGradient>
					<path class="st4" d="M483.4,316.4c-7.9,30-21.8,58-41.2,82.6c0.3,0,0.6,0,0.8,0c19.3-24.5,33.1-52.5,41-82.3
						C483.8,316.5,483.6,316.5,483.4,316.4z"/>
					
						<linearGradient id="SVGID_6_" gradientUnits="userSpaceOnUse" x1="-908.1695" y1="405.4663" x2="-867.7108" y2="405.4663" gradientTransform="matrix(-0.7071 0.7071 -0.7071 -0.7071 84.8481 1039.8994)">
						<stop  offset="0.3889" style="stop-color:#2394B1"/>
						<stop  offset="1" style="stop-color:#4AADAF"/>
					</linearGradient>
					<path class="st5" d="M353,47.2c26.2,11.3,50.2,27.6,71,48.4c33.1,33.1,54.8,74.5,63.1,119.5c0.2-0.1,0.4-0.2,0.6-0.3
						c-8.4-45.1-30.2-86.5-63.3-119.6c-20.8-20.8-44.9-37.1-71-48.4C353.3,46.9,353.1,47.1,353,47.2z"/>
					
						<linearGradient id="SVGID_7_" gradientUnits="userSpaceOnUse" x1="-592.6287" y1="310.4582" x2="-449.9356" y2="310.4582" gradientTransform="matrix(-0.7071 0.7071 -0.7071 -0.7071 84.8481 1039.8994)">
						<stop  offset="0.3889" style="stop-color:#2394B1"/>
						<stop  offset="1" style="stop-color:#4AADAF"/>
					</linearGradient>
					<path class="st6" d="M262.1,487.2c31.4,0,61.8-6.3,89.8-18.2c-0.1-0.2-0.3-0.3-0.4-0.5c-27.9,11.8-58.2,18.1-89.4,18.1
						c-53.8,0-104.8-18.4-145.7-52.3c-0.1,0.2-0.3,0.3-0.4,0.5C157,468.7,208.1,487.2,262.1,487.2z"/>
					
						<linearGradient id="SVGID_8_" gradientUnits="userSpaceOnUse" x1="-756.991" y1="628.9497" x2="-527.3751" y2="628.9497" gradientTransform="matrix(-0.7071 0.7071 -0.7071 -0.7071 84.8481 1039.8994)">
						<stop  offset="0.3889" style="stop-color:#2394B1"/>
						<stop  offset="1" style="stop-color:#4AADAF"/>
					</linearGradient>
					<path class="st7" d="M33.6,242.1c3.7-55.4,26.9-106.9,66.5-146.5c19.2-19.2,41.2-34.5,65.1-45.7c-0.1-0.2-0.2-0.4-0.4-0.5
						c-23.9,11.2-45.9,26.6-65.2,45.8c-39.7,39.7-63.1,91.5-66.7,147C33.2,242.2,33.4,242.1,33.6,242.1z"/>
				</g>
			</g>
		</g>
		<linearGradient id="SVGID_9_" gradientUnits="userSpaceOnUse" x1="265.7304" y1="84.8283" x2="265.7304" y2="431.4891">
			<stop  offset="0.3889" style="stop-color:#2394B1"/>
			<stop  offset="1" style="stop-color:#4AADAF"/>
		</linearGradient>
		<path class="st8" d="M385.5,134.6c0,0-57.6-57.6-143.9-48.9C120.2,97.9,65.9,196.3,97.7,310.2c23.9,85.9,117.3,138.6,201.4,116
			c82.6-22.1,158.5-91.1,141.1-185.1C440.2,241.1,425.8,163.4,385.5,134.6z"/>
		<g>
			<g>
				<path class="st9" d="M112.8,409.5c-4.7-4.7-12,2.6-7.3,7.3C110.2,421.5,117.5,414.2,112.8,409.5L112.8,409.5z"/>
			</g>
			<g>
				<path class="st9" d="M106.9,366.4c-11.7-11.7-29.9,6.5-18.2,18.2C100.4,396.4,118.6,378.2,106.9,366.4L106.9,366.4z"/>
			</g>
			<g>
				<g>
					
						<linearGradient id="SVGID_10_" gradientUnits="userSpaceOnUse" x1="-864.1949" y1="1007.8215" x2="-844.1534" y2="1007.8215" gradientTransform="matrix(-0.7071 -0.7071 0.7071 -0.7071 -930.7817 195.0055)">
						<stop  offset="8.527380e-02" style="stop-color:#4432F6"/>
						<stop  offset="0.301" style="stop-color:#423BEB"/>
						<stop  offset="0.682" style="stop-color:#3B53CD"/>
						<stop  offset="1" style="stop-color:#356BAF"/>
					</linearGradient>
					<path class="st10" d="M393.2,79c-9.4-9.4-24.1,5.2-14.6,14.6C388,103.1,402.6,88.5,393.2,79L393.2,79z"/>
				</g>
			</g>
			<g>
				<g>
					
						<linearGradient id="SVGID_11_" gradientUnits="userSpaceOnUse" x1="-709.6196" y1="942.5565" x2="-689.5781" y2="942.5565" gradientTransform="matrix(-0.7071 -0.7071 0.7071 -0.7071 -930.7817 195.0055)">
						<stop  offset="8.527380e-02" style="stop-color:#4432F6"/>
						<stop  offset="0.301" style="stop-color:#423BEB"/>
						<stop  offset="0.682" style="stop-color:#3B53CD"/>
						<stop  offset="1" style="stop-color:#356BAF"/>
					</linearGradient>
					<path class="st11" d="M237.7,15.9c-9.4-9.4-24.1,5.2-14.6,14.6S247.2,25.3,237.7,15.9L237.7,15.9z"/>
				</g>
			</g>
			<g>
				<g>
					
						<linearGradient id="SVGID_12_" gradientUnits="userSpaceOnUse" x1="-728.8512" y1="970.7645" x2="-719.8923" y2="970.7645" gradientTransform="matrix(-0.7071 -0.7071 0.7071 -0.7071 -930.7817 195.0055)">
						<stop  offset="8.527380e-02" style="stop-color:#4432F6"/>
						<stop  offset="0.301" style="stop-color:#423BEB"/>
						<stop  offset="0.682" style="stop-color:#3B53CD"/>
						<stop  offset="1" style="stop-color:#356BAF"/>
					</linearGradient>
					<path class="st12" d="M271.1,17.5c-4.2-4.2-10.8,2.3-6.5,6.5C268.8,28.3,275.3,21.7,271.1,17.5L271.1,17.5z"/>
				</g>
			</g>
			<g>
				
					<linearGradient id="SVGID_13_" gradientUnits="userSpaceOnUse" x1="-774.3043" y1="571.6562" x2="-764.3366" y2="571.6562" gradientTransform="matrix(-0.7071 -0.7071 0.7071 -0.7071 -930.7817 195.0055)">
					<stop  offset="0" style="stop-color:#27ECB8"/>
					<stop  offset="1" style="stop-color:#99D7B4"/>
				</linearGradient>
				<path class="st13" d="M21.1,331.1c-4.7-4.7-12,2.6-7.3,7.3C18.5,343.1,25.8,335.8,21.1,331.1L21.1,331.1z"/>
			</g>
		</g>
	</g>
	<g>
		<path class="st14" d="M258.5,184.9c-78.5,0-109.3,71.1-109.6,71.9c-0.4,0.9-0.4,1.9,0,2.8c0.3,0.7,31.2,71.9,109.6,71.9
			c78.5,0,109.3-71.1,109.6-71.9c0.4-0.9,0.4-1.9,0-2.8C367.9,256,337,184.9,258.5,184.9z M156.3,258.1c3.4-7,19.8-37.9,53.8-54.8
			c-15.2,13.4-24.8,33-24.8,54.8c0,21.8,9.6,41.4,24.8,54.8C176.1,296.1,159.7,265.1,156.3,258.1z M258.5,324.1
			c-36.4,0-66-29.6-66-66s29.6-66,66-66s66,29.6,66,66S294.9,324.1,258.5,324.1z M307,313c15.2-13.4,24.8-33,24.8-54.8
			c0-21.8-9.6-41.4-24.8-54.8c34,16.9,50.4,47.8,53.8,54.8C357.4,265.1,341,296.1,307,313z"/>
		<path class="st14" d="M309.3,281.9l-25.1-43.1v-32c0-1.4-0.8-2.7-2-3.3c-1.2-0.6-2.7-0.5-3.8,0.3l-14.7,11c-1,0.8-1.6,2-1.5,3.3
			c0.1,1.3,0.9,2.4,2,2.9l12.6,6.3v11.3l-26,39l-18.8-22c-1.4-1.6-4.2-1.6-5.6,0l-22,25.6c-0.9,1.1-1.1,2.6-0.5,3.9
			c0.6,1.3,1.9,2.1,3.3,2.1h44c0,0,0,0,0,0c0,0,0,0,0,0h55c1.3,0,2.5-0.7,3.2-1.8C310,284.5,310,283.1,309.3,281.9z M215.2,280.1
			l14-16.4l14,16.4H215.2z M258.1,280.1l22.3-33.4l19.5,33.4H258.1z"/>
		<rect x="243.9" y="206.8" class="st14" width="7.3" height="7.3"/>
		<rect x="251.2" y="214.2" class="st14" width="7.3" height="7.3"/>
		<rect x="243.9" y="221.5" class="st14" width="7.3" height="7.3"/>
		<rect x="236.6" y="214.2" class="st14" width="7.3" height="7.3"/>
		<rect x="298.9" y="217.8" class="st14" width="7.3" height="7.3"/>
		<rect x="295.2" y="236.2" class="st14" width="7.3" height="7.3"/>
		<path class="st14" d="M156,155.6h36.6v-7.3h-40.3c-2,0-3.7,1.6-3.7,3.7v40.3h7.3V155.6z"/>
		<path class="st14" d="M364.8,148.2h-40.3v7.3h36.6v36.6h7.3v-40.3C368.5,149.9,366.8,148.2,364.8,148.2z"/>
		<path class="st14" d="M156,324.1h-7.3v40.3c0,2,1.6,3.7,3.7,3.7h40.3v-7.3H156V324.1z"/>
		<path class="st14" d="M361.1,360.7h-36.6v7.3h40.3c2,0,3.7-1.6,3.7-3.7v-40.3h-7.3V360.7z"/>
	</g>
</g>
</svg>
