<?xml version="1.0" encoding="utf-8"?>
<!-- Generator: Adobe Illustrator 21.1.0, SVG Export Plug-In . SVG Version: 6.00 Build 0)  -->
<svg version="1.1" id="Layer_1" xmlns="http://www.w3.org/2000/svg" xmlns:xlink="http://www.w3.org/1999/xlink" x="0px" y="0px"
	 viewBox="0 0 500 500" style="enable-background:new 0 0 500 500;" xml:space="preserve">
<style type="text/css">
	.st0{fill:url(#SVGID_1_);}
	.st1{opacity:0.5;}
	.st2{fill:#FFFFFF;}
	.st3{clip-path:url(#SVGID_3_);}
	.st4{fill:#FE9232;}
	.st5{opacity:0.58;}
	.st6{fill:#F2F2F2;}
	.st7{fill:#46B49F;}
	.st8{opacity:0.3;fill:#1D1A1E;}
	.st9{fill:#FE8A25;}
	.st10{fill:#FDE776;}
	.st11{fill:#604B3B;}
	.st12{fill:url(#SVGID_4_);}
	.st13{fill:url(#SVGID_5_);}
	.st14{fill:url(#SVGID_6_);}
	.st15{fill:url(#SVGID_7_);}
	.st16{fill:url(#SVGID_8_);}
	.st17{fill:url(#SVGID_9_);}
	.st18{fill:#FFB411;}
	.st19{opacity:0.19;fill:#DB951D;}
	.st20{opacity:0.48;fill:#EFDDE6;}
	.st21{fill:url(#SVGID_10_);}
	.st22{fill:#A0642F;}
	.st23{opacity:0.85;fill:#F2F2F2;}
	.st24{fill:url(#SVGID_11_);}
	.st25{fill:url(#SVGID_12_);}
	.st26{fill:url(#SVGID_13_);}
	.st27{fill:url(#SVGID_14_);}
	.st28{fill:url(#SVGID_15_);}
	.st29{fill:url(#SVGID_16_);}
</style>
<linearGradient id="SVGID_1_" gradientUnits="userSpaceOnUse" x1="-1110.6686" y1="1163.7925" x2="-804.9583" y2="1469.5028" gradientTransform="matrix(-1 0 0 -1 -713.1895 1573.7456)">
	<stop  offset="8.527380e-02" style="stop-color:#4432F6"/>
	<stop  offset="0.7534" style="stop-color:#2394B1"/>
	<stop  offset="1" style="stop-color:#4AADAF"/>
</linearGradient>
<path class="st0" d="M324.7,454.3c127.8-29.5,123.6-213.6,123.6-213.6c-2.1-157.2-191.6-184.4-234.6-176c-43,8.4-178,12.6-178,176
	C35.7,240.7,39.9,498,324.7,454.3z"/>
<g class="st1">
	<g>
		<path class="st2" d="M173.3,346.6c-17.4-13.8-29.4-32.7-34.6-54.2c-0.1,0-0.2,0-0.3,0.1c5.2,21.5,17.2,40.5,34.7,54.3
			c21.1,16.7,47.6,24,74.7,20.4c8.1-1.1,16-3.1,23.5-5.9c0-0.1,0-0.2-0.1-0.3c-7.5,2.8-15.3,4.8-23.4,5.9
			C220.9,370.5,194.4,363.3,173.3,346.6z"/>
		<path class="st2" d="M333.2,228.3c0.1,0,0.2-0.1,0.3-0.1c-6.2-17.2-17-32.3-31.6-43.9c-17.9-14.2-39.7-21.5-62.5-21.3
			c-0.1,0.1-0.1,0.2-0.2,0.3c22.7-0.3,44.5,7.1,62.4,21.2C316.3,196,327,211.1,333.2,228.3z"/>
		<path class="st2" d="M323.3,318.6c12.1-19.3,17.7-41.7,15.8-64.4c-0.1,0-0.2,0-0.3,0.1c1.9,22.6-3.6,45-15.7,64.2
			C323.1,318.4,323.2,318.5,323.3,318.6z"/>
		<path class="st2" d="M158.7,203.2c2.2-2.8,4.6-5.5,7-8c-0.1-0.1-0.2-0.1-0.2-0.2c-2.5,2.5-4.8,5.2-7,8
			c-9,11.4-15.4,24.1-19.2,37.6c0.1,0,0.2,0,0.3,0.1C143.3,227.2,149.8,214.5,158.7,203.2z"/>
	</g>
	<g>
		<path class="st2" d="M352.5,280.8c-2.5,15.7-8,30.8-16.6,44.6c0.1,0,0.3,0,0.4-0.1c8.5-13.7,14-28.8,16.5-44.4
			C352.7,280.8,352.6,280.8,352.5,280.8z"/>
		<path class="st2" d="M272.6,152.9c13.8,4,26.8,10.7,38.4,19.8c18.4,14.6,31.5,34.1,38.1,56.4c0.1-0.1,0.2-0.1,0.3-0.2
			c-6.6-22.3-19.7-41.9-38.2-56.5c-11.6-9.2-24.6-15.8-38.4-19.9C272.7,152.7,272.7,152.8,272.6,152.9z"/>
		<path class="st2" d="M249.4,382c15.9-2.1,30.9-7.3,44.5-15.2c-0.1-0.1-0.2-0.2-0.2-0.2c-13.5,7.8-28.5,13-44.3,15.1
			c-27.2,3.6-53.9-2.4-76.4-16.9c-0.1,0.1-0.1,0.2-0.2,0.3C195.3,379.6,222.1,385.6,249.4,382z"/>
		<path class="st2" d="M121.2,272.8c-1-28.3,8.1-56,26.1-78.7c8.7-11,19-20.2,30.5-27.5c-0.1-0.1-0.1-0.2-0.2-0.2
			c-11.5,7.3-21.9,16.5-30.6,27.5c-18,22.8-27.2,50.6-26.1,79C121,272.9,121.1,272.9,121.2,272.8z"/>
	</g>
	<g>
		<path class="st2" d="M307.4,152c4.5,2.7,8.8,5.7,12.9,9c26.3,20.8,43,50.6,47.2,84.2c0.1-0.1,0.2-0.1,0.3-0.2
			c-4.3-33.7-21-63.5-47.4-84.4c-4.1-3.3-8.5-6.3-12.9-9C307.6,151.8,307.5,151.9,307.4,152z"/>
		<path class="st2" d="M148.2,364.6c-0.1,0.1-0.2,0.2-0.2,0.3c2.1,1.9,4.3,3.8,6.6,5.6c27.2,21.6,61.5,30.9,96.4,26.3
			c25.3-3.3,48.9-13.7,68.3-29.8l-0.3-0.2c-19.4,16.1-42.8,26.4-68.1,29.7c-34.8,4.6-69-4.8-96.1-26.3
			C152.5,368.3,150.3,366.5,148.2,364.6z"/>
		<path class="st2" d="M107.9,288.7c-0.3-2-0.6-4-0.8-6.1c-3.6-34.9,6.7-69.6,28.8-97.5c19.6-24.7,46.4-41.6,76.5-48.3
			c0-0.1-0.1-0.2-0.1-0.3c-30.1,6.7-57,23.6-76.6,48.4c-22.2,28-32.4,62.7-28.9,97.8c0.2,2,0.5,4,0.8,6
			C107.6,288.7,107.8,288.7,107.9,288.7z"/>
	</g>
	<g>
		<path class="st2" d="M272.8,122.1c0-0.1,0.1-0.3,0.1-0.4c-16.2-3.6-33.2-4.4-50.3-2.1c-23.1,3-44.9,11.3-63.9,24.1
			c0,0.1,0.1,0.3,0.1,0.4c19-12.8,40.7-21.1,63.9-24.1C239.8,117.8,256.7,118.6,272.8,122.1z"/>
		<path class="st2" d="M383.7,263.9c0.1-5.8-0.2-11.5-0.8-17.3c-2.6-25.3-11.4-48.7-25.5-68.6c-0.1,0.1-0.2,0.2-0.3,0.3
			c14.1,19.8,22.8,43.2,25.4,68.3c0.6,5.8,0.8,11.6,0.7,17.3C383.5,263.9,383.6,263.9,383.7,263.9z"/>
		<path class="st2" d="M252.4,411.5c8.9-1.2,17.6-3.1,26-5.8c0.1-0.2,0.2-0.3,0.3-0.5c-8.5,2.7-17.3,4.7-26.3,5.9
			c-38.7,5.1-76.7-5.3-106.9-29.2c-30.2-23.9-49-58.5-53-97.4c-2.5-24.9,1.2-49.7,10.8-72.5c-0.1,0-0.3,0-0.4,0
			c-9.5,22.8-13.3,47.6-10.7,72.5c4,39,22.8,73.7,53.1,97.6C175.5,406.2,213.5,416.6,252.4,411.5z"/>
	</g>
	<g>
		<path class="st2" d="M194.9,423l0.3-0.4c-21.4-5.3-41.4-15-59.1-29c-33.3-26.3-54-64.4-58.3-107.2c-3.6-35.1,4.2-69.9,22-100.1
			c-0.1-0.1-0.2-0.2-0.4-0.3c-17.9,30.3-25.7,65.2-22.1,100.4c4.4,42.9,25.1,81.1,58.5,107.5C153.5,408,173.6,417.7,194.9,423z"/>
		<path class="st2" d="M273,106.5c-12.7-2.5-25.7-3.5-38.9-2.8c0,0.1,0.1,0.3,0.1,0.4c13.1-0.7,26,0.3,38.6,2.8
			C272.9,106.8,272.9,106.6,273,106.5z"/>
		<path class="st2" d="M388.2,205.3c0.1-0.1,0.2-0.2,0.4-0.3c-9.8-26.6-26.7-50-49.3-67.9c-19.3-15.3-41.5-25.6-65.1-30.4
			c-0.1,0.1-0.2,0.3-0.3,0.4c23.6,4.8,45.8,15.1,65.1,30.4C361.6,155.4,378.4,178.8,388.2,205.3z"/>
		<path class="st2" d="M296.7,414.1c0.1,0.1,0.3,0.2,0.4,0.3c25.2-10.8,47.6-27.8,65.2-50c0.9-1.1,1.8-2.3,2.6-3.4l-0.3-0.3
			c-0.9,1.1-1.7,2.3-2.6,3.4C344.4,386.4,322,403.4,296.7,414.1z"/>
	</g>
	<g>
		<path class="st2" d="M398.1,331.9c0.1,0.1,0.3,0.2,0.4,0.3c6.6-15.3,11.1-31.5,13.3-48c-0.2,0-0.3-0.1-0.5-0.1
			C409.2,300.5,404.7,316.6,398.1,331.9z"/>
		<path class="st2" d="M329.6,112.4c-18-10.7-37.7-17.9-58.2-21.4c0,0.2,0,0.3,0,0.5c20.4,3.5,40,10.6,57.9,21.2
			C329.4,112.6,329.5,112.5,329.6,112.4z"/>
		<path class="st2" d="M96.7,164.4c1.6-2.2,3.2-4.4,4.9-6.5c21-26.5,48.2-46.2,78.8-57.6c-0.1-0.1-0.1-0.3-0.2-0.4
			c-30.7,11.4-58,31.2-79,57.8c-1.7,2.1-3.3,4.3-4.9,6.5C96.5,164.2,96.6,164.3,96.7,164.4z"/>
		<path class="st2" d="M255.4,441c22.9-3,44.8-10.3,64.5-21.4c-0.1-0.1-0.2-0.2-0.4-0.3c-19.7,11-41.4,18.3-64.2,21.3
			c-31.6,4.1-62.8-0.3-90.9-12.6c-0.1,0.1-0.2,0.3-0.3,0.4C192.3,440.7,223.6,445.1,255.4,441z"/>
	</g>
	<g>
		<path class="st2" d="M385,382.3c-2.9,3.7-5.9,7.2-9,10.6l0.2,0.2c3.1-3.4,6.1-7,9-10.6c14.2-17.9,25-37.6,32.2-58.9
			c-0.1,0-0.2-0.1-0.2-0.1C409.9,344.7,399.1,364.4,385,382.3z"/>
		<path class="st2" d="M325.9,93.6c0.1-0.1,0.1-0.1,0.2-0.2c-11.2-5.6-22.9-10.1-35.2-13.3c-15.6-4.1-31.5-6.2-47.6-6.2
			c0,0.1,0,0.2,0,0.3c16.1,0,32,2.1,47.5,6.2C303,83.6,314.7,88,325.9,93.6z"/>
		<path class="st2" d="M427.6,249.7c-0.2-3-0.4-5.9-0.7-8.9c-2.3-22.4-8.4-43.8-18.1-63.7c-0.1,0-0.2,0-0.3,0
			c9.7,19.9,15.8,41.3,18.1,63.7c0.3,3,0.5,5.9,0.7,8.9C427.5,249.7,427.6,249.7,427.6,249.7z"/>
		<path class="st2" d="M48,286.1c-1.9-23.2,0.5-46.4,7-69c7.1-24.8,18.9-47.7,35.2-68.2c3.6-4.5,7.3-8.8,11.2-12.9
			c-0.1-0.1-0.1-0.1-0.2-0.2c-3.9,4.1-7.6,8.4-11.2,12.9c-16.2,20.5-28.1,43.5-35.2,68.3c-6.5,22.6-8.8,45.8-7,69
			C47.8,286,47.9,286,48,286.1z"/>
		<path class="st2" d="M308.9,440.9c0.1,0.1,0.1,0.1,0.2,0.2c6-2.6,11.9-5.5,17.6-8.7c18.2-10.2,34.5-23.1,48.7-38.5l-0.2-0.2
			c-14.1,15.4-30.4,28.3-48.6,38.5C320.8,435.4,314.9,438.3,308.9,440.9z"/>
	</g>
</g>
<g>
	<defs>
		<path id="SVGID_2_" d="M324.7,454.3c127.8-29.5,123.6-213.6,123.6-213.6C701.1-35.4,87.4,31.8,44.4,40.2
			c-43,8.4-148.2,124.9-8.7,200.5C35.7,240.7,39.9,498,324.7,454.3z"/>
	</defs>
	<clipPath id="SVGID_3_">
		<use xlink:href="#SVGID_2_"  style="overflow:visible;"/>
	</clipPath>
	<g class="st3">
		<g>
			<path class="st4" d="M284.9,228.8c-0.1,1.2-0.3,2.5-0.4,3.8c-0.5,3.3-1,6.8-1.8,10.6c-3.3,17.4-5.7,30.1-8.7,44.5l-0.7,3.7
				c-0.7,3.1-1.3,6.3-2,9.6c-0.3,1.3-0.5,2.6-0.8,4c-0.3,1.2-0.5,2.5-0.8,3.7c-0.5,2-0.9,4.1-1.4,6.2c-1,4.4-2.4,10.1-4,16.1l0,0.1
				c-0.3,1.2-0.7,2.4-1,3.7c-1.4,4.9-2.8,9.8-4.3,14.4c-2,6.5-4.4,20.1-7.9,11.1c-1.1-3.4-3.6-18.7-4.1-22.5
				c-3.6-24.5-7.6-44-11.2-65.8c-0.3-1.3-0.5-2.6-0.7-4c-0.4-2.6-0.9-5.4-1.3-8.1c-1.4-8.8-7.3-32.3-4.3-48.1
				c0.4-1.7,0.8-3.4,1.3-4.9c1.9-5.1,5.2-8.8,10.6-10c1.8-0.8,3.8-1.3,5.9-1.8c5.4-1.1,11.7-1.3,17.5-0.4c10.4,1.5,19.5,6,20.3,13.5
				C285.9,214.6,285.8,221.3,284.9,228.8z"/>
			<g class="st5">
				<path class="st6" d="M260.9,221.3c6.4,0.6,12.9,0.5,19.2,2.2c2.4,0.6,3.5-3,1.1-3.6c-6.6-1.8-13.4-1.8-20.2-2.4
					C258.6,217.3,258.5,221.1,260.9,221.3L260.9,221.3z"/>
			</g>
			<g class="st5">
				<path class="st6" d="M285,228.8c-0.1,1.2-0.3,2.5-0.4,3.8l0,0c-6.6-1.2-12.7-4-19.2-5.7c-2.4-0.6-1.3-4.2,1.1-3.7
					C272.7,224.8,278.6,227.5,285,228.8z"/>
			</g>
			<g class="st5">
				<path class="st6" d="M238.1,261.7c2-2.7,5.4-3.5,8.6-3.4c2.4,0,2.6-3.8,0.1-3.8c-4.6-0.1-9.1,1.3-11.9,5.2
					C233.4,261.7,236.6,263.7,238.1,261.7L238.1,261.7z"/>
			</g>
			<g class="st5">
				<path class="st6" d="M247.3,267.4c-3.8,1.5-8,2.5-11.5,4.5c-0.3-1.3-0.5-2.6-0.7-4c3.3-1.7,6.9-2.6,10.3-3.9
					C247.8,263.1,249.6,266.5,247.3,267.4z"/>
			</g>
			<g class="st5">
				<path class="st6" d="M271.4,301c-0.3,1.3-0.5,2.6-0.8,4c-0.1,0-0.1-0.1-0.3-0.2c-3.9-3-9.4-2.6-14.1-2.7
					c-2.4-0.1-2.3-3.9,0.1-3.8C261.3,298.4,267,298.2,271.4,301z"/>
				<path class="st6" d="M271.5,305.1c-0.3,0-0.6,0-0.8-0.2C270.9,304.9,271.2,305,271.5,305.1z"/>
			</g>
			<g class="st5">
				<path class="st6" d="M264.6,304.4c2,0.1,4,0.2,6,0.5c-0.3,1.2-0.5,2.5-0.8,3.7c-1.8-0.3-3.5-0.4-5.3-0.4
					C262,308.1,262.1,304.3,264.6,304.4z"/>
				<path class="st6" d="M271.5,305.1c-0.3,0-0.6,0-0.8-0.2C270.9,304.9,271.2,305,271.5,305.1z"/>
			</g>
			<g class="st5">
				<path class="st6" d="M249.3,206.1c-6.3,0.9-13.1,1.1-18.3,5.2c-0.5,0.4-1,0.5-1.4,0.4c0.4-1.7,0.8-3.4,1.3-4.9
					c5.3-3.1,11.4-3.5,17.5-4.4C250.8,202.1,251.7,205.8,249.3,206.1z"/>
			</g>
			<g class="st5">
				<path class="st6" d="M274.1,287.6c-2.4,0-4.9,0-7.3,0c-2.4,0-2.6,3.8-0.1,3.8c2.2,0,4.5-0.1,6.7-0.1L274.1,287.6z"/>
			</g>
			<g class="st5">
				<path class="st6" d="M272.6,213.3c1.5,0,3,0.1,4.5,0.5c2.4,0.6,3.5-3,1.1-3.6c-1.8-0.5-3.7-0.6-5.5-0.7
					C270.2,209.4,270.1,213.2,272.6,213.3L272.6,213.3z"/>
			</g>
			<g class="st5">
				<path class="st6" d="M233.7,218.9c3.4-1.9,7-2.9,10.6-4.1c2.3-0.8,1.4-4.5-0.9-3.7c-3.9,1.3-7.9,2.4-11.6,4.5
					C229.8,216.8,231.6,220.1,233.7,218.9L233.7,218.9z"/>
			</g>
			<g class="st5">
				<path class="st6" d="M264.4,331L264.4,331c-0.3,1.3-0.7,2.4-1,3.7c-0.2-0.1-0.5-0.2-0.7-0.3c-2-1.3-3.9-2.8-5.3-4.7
					c-1.5-1.9,1.3-4.6,2.8-2.6C261.3,328.7,262.7,329.9,264.4,331z"/>
			</g>
			<path class="st7" d="M305.9,128.4c-3,1.9-6.1,3.4-9.3,4.9c2,2.6,3.6,6.8,2.9,8.3c-1.4,3.1-3.4,6-5.7,8.6
				c3.2,2.4,6.6,10.1,3.4,10.4c-1.9,0.1-8.2,0.4-14.6,1.2c2,2.5,4.6,6.7,2.4,8.3c-2.9,2.1-6.2,3.2-9.6,4.1c0.3,1.2,0.2,2.2-0.7,2.5
				l-3.5,1.1c-1.1,2.9-2.1,5.8-3.1,8.7c0.1,0.3,0.1,0.5,0.1,0.8c0.1,0.1-0.2,0.2-0.5,0.2c-0.1,0.2-0.2,0.4-0.2,0.6
				c-0.8,2-1.5,4.5-2.6,6.6c-5.8-0.8-12-0.7-17.5,0.4c0-8.9-3.8-17.1-7.8-25.1c-3.2,0.6-6.7,0.8-9.6,0.3c-2.1-0.4-2.2-2-2.2-3.8
				c-4.1,0.1-7.5-0.9-7.4-6.5c0-1.1,0-3,0.9-3.9c-3.5-1.3-6.4-3.3-7.7-6.8c-0.8-2.4,2.7-4.8,5.3-6c-0.2-0.3-0.5-0.5-0.7-0.8
				c-0.9-1.2,0.4-2.7,2-3.9c-6.8-2.9-13.4-6.3-18.6-11.8c-2.4-2.6,7.6-7.3,9.5-7.1c1.3,0.2,2.5,0.4,3.7,0.6
				c-0.8-0.8-1.5-1.8-2.2-2.7c-2.2-3.1,7.9-7.8,10.3-6.8c1.9,0.8,3.9,1.5,5.9,2.3c0-0.5,0.1-1,0.4-1.5c0.5-0.8,2.2-2.1,3.6-3.2
				c-1.7-2.8-3.8-5.4-5.9-7.9c-0.8-0.6-1.5-1.3-2.3-2c-0.5-0.5-1.1-1.2-1.6-2c-0.3-0.4-0.7-0.8-1.1-1.1c-0.2-0.2-0.1-0.5,0.3-0.6
				c-0.2-0.8-0.4-1.5,0-2.3c0.9-2.5,3.6-4.1,6.1-5.3c-2.2-5.4-4.5-10.9-7-16.3c-1.9-3.9,10.5-3.3,12.3,0.6c1.1,2.4,2.1,4.8,3.1,7.2
				c-0.1-2.9,0-5.9,0.3-8.8c0.5-4.5,11.2-1.7,12.3,1.5c0.6,1.6,1,3.3,1.4,4.9c2.7-2.9,7-4.5,11-2.9c1.2,0.5,2.3,1.2,3.3,2.1
				c1.5-0.5,3.1-0.6,4.1,0.4c2.8,2.8,2.1,7.3-0.3,10c-0.1,0,0,0.2-0.1,0.2c-0.1,0.3-0.2,0.6-0.4,0.9c2.4-0.4,5.2,0.1,6.7,2
				c1.7,2.1,3,4.4,3.1,7.2c0,0.7,0,1.5,0,2.2c2.7,1.2,4.9,3.2,5.6,5.8c0.4,0,0.8-0.1,1.2-0.2c1.8,0,12.9,3,7.6,5.9
				c-1.3,0.7-2.6,1.3-3.9,2c0.8,0.3,1.5,0.8,2.1,1.5c1.5,1.6,3,3.6,4.2,5.8c1.3-0.6,2.7-1.1,4-1.7
				C302.7,116.2,308.8,126.6,305.9,128.4z"/>
			<path class="st8" d="M299.4,117.5c-1.3,0.6-2.7,1.1-4,1.7c-1.2-2.2-2.7-4.2-4.2-5.8c-0.6-0.7-1.3-1.2-2.1-1.5
				c1.3-0.7,2.6-1.3,3.9-2c5.3-2.9-5.8-5.9-7.6-5.9c-0.4,0-0.8,0.1-1.2,0.2c-0.8-2.6-2.9-4.6-5.6-5.8c0-0.8,0-1.5,0-2.2
				c-0.1-2.8-1.4-5-3.1-7.2c-1.5-1.9-4.3-2.4-6.7-2c0.2-0.3,0.3-0.6,0.4-0.9c0.1,0,0-0.1,0.1-0.2c2.5-2.7,3.2-7.2,0.3-10
				c-1-1-2.6-0.9-4.1-0.4c-1-0.8-2.1-1.5-3.3-2.1c-3.9-1.6-8.3-0.1-11,2.9c-0.4-1.6-0.8-3.3-1.4-4.9c-0.1-0.4-0.4-0.7-0.8-1.1
				c-0.7,5.3,1.9,10.2,5.7,14.1c-1.8,10.3-2.1,21.2,7.3,25.6c2.5,1.2,5.1,1.7,7.6,1.8c0.7,3,1.8,5.8,3.6,8.1
				c-1.4,1.6-1.7,3.8-0.4,6.3c0.1,0.1,0.1,0.2,0.1,0.3c0,0.1,0,0.1,0,0.1c0,0.2-0.1,0.3-0.1,0.4c-0.4,0.6-1.1,1.5-0.1,0.5
				c-0.5,0.5-0.9,0.9-1.3,1.4c-0.2,0.1-0.3,0.3-0.4,0.6c-0.2,0.3-0.4,0.6-0.5,0.9c-0.2,0.2-0.6,1.1-0.8,1.3
				c-0.5,0.7-1.2,1.1-1.9,1.5c-0.9,0.6-2,1.1-3.1,1.5c-0.2,0.1-0.2,0.1-0.3,0.1c-0.8-0.2-1.6-0.5-2.4-0.6c-2.1-0.3-5.7,0-5.6,2.9
				c0.2,5.3,3,9.1,5.1,13.8c0.5,1.1,1.2,2.2,2,3.1c0,0.8-0.1,1.6-0.1,2.4c-0.1,0.9-0.3,1.8-0.5,2.8c-0.7,2.3-1.7,4-1.8,6.3
				c-0.5,0.6-0.8,1.2-1.1,2c-4.5,11.4-2.9,13.1-3.5,26.6c2.8-0.1,5.6,0.1,8.3,0.5c1.1-2.1,1.9-4.6,2.6-6.6c0.1-0.2,0.2-0.5,0.2-0.6
				c0.3,0,0.5-0.1,0.5-0.2c0-0.3,0-0.5-0.1-0.8c1.1-2.9,2.1-5.8,3.1-8.7l3.5-1.1c0.9-0.3,1-1.2,0.7-2.5c3.4-0.9,6.7-2,9.6-4.1
				c2.2-1.6-0.3-5.8-2.4-8.3c6.5-0.8,12.7-1.1,14.6-1.2c3.1-0.2-0.2-7.9-3.4-10.4c2.4-2.6,4.3-5.5,5.7-8.6c0.7-1.4-0.8-5.4-2.7-8.1
				c-0.1-0.1-0.1-0.2-0.2-0.3c0.1-0.1,0.3-0.2,0.4-0.2c3-1.4,6-2.9,8.8-4.7C308.8,126.6,302.7,116.2,299.4,117.5z M279.8,151.1
				c0-0.1-0.1-0.1,0-0.1C279.8,151,279.8,151,279.8,151.1C279.8,151,279.8,151,279.8,151.1z"/>
			<path class="st8" d="M297,133.1c-0.1,0.1-0.2,0.3-0.2,0.4c-0.1-0.1-0.1-0.2-0.2-0.3C296.7,133.2,296.8,133.1,297,133.1z"/>
		</g>
		<g>
			<path class="st9" d="M347.8,254.4c-0.6,1-1.4,2.1-2.1,3.2c-1.9,2.7-4,5.6-6.4,8.6c-10.9,13.9-18.9,24.2-28,35.6l-2.3,3
				c-2,2.5-4,5-6.2,7.7c-0.9,1-1.7,2.1-2.6,3.1c-0.8,0.9-1.6,1.9-2.4,3c-1.3,1.6-2.6,3.2-4.1,4.9c-2.8,3.5-6.7,7.9-10.9,12.5l0,0
				c-0.8,0.9-1.7,1.8-2.6,2.8c-3.5,3.7-7,7.4-10.3,10.8c-4.8,4.9-13.1,15.8-12.1,6.3c0.5-3.6,5.4-18.3,6.6-21.9
				c8-23.5,13.3-42.6,20.1-63.7c0.3-1.3,0.8-2.6,1.2-3.8c0.8-2.5,1.7-5.2,2.5-7.8c2.8-8.5,8.3-32.1,18.1-44.7
				c1.1-1.3,2.2-2.6,3.4-3.7c4-3.7,8.7-5.5,14-4.1c1.9,0.2,4,0.5,6,1.1c5.4,1.5,11,4.2,15.7,7.6c8.6,6,14.6,14.2,11.9,21.2
				C355.1,242.2,352,248.1,347.8,254.4z"/>
			<g class="st5">
				<path class="st6" d="M329.8,236.8c5.5,3.5,11.3,6.4,16.1,10.8c1.8,1.6,4.5-1.1,2.7-2.7c-5-4.6-11.1-7.7-16.9-11.4
					C329.6,232.1,327.8,235.5,329.8,236.8L329.8,236.8z"/>
			</g>
			<g class="st5">
				<path class="st6" d="M347.8,254.4c-0.6,1-1.4,2.1-2.1,3.2l0,0c-5.3-4.1-9.5-9.4-14.5-13.8c-1.9-1.6,0.8-4.4,2.7-2.7
					C338.7,245.2,342.8,250.4,347.8,254.4z"/>
			</g>
			<g class="st5">
				<path class="st6" d="M291,262.3c3-1.5,6.4-0.6,9.2,0.9c2.2,1.1,4-2.2,1.8-3.3c-4.1-2.2-8.7-3-13-0.8
					C286.9,260.1,288.9,263.4,291,262.3L291,262.3z"/>
			</g>
			<g class="st5">
				<path class="st6" d="M296.7,271.5c-4.1-0.4-8.2-1.4-12.3-1.2c0.3-1.3,0.8-2.6,1.2-3.8c3.7,0,7.3,0.9,11,1.2
					C299,268,299.1,271.8,296.7,271.5z"/>
			</g>
			<g class="st5">
				<path class="st6" d="M302.8,312.4c-0.8,1-1.7,2.1-2.5,3.1c-0.1-0.1-0.1-0.2-0.2-0.3c-2.1-4.5-7.2-6.6-11.3-8.9
					c-2.1-1.2-0.3-4.5,1.8-3.3C295,305.5,300.2,308,302.8,312.4z"/>
				<path class="st6" d="M301,316.1c-0.2-0.1-0.5-0.2-0.7-0.5C300.5,315.7,300.8,315.9,301,316.1z"/>
			</g>
			<g class="st5">
				<path class="st6" d="M295.1,312.3c1.7,1,3.5,2,5.1,3.2c-0.8,0.9-1.6,1.9-2.4,3c-1.4-1.1-3-1.9-4.6-2.8
					C291.1,314.4,293,311.1,295.1,312.3z"/>
				<path class="st6" d="M301,316.1c-0.2-0.1-0.5-0.2-0.7-0.5C300.5,315.7,300.8,315.9,301,316.1z"/>
			</g>
			<g class="st5">
				<path class="st6" d="M326.4,218c-6-2.1-12.2-5-18.7-3.7c-0.6,0.1-1.1,0-1.5-0.3c1.1-1.4,2.2-2.6,3.4-3.7
					c6.1-0.3,11.7,2.1,17.6,4.1C329.6,215,328.7,218.7,326.4,218z"/>
			</g>
			<g class="st5">
				<path class="st6" d="M311.3,301.8c-2.1-1.1-4.3-2.2-6.5-3.3c-2.2-1.1-4,2.2-1.8,3.3c2,1,4,2,6,3L311.3,301.8z"/>
			</g>
			<g class="st5">
				<path class="st6" d="M343.9,234.9c1.3,0.7,2.6,1.5,3.8,2.5c1.8,1.6,4.5-1.1,2.7-2.7c-1.4-1.2-3-2.2-4.6-3.1
					C343.6,230.4,341.7,233.7,343.9,234.9L343.9,234.9z"/>
			</g>
			<g class="st5">
				<path class="st6" d="M306.7,222.2c3.8-0.1,7.6,0.6,11.3,1.2c2.4,0.4,3.3-3.3,0.9-3.7c-4.1-0.6-8.1-1.5-12.3-1.3
					C304.2,218.5,304.3,222.3,306.7,222.2L306.7,222.2z"/>
			</g>
			<g class="st5">
				<path class="st6" d="M282.8,336L282.8,336c-0.9,1-1.7,1.9-2.6,2.8c-0.2-0.2-0.4-0.4-0.5-0.6c-1.2-2.1-2.2-4.2-2.6-6.6
					c-0.4-2.4,3.3-3.5,3.6-1C281.1,332.5,281.8,334.2,282.8,336z"/>
			</g>
			<path class="st7" d="M412.3,174.6c-3.5,0.3-7,0.2-10.5,0.1c0.6,3.3,0.1,7.7-1.2,8.7c-2.7,2.1-5.7,3.8-9,5
				c1.7,3.6,1.2,12-1.7,10.8c-1.8-0.8-7.5-3.3-13.6-5.6c0.7,3.2,1,8.1-1.7,8.5c-3.6,0.5-7,0-10.5-0.7c-0.3,1.2-0.8,2-1.7,1.9
				l-3.6-0.6c-2.3,2.1-4.5,4.2-6.7,6.3c0,0.3-0.2,0.5-0.2,0.7c0,0.1-0.2,0.1-0.5,0c-0.1,0.2-0.4,0.3-0.5,0.5
				c-1.6,1.5-3.4,3.3-5.4,4.7c-4.8-3.4-10.4-6.1-15.7-7.6c4.1-7.9,4.4-16.9,4.5-25.9c-3.1-0.9-6.3-2.3-8.7-4.1
				c-1.7-1.3-1.1-2.8-0.2-4.4c-3.7-1.8-6.2-4.2-3.6-9.2c0.5-1,1.4-2.6,2.6-3c-2.5-2.7-4.2-5.9-3.7-9.6c0.3-2.5,4.6-3,7.5-2.9
				c-0.1-0.3-0.2-0.6-0.2-1c-0.2-1.5,1.6-2.2,3.6-2.6c-4.8-5.7-9-11.7-11.2-19c-1-3.4,10.1-3,11.7-1.9c1,0.7,2,1.5,3,2.3
				c-0.3-1.1-0.5-2.3-0.7-3.4c-0.6-3.7,10.6-3.4,12.3-1.4c1.4,1.6,2.8,3.1,4.2,4.7c0.2-0.4,0.6-0.8,1-1.2c0.9-0.5,2.9-0.8,4.7-1.2
				c-0.3-3.3-0.9-6.6-1.7-9.7c-0.4-0.9-0.8-1.8-1.1-2.8c-0.2-0.7-0.4-1.6-0.5-2.5c-0.1-0.5-0.3-1-0.4-1.5c-0.1-0.3,0.1-0.4,0.5-0.4
				c0.1-0.8,0.4-1.5,1-2c2-1.8,5.1-2,7.9-1.9c0.5-5.9,1-11.8,1.2-17.7c0.2-4.4,10.8,1.8,10.7,6.2c-0.1,2.6-0.3,5.3-0.5,7.8
				c1.3-2.6,2.7-5.2,4.3-7.7c2.5-3.8,10.7,3.6,10.3,6.9c-0.2,1.7-0.6,3.4-1,5c3.7-1.4,8.3-0.8,11.1,2.4c0.9,1.1,1.5,2.2,2,3.4
				c1.6,0.2,3,0.9,3.5,2.2c1.3,3.8-1.4,7.5-4.9,8.7c-0.1,0-0.1,0.1-0.1,0.1c-0.2,0.2-0.5,0.4-0.8,0.6c2.3,0.7,4.6,2.5,5,4.8
				c0.5,2.7,0.7,5.3-0.5,7.8c-0.3,0.6-0.7,1.3-1,2c1.8,2.3,2.8,5.1,2.4,7.7c0.3,0.1,0.8,0.3,1.1,0.4c1.6,0.8,10.1,8.6,4.1,8.7
				c-1.5,0.1-2.9,0-4.4,0c0.5,0.6,1,1.4,1.2,2.3c0.6,2.1,1,4.6,1.1,7.1c1.4,0.1,2.9,0.2,4.3,0.3C415,162.4,415.7,174.4,412.3,174.6z
				"/>
			<path class="st8" d="M411.4,162c-1.4-0.1-2.9-0.2-4.3-0.3c-0.1-2.5-0.5-5-1.1-7.1c-0.2-0.9-0.6-1.6-1.2-2.3c1.4,0,2.9,0.1,4.4,0
				c6-0.2-2.5-7.9-4.1-8.7c-0.3-0.1-0.8-0.3-1.1-0.4c0.5-2.6-0.5-5.4-2.4-7.7c0.4-0.7,0.7-1.3,1-2c1.2-2.5,1-5.1,0.5-7.8
				c-0.4-2.3-2.7-4.1-5-4.8c0.3-0.2,0.5-0.4,0.7-0.6c0.1,0,0.1-0.1,0.2-0.1c3.4-1.3,6.1-5,4.9-8.7c-0.5-1.4-1.9-2-3.5-2.2
				c-0.5-1.2-1.1-2.3-2-3.4c-2.8-3.2-7.3-3.8-11.1-2.4c0.4-1.6,0.8-3.3,1-5c0-0.4,0-0.8-0.2-1.3c-3,4.4-3,9.9-1.4,15.1
				c-6.3,8.3-11.5,17.9-5.2,26.1c1.7,2.2,3.8,3.8,5.9,5.1c-0.8,3-1,6-0.5,8.8c-2,0.8-3.3,2.6-3.2,5.4c0,0.1,0,0.2,0,0.3
				c0,0,0,0,0,0.1c-0.1,0.1-0.2,0.2-0.3,0.3c-0.6,0.4-1.6,0.8-0.3,0.4c-0.6,0.2-1.2,0.4-1.8,0.7c-0.2,0.1-0.4,0.2-0.6,0.4
				c-0.3,0.2-0.6,0.4-0.9,0.6c-0.3,0.1-1,0.7-1.3,0.8c-0.8,0.4-1.6,0.4-2.4,0.5c-1.1,0.1-2.3,0.1-3.4-0.1c-0.2,0-0.2,0-0.3,0
				c-0.6-0.6-1.2-1.1-1.8-1.6c-1.7-1.2-5.1-2.6-6.3,0c-2.2,4.8-1.5,9.5-1.8,14.6c0,1.2,0.1,2.5,0.3,3.7c-0.4,0.7-0.8,1.4-1.2,2.1
				c-0.5,0.7-1.1,1.5-1.7,2.2c-1.7,1.7-3.4,2.7-4.4,4.8c-0.7,0.3-1.3,0.7-1.9,1.3c-9.2,8.1-8.6,10.3-15.3,22
				c2.5,1.2,4.9,2.6,7.2,4.2c2-1.4,3.8-3.2,5.4-4.7c0.1-0.2,0.4-0.3,0.5-0.5c0.3,0.1,0.5,0.1,0.5,0c0.1-0.2,0.2-0.5,0.2-0.7
				c2.3-2.1,4.5-4.2,6.7-6.3l3.6,0.7c0.9,0.2,1.4-0.6,1.7-1.9c3.5,0.8,6.9,1.3,10.5,0.7c2.7-0.4,2.4-5.3,1.7-8.5
				c6.1,2.3,11.8,4.8,13.6,5.6c2.9,1.2,3.4-7.2,1.7-10.8c3.3-1.2,6.3-2.9,9-5c1.2-1,1.8-5.2,1.3-8.4c0-0.1-0.1-0.2-0.1-0.3
				c0.2,0,0.3,0,0.5,0c3.3,0.1,6.7,0.2,10-0.1C415.7,174.3,415,162.3,411.4,162z M378.7,182.9c0,0,0-0.1,0-0.1
				C378.7,182.8,378.7,182.8,378.7,182.9C378.8,182.8,378.8,182.9,378.7,182.9z"/>
			<path class="st8" d="M402.2,174.7c-0.1,0.1-0.3,0.2-0.4,0.3c0-0.1-0.1-0.2-0.1-0.3C401.9,174.7,402.1,174.7,402.2,174.7z"/>
		</g>
		<g>
			<path class="st10" d="M373.5,307.5c0.2,0,0.2,0.1,0.2,0.2c-1.1-0.3-2.2-0.5-3.3-0.8l-0.1,0c-2.2-0.6-4.4-1.3-6.5-2.2
				c2.5,0.1,4.9,0.5,6.9,1.4l0-0.1c0.2,0.1,0.4,0.1,0.6,0.3c0.2,0,0.5,0.2,0.8,0.4C372.6,306.9,373,307.2,373.5,307.5z"/>
			<path class="st10" d="M371.8,345.1c0,0.2-0.1,0.3-0.3,0.5c-0.5,1.1-1.2,2.1-1.8,3.3c-12.6,21.1-37.7,44-75.2,53.6l-0.1,0
				c-9.4,2.4-19.6,4-30.6,4.5c-23.4,1.1-42.9-2-59.1-7.4l-0.1,0c-11.1-3.7-20.7-8.4-28.7-13.6c-25.6-16.1-36.8-36.7-38.5-41.8
				c-1.7-5.2-2.1-13.5-2.1-13.5l-2-5.3c1.4,0.2,3,0.5,4.1-0.1c0.4-0.2,0.9-0.6,1.3-1.3c0.3-0.3,0.6-0.7,0.8-1.1
				c0.4-0.6,0.7-1.2,1-1.5l0-0.1c1.1-1.4,1.3-2.5,2.5-3.6c1-0.9,2.1-1.5,2.9-2.6c0.2-0.3,0.4-0.5,0.5-0.8l3.4,0.8
				c0,0,5.9-2.3,14.2-0.3c11,2.7,92.5,66.5,183.2-5c4.6-3.7,10.9-5.4,16.5-5.2c2.5,0.1,4.9,0.5,6.9,1.4c0.2,0,0.4,0.1,0.6,0.2
				c0.2,0,0.5,0.2,0.8,0.4c0.5,0.2,0.9,0.4,1.3,0.8c0.2,0,0.2,0.1,0.2,0.2c0.3,0.2,0.7,0.5,0.9,0.8c0.2,0,0.3,0.2,0.4,0.3
				C381.2,315.1,380.1,329.3,371.8,345.1z"/>
			<path class="st11" d="M146.7,314.4c-0.2,0.3-0.3,0.5-0.5,0.8c-0.8,1.1-1.9,1.7-2.9,2.6c-1.3,1.1-1.5,2.2-2.5,3.6
				c-0.6,1-2.1,3.4-3.2,4c-1,0.5-2.6,0.3-4.1,0.1l-1.2-3.4l9-9L146.7,314.4z"/>
			<path class="st11" d="M183.7,408.5c-0.1,0.3-0.2,0.6-0.3,0.9c-0.4,1.3,0.9,3.1,0.1,4.4c-0.9,1.6-2.9,1.8-3.4,3.5
				c-0.3,1.2-0.1,6.4-1,7.4c-0.8,1-3.4,1-4.8-0.3l-2.3-2.2l5.8-12L183.7,408.5z"/>
			<path class="st10" d="M427.5,244.2c1,4.1,0.3,9.2-1.9,11.5c-2.1,2.4-12.4,2.9-12.4,5.7c0,2.8,4.9,28.5,1.1,41
				c-0.7-2.9-1.6-5.4-2.9-7.5l0-0.1c-1.1-1.9-2.3-3.3-3.7-4.4c-0.5-0.4-1-0.7-1.6-1c-0.5-0.3-1.1-0.5-1.7-0.7
				c-0.5-0.1-0.9-0.2-1.4-0.2c-1.1-0.2-2.2-0.2-3.4,0.1c-0.1-0.1-0.1,0-0.2,0l0,0.1c-7.4,1.1-16.8,7.1-21.6,15l-2.7,4.4
				c-0.5-0.1-0.9-0.2-1.3-0.3c0-0.1,0-0.1-0.2-0.2c-0.4-0.3-0.9-0.7-1.3-0.8c-0.3-0.2-0.5-0.4-0.8-0.4c-0.2-0.2-0.4-0.2-0.6-0.3
				l0,0.1c-2-0.9-4.4-1.4-6.9-1.4c-0.3-0.1-0.6-0.2-0.8-0.3c7.7-6.4,7.9-17,8.6-25.9c0.7-6.6-0.2-14.3-4.1-15
				c-2.2-11,4.4-10.7,14.9-15c9.6-4.1,19.3-9.6,29.5-11.1C426.2,239.6,426.6,240.1,427.5,244.2z"/>
			<path class="st8" d="M427.5,244.1c1,4.1,0.3,9.2-1.9,11.4c-2.1,2.4-12.4,2.9-12.4,5.7c0,2.8,4.9,28.5,1.1,41
				c-0.7-2.9-1.6-5.4-2.9-7.5l-2.5-3.3c1.2-6.9,0.4-12.2-0.4-19.9c-0.2-2.7-2.2-9.5-1-12.2c1.6-2.6,4-1.5,5.1-4.5
				c0.1-0.1,0.1-0.2,0.1-0.4c1-3.5-0.7-13.1-0.8-17.2C426.2,239.6,426.6,240.1,427.5,244.1z"/>
			<path class="st8" d="M396.3,289.3c-1.9-0.6-4,0.7-6.2,2.8c-4.8,2.7-9.4,6.8-12.3,11.5l-2.7,4.3c-0.3,0.1-0.5,0.2-0.7,0.2
				c0.2,0.1,0.3,0.2,0.4,0.3c0.1,0.1,0.3,0.2,0.4,0.3c6.2,6.4,5.1,20.6-3.2,36.3c-0.1,0.2-0.2,0.3-0.3,0.4c0,0.1,0,0.1,0,0.2
				c-0.5,1.1-1.2,2.1-1.8,3.3c-12.5,21-37.5,43.7-74.6,53.3l-0.1,0c-9.5,2.5-19.9,4.1-31.2,4.6c-23.2,1.1-42.6-2-58.8-7.3
				c-11.3-3.7-20.9-8.4-29.1-13.6c-25.6-16.1-36.8-36.7-38.5-41.8c-1.7-5.2-2.1-13.5-2.1-13.5l-2-5.3l0-0.1c1.5,0.3,3,0.5,4.1-0.1
				c0.2,0,0.2-0.1,0.3-0.2c0.3-0.2,0.7-0.5,1-1c0.3-0.4,0.6-0.8,0.8-1.1c0.4-0.6,0.7-1.2,1-1.5c18.8,22.6,55.1,35.4,81.3,41.1
				c30.8,6.2,58.2,5.8,87.9-5.4c24.5-8.9,47.9-26.9,60.4-50.2l0.1,0c0.2-0.3,0.3-0.5,0.4-0.8l0-0.1c1-4.6,13.7-17.1,14.8-21.7
				c1.3-6-1.2-20.3,5.4-19.8C394.6,272.5,395.2,281,396.3,289.3z"/>
			<path class="st10" d="M414.3,302.3c4.1,16.9-0.3,46.6-18.8,76.1c-1,1.5-2,3.1-3,4.7c-5.3,7.7-11.5,15.3-18.9,22.6
				c-3,2.9-6.1,5.8-9.4,8.6c-8.2,7.1-17.7,13.7-28.3,19.7c-28.9,16.3-54.6,22.8-76.4,24.1c-3.2,0.2-6.3,0.2-9.3,0.2
				c-1.5,0-3.1,0-4.6-0.1c-8.9-0.4-16.9-1.6-24-3.3c-1.2-0.3-2.4-0.5-3.5-0.9c-6.8-1.8-12.7-4.1-17.6-6.3c-2-0.9-3.9-1.9-5.6-2.7
				c-1.6-0.9-3.1-1.8-4.4-2.6c-3.1-2-5.2-3.6-6-4.5c-3.4-3.4-6.4-10.1-6.4-10.1l-3.7-3.4c1.5-0.6,3.1-1.2,3.9-2.2
				c0-0.1,0.1-0.2,0.2-0.3c0-0.1,0.1-0.2,0.2-0.3c0.2-0.3,0.4-0.8,0.6-1.2c0.2-0.5,0.4-0.9,0.5-1.4c0.3-0.7,0.4-1.3,0.5-1.8
				c0.5-1.7,0.4-2.7,1.3-4.3c0.7-1.3,1.6-2.4,2-3.6c0.1-0.3,0.1-0.6,0.2-0.9l3.6-1c0,0,5-4.9,13.7-7.4c0.8-0.3,2-0.4,3.7-0.5l0.1,0
				c0.1,0,0.1,0,0.3,0c21.9-1.6,109.5,1,169.6-91.1c0,0,0-0.1,0.1-0.1c0.1-0.2,0.2-0.3,0.3-0.5l2.7-4.4c2.9-4.7,7.5-8.8,12.3-11.5
				c2-1.3,4.2-2.2,6.2-2.8c1-0.3,2.1-0.6,3.1-0.7l0.2,0c1.1-0.1,2.3-0.2,3.4-0.1c0.4,0,1,0.1,1.4,0.2c0.6,0.2,1.2,0.4,1.7,0.6
				c0.6,0.3,1.1,0.6,1.6,1c1.4,1.1,2.6,2.5,3.7,4.4l0,0.1C412.7,296.9,413.6,299.4,414.3,302.3z"/>
			<path class="st8" d="M414.3,302.3c4.1,16.9-0.3,46.6-18.8,76.1c-1,1.5-2,3.1-3,4.7c-5.3,7.7-11.5,15.3-18.9,22.6
				c-3,2.9-6.1,5.8-9.4,8.6c-8.2,7.1-17.7,13.7-28.3,19.7c-28.9,16.3-54.6,22.8-76.4,24.1c-3.2,0.2-6.3,0.2-9.3,0.2
				c-1.5,0-3.1,0-4.6-0.1c-8.9-0.4-16.9-1.6-24-3.3c-1.2-0.3-2.4-0.5-3.5-0.9c-6.8-1.8-12.7-4.1-17.6-6.3c-2-0.9-3.9-1.9-5.6-2.7
				c-1.6-0.9-3.1-1.8-4.4-2.6c-3.1-2-5.2-3.6-6-4.5c-3.4-3.4-6.4-10.1-6.4-10.1l-3.7-3.4l-0.1-0.1c1.5-0.6,3.2-1.2,4-2.2
				c0.1-0.1,0.1-0.1,0.2-0.2c0-0.1,0.1-0.2,0.2-0.3c0.2-0.3,0.4-0.8,0.6-1.2c0.2-0.5,0.4-0.9,0.5-1.4c0.2-0.7,0.4-1.3,0.5-1.8l0.1,0
				c25.6,9.4,65.1,1.6,92.4-6.8c7.6-2.4,14.7-5.1,21.7-8l0.1,0c0.2-0.1,0.3-0.2,0.5-0.2l0.1,0c22.5-9.6,42.3-22.1,61.4-40.5
				c5.4-5,10.4-10.4,15-16.2c0.1-0.1,0.2-0.2,0.3-0.4c8.5-10.5,15.7-22.1,20.7-34.1c3.1-7.4,5.4-15,6.8-22.4l0-0.1
				c0.1,0,0.1,0,0.2,0c1.2-0.2,2.3-0.2,3.4-0.1c0.5,0,1,0.1,1.4,0.2c0.6,0.2,1.2,0.4,1.7,0.7c0.6,0.3,1.1,0.6,1.6,1
				c1.4,1.1,2.6,2.5,3.7,4.4l0,0.1C412.7,296.9,413.6,299.4,414.3,302.3z"/>
			<path class="st8" d="M426.7,249.3c0.4,4.5-3.8,1.3-6.7,1.6c-1.9,0.2-4.3,1.4-5.3-0.8c-0.9-2.4-0.3-6.4-0.7-8.9
				c0.3-0.1,2.3-0.8,2.7-0.7c2.4,0,6.7,0.5,8.9,1.9C427.7,243.6,426.5,247.1,426.7,249.3z"/>
		</g>
		<g>
			<linearGradient id="SVGID_4_" gradientUnits="userSpaceOnUse" x1="27.1711" y1="244.3951" x2="281.8647" y2="244.3951">
				<stop  offset="8.527380e-02" style="stop-color:#4432F6"/>
				<stop  offset="0.5999" style="stop-color:#4236F3"/>
				<stop  offset="0.8795" style="stop-color:#2394B1"/>
				<stop  offset="1" style="stop-color:#4AADAF"/>
			</linearGradient>
			<path class="st12" d="M279.1,392c-12,0-24.2-1.1-36.5-3.5c-24.2-4.5-48.7-13.5-72.1-26.6c-28.3-15.7-54.9-37.5-78.1-65
				c-15.4-18.3-28.1-37.7-38-57.7c-23.9-47.5-32.1-97.9-24.6-142.3c45.1,0,93.4,16.6,136.2,48.1c18.1,13.1,35.1,28.8,50.5,47.1
				c22.4,26.6,39.2,55.6,50.1,85.1C281,316.3,285.3,356.1,279.1,392z"/>
			<linearGradient id="SVGID_5_" gradientUnits="userSpaceOnUse" x1="276.3512" y1="448.6805" x2="388.8716" y2="448.6805">
				<stop  offset="0" style="stop-color:#88E0E8"/>
				<stop  offset="0.5613" style="stop-color:#BFE1E9"/>
				<stop  offset="1" style="stop-color:#FFFFFF"/>
			</linearGradient>
			<path class="st13" d="M321.3,442c-6.1,35.4-24.6,48.1-30.2,63.4c-14.1-38.6-18.1-78-12-113.4c35.9-0.1,74,10.5,109.7,30.8
				C372.8,425.8,357.3,441.9,321.3,442z"/>
			<linearGradient id="SVGID_6_" gradientUnits="userSpaceOnUse" x1="27.1711" y1="167.9615" x2="166.0757" y2="167.9615">
				<stop  offset="0" style="stop-color:#88E0E8"/>
				<stop  offset="0.5613" style="stop-color:#BFE1E9"/>
				<stop  offset="1" style="stop-color:#FFFFFF"/>
			</linearGradient>
			<path class="st14" d="M123.1,207.2c-20.4,17.2-44.1,27.7-68.6,31.9c-23.9-47.5-32.1-97.9-24.6-142.3c45.1,0,93.4,16.6,136.2,48.1
				C157.8,168.4,143.5,190,123.1,207.2z"/>
			<ellipse transform="matrix(0.7641 -0.6451 0.6451 0.7641 -71.044 78.3928)" cx="71.7" cy="136.3" rx="12.7" ry="12.7"/>
			<linearGradient id="SVGID_7_" gradientUnits="userSpaceOnUse" x1="66.2669" y1="131.5163" x2="77.6906" y2="131.5163">
				<stop  offset="0" style="stop-color:#88E0E8"/>
				<stop  offset="0.5613" style="stop-color:#BFE1E9"/>
				<stop  offset="1" style="stop-color:#FFFFFF"/>
			</linearGradient>
			<circle class="st15" cx="72" cy="131.5" r="5.7"/>
			<linearGradient id="SVGID_8_" gradientUnits="userSpaceOnUse" x1="166.0757" y1="211.0279" x2="266.6697" y2="211.0279">
				<stop  offset="0" style="stop-color:#88E0E8"/>
				<stop  offset="0.5613" style="stop-color:#BFE1E9"/>
				<stop  offset="1" style="stop-color:#FFFFFF"/>
			</linearGradient>
			<path class="st16" d="M266.7,277.2c-10.9-29.5-27.6-58.5-50.1-85.1c-15.4-18.3-32.5-34-50.5-47.1c12,1.4,17.3,5,29.8,8.1
				c8.2,2.9,20.6,5,31.3,9.6c-6.2,4.9-14.1,10.9-18.4,13.3c13.4,11.4,27.8,18.2,35.9,29.9c-2.1-0.1-7.2,0.5-11.4,2.3
				c3.9,3.5,12.9,9.7,16.5,14.2c11.8,14.2-4.7,8.2,0.2,14.2c5.7,7.2,13.3,15.2,13,20.5C262.2,264.3,266.1,264.1,266.7,277.2z"/>
			<linearGradient id="SVGID_9_" gradientUnits="userSpaceOnUse" x1="170.5797" y1="383.1609" x2="242.6377" y2="383.1609">
				<stop  offset="0" style="stop-color:#88E0E8"/>
				<stop  offset="0.5613" style="stop-color:#BFE1E9"/>
				<stop  offset="1" style="stop-color:#FFFFFF"/>
			</linearGradient>
			<path class="st17" d="M217.4,404.5c-16-14.9-14.6-16.7-46.9-42.6c23.4,13.1,47.8,22.1,72.1,26.6
				C231.8,396.2,226.1,400.7,217.4,404.5z"/>
			<path class="st2" d="M279.1,392c-11-18.5-124.6-165-148.8-191.2c3.9-3.7,7.6-7.6,10.8-11.8C257.4,326.3,279.1,392,279.1,392z"/>
		</g>
		<g>
			<path class="st18" d="M429.7,393.7l-79.5-15.9h0l-40.8-8.1c0,0,0,0,0-0.1l-31.7-6.3L231,354l-19.8-3.9
				c55.8-44.4,127.8-42.8,127.8-42.8L429.7,393.7z"/>
			<path class="st10" d="M423,496.5c-5.2-6.5-5.9-18.6,2.6-22.9c0.4-0.2,0.8-0.4,1.3-0.5l0.2-4.3l0.4-9.8l0.2-4.1
				c-5.3-1.3-10.1-4.7-12.7-10.3c-5.2-11,2.6-20.7,13.8-22.4c0,0,0,0,0.1,0l0.1-2.7l0.9-25.8l-79.5-15.9h0l-40.8-8.1c0,0,0,0,0-0.1
				l-31.7-6.3L231,354l-19.8-3.9l2.5,61.6l1.5,39.3l0.1,3.2l55,14l0.1,0l21.8,5.5l52.1,13.3c0,0,0,0,0,0l40.7,10.4l40.6,10.4v-0.1
				l0.3-8.5C424.8,498.5,423.8,497.6,423,496.5z"/>
			<path class="st19" d="M293.8,469.2c-0.2,1.8-0.7,3.5-1.5,4.8l-21.8-5.5l-0.1,0c-2-2.3-4.2-4.8-5.6-7.6
				c-3.1-6.5-3.8-13.6,0.6-19.8c3.1-4.4,8.6-6.5,13.5-3.6c3,1.7,5,5.4,5,8.9C290.2,452.3,294.5,460.3,293.8,469.2z"/>
			<path class="st19" d="M350.3,400.7c-2.9,6-11.3,6.1-15.6,2c-0.1-0.1-1.3-1-1.3-1c-0.6-0.4-1.3-0.9-2-1.3c-1.5-0.9-3-1.8-4.6-2.7
				c-3.5-2-6.9-4.1-10-6.6c-6.4-5.3-9.5-13.1-7.5-21.1l40.8,8.1h0C353.6,385,353.8,393.4,350.3,400.7z"/>
			<path class="st19" d="M414.8,444.5c-5.2-11,2.6-20.7,13.8-22.4c0,0,0,0,0.1,0l0.1-2.6c-12.9-5.5-30.2,0.4-31.1,16.3
				c-0.4,8,3.7,15.1,10.8,18.7c2.8,1.5,5.9,2.4,9.1,3.1c1.3,0.2,2.6,0.4,4,0.6c0.6,0.1,1.1,0.1,1.7,0.2c0,0.1,2.1,0.3,3.2,0.4
				c0.4,0.1,0.6,0.1,1,0.1l0.2-4.2C422.2,453.5,417.4,450.1,414.8,444.5z"/>
			<path class="st19" d="M323.5,437.8c-0.5,5.4-4.1,9.9-9.9,9.9c-5,0-10.4-4.5-9.9-9.9c0.1-0.9,0.2-1.8,0.1-2.7V435
				c-0.1-0.4-0.2-0.8-0.3-1.2c0-0.1-0.1-0.3-0.3-0.4c-0.2-0.3-0.3-0.5-0.4-0.6c-0.2-0.3-0.5-0.5-0.7-0.8c-0.3-0.2-0.4-0.3-0.5-0.4
				c-0.4-0.3-0.7-0.5-1.1-0.7c-4.6-2.8-6.4-8.9-3.6-13.6c2.7-4.6,8.9-6.4,13.6-3.5C318.8,418.6,324.5,427.7,323.5,437.8z"/>
			<path class="st19" d="M276.1,376c1.3-4,1.9-8.4,1.6-12.5l-46.7-9.3c-0.1,0.1-0.1,0.2-0.1,0.2c-1.4,14,7.5,29.8,20.8,34.9
				c0.2,2.4,1.2,4.8,2.8,6.8c4.5,5.8,13.9,6.9,18.8,0.9c4.4-5.4,5-12.2,3.6-18.8C276.7,377.3,276.4,376.7,276.1,376z"/>
			<path class="st19" d="M385,497.7l-40.7-10.4c0,0,0,0,0,0c-2.9-6.1-4.3-12.6-2.8-19.4c1.7-7.8,7.8-14.4,16.2-14.5
				c8-0.1,14.7,4,20.7,8.8c3.7,2.8,3.6,8.5,1.3,12.3C384.6,481.4,387,490,385,497.7z"/>
			<path class="st19" d="M225.5,453.4c-3.4,0.4-6.9-0.5-10.2-2.2l-1.5-39.3c1.6-0.4,3.3-0.4,5-0.2c9.3,1.5,18.1,10.1,21.3,18.6
				C244.2,441.2,236.5,452,225.5,453.4z"/>
			<path class="st19" d="M423,496.5c-5.2-6.5-5.9-18.6,2.6-22.9c0.4-0.2,0.9-0.4,1.3-0.5l0.2-4.2c-4.1-0.4-8.2-0.1-11.8,2.1
				c-4.4,2.8-6.9,7.9-6.5,13.1c0.8,9.1,6.6,17.5,14,22.6c0.9,0.6,1.9,1.1,2.9,1.3l0.3-8.6C424.8,498.5,423.8,497.6,423,496.5z"/>
			<path class="st19" d="M387.1,414.3c0.4,3.7-1,7.7-3.8,10.2c-5.1,4.5-13.4,5.4-19.3,1.7c-2.9-1.8-4.8-4.2-5.9-6.9
				c-0.4-0.2-0.8-0.5-1.1-0.9c-4-4-3.6-10,0-14c5.2-5.8,15.9-8,22.5-3.1C384,404.7,386.4,408.5,387.1,414.3z"/>
			<path class="st20" d="M350.3,400.6c-2.4,5.1-8.8,5.9-13.3,3.5c-0.4-1.2-0.6-2.4-0.5-3.7c0.6-4.4,3.1-4.4,0-9.3
				c-3.5-5.2-12.5-10.7-9.2-17.9l22.9,4.6h0.1C353.6,384.9,353.8,393.4,350.3,400.6z"/>
			<path class="st20" d="M276.9,378.1c1.4,6.6,0.8,13.4-3.6,18.8c-3.5,4.3-9.3,4.9-14,2.8c-2.6-5.1-2.3-11.7,1.2-17
				c2.8-4.4,5.9-6.5,3.7-11.8c-2-4.9-6.5-8.2-9.6-12.2l23,4.6c0.3,4.1-0.3,8.5-1.6,12.5C276.4,376.6,276.7,377.3,276.9,378.1z"/>
			<path class="st20" d="M385,497.6l-12.2-3.1c-1.4-3-2.2-6.3-2.8-9.1c-1.5-6.5-5-6.8-9.3-11.5c-5.2-5.2-6.2-15.3-1.1-20.4
				c7.2,0.4,13.3,4.3,18.9,8.7c3.7,2.8,3.6,8.5,1.3,12.2C384.6,481.3,387,489.9,385,497.6z"/>
			<path class="st20" d="M237.4,446.8c-0.8-4.2-1.9-8.2-4.4-11.6c-4.8-5.9-11.5-10.4-18.8-12.3l-0.4-11.1c1.6-0.4,3.3-0.4,5-0.2
				c9.3,1.5,18.1,10.1,21.3,18.6C242.3,436.4,241,442.4,237.4,446.8z"/>
			<path class="st20" d="M387.1,414.2c0.4,3.7-1,7.7-3.8,10.2c-4.2,3.7-10.6,5-16,3.2c-1.7-5.4-0.3-11.9,4.8-15
				c3.9-2.6,9.7-2,14.4-1.1C386.8,412.3,387,413.2,387.1,414.2z"/>
			<path class="st20" d="M323.5,437.7c-0.1,1.6-0.6,3.2-1.3,4.5c-4.5-4.5-9.4-9.6-10.5-14.8c-1.1-4.8,1.6-7.5,5.2-8.7
				C321.5,423.9,324.2,430.6,323.5,437.7z"/>
			<path class="st20" d="M293.8,469.1c0,0.2-0.1,0.4-0.1,0.6c-5.5-0.7-10.8-2.3-13-4.2c-2.5-1.8-2.5-4-4-6.2
				c-1.5-2.5-3.7-3.8-5.3-5.9c-3-4.6-2.6-12.4,1.1-17.2c2.1-0.4,4.3-0.1,6.4,1.2c3,1.7,5,5.4,5,8.9
				C290.2,452.3,294.5,460.3,293.8,469.1z"/>
			<path class="st10" d="M350.2,377.8L350.2,377.8l-40.8-8.1c0,0,0,0,0-0.1l-31.7-6.3L231,354l-19.8-3.9l2.5,61.6v0.1l0.4,11
				l1.1,28.3l0.1,3.1l4.1,1l-0.1-2.5l-1.1-28.5l-0.5-12.7v0l-2.1-55.7l15.2,3l29.1,5.8l17.7,3.5l31.1,6.2l17.9,3.6l25.4,5.1v0.1
				l77.4,15.5l0.2-5L350.2,377.8z M277.7,363.5l-23-4.6c0-0.1,0-0.1,0-0.1L277.7,363.5L277.7,363.5z M350.2,377.9L350.2,377.9
				l-23-4.6v0L350.2,377.9L350.2,377.9L350.2,377.9z"/>
		</g>
		<g>
			<linearGradient id="SVGID_10_" gradientUnits="userSpaceOnUse" x1="148.5515" y1="347.9082" x2="148.5515" y2="490.4034">
				<stop  offset="0.5203" style="stop-color:#FA5B7C"/>
				<stop  offset="1" style="stop-color:#F0979F"/>
			</linearGradient>
			<path class="st21" d="M138.7,352.1c-26.8-3.4-55.8-11.6-70.1,19.5c-6.8,17-6.6,37.7-1.3,55.2c12.3,51.3,46.7,63.6,84.9,63.6
				c51.8,0,81.4-41.8,81.5-87.7c0.6-27.1-12.6-49.4-39.2-53.7C173.3,345.3,160.8,352.6,138.7,352.1L138.7,352.1z"/>
			<path class="st8" d="M144.8,369.1c-25,0-43.1-9.9-41.2-14c2.2-4.8,20.6,1,24.1,1.6c5.8,0.9,10.9,1.9,16.7,1.7
				c6.3-0.2,5.2-0.2,11.5-1.1c4.7-0.7,10.4-4.8,14.5-1.6C174.6,359.3,164.1,369.1,144.8,369.1z"/>
			<path class="st22" d="M145.6,333c-1.4,5.7-2.9,11-3.2,16.9c-0.2,5.3,0.3,11.1,0.8,16.7c-1.4,0-2.8-0.2-4-0.7
				c-1.9-12.8-0.3-27.4-1.2-38.8c0.5-3.4,2.8-4.2,5.4-3.2C147.5,325.2,146.4,330.2,145.6,333z"/>
			<path class="st23" d="M217.2,376.1c0,6.6-8.3,5.4-11.8,3.8c-5.2-2.1-22.3-4.7-25.7-9.1c-5-6.3,4.2-8.3,8.6-14.6
				c4.9-6.6,20,3.1,24.3,9.8C216,371.4,217.3,372.7,217.2,376.1z"/>
			<path class="st8" d="M219.1,454.6c-13.6,21.3-36.4,35.8-66.8,35.8c-38.2,0-72.5-12.3-84.9-63.6c-5.3-17.5-5.5-38.2,1.3-55.2
				c4.2-9,9.5-14.8,15.8-18.2c-1,3.6-2.1,7.2-2.4,10.9c-1.2,10.6-0.6,21.1,1.3,31.7c3.1,19.2,14.9,38.5,29.8,50.9
				C140.6,469.6,184.7,470.3,219.1,454.6z"/>
		</g>
	</g>
</g>
<g>
	<g>
		<g>
			
				<linearGradient id="SVGID_11_" gradientUnits="userSpaceOnUse" x1="-1178.4119" y1="-358.2319" x2="-1157.3446" y2="-358.2319" gradientTransform="matrix(0 1 -1 0 120.5762 1315.5889)">
				<stop  offset="0" style="stop-color:#27ECB8"/>
				<stop  offset="1" style="stop-color:#99D7B4"/>
			</linearGradient>
			<path class="st24" d="M467.9,147.7c0,14,21.8,14,21.8,0C489.7,133.7,467.9,133.7,467.9,147.7L467.9,147.7z"/>
		</g>
	</g>
	<g>
		<g>
			
				<linearGradient id="SVGID_12_" gradientUnits="userSpaceOnUse" x1="-945.9629" y1="36.9315" x2="-924.8956" y2="36.9315" gradientTransform="matrix(0 1 -1 0 120.5762 1315.5889)">
				<stop  offset="0" style="stop-color:#27ECB8"/>
				<stop  offset="1" style="stop-color:#99D7B4"/>
			</linearGradient>
			<path class="st25" d="M72.8,380.2c0,14,21.8,14,21.8,0C94.5,366.1,72.8,366.1,72.8,380.2L72.8,380.2z"/>
		</g>
	</g>
	<g>
		<g>
			
				<linearGradient id="SVGID_13_" gradientUnits="userSpaceOnUse" x1="-1262.432" y1="42.4202" x2="-1242.8507" y2="42.4202" gradientTransform="matrix(0 1 -1 0 120.5762 1315.5889)">
				<stop  offset="8.527380e-02" style="stop-color:#4432F6"/>
				<stop  offset="0.301" style="stop-color:#423BEB"/>
				<stop  offset="0.682" style="stop-color:#3B53CD"/>
				<stop  offset="1" style="stop-color:#356BAF"/>
			</linearGradient>
			<path class="st26" d="M68,62.9c0,13.1,20.2,13.1,20.2,0C88.3,49.9,68,49.9,68,62.9L68,62.9z"/>
		</g>
	</g>
	<g>
		<g>
			
				<linearGradient id="SVGID_14_" gradientUnits="userSpaceOnUse" x1="-874.1686" y1="2.2443" x2="-857.2159" y2="2.2443" gradientTransform="matrix(0 1 -1 0 120.5762 1315.5889)">
				<stop  offset="8.527380e-02" style="stop-color:#4432F6"/>
				<stop  offset="0.301" style="stop-color:#423BEB"/>
				<stop  offset="0.682" style="stop-color:#3B53CD"/>
				<stop  offset="1" style="stop-color:#356BAF"/>
			</linearGradient>
			<path class="st27" d="M109.6,449.9c0,11.3,17.5,11.3,17.5,0C127.1,438.6,109.6,438.6,109.6,449.9L109.6,449.9z"/>
		</g>
	</g>
	<g>
		<g>
			
				<linearGradient id="SVGID_15_" gradientUnits="userSpaceOnUse" x1="-902.0588" y1="-29.1018" x2="-894.4806" y2="-29.1018" gradientTransform="matrix(0 1 -1 0 120.5762 1315.5889)">
				<stop  offset="8.527380e-02" style="stop-color:#4432F6"/>
				<stop  offset="0.301" style="stop-color:#423BEB"/>
				<stop  offset="0.682" style="stop-color:#3B53CD"/>
				<stop  offset="1" style="stop-color:#356BAF"/>
			</linearGradient>
			<path class="st28" d="M145.8,417.3c0,5.1,7.8,5.1,7.8,0C153.6,412.3,145.8,412.3,145.8,417.3L145.8,417.3z"/>
		</g>
	</g>
	<g>
		<g>
			
				<linearGradient id="SVGID_16_" gradientUnits="userSpaceOnUse" x1="-942.7374" y1="-331.2855" x2="-935.1592" y2="-331.2855" gradientTransform="matrix(0 1 -1 0 120.5762 1315.5889)">
				<stop  offset="8.527380e-02" style="stop-color:#4432F6"/>
				<stop  offset="0.301" style="stop-color:#423BEB"/>
				<stop  offset="0.682" style="stop-color:#3B53CD"/>
				<stop  offset="1" style="stop-color:#356BAF"/>
			</linearGradient>
			<path class="st29" d="M447.9,376.6c0,5.1,7.8,5.1,7.8,0C455.8,371.6,447.9,371.6,447.9,376.6L447.9,376.6z"/>
		</g>
	</g>
</g>
</svg>
