<?xml version="1.0" encoding="utf-8"?>
<!-- Generator: Adobe Illustrator 21.1.0, SVG Export Plug-In . SVG Version: 6.00 Build 0)  -->
<svg version="1.1" id="Layer_1" xmlns="http://www.w3.org/2000/svg" xmlns:xlink="http://www.w3.org/1999/xlink" x="0px" y="0px"
	 viewBox="0 0 500 500" style="enable-background:new 0 0 500 500;" xml:space="preserve">
<style type="text/css">
	.st0{fill:url(#SVGID_1_);}
	.st1{opacity:0.5;}
	.st2{fill:#FFFFFF;}
	.st3{fill:url(#SVGID_2_);}
	.st4{fill:url(#SVGID_3_);}
	.st5{fill:url(#SVGID_4_);}
	.st6{fill:url(#SVGID_5_);}
	.st7{fill:url(#SVGID_6_);}
	.st8{fill:url(#SVGID_7_);}
	.st9{clip-path:url(#SVGID_9_);}
	.st10{fill:#C0BBC4;}
	.st11{fill:#F70840;}
	.st12{fill:#FFB411;}
	.st13{opacity:0.43;fill:#FFFCE3;}
	.st14{fill:#E0AD20;}
	.st15{opacity:0.41;}
	.st16{fill:#FFFEFD;}
	.st17{fill:#FC231D;}
	.st18{opacity:0.65;fill:#C0BBC4;}
	.st19{fill:#AAA6AD;}
	.st20{fill:#D64C02;}
	.st21{fill:#A03C1A;}
	.st22{fill:#FFF0EB;}
	.st23{fill:#4DB8C4;}
	.st24{opacity:0.49;fill:#19663E;}
	.st25{opacity:0.49;}
	.st26{fill:#EA0C0C;}
	.st27{opacity:0.44;fill:#F9F9E8;}
	.st28{opacity:0.81;fill:#ECE6FF;}
	.st29{fill:#FBF3FF;}
	.st30{fill:#ADADAD;}
	.st31{fill:#8D8D8E;}
	.st32{fill:#CBC7DD;}
	.st33{opacity:0.81;fill:#B4ABD8;}
	.st34{fill:#FDE776;}
</style>
<g>
	
		<linearGradient id="SVGID_1_" gradientUnits="userSpaceOnUse" x1="561.6412" y1="-1256.2489" x2="879.8317" y2="-938.0584" gradientTransform="matrix(1 0 0 1 -448.8105 1378.4548)">
		<stop  offset="0" style="stop-color:#27ECB8"/>
		<stop  offset="1" style="stop-color:#A2D4CC"/>
	</linearGradient>
	<path class="st0" d="M188.6,76C55.6,106.7,59.9,298.4,59.9,298.4c2.2,163.6,199.4,192,244.1,183.2c44.7-8.7,185.3-13.1,185.3-183.2
		C489.4,298.4,485,30.5,188.6,76z"/>
	<g class="st1">
		<g>
			<path class="st2" d="M206.2,368.8c-18.1-14.4-30.6-34-36-56.4c-0.1,0-0.2,0-0.3,0.1c5.4,22.4,17.9,42.2,36.1,56.6
				c22,17.4,49.6,24.9,77.8,21.3c8.4-1.1,16.6-3.2,24.4-6.1c0-0.1,0-0.2-0.1-0.3c-7.8,3-16,5-24.4,6.1
				C255.7,393.6,228.1,386.1,206.2,368.8z"/>
			<path class="st2" d="M372.6,245.6c0.1,0,0.2-0.1,0.3-0.2c-6.4-17.9-17.7-33.6-32.8-45.7c-18.6-14.8-41.3-22.4-65-22.2
				c-0.1,0.1-0.1,0.2-0.2,0.3c23.7-0.3,46.4,7.3,65,22.1C355,212.1,366.2,227.8,372.6,245.6z"/>
			<path class="st2" d="M362.3,339.6c12.6-20.1,18.4-43.4,16.4-67c-0.1,0-0.2,0-0.3,0.1c2,23.5-3.8,46.8-16.4,66.8
				C362.1,339.5,362.2,339.5,362.3,339.6z"/>
			<path class="st2" d="M191,219.5c2.3-2.9,4.8-5.7,7.3-8.4c-0.1-0.1-0.2-0.1-0.3-0.2c-2.6,2.6-5,5.4-7.3,8.4
				c-9.4,11.8-16.1,25.1-20,39.2c0.1,0,0.2,0,0.3,0.1C175,244.5,181.7,231.3,191,219.5z"/>
		</g>
		<g>
			<path class="st2" d="M392.6,300.3c-2.6,16.4-8.4,32.1-17.3,46.4c0.1,0,0.3,0,0.4-0.1c8.8-14.3,14.6-30,17.1-46.3
				C392.8,300.3,392.7,300.3,392.6,300.3z"/>
			<path class="st2" d="M309.5,167.2c14.4,4.2,27.9,11.1,40,20.7c19.2,15.2,32.8,35.5,39.6,58.7c0.1-0.1,0.2-0.1,0.3-0.2
				c-6.9-23.2-20.5-43.6-39.7-58.8c-12.1-9.5-25.6-16.5-40-20.7C309.7,167,309.6,167.1,309.5,167.2z"/>
			<path class="st2" d="M285.4,405.6c16.5-2.2,32.2-7.6,46.3-15.8c-0.1-0.1-0.2-0.2-0.2-0.3c-14.1,8.2-29.6,13.5-46.1,15.7
				c-28.3,3.7-56.1-2.5-79.5-17.6c-0.1,0.1-0.1,0.2-0.2,0.3C229.1,403.1,257,409.3,285.4,405.6z"/>
			<path class="st2" d="M152,292c-1.1-29.5,8.4-58.3,27.1-81.9c9.1-11.5,19.8-21.1,31.8-28.6c-0.1-0.1-0.1-0.2-0.2-0.3
				c-12,7.5-22.7,17.2-31.8,28.6c-18.8,23.7-28.3,52.6-27.2,82.2C151.8,292,151.9,292,152,292z"/>
		</g>
		<g>
			<path class="st2" d="M345.7,166.2c4.6,2.8,9.1,5.9,13.4,9.4c27.4,21.7,44.7,52.7,49.2,87.7c0.1-0.1,0.2-0.1,0.4-0.2
				c-4.5-35-21.9-66.1-49.3-87.8c-4.3-3.4-8.8-6.5-13.4-9.4C345.9,166,345.8,166.1,345.7,166.2z"/>
			<path class="st2" d="M180,387.5c-0.1,0.1-0.2,0.2-0.3,0.3c2.2,2,4.5,3.9,6.8,5.8c28.3,22.4,64,32.2,100.3,27.4
				c26.4-3.4,50.9-14.2,71.1-31l-0.3-0.2c-20.2,16.7-44.6,27.5-70.9,30.9c-36.3,4.7-71.8-5-100-27.3
				C184.5,391.4,182.2,389.4,180,387.5z"/>
			<path class="st2" d="M138.1,308.5c-0.3-2.1-0.6-4.2-0.8-6.3c-3.7-36.4,6.9-72.4,29.9-101.5c20.4-25.7,48.3-43.3,79.6-50.2
				c0-0.1-0.1-0.2-0.1-0.4c-31.4,7-59.3,24.6-79.8,50.4c-23.1,29.1-33.7,65.3-30,101.8c0.2,2.1,0.5,4.2,0.8,6.3
				C137.8,308.5,137.9,308.5,138.1,308.5z"/>
		</g>
		<g>
			<path class="st2" d="M309.7,135.1c0.1-0.1,0.1-0.3,0.1-0.4c-16.9-3.8-34.5-4.6-52.3-2.2c-24.1,3.1-46.7,11.8-66.5,25.1
				c0,0.1,0.1,0.3,0.1,0.4c19.8-13.3,42.4-22,66.5-25.1C275.3,130.6,292.9,131.4,309.7,135.1z"/>
			<path class="st2" d="M425.2,282.7c0.1-6-0.2-12-0.8-18c-2.7-26.3-11.9-50.7-26.6-71.4c-0.1,0.1-0.2,0.2-0.3,0.4
				c14.6,20.6,23.8,44.9,26.4,71.1c0.6,6,0.9,12,0.8,18C424.9,282.7,425,282.7,425.2,282.7z"/>
			<path class="st2" d="M288.5,436.3c9.2-1.2,18.3-3.2,27-6c0.1-0.2,0.2-0.3,0.3-0.5c-8.8,2.8-18,4.9-27.4,6.1
				c-40.3,5.3-79.9-5.5-111.3-30.4c-31.4-24.9-51-60.9-55.1-101.3c-2.6-26,1.3-51.7,11.2-75.4c-0.2,0-0.3,0-0.5,0
				c-9.9,23.7-13.8,49.5-11.2,75.5c4.1,40.6,23.8,76.7,55.3,101.6C208.4,430.8,248,441.6,288.5,436.3z"/>
		</g>
		<g>
			<path class="st2" d="M228.6,448.3l0.3-0.4c-22.2-5.5-43.1-15.7-61.5-30.2c-34.6-27.4-56.2-67-60.7-111.6
				c-3.7-36.5,4.4-72.7,22.9-104.2c-0.1-0.1-0.2-0.2-0.4-0.3c-18.6,31.6-26.7,67.9-23,104.5c4.6,44.7,26.2,84.4,60.9,111.9
				C185.6,432.6,206.4,442.8,228.6,448.3z"/>
			<path class="st2" d="M310,118.9c-13.2-2.6-26.8-3.6-40.5-2.9c0,0.2,0.1,0.3,0.1,0.5c13.6-0.7,27.1,0.3,40.2,2.9
				C309.8,119.1,309.9,119,310,118.9z"/>
			<path class="st2" d="M429.8,221.7c0.1-0.1,0.2-0.2,0.4-0.3c-10.3-27.7-27.8-52-51.3-70.7c-20.1-15.9-43.2-26.6-67.7-31.6
				c-0.1,0.1-0.2,0.3-0.3,0.4c24.5,5,47.6,15.7,67.7,31.6C402.1,169.8,419.6,194.1,429.8,221.7z"/>
			<path class="st2" d="M334.6,439.1c0.1,0.1,0.3,0.2,0.4,0.3c26.2-11.2,49.5-28.9,67.8-52.1c0.9-1.2,1.8-2.4,2.7-3.6l-0.4-0.3
				c-0.9,1.2-1.8,2.4-2.7,3.6C384.2,410.1,360.9,427.9,334.6,439.1z"/>
		</g>
		<g>
			<path class="st2" d="M440.2,353.5c0.1,0.1,0.3,0.2,0.4,0.3c6.9-16,11.6-32.7,13.8-49.9c-0.2,0-0.3-0.1-0.5-0.1
				C451.7,320.8,447,337.6,440.2,353.5z"/>
			<path class="st2" d="M368.9,125c-18.7-11.1-39.2-18.6-60.6-22.2c0,0.2,0,0.3,0,0.5c21.3,3.6,41.6,11.1,60.2,22.1
				C368.7,125.2,368.8,125.1,368.9,125z"/>
			<path class="st2" d="M126.5,179.2c1.6-2.3,3.3-4.5,5.1-6.7c21.8-27.6,50.1-48.1,82-60c-0.1-0.1-0.1-0.3-0.2-0.4
				c-32,11.9-60.3,32.5-82.2,60.1c-1.8,2.2-3.5,4.5-5.1,6.8C126.2,179,126.3,179.1,126.5,179.2z"/>
			<path class="st2" d="M291.6,467c23.9-3.1,46.6-10.7,67.2-22.3c-0.1-0.1-0.2-0.2-0.4-0.4c-20.5,11.5-43.1,19.1-66.9,22.2
				c-32.9,4.3-65.4-0.3-94.7-13.1c-0.1,0.1-0.2,0.3-0.3,0.4C226,466.7,258.6,471.3,291.6,467z"/>
		</g>
		<g>
			<path class="st2" d="M426.5,405.9c-3,3.8-6.2,7.5-9.4,11.1l0.2,0.2c3.2-3.6,6.4-7.3,9.4-11.1c14.7-18.6,26-39.2,33.6-61.3
				c-0.1,0-0.2-0.1-0.3-0.1C452.4,366.8,441.2,387.3,426.5,405.9z"/>
			<path class="st2" d="M364.9,105.5c0.1-0.1,0.1-0.1,0.2-0.2c-11.6-5.8-23.9-10.5-36.6-13.8c-16.2-4.3-32.8-6.5-49.5-6.5
				c0,0.1,0,0.2,0,0.3c16.7,0,33.3,2.2,49.4,6.5C341.1,95,353.3,99.6,364.9,105.5z"/>
			<path class="st2" d="M470.9,267.9c-0.2-3.1-0.4-6.2-0.7-9.2c-2.4-23.3-8.7-45.6-18.8-66.3c-0.1,0-0.2,0-0.3,0
				c10.1,20.7,16.5,43,18.9,66.3c0.3,3.1,0.6,6.2,0.7,9.2C470.7,267.9,470.8,267.9,470.9,267.9z"/>
			<path class="st2" d="M75.7,305.8c-1.9-24.2,0.5-48.3,7.2-71.8c7.4-25.8,19.7-49.7,36.6-71c3.7-4.7,7.6-9.2,11.6-13.5
				c-0.1-0.1-0.1-0.1-0.2-0.2c-4,4.3-7.9,8.8-11.6,13.5c-16.9,21.3-29.2,45.3-36.6,71.1c-6.7,23.5-9.2,47.6-7.3,71.8
				C75.5,305.7,75.6,305.7,75.7,305.8z"/>
			<path class="st2" d="M347.3,467c0.1,0.1,0.1,0.1,0.2,0.2c6.2-2.7,12.4-5.7,18.3-9.1c18.9-10.6,35.9-24.1,50.7-40.1l-0.2-0.2
				c-14.7,16-31.7,29.4-50.6,40C359.7,461.2,353.6,464.2,347.3,467z"/>
		</g>
	</g>
	<g>
		<g>
			<g>
				
					<linearGradient id="SVGID_2_" gradientUnits="userSpaceOnUse" x1="1258.3318" y1="1319.6776" x2="1280.2592" y2="1319.6776" gradientTransform="matrix(0 -1 1 0 -1269.2057 1634.8112)">
					<stop  offset="0" style="stop-color:#27ECB8"/>
					<stop  offset="1" style="stop-color:#99D7B4"/>
				</linearGradient>
				<path class="st3" d="M61.8,365.5c0-14.6-22.7-14.6-22.7,0C39.1,380.1,61.8,380.1,61.8,365.5L61.8,365.5z"/>
			</g>
		</g>
		<g>
			<g>
				
					<linearGradient id="SVGID_3_" gradientUnits="userSpaceOnUse" x1="1500.2699" y1="1730.9724" x2="1522.1973" y2="1730.9724" gradientTransform="matrix(0 -1 1 0 -1269.2057 1634.8112)">
					<stop  offset="0" style="stop-color:#27ECB8"/>
					<stop  offset="1" style="stop-color:#99D7B4"/>
				</linearGradient>
				<path class="st4" d="M473.1,123.6c0-14.6-22.7-14.6-22.7,0C450.4,138.2,473.1,138.2,473.1,123.6L473.1,123.6z"/>
			</g>
		</g>
		<g>
			<g>
				
					<linearGradient id="SVGID_4_" gradientUnits="userSpaceOnUse" x1="1170.8818" y1="1736.6852" x2="1191.2625" y2="1736.6852" gradientTransform="matrix(0 -1 1 0 -1269.2057 1634.8112)">
					<stop  offset="8.527380e-02" style="stop-color:#4432F6"/>
					<stop  offset="0.301" style="stop-color:#423BEB"/>
					<stop  offset="0.682" style="stop-color:#3B53CD"/>
					<stop  offset="1" style="stop-color:#356BAF"/>
				</linearGradient>
				<path class="st5" d="M478,453.7c0-13.6-21.1-13.6-21.1,0C456.9,467.3,478,467.3,478,453.7L478,453.7z"/>
			</g>
		</g>
		<g>
			<g>
				
					<linearGradient id="SVGID_5_" gradientUnits="userSpaceOnUse" x1="1574.995" y1="1694.8691" x2="1592.6398" y2="1694.8691" gradientTransform="matrix(0 -1 1 0 -1269.2057 1634.8112)">
					<stop  offset="8.527380e-02" style="stop-color:#4432F6"/>
					<stop  offset="0.301" style="stop-color:#423BEB"/>
					<stop  offset="0.682" style="stop-color:#3B53CD"/>
					<stop  offset="1" style="stop-color:#356BAF"/>
				</linearGradient>
				<path class="st6" d="M434.8,51c0-11.8-18.2-11.8-18.2,0C416.5,62.8,434.8,62.8,434.8,51L434.8,51z"/>
			</g>
		</g>
		<g>
			<g>
				
					<linearGradient id="SVGID_6_" gradientUnits="userSpaceOnUse" x1="1545.9663" y1="1662.2435" x2="1553.8539" y2="1662.2435" gradientTransform="matrix(0 -1 1 0 -1269.2057 1634.8112)">
					<stop  offset="8.527380e-02" style="stop-color:#4432F6"/>
					<stop  offset="0.301" style="stop-color:#423BEB"/>
					<stop  offset="0.682" style="stop-color:#3B53CD"/>
					<stop  offset="1" style="stop-color:#356BAF"/>
				</linearGradient>
				<path class="st7" d="M397.1,84.9c0-5.3-8.2-5.3-8.2,0C389,90.2,397.1,90.2,397.1,84.9L397.1,84.9z"/>
			</g>
		</g>
		<g>
			<g>
				
					<linearGradient id="SVGID_7_" gradientUnits="userSpaceOnUse" x1="1503.6272" y1="1347.724" x2="1511.5146" y2="1347.724" gradientTransform="matrix(0 -1 1 0 -1269.2057 1634.8112)">
					<stop  offset="8.527380e-02" style="stop-color:#4432F6"/>
					<stop  offset="0.301" style="stop-color:#423BEB"/>
					<stop  offset="0.682" style="stop-color:#3B53CD"/>
					<stop  offset="1" style="stop-color:#356BAF"/>
				</linearGradient>
				<path class="st8" d="M82.6,127.2c0-5.3-8.2-5.3-8.2,0C74.4,132.5,82.6,132.5,82.6,127.2L82.6,127.2z"/>
			</g>
		</g>
	</g>
	<g>
		<defs>
			<path id="SVGID_8_" d="M62.7,161.2c-133,30.7,2.7,184.7,11.4,204.2c46.3,104.2,192.3,123.5,230,116.2
				c44.7-8.7,185.3-13.1,185.3-183.2c0,0-34.9-128.3-160.3-194.1C240.1,57.5,185.8,142.3,62.7,161.2z"/>
		</defs>
		<clipPath id="SVGID_9_">
			<use xlink:href="#SVGID_8_"  style="overflow:visible;"/>
		</clipPath>
		<g class="st9">
			<path class="st10" d="M236.4,504.7c-11.5,8.1-27.3,5.4-35.5-6.1L21.3,244.8c-8.1-11.5-5.4-27.3,6.1-35.5l84.9-60.1
				c11.5-8.1,27.3-5.4,35.5,6.1l179.7,253.8c6,8.5,6.1,19.4,1,27.8C323.6,444.9,324,441.8,236.4,504.7z"/>
			<g>
				<g>
					<g>
						<path class="st11" d="M120.2,192.4l-5.9,13.7c-2.1,5,0.2,10.8,5.1,12.9c5,2.1,10.8-0.2,12.9-5.1l5.9-13.7L120.2,192.4z"/>
						<path class="st12" d="M144.5,185.6c2.1-5-0.2-10.8-5.1-12.9c-5-2.1-10.8,0.2-12.9,5.1l-6.3,14.6l18.1,7.8L144.5,185.6z"/>
					</g>
					<path class="st13" d="M131.3,207.6l3.8-8.9l4.1-9.5c1.4-3.2-0.1-7-3.3-8.4c-3.2-1.4-7,0.1-8.4,3.3l-4.1,9.5l-3.8,8.9
						c-1.4,3.2,0.1,7,3.3,8.4C126.1,212.3,129.9,210.8,131.3,207.6z"/>
					<path class="st14" d="M119,207l5.9-13.7l6.3-14.6c1.5-3.5,4.8-5.7,8.3-5.9c-0.1,0-0.1-0.1-0.2-0.1c-5-2.1-10.8,0.2-12.9,5.1
						l-6.3,14.6l-5.9,13.7c-2.1,5,0.2,10.8,5.1,12.9c1.5,0.6,3.1,0.9,4.6,0.8C119.1,217.7,116.9,212,119,207z"/>
					<g class="st15">
						<path class="st16" d="M138.1,177.5c0.8-1.9,3.6-0.7,2.9,1.2l-14,34c-0.3,0.8-1.2,1.2-2,0.8
							C122.7,212.6,124.4,211.6,138.1,177.5z"/>
					</g>
				</g>
				<g>
					<g>
						<path class="st11" d="M142.8,224.5l-5.9,13.7c-2.1,5,0.2,10.8,5.1,12.9c5,2.1,10.8-0.2,12.9-5.1l5.9-13.7L142.8,224.5z"/>
						<path class="st12" d="M167.2,217.6c2.1-5-0.2-10.8-5.1-12.9c-5-2.1-10.8,0.2-12.9,5.1l-6.3,14.6l18.1,7.8L167.2,217.6z"/>
					</g>
					<path class="st13" d="M154,239.6l3.8-8.9l4.1-9.5c1.4-3.2-0.1-7-3.3-8.4c-3.2-1.4-7,0.1-8.4,3.3l-4.1,9.5l-3.8,8.9
						c-1.4,3.2,0.1,7,3.3,8.4C148.8,244.3,152.6,242.9,154,239.6z"/>
					<path class="st14" d="M141.7,239.1l5.9-13.7l6.3-14.6c1.5-3.5,4.8-5.7,8.3-5.9c-0.1,0-0.1-0.1-0.2-0.1
						c-5-2.1-10.8,0.2-12.9,5.1l-6.3,14.6l-5.9,13.7c-2.1,5,0.2,10.8,5.1,12.9c1.5,0.6,3.1,0.9,4.6,0.8
						C141.8,249.7,139.6,244,141.7,239.1z"/>
					<g class="st15">
						<path class="st16" d="M160.8,209.5c0.8-1.9,3.6-0.7,2.9,1.2l-14,34c-0.3,0.8-1.2,1.2-2,0.8C145.4,244.6,147,243.7,160.8,209.5
							z"/>
					</g>
				</g>
				<g>
					<g>
						<path class="st11" d="M165.5,256.5l-5.9,13.7c-2.1,5,0.2,10.8,5.1,12.9c5,2.1,10.8-0.2,12.9-5.1l5.9-13.7L165.5,256.5z"/>
						<path class="st12" d="M189.9,249.6c2.1-5-0.2-10.8-5.1-12.9c-5-2.1-10.8,0.2-12.9,5.1l-6.3,14.6l18.1,7.8L189.9,249.6z"/>
					</g>
					<path class="st13" d="M176.6,271.6l3.8-8.9l4.1-9.5c1.4-3.2-0.1-7-3.3-8.4c-3.2-1.4-7,0.1-8.4,3.3l-4.1,9.5l-3.8,8.9
						c-1.4,3.2,0.1,7,3.3,8.4C171.5,276.4,175.2,274.9,176.6,271.6z"/>
					<path class="st14" d="M164.4,271.1l5.9-13.7l6.3-14.6c1.5-3.5,4.8-5.7,8.3-5.9c-0.1,0-0.1-0.1-0.2-0.1
						c-5-2.1-10.8,0.2-12.9,5.1l-6.3,14.6l-5.9,13.7c-2.1,5,0.2,10.8,5.1,12.9c1.5,0.6,3.1,0.9,4.6,0.8
						C164.5,281.7,162.3,276,164.4,271.1z"/>
					<g class="st15">
						<path class="st16" d="M183.4,241.5c0.8-1.9,3.6-0.7,2.9,1.2l-14,34c-0.3,0.8-1.2,1.2-2,0.8C168,276.6,169.7,275.7,183.4,241.5
							z"/>
					</g>
				</g>
				<g>
					<g>
						<path class="st11" d="M188.2,288.5l-5.9,13.7c-2.1,5,0.2,10.8,5.1,12.9c5,2.1,10.8-0.2,12.9-5.1l5.9-13.7L188.2,288.5z"/>
						<path class="st12" d="M212.6,281.7c2.1-5-0.2-10.8-5.1-12.9c-5-2.1-10.8,0.2-12.9,5.1l-6.3,14.6l18.1,7.8L212.6,281.7z"/>
					</g>
					<path class="st13" d="M199.3,303.7l3.8-8.9l4.1-9.5c1.4-3.2-0.1-7-3.3-8.4c-3.2-1.4-7,0.1-8.4,3.3l-4.1,9.5l-3.8,8.9
						c-1.4,3.2,0.1,7,3.3,8.4C194.2,308.4,197.9,306.9,199.3,303.7z"/>
					<path class="st14" d="M187.1,303.1l5.9-13.7l6.3-14.6c1.5-3.5,4.8-5.7,8.3-5.9c-0.1,0-0.1-0.1-0.2-0.1
						c-5-2.1-10.8,0.2-12.9,5.1l-6.3,14.6l-5.9,13.7c-2.1,5,0.2,10.8,5.1,12.9c1.5,0.6,3.1,0.9,4.6,0.8
						C187.2,313.7,185,308,187.1,303.1z"/>
					<g class="st15">
						<path class="st16" d="M206.1,273.5c0.8-1.9,3.6-0.7,2.9,1.2l-14,34c-0.3,0.8-1.2,1.2-2,0.8
							C190.7,308.7,192.4,307.7,206.1,273.5z"/>
					</g>
				</g>
				<g>
					<g>
						<path class="st11" d="M210.9,320.5l-5.9,13.7c-2.1,5,0.2,10.8,5.1,12.9c5,2.1,10.8-0.2,12.9-5.1l5.9-13.7L210.9,320.5z"/>
						<path class="st12" d="M235.2,313.7c2.1-5-0.2-10.8-5.1-12.9c-5-2.1-10.8,0.2-12.9,5.1l-6.3,14.6l18.1,7.8L235.2,313.7z"/>
					</g>
					<path class="st13" d="M222,335.7l3.8-8.9l4.1-9.5c1.4-3.2-0.1-7-3.3-8.4c-3.2-1.4-7,0.1-8.4,3.3l-4.1,9.5l-3.8,8.9
						c-1.4,3.2,0.1,7,3.3,8.4C216.8,340.4,220.6,338.9,222,335.7z"/>
					<path class="st14" d="M209.7,335.1l5.9-13.7l6.3-14.6c1.5-3.5,4.8-5.7,8.3-5.9c-0.1,0-0.1-0.1-0.2-0.1
						c-5-2.1-10.8,0.2-12.9,5.1l-6.3,14.6l-5.9,13.7c-2.1,5,0.2,10.8,5.1,12.9c1.5,0.6,3.1,0.9,4.6,0.8
						C209.8,345.7,207.6,340.1,209.7,335.1z"/>
					<g class="st15">
						<path class="st16" d="M228.8,305.6c0.8-1.9,3.6-0.7,2.9,1.2l-14,34c-0.3,0.8-1.2,1.2-2,0.8
							C213.4,340.7,215.1,339.7,228.8,305.6z"/>
					</g>
				</g>
				<g>
					<g>
						<path class="st11" d="M233.5,352.6l-5.9,13.7c-2.1,5,0.2,10.8,5.1,12.9c5,2.1,10.8-0.2,12.9-5.1l5.9-13.7L233.5,352.6z"/>
						<path class="st12" d="M257.9,345.7c2.1-5-0.2-10.8-5.1-12.9c-5-2.1-10.8,0.2-12.9,5.1l-6.3,14.6l18.1,7.8L257.9,345.7z"/>
					</g>
					<path class="st13" d="M244.7,367.7l3.8-8.9l4.1-9.5c1.4-3.2-0.1-7-3.3-8.4c-3.2-1.4-7,0.1-8.4,3.3l-4.1,9.5l-3.8,8.9
						c-1.4,3.2,0.1,7,3.3,8.4C239.5,372.4,243.3,370.9,244.7,367.7z"/>
					<path class="st14" d="M232.4,367.2l5.9-13.7l6.3-14.6c1.5-3.5,4.8-5.7,8.3-5.9c-0.1,0-0.1-0.1-0.2-0.1
						c-5-2.1-10.8,0.2-12.9,5.1l-6.3,14.6l-5.9,13.7c-2.1,5,0.2,10.8,5.1,12.9c1.5,0.6,3.1,0.9,4.6,0.8
						C232.5,377.8,230.3,372.1,232.4,367.2z"/>
					<g class="st15">
						<path class="st16" d="M251.5,337.6c0.8-1.9,3.6-0.7,2.9,1.2l-14,34c-0.3,0.8-1.2,1.2-2,0.8
							C236.1,372.7,237.8,371.8,251.5,337.6z"/>
					</g>
				</g>
				<g>
					<g>
						<path class="st11" d="M256.2,384.6l-5.9,13.7c-2.1,5,0.2,10.8,5.1,12.9c5,2.1,10.8-0.2,12.9-5.1l5.9-13.7L256.2,384.6z"/>
						<path class="st12" d="M280.6,377.7c2.1-5-0.2-10.8-5.1-12.9c-5-2.1-10.8,0.2-12.9,5.1l-6.3,14.6l18.1,7.8L280.6,377.7z"/>
					</g>
					<path class="st13" d="M267.3,399.7l3.8-8.9l4.1-9.5c1.4-3.2-0.1-7-3.3-8.4c-3.2-1.4-7,0.1-8.4,3.3l-4.1,9.5l-3.8,8.9
						c-1.4,3.2,0.1,7,3.3,8.4C262.2,404.5,265.9,403,267.3,399.7z"/>
					<path class="st14" d="M255.1,399.2l5.9-13.7l6.3-14.6c1.5-3.5,4.8-5.7,8.3-5.9c-0.1,0-0.1-0.1-0.2-0.1
						c-5-2.1-10.8,0.2-12.9,5.1l-6.3,14.6l-5.9,13.7c-2.1,5,0.2,10.8,5.1,12.9c1.5,0.6,3.1,0.9,4.6,0.8
						C255.2,409.8,253,404.1,255.1,399.2z"/>
					<g class="st15">
						<path class="st16" d="M274.1,369.6c0.8-1.9,3.6-0.7,2.9,1.2l-14,34c-0.3,0.8-1.2,1.2-2,0.8
							C258.7,404.7,260.4,403.8,274.1,369.6z"/>
					</g>
				</g>
				<g>
					<g>
						<path class="st11" d="M278.9,416.6l-5.9,13.7c-2.1,5,0.2,10.8,5.1,12.9c5,2.1,10.8-0.2,12.9-5.1l5.9-13.7L278.9,416.6z"/>
						<path class="st12" d="M303.3,409.7c2.1-5-0.2-10.8-5.1-12.9c-5-2.1-10.8,0.2-12.9,5.1l-6.3,14.6l18.1,7.8L303.3,409.7z"/>
					</g>
					<path class="st13" d="M290,431.8l3.8-8.9l4.1-9.5c1.4-3.2-0.1-7-3.3-8.4c-3.2-1.4-7,0.1-8.4,3.3l-4.1,9.5l-3.8,8.9
						c-1.4,3.2,0.1,7,3.3,8.4C284.9,436.5,288.6,435,290,431.8z"/>
					<path class="st14" d="M277.8,431.2l5.9-13.7l6.3-14.6c1.5-3.5,4.8-5.7,8.3-5.9c-0.1,0-0.1-0.1-0.2-0.1
						c-5-2.1-10.8,0.2-12.9,5.1l-6.3,14.6l-5.9,13.7c-2.1,5,0.2,10.8,5.1,12.9c1.5,0.6,3.1,0.9,4.6,0.8
						C277.9,441.8,275.7,436.1,277.8,431.2z"/>
					<g class="st15">
						<path class="st16" d="M296.8,401.6c0.8-1.9,3.6-0.7,2.9,1.2l-14,34c-0.3,0.8-1.2,1.2-2,0.8
							C281.4,436.7,283.1,435.8,296.8,401.6z"/>
					</g>
				</g>
			</g>
			<g>
				<g>
					<g>
						<path class="st11" d="M58.7,235.9l-5.9,13.7c-2.1,5,0.2,10.8,5.1,12.9c5,2.1,10.8-0.2,12.9-5.1l5.9-13.7L58.7,235.9z"/>
						<path class="st12" d="M83.1,229.1c2.1-5-0.2-10.8-5.1-12.9c-5-2.1-10.8,0.2-12.9,5.1l-6.3,14.6l18.1,7.8L83.1,229.1z"/>
					</g>
					<path class="st13" d="M69.9,251.1l3.8-8.9l4.1-9.5c1.4-3.2-0.1-7-3.3-8.4c-3.2-1.4-7,0.1-8.4,3.3l-4.1,9.5l-3.8,8.9
						c-1.4,3.2,0.1,7,3.3,8.4C64.7,255.8,68.5,254.3,69.9,251.1z"/>
					<path class="st14" d="M57.6,250.5l5.9-13.7l6.3-14.6c1.5-3.5,4.8-5.7,8.3-5.9c-0.1,0-0.1-0.1-0.2-0.1c-5-2.1-10.8,0.2-12.9,5.1
						l-6.3,14.6l-5.9,13.7c-2.1,5,0.2,10.8,5.1,12.9c1.5,0.6,3.1,0.9,4.6,0.8C57.7,261.1,55.5,255.4,57.6,250.5z"/>
					<g class="st15">
						<path class="st16" d="M76.7,221c0.8-1.9,3.6-0.7,2.9,1.2l-14,34c-0.3,0.8-1.2,1.2-2,0.8C61.3,256.1,63,255.1,76.7,221z"/>
					</g>
				</g>
				<g>
					<g>
						<path class="st11" d="M81.4,268l-5.9,13.7c-2.1,5,0.2,10.8,5.1,12.9c5,2.1,10.8-0.2,12.9-5.1l5.9-13.7L81.4,268z"/>
						<path class="st12" d="M105.8,261.1c2.1-5-0.2-10.8-5.1-12.9c-5-2.1-10.8,0.2-12.9,5.1L81.4,268l18.1,7.8L105.8,261.1z"/>
					</g>
					<path class="st13" d="M92.5,283.1l3.8-8.9l4.1-9.5c1.4-3.2-0.1-7-3.3-8.4c-3.2-1.4-7,0.1-8.4,3.3l-4.1,9.5l-3.8,8.9
						c-1.4,3.2,0.1,7,3.3,8.4C87.4,287.8,91.2,286.3,92.5,283.1z"/>
					<path class="st14" d="M80.3,282.5l5.9-13.7l6.3-14.6c1.5-3.5,4.8-5.7,8.3-5.9c-0.1,0-0.1-0.1-0.2-0.1c-5-2.1-10.8,0.2-12.9,5.1
						L81.4,268l-5.9,13.7c-2.1,5,0.2,10.8,5.1,12.9c1.5,0.6,3.1,0.9,4.6,0.8C80.4,293.2,78.2,287.5,80.3,282.5z"/>
					<g class="st15">
						<path class="st16" d="M99.3,253c0.8-1.9,3.6-0.7,2.9,1.2l-14,34c-0.3,0.8-1.2,1.2-2,0.8C83.9,288.1,85.6,287.2,99.3,253z"/>
					</g>
				</g>
				<g>
					<g>
						<path class="st11" d="M104.1,300l-5.9,13.7c-2.1,5,0.2,10.8,5.1,12.9c5,2.1,10.8-0.2,12.9-5.1l5.9-13.7L104.1,300z"/>
						<path class="st12" d="M128.5,293.1c2.1-5-0.2-10.8-5.1-12.9c-5-2.1-10.8,0.2-12.9,5.1l-6.3,14.6l18.1,7.8L128.5,293.1z"/>
					</g>
					<path class="st13" d="M115.2,315.1l3.8-8.9l4.1-9.5c1.4-3.2-0.1-7-3.3-8.4c-3.2-1.4-7,0.1-8.4,3.3l-4.1,9.5l-3.8,8.9
						c-1.4,3.2,0.1,7,3.3,8.4C110.1,319.9,113.8,318.4,115.2,315.1z"/>
					<path class="st14" d="M103,314.6l5.9-13.7l6.3-14.6c1.5-3.5,4.8-5.7,8.3-5.9c-0.1,0-0.1-0.1-0.2-0.1c-5-2.1-10.8,0.2-12.9,5.1
						l-6.3,14.6l-5.9,13.7c-2.1,5,0.2,10.8,5.1,12.9c1.5,0.6,3.1,0.9,4.6,0.8C103.1,325.2,100.9,319.5,103,314.6z"/>
					<g class="st15">
						<path class="st16" d="M122,285c0.8-1.9,3.6-0.7,2.9,1.2l-14,34c-0.3,0.8-1.2,1.2-2,0.8C106.6,320.1,108.3,319.2,122,285z"/>
					</g>
				</g>
				<g>
					<g>
						<path class="st17" d="M126.8,332l-5.9,13.7c-2.1,5,0.2,10.8,5.1,12.9c5,2.1,10.8-0.2,12.9-5.1l5.9-13.7L126.8,332z"/>
						<path class="st12" d="M151.1,325.1c2.1-5-0.2-10.8-5.1-12.9c-5-2.1-10.8,0.2-12.9,5.1l-6.3,14.6l18.1,7.8L151.1,325.1z"/>
					</g>
					<path class="st13" d="M137.9,347.1l3.8-8.9l4.1-9.5c1.4-3.2-0.1-7-3.3-8.4c-3.2-1.4-7,0.1-8.4,3.3l-4.1,9.5l-3.8,8.9
						c-1.4,3.2,0.1,7,3.3,8.4C132.8,351.9,136.5,350.4,137.9,347.1z"/>
					<path class="st14" d="M125.7,346.6l5.9-13.7l6.3-14.6c1.5-3.5,4.8-5.7,8.3-5.9c-0.1,0-0.1-0.1-0.2-0.1
						c-5-2.1-10.8,0.2-12.9,5.1l-6.3,14.6l-5.9,13.7c-2.1,5,0.2,10.8,5.1,12.9c1.5,0.6,3.1,0.9,4.6,0.8
						C125.8,357.2,123.5,351.5,125.7,346.6z"/>
					<g class="st15">
						<path class="st16" d="M144.7,317c0.8-1.9,3.6-0.7,2.9,1.2l-14,34c-0.3,0.8-1.2,1.2-2,0.8C129.3,352.1,131,351.2,144.7,317z"/>
					</g>
				</g>
				<g>
					<g>
						<path class="st11" d="M149.4,364l-5.9,13.7c-2.1,5,0.2,10.8,5.1,12.9c5,2.1,10.8-0.2,12.9-5.1l5.9-13.7L149.4,364z"/>
						<path class="st12" d="M173.8,357.2c2.1-5-0.2-10.8-5.1-12.9c-5-2.1-10.8,0.2-12.9,5.1l-6.3,14.6l18.1,7.8L173.8,357.2z"/>
					</g>
					<path class="st13" d="M160.6,379.2l3.8-8.9l4.1-9.5c1.4-3.2-0.1-7-3.3-8.4c-3.2-1.4-7,0.1-8.4,3.3l-4.1,9.5l-3.8,8.9
						c-1.4,3.2,0.1,7,3.3,8.4C155.4,383.9,159.2,382.4,160.6,379.2z"/>
					<path class="st14" d="M148.3,378.6l5.9-13.7l6.3-14.6c1.5-3.5,4.8-5.7,8.3-5.9c-0.1,0-0.1-0.1-0.2-0.1
						c-5-2.1-10.8,0.2-12.9,5.1l-6.3,14.6l-5.9,13.7c-2.1,5,0.2,10.8,5.1,12.9c1.5,0.6,3.1,0.9,4.6,0.8
						C148.4,389.2,146.2,383.5,148.3,378.6z"/>
					<g class="st15">
						<path class="st16" d="M167.4,349c0.8-1.9,3.6-0.7,2.9,1.2l-14,34c-0.3,0.8-1.2,1.2-2,0.8C152,384.2,153.7,383.2,167.4,349z"/>
					</g>
				</g>
				<g>
					<g>
						<path class="st11" d="M172.1,396l-5.9,13.7c-2.1,5,0.2,10.8,5.1,12.9c5,2.1,10.8-0.2,12.9-5.1l5.9-13.7L172.1,396z"/>
						<path class="st12" d="M196.5,389.2c2.1-5-0.2-10.8-5.1-12.9c-5-2.1-10.8,0.2-12.9,5.1l-6.3,14.6l18.1,7.8L196.5,389.2z"/>
					</g>
					<path class="st13" d="M183.3,411.2l3.8-8.9l4.1-9.5c1.4-3.2-0.1-7-3.3-8.4c-3.2-1.4-7,0.1-8.4,3.3l-4.1,9.5l-3.8,8.9
						c-1.4,3.2,0.1,7,3.3,8.4C178.1,415.9,181.9,414.4,183.3,411.2z"/>
					<path class="st14" d="M171,410.6l5.9-13.7l6.3-14.6c1.5-3.5,4.8-5.7,8.3-5.9c-0.1,0-0.1-0.1-0.2-0.1c-5-2.1-10.8,0.2-12.9,5.1
						l-6.3,14.6l-5.9,13.7c-2.1,5,0.2,10.8,5.1,12.9c1.5,0.6,3.1,0.9,4.6,0.8C171.1,421.3,168.9,415.6,171,410.6z"/>
					<g class="st15">
						<path class="st16" d="M190,381.1c0.8-1.9,3.6-0.7,2.9,1.2l-14,34c-0.3,0.8-1.2,1.2-2,0.8C174.6,416.2,176.3,415.2,190,381.1z"
							/>
					</g>
				</g>
				<g>
					<g>
						<path class="st11" d="M194.8,428.1l-5.9,13.7c-2.1,5,0.2,10.8,5.1,12.9c5,2.1,10.8-0.2,12.9-5.1l5.9-13.7L194.8,428.1z"/>
						<path class="st12" d="M219.2,421.2c2.1-5-0.2-10.8-5.1-12.9c-5-2.1-10.8,0.2-12.9,5.1l-6.3,14.6l18.1,7.8L219.2,421.2z"/>
					</g>
					<path class="st13" d="M205.9,443.2l3.8-8.9l4.1-9.5c1.4-3.2-0.1-7-3.3-8.4c-3.2-1.4-7,0.1-8.4,3.3l-4.1,9.5l-3.8,8.9
						c-1.4,3.2,0.1,7,3.3,8.4C200.8,447.9,204.5,446.5,205.9,443.2z"/>
					<path class="st14" d="M193.7,442.7l5.9-13.7l6.3-14.6c1.5-3.5,4.8-5.7,8.3-5.9c-0.1,0-0.1-0.1-0.2-0.1
						c-5-2.1-10.8,0.2-12.9,5.1l-6.3,14.6l-5.9,13.7c-2.1,5,0.2,10.8,5.1,12.9c1.5,0.6,3.1,0.9,4.6,0.8
						C193.8,453.3,191.6,447.6,193.7,442.7z"/>
					<g class="st15">
						<path class="st16" d="M212.7,413.1c0.8-1.9,3.6-0.7,2.9,1.2l-14,34c-0.3,0.8-1.2,1.2-2,0.8C197.3,448.2,199,447.3,212.7,413.1
							z"/>
					</g>
				</g>
				<g>
					<g>
						<path class="st11" d="M217.5,460.1l-5.9,13.7c-2.1,5,0.2,10.8,5.1,12.9c5,2.1,10.8-0.2,12.9-5.1l5.9-13.7L217.5,460.1z"/>
						<path class="st12" d="M241.8,453.2c2.1-5-0.2-10.8-5.1-12.9c-5-2.1-10.8,0.2-12.9,5.1l-6.3,14.6l18.1,7.8L241.8,453.2z"/>
					</g>
					<path class="st13" d="M228.6,475.2l3.8-8.9l4.1-9.5c1.4-3.2-0.1-7-3.3-8.4c-3.2-1.4-7,0.1-8.4,3.3l-4.1,9.5l-3.8,8.9
						c-1.4,3.2,0.1,7,3.3,8.4C223.5,480,227.2,478.5,228.6,475.2z"/>
					<path class="st14" d="M216.4,474.7l5.9-13.7l6.3-14.6c1.5-3.5,4.8-5.7,8.3-5.9c-0.1,0-0.1-0.1-0.2-0.1
						c-5-2.1-10.8,0.2-12.9,5.1l-6.3,14.6l-5.9,13.7c-2.1,5,0.2,10.8,5.1,12.9c1.5,0.6,3.1,0.9,4.6,0.8
						C216.5,485.3,214.2,479.6,216.4,474.7z"/>
					<g class="st15">
						<path class="st16" d="M235.4,445.1c0.8-1.9,3.6-0.7,2.9,1.2l-14,34c-0.3,0.8-1.2,1.2-2,0.8C220,480.2,221.7,479.3,235.4,445.1
							z"/>
					</g>
				</g>
			</g>
			<polygon class="st18" points="320.6,445.1 298.9,460.4 169.9,454.7 158,437.9 			"/>
			<path class="st18" d="M328.5,436.9l-176.7-7.8L121.9,387l196,8.7C321,402.2,340.2,417.5,328.5,436.9z"/>
			<polygon class="st18" points="314.6,391 118.6,382.3 101.3,357.8 297.3,366.5 			"/>
			<path class="st19" d="M260.6,459L84.6,210.5c-2.3-3.3-1.6-7.9,1.7-10.2l0,0c3.3-2.3,7.9-1.6,10.2,1.7l175.9,248.5
				c2.3,3.3,1.6,7.9-1.7,10.2l0,0C267.5,463,262.9,462.3,260.6,459z"/>
		</g>
		<g class="st9">
			<path class="st20" d="M330.4,255.8H213.8l-13.8,16.9c-13.9,17-21.2,36.3-21.2,55.9v149.7c0,12.5,14.4,22.6,32.2,22.6h122.1
				c17.8,0,32.2-10.1,32.2-22.6V328.6c0-19.6-7.3-38.9-21.2-55.9L330.4,255.8z"/>
			<path class="st21" d="M344.2,272.7l-13.8-16.9H314l9.7,11.9c13.9,17,21.2,36.3,21.2,55.9v149.7c0,12.5-14.4,22.6-32.2,22.6H190.8
				c5.5,3.2,12.6,5,20.3,5h122.1c17.8,0,32.2-10.1,32.2-22.6V328.6C365.4,309,358.1,289.7,344.2,272.7z"/>
			<path class="st20" d="M337.1,255.8L337.1,255.8c0-8-5.7-14.5-12.6-14.5H219.7c-7,0-12.6,6.4-12.6,14.4v0.1H337.1z"/>
			<path class="st20" d="M337.1,255.8L337.1,255.8c0-8-5.7-14.5-12.6-14.5H219.7c-7,0-12.6,6.4-12.6,14.4v0.1H337.1z"/>
			<path class="st21" d="M324.5,241.3h-51.8c7,0,12.6,6.4,12.6,14.4v0.1h51.8v-0.1C337.1,247.8,331.5,241.3,324.5,241.3z"/>
			<path class="st22" d="M306.2,133.1h-68.5c-8.4,0-15.3,6.8-15.3,15.3v8.1v84.9h99v-84.9v-8.1C321.4,139.9,314.6,133.1,306.2,133.1
				z"/>
			<rect x="273.2" y="156.4" class="st22" width="48.3" height="84.9"/>
			<rect x="220.3" y="216.3" class="st23" width="103.7" height="25"/>
			<rect x="274.2" y="216.3" class="st24" width="49.8" height="25"/>
			<g class="st25">
				<rect x="224.6" y="216.3" class="st22" width="4.5" height="25"/>
				<rect x="235.9" y="216.3" class="st22" width="4.5" height="25"/>
				<rect x="247.1" y="216.3" class="st22" width="4.5" height="25"/>
				<rect x="258.4" y="216.3" class="st22" width="4.5" height="25"/>
				<rect x="269.7" y="216.3" class="st22" width="4.5" height="25"/>
				<rect x="281" y="216.3" class="st22" width="4.5" height="25"/>
				<rect x="292.3" y="216.3" class="st22" width="4.5" height="25"/>
				<rect x="303.5" y="216.3" class="st22" width="4.5" height="25"/>
				<rect x="314.8" y="216.3" class="st22" width="4.5" height="25"/>
			</g>
			<rect x="178.9" y="336.3" class="st2" width="157.2" height="106.5"/>
			<rect x="178.9" y="425.7" class="st23" width="157.2" height="17"/>
			<path class="st26" d="M317.2,361.3h-88c-3.3,0-6-2.7-6-6l0,0c0-3.3,2.7-6,6-6h88c3.3,0,6,2.7,6,6l0,0
				C323.2,358.6,320.5,361.3,317.2,361.3z"/>
			<path class="st26" d="M317.2,378h-88c-3.3,0-6-2.7-6-6l0,0c0-3.3,2.7-6,6-6h88c3.3,0,6,2.7,6,6l0,0
				C323.2,375.3,320.5,378,317.2,378z"/>
			<path class="st22" d="M306.2,133.1h-48.3c8.4,0,15.3,6.8,15.3,15.3v8.1h48.3v-8.1C321.4,139.9,314.6,133.1,306.2,133.1z"/>
			<path class="st22" d="M247.3,206.5L247.3,206.5c-8.3,0-15.2-6.8-15.2-15.2v-33.6c0-8.3,6.8-15.2,15.2-15.2l0,0
				c8.3,0,15.2,6.8,15.2,15.2v33.6C262.5,199.7,255.6,206.5,247.3,206.5z"/>
			<ellipse class="st27" cx="254.1" cy="303.3" rx="63.3" ry="25.3"/>
		</g>
		<g class="st9">
			<path class="st28" d="M459.9,381.1c0,97.3,0.1,91.6-0.1,92.8c-0.7,7.2-6.7,12.8-14.1,12.8H331.6c-7.8,0-14.1-6.4-14.1-14.1v-90.7
				c0-19.6,8.4-37.7,22.1-47.3c4.1-2.9,7.8-6.6,10.9-10.8h0.9c-3.9,0-7-3.1-7-7c0-0.1,0-0.1,0-0.2h7V284c-0.3,0-2.9,0.3-5.3-2
				c-1.4-1.4-2-3-2-5.2h88.8c0,0.1,0,0.1,0,0.2c0,3.9-3.1,7-7,7h-0.3v32.6h7.6c0,4.5-3.4,7.2-7,7.2h0.7c3.3,4,6.9,7.2,10.6,9.6
				C451.4,342.7,459.9,361.2,459.9,381.1z"/>
			<g>
				<circle class="st29" cx="356.9" cy="460.4" r="25"/>
				<path class="st30" d="M344.1,475.1l28.4-28.4C363.4,453.6,351.3,465.8,344.1,475.1z"/>
				<path class="st31" d="M344.1,475.1c-0.2,0.3-0.5,0.7-0.8,1c9.4-7.1,22.1-19.9,29.2-29.4l0,0L344.1,475.1z"/>
			</g>
			<g>
				<circle class="st29" cx="407.8" cy="457.2" r="25"/>
				<path class="st30" d="M395,471.9l28.4-28.4C414.3,450.4,402.2,462.6,395,471.9z"/>
				<path class="st31" d="M395,471.9c-0.2,0.3-0.5,0.7-0.8,1c9.4-7.1,22.2-19.9,29.2-29.4l0,0L395,471.9z"/>
			</g>
			<g>
				<circle class="st29" cx="344.1" cy="414.7" r="25"/>
				<path class="st30" d="M331.3,429.4l28.4-28.4C350.7,407.8,338.5,420,331.3,429.4z"/>
				<path class="st31" d="M331.3,429.4c-0.2,0.3-0.5,0.7-0.8,1c9.4-7.1,22.2-19.9,29.2-29.4l0,0L331.3,429.4z"/>
			</g>
			<path class="st2" d="M440.5,269.8c0-2.9-2.3-5.2-5.2-5.2h-95.5c-3.5,0-5.3,3-5.3,6h106V269.8z"/>
			<path class="st32" d="M334.5,270.5c0,3.1,1.7,6.2,5.3,6.2h95.5c2.9,0,5.2-2.3,5.2-5.2v-1H334.5z"/>
			<g>
				<polygon class="st2" points="422.1,337.4 354.9,337.4 354.9,276.7 359.9,276.7 359.9,332.3 417,332.3 417,276.7 422.1,276.7 
									"/>
			</g>
			<path class="st33" d="M459.9,381.1v91.5c0,0.5,0,0.9-0.1,1.3c-0.7,7.2-6.7,12.8-14.1,12.8h-20.3c1.4-28,4.5-103.4-0.6-123.8
				c-6.3-25.2-31.9-37.8-31.9-37.8v-48.5h39.7c0,0.1,0,0.1,0,0.2c0,3.9-3.1,7-7,7h-0.3v32.6h7.6c0,0.1,0,0.2,0,0.2c0,3.9-3.1,7-7,7
				h0.7c3.3,4,6.9,7.2,10.6,9.6C451.4,342.7,459.9,361.2,459.9,381.1z"/>
			<path class="st28" d="M419.5,479c0,2.6,0,5.2-0.1,7.7h-87.8c-3.8,0-7.3-1.5-9.8-4c0-1.2,0-2.5,0-3.7c0-72,21.9-130.3,48.9-130.3
				C397.7,348.7,419.5,407.1,419.5,479z"/>
			<rect x="335.2" y="365.9" class="st34" width="105.3" height="81.8"/>
		</g>
	</g>
</g>
</svg>
